<svg id="copenhagenILU" xmlns="http://www.w3.org/2000/svg" viewBox="0 0 485 512.09"><defs><style>.cls-1{fill:none;stroke:#000;stroke-linecap:round;stroke-linejoin:round;stroke-width:2px;}</style></defs><title>copenhagensvg</title><g id="Layer_2" data-name="Layer 2"><g id="Layer_1-2" data-name="Layer 1"><path id="house3" class="cls-1" d="M282.71,257.42V475.36l-91.65.27L192.22,305l7.52-46.14s.58-2.22,2.31-2.22S282.71,257.42,282.71,257.42Z"/><path id="house2" class="cls-1" d="M191.35,331.36H133l-16.48,47-6.36,13.9-.87,83.39h81.81Z"/><path id="house4" class="cls-1" d="M283.58,322.19c1,.09,1.92.26,2.89.26q21.52,0,43.07,0c8.67,0,27.75-.19,28.62-.28L359,475.63H283.58l-1.07-1.05Z"/><path id="house1" class="cls-1" d="M46.52,326.64l79.21.55s7.42-.3,6.31,5.14-21.92,59.35-21.92,59.35l-.87,83.95-104.7-.1-.24-112.2H1.42l2.31-2.22,18.21-9.31s6-5,8.63-9S43.63,326.64,46.52,326.64Z"/><path id="house5" class="cls-1" d="M359,475.63H476.69L477,306.9H410.2q-24,0-48,0c-1,0-1.93.18-2.89.27Z"/><path class="cls-1" d="M283.29,280.21H466.86c3.28,0,6.56.13,9.83,0a13.44,13.44,0,0,0,5.17-1.13c2.92-1.46,2.9-3.42-.3-4.83a20.57,20.57,0,0,0-8.05-1.7q-93.66-.13-187.33-.06c-1,0-1.93.18-2.89.27"/><path class="cls-1" d="M477.56,272.43c0-3.34-.05-6.67,0-10,0-1.3-.4-1.72-1.76-1.69-3.17.08-6.36,0-9.54,0h-183"/><path class="cls-1" d="M468.89,256.86H236.74c-11.56,0-23.13,0-34.69,0-1.78,0-2.4.33-2.69,2.25-1.34,8.83-3,17.61-4.55,26.41-.21,1.22-.57,2.41-.85,3.62l-.87,3.61c0,1.76.33,3.59-.06,5.27-2,8.85-.74,17.8-1.08,26.7-.12,3.24,0,6.49,0,9.73q0,48.09,0,96.18a16.7,16.7,0,0,1-.84,3.61"/><path class="cls-1" d="M477,363.05H283.29"/><path class="cls-1" d="M295.72,221.34a21.08,21.08,0,0,1-.28-2.49q0-15.66,0-31.32c0-1.07-3.26-3.61-4.63-3.63-1.17,0-4.62,2.65-4.62,3.63q0,18.15,0,36.31a4.56,4.56,0,0,0,.28,1.13"/><path class="cls-1" d="M363.94,296.06h-.57c-4.92,0-4.95,0-4.91,4.72.06,6.86.25,13.72.27,20.57q.18,59.49.3,119c0,11.77,0,23.54,0,35.3"/><path class="cls-1" d="M5.18,263H196.85a4.8,4.8,0,0,1,1.15.27"/><path class="cls-1" d="M466.57,272.86c-.28-7.7-2.53-15.12-5.23-22.46-.59-1.63-1.59-3.17-2.24-4.79a5.51,5.51,0,0,1,0-2"/><path class="cls-1" d="M456.17,238.82a92.75,92.75,0,0,0-20.86-22.44A108.27,108.27,0,0,0,405.86,200"/><path class="cls-1" d="M402.68,200c-1.54-.15-3.08-.43-4.62-.43-13.4,0-26.79,0-40.19,0-3.27,0-6.55,0-9.83,0a3.4,3.4,0,0,0-1.71.45A82.34,82.34,0,0,0,320,228.82a90.35,90.35,0,0,0-10,27.7c-.94,5.43-1.57,10.89-2.34,16.34"/><path class="cls-1" d="M127.17,326.92c3.34.37,5.66,3.67,4.62,6.66-3,8.81-6.16,17.61-9.24,26.41-1.65,4.73-3.18,9.49-4.94,14.17-1.91,5-4,10-6.06,15-.39,1-1,1.86-1.43,2.78L109,363.33l19.08-35v-1.11"/><path class="cls-1" d="M128.33,327.47q-8.82,16.68-17.62,33.36a3.94,3.94,0,0,1-4.06,2.28c-11,0-22,.16-33,.21q-33,.18-65.91.27c-3.18,0-3.47-.17-6.65-.26l2.35-2.16c3-1.75,6.13-3.21,9.21-4.79,4-2,8.33-3.58,11.73-6.26,3.1-2.46,5.14-6.16,7.64-9.31l.58-1.11a36.73,36.73,0,0,0,3.16-2.8c2.56-2.82,5.16-5.63,7.48-8.64,1-1.32,2.13-1.36,3.53-1.36q39.32,0,78.63,0a16.62,16.62,0,0,1,1.73,0Z"/><path class="cls-1" d="M358.45,199.79c-7,8.58-10.86,18.11-13.86,27.91a131,131,0,0,0-5.22,25q-1,10.09-2,20.2"/><path class="cls-1" d="M381,200c1.35,4.62,3,9.19,4,13.85,1.51,7,2.81,14,3.76,21.1s1.46,14.37,2.07,21.56c.47,5.44.79,10.89,1.18,16.34"/><path class="cls-1" d="M365.39,200c-1.25,4.16-2.75,8.29-3.7,12.49-1.3,5.72-2.35,11.48-3.2,17.24-1.13,7.7-2,15.43-2.91,23.15-.34,2.94-.42,5.9-.59,8.85-.22,3.7-.39,7.41-.59,11.12"/><path class="cls-1" d="M387.94,199.79c7,8.56,11,18.09,13.79,27.92a195.75,195.75,0,0,1,4.63,21.1c1.3,7.76,2,15.57,3,23.37,0,.21-.18.45-.28.68"/><path class="cls-1" d="M398.92,199.79A101.53,101.53,0,0,1,414,212.69c10,10.93,16.05,23.13,19.9,36.11a135.16,135.16,0,0,1,4.33,24.06"/><path class="cls-1" d="M337.35,202.05c-.48.69-.76,1.57-1.48,2a86.92,86.92,0,0,0-27.66,27.51,71.56,71.56,0,0,0-9.82,22.22c-1.49,6.31-2.38,12.7-3.54,19.06"/><path class="cls-1" d="M404.42,200.47c.38.53.6,1.24,1.18,1.56a84.78,84.78,0,0,1,32.57,31.59,83.64,83.64,0,0,1,11.05,30.61c.45,2.87.78,5.75,1.16,8.63"/><path class="cls-1" d="M192.51,328.3h89.62"/><path class="cls-1" d="M282.13,325.8H192.51"/><path class="cls-1" d="M41.31,72.25c-.09,2.5-.4,5-.24,7.49.34,5.3.93,10.59,1.4,15.89.59,6.8,1.19,13.61,1.72,20.42.44,5.67.79,11.35,1.17,17,.11,1.66.19,3.33.29,5"/><path class="cls-1" d="M37.84,71.57a63.15,63.15,0,0,1,.26,6.58c-.37,5.83-.91,11.65-1.42,17.48-.55,6.28-1.2,12.55-1.71,18.83-.46,5.67-.8,11.35-1.17,17-.21,3.25-.19,6.52-.68,9.75-.2,1.34-1.42,2.59-2.22,3.86-2.49,3.95-1.78,7.79.58,11.58l.58.91"/><path class="cls-1" d="M37.27,71.57c-.68,2.42-1.43,4.83-2,7.27-1.31,5.51-2.48,11-3.79,16.56-1.58,6.66-3,13.35-5,20-2.06,7.15-4.4,14.27-7,21.31-.64,1.75-2,3.32-1.61,5.25"/><path class="cls-1" d="M63,157.58c4.81-4.11,5-10.8-.57-14.54-.5-.34-1.19-.95-1.1-1.34.5-2.32-1.7-3.93-2.33-5.92-2.82-8.9-5.57-17.82-8.1-26.77-1.42-5-2.33-10.13-3.52-15.2Q45.7,86.66,43.9,79.52c-.59-2.36-1.33-4.69-2-7l-1.73-9.76c1.28-1.09,3.68-1.77,2.05-3.87-.71-.91-1.56-1.7-2.89-1.29a4.87,4.87,0,0,0-2.78,1.8c-.31.62.54,1.66,1.05,2.44.26.39.93.62,1.41.92"/><path class="cls-1" d="M109.25,475.63q0-53.37,0-106.74c0-1.85-.18-3.71-.28-5.56L4.6,364.16v5.29q0,51.84,0,103.68c0,2.25.6,2.85,2.94,2.84,11.18,0,22.36.22,33.53.2,22.26,0,44.53-.21,66.79-.24,10.5,0,21,.25,31.51.24,16.38,0,32.76-.19,49.14-.25,10.12,0,20.24,0,30.36,0H473.51c4.05,0,4.05,0,4.05-3.89V280.77"/><path class="cls-1" d="M87.86,281.33q-37.44,0-74.88,0c-2.6,0-5.2.17-7.8.26"/><path class="cls-1" d="M196.56,272.15c-9.54,0-19.08,0-28.62,0-19.85-.08-39.71-.27-59.56-.26q-49.57,0-99.16.26c-1.35,0-2.69,0-4,0"/><path class="cls-1" d="M120.81,475.63V382c0-3.73,0-3.72-3.46-4.45a2.55,2.55,0,0,1-.58-.27l1.73-3.89c2.31-3,4.73-5.87,6.92-8.91,6.8-9.42,13.5-18.9,20.27-28.34,1.71-2.39,1.78-2.35,3.45,0,9.45,13.25,19,26.45,28.24,39.81a3.9,3.9,0,0,0,3.86,1.89c3.37,0,6.74,0,10.11,0l-.29,98.13-70.25-.28"/><path class="cls-1" d="M436.22,465.63c0-10.29-.06-20.57,0-30.86,0-2-.53-2.66-2.66-2.55-3.46.18-6.93.12-10.4,0-1.77-.05-2.39.37-2.37,2.25.11,12,.06,23.91.06,35.86"/><path class="cls-1" d="M167.36,272.71c-.44,2.87-.61,2.9-4.05,2.8-3.75-.1-7.51,0-11.27,0H91.91c-.78,0-1.55,0-2.32,0-3.47.22-3.47.22-3.47-3.07"/><path class="cls-1" d="M74,252.66c0-5.22-.07-10.44,0-15.66,0-1.6-.6-2.1-2.64-2.07-6.46.09-12.91,0-19.37,0a3.21,3.21,0,0,1-1.71-.46c-1.32-.92-2.44-2-3.8-2.91a10,10,0,0,0-12.08.47,12.2,12.2,0,0,1-9.3,3c-5.18-.29-10.4-.11-15.61-.05-1.73,0-3.46.37-5.2.4-1.06,0-3-.15-3-.44-.27-1.16-.56-3.05.24-3.5,4.35-2.5,5.54-6.11,6.55-9.87"/><path class="cls-1" d="M276.35,470.07c.09-1.85.27-3.7.27-5.56,0-7.22-.05-14.45.06-21.68,0-1.82-.46-2.36-2.36-2.26-3.07.15-6.16.09-9.25,0-1.52,0-2.05.5-2,2,0,8.71,0,17.42,0,26.13a4.41,4.41,0,0,0,.56,1.39"/><path class="cls-1" d="M296.58,183.45c-1.34-.46-2.94-.69-4-1.42-1.58-1.1-2.76-.59-4.11.06a4.18,4.18,0,0,1-.87.44c-4.6,1-4.74,3.68-4.69,6.82.17,11.42.06,22.84.08,34.26a25.25,25.25,0,0,0,.28,2.73"/><path class="cls-1" d="M256.11,162.57a9.88,9.88,0,0,1-.55-2.27c-.05-6.28-.08-12.56,0-18.83,0-1.58-1.51-1.79-2.59-2.55-1.4-1-1.62.21-2.37.5-1.85.72-2.09,1.89-2.06,3.41.11,6.5,0,13,.07,19.51a12.31,12.31,0,0,0,.55,2.5"/><path class="cls-1" d="M46.23,475.63c-.1-2.87-.26-5.74-.28-8.61,0-7.51-.08-15,0-22.52,0-1.82-.47-2.39-2.37-2.26-2.49.16-5,.1-7.51,0-1.54-.05-2.09.36-2.07,2,.1,8,.05,15.94.05,23.91"/><path class="cls-1" d="M296.58,159.17c-6,4.58-13.23,7.65-20.83,10.17-6.66,2.21-13.44,4.19-20.23,6.15-7.94,2.29-15.25,5.37-20.08,11-1.17,1.37-.68,3.71-.7,5.6-.06,8.32,0,16.64,0,25v21.33"/><path class="cls-1" d="M296.58,162.34a89.44,89.44,0,0,1-21.11,9.74c-7.08,2.36-14.17,4.75-21.41,6.77-6.69,1.88-12.8,4.22-17.06,8.89-.25.28-.93.32-1.41.47"/><path class="cls-1" d="M137.29,475.63a28.35,28.35,0,0,1-1.1-4.45c-.19-2.21-.05-4.44-.05-6.67,0-6.76,0-13.52,0-20.29,0-1.56-.43-2.05-2.06-2-2.88.12-5.78,0-8.67,0-1,0-1.81,0-1.76,1.4.25,7.41.42,14.82.59,22.23a17.85,17.85,0,0,1-.28,2.51"/><path class="cls-1" d="M359.61,465.63H477"/><path class="cls-1" d="M277.22,228.15a21,21,0,0,1-.28-2.5c0-10.74-.06-21.48,0-32.22a3.08,3.08,0,0,0-2.36-3.42c-2-.69-4-2.24-5.76-2.07-2.34.23-4.49,1.74-6.65,2.81-.4.19-.58.87-.58,1.32q0,20,0,39.94a5,5,0,0,0,.27,1.13"/><path class="cls-1" d="M359.61,461.73h60.71"/><path class="cls-1" d="M255.53,235a14,14,0,0,1-.55-2.72c0-10.29-.08-20.58,0-30.87a3.31,3.31,0,0,0-2.37-3.39c-1.52-.65-3.09-1.21-4.62-1.83-.23-.1-.49-.46-.57-.43-2.33,1-4.73,1.84-6.89,3-.65.35-.89,1.45-.89,2.21q-.07,23.72,0,47.43"/><path class="cls-1" d="M326.07,475.63c-.09-3.15-.23-6.3-.28-9.45,0-3.61-.09-7.23,0-10.84.05-1.56-.43-2.08-2.06-2-2.89.19-5.78.21-8.67.3v22"/><path class="cls-1" d="M355,475.63c-.09-3.15-.23-6.3-.28-9.45,0-3.61-.09-7.23,0-10.84,0-1.56-.43-2.08-2.06-2-2.89.19-5.78.21-8.67.3v22"/><path class="cls-1" d="M274,229.29a21.48,21.48,0,0,1-.28-2.5q0-16.33,0-32.68c0-1.47-2.76-3.63-4.62-3.63-1.3,0-4.61,2.37-4.61,3.41q0,18.6,0,37.21a5.24,5.24,0,0,0,.27,1.14"/><path class="cls-1" d="M252.35,236.32a11.67,11.67,0,0,1-.55-2.5c0-10.43,0-20.87-.06-31.31a3.22,3.22,0,0,0-.91-2.44,6.28,6.28,0,0,0-3.67-1.52,8.12,8.12,0,0,0-4,1.75c-.58.42-.62,1.45-.62,2.21,0,12,0,23.9,0,35.85"/><path class="cls-1" d="M280.68,254.47c-1.15-.07-2.31-.21-3.46-.21q-22.56,0-45.1,0c-2.22,0-4.45.26-6.65.16-1.11,0-2.42-.29-2.36-1.76.21-4.79-.77-4,5.25-4.08,9.54-.09,19.08-.21,28.62-.22,8,0,16,.15,24,.21,2.95,0,3-.29,2.67-2.5a56.68,56.68,0,0,1-.35-7"/><path class="cls-1" d="M157,237.23h-4.33q-23.13,0-46.26,0c-2.12,0-4.24-.14-6.36-.22"/><path class="cls-1" d="M252.64,109.24c-5.11,1.55-8.09,4.82-8.09,8.85q0,23.15,0,46.3a21.08,21.08,0,0,0,.28,2.49"/><path class="cls-1" d="M84.1,473.69a6.2,6.2,0,0,0,.83-1.95c.1-2.5-.07-5,.08-7.5.09-1.61-.56-2-2.07-2-3.27.06-6.55.07-9.83,0-1.35,0-1.8.39-1.76,1.69.09,2.5.12,5,0,7.5-.08,1.72.55,2.32,2.34,2.26,3.37-.11,6.75,0,10.12,0"/><path class="cls-1" d="M236.45,475.63a11.8,11.8,0,0,1-.55-2.5c0-4.17.16-8.34.27-12.51,0-1.21-.59-1.44-1.74-1.41-3.37.07-6.75.12-10.12,0-1.68-.07-2.08.51-2.05,2,.08,3.89.05,7.78,0,11.67,0,.93-.18,1.86-.27,2.78"/><path class="cls-1" d="M228.36,305.23c0,4.08,0,8.16,0,12.23,0,1.29.12,2,1.76,2q6.65-.13,13.3,0c1.64,0,1.78-.69,1.76-2-.07-4.07,0-8.15,0-12.23"/><path class="cls-1" d="M146.54,357.77a7.46,7.46,0,0,1-1.72-.3c-2.89-1.19-2.89-1.21-2.9,1.69,0,3.06.05,6.12,0,9.17,0,1.45.37,2.11,2,2a37,37,0,0,1,5.77,0c1.67.13,2.08-.53,2.05-2-.07-3.24-.05-6.48,0-9.73,0-1.49-.47-2-2-1.4-.92.37-1.92.57-2.89.85"/><path class="cls-1" d="M202.05,305.23c0,4.08.07,8.16,0,12.23,0,1.56.44,2,2.07,2,4.23-.1,8.48-.1,12.71,0,1.63.05,2.11-.42,2.07-2-.12-4.07,0-8.15,0-12.23"/><path class="cls-1" d="M171.12,439.22c0,9.82-.06,19.64,0,29.46,0,2-.57,2.73-2.65,2.53-3-.28-6-.39-9-.58"/><path class="cls-1" d="M154.64,237.91a5.12,5.12,0,0,1-4,1.4q-21.1-.12-42.21,0a5.09,5.09,0,0,1-4-1.4"/><path class="cls-1" d="M340.82,200c0-2.81-1.38-5.7.84-8.4a5.49,5.49,0,0,1,4.65-2c2.79,0,5.59,0,8.38,0h44.23c4.65,0,7,1.81,6.93,5.45,0,1.59-.18,3.18-.28,4.77"/><path class="cls-1" d="M350.65,280.77v41.42"/><path class="cls-1" d="M298.61,280.77v41.42"/><path class="cls-1" d="M340.82,280.77a23.57,23.57,0,0,1,.27,2.5q0,18.08,0,36.14c0,.93-.18,1.85-.27,2.78"/><path class="cls-1" d="M304.39,280.77v41.42"/><path class="cls-1" d="M4.6,235.64c.09,1.06.27,2.12.27,3.18q0,12.36,0,24.73-.12,46.86-.27,93.72A24.82,24.82,0,0,0,4.89,360"/><path class="cls-1" d="M286.18,110.6c-8.6,5-18.34,8-28.3,10.74-4.74,1.32-9.35,3.14-11.91,7a5.23,5.23,0,0,1-1.13.91"/><path class="cls-1" d="M65.89,475.63c-.1-3.89-.26-7.78-.27-11.67,0-1.81.18-3.13-2.64-2.6a23.56,23.56,0,0,1-7.77,0c-2-.3-2.07.36-2.06,1.76,0,4.17,0,8.34,0,12.51"/><path class="cls-1" d="M46.52,158c.19,1.14,0,2.4.65,3.38,1.32,2.15,1.07,4.38,1.08,6.61,0,9.83.07,19.66-.06,29.5a5.34,5.34,0,0,0,2.33,4.57c3.58,2.88,6.13,6.15,6.49,10.4a12.06,12.06,0,0,1-2.09,7.95,3.57,3.57,0,0,0-.31,1.13"/><path class="cls-1" d="M32.35,158a46.73,46.73,0,0,0-1.4,4.55,15.24,15.24,0,0,0,0,3.17c0,11,0,22.08,0,33.13,0,1.66-1.45,2.43-2.65,3.39a16.44,16.44,0,0,0-6,8.64,10.35,10.35,0,0,0,2.25,9.76c.18.21,0,.6,0,.9"/><path class="cls-1" d="M11.54,163.7c2.91,1.82,2.3,4.39,2.3,6.81,0,9.61,0,19.22,0,28.82,0,.15.18.3.28.46"/><path class="cls-1" d="M67.62,163.7c-2.78,2.09-2.65,4.77-2.63,7.49.08,7.95,0,15.89,0,23.83v4.77"/><path class="cls-1" d="M477,461.73H436.8"/><path class="cls-1" d="M286.18,128.53c-1.16-.23-2.94-.93-3.36-.6-1.92,1.54-5.38,1.85-5.16,5.15.45,6.63.12,13.3.15,20a23.86,23.86,0,0,0,.27,2.5"/><path class="cls-1" d="M274,156.9c-.1-1.52-.27-3-.28-4.54,0-4.69-.27-9.39.08-14.07.23-3.18-.87-5.29-4.67-6.66-1.07-.39-1.44-.7-2.4.05s-2.38,1.15-3.39,1.88a2.61,2.61,0,0,0-1.15,1.78c-.07,8.24-.05,16.49,0,24.73,0,.23.19.46.28.68"/><path class="cls-1" d="M258.14,162c-.1-2.15-.26-4.31-.28-6.46,0-4.32-.18-8.63.05-12.94.12-2.28-.52-4-3.25-5-1-.37-2.74-1.1-3.07-.84-1.71,1.37-5,1.6-5,4.23,0,7.79,0,15.58,0,23.38a8.89,8.89,0,0,0,.28,1.58"/><path class="cls-1" d="M77.45,232.69c-7.81,0-15.61,0-23.42,0-2.08,0-3.89-.14-5.22-1.6a22.39,22.39,0,0,0-2.29-1.83c-2.91-2.35-8.15-2.58-11.55-.43a13.88,13.88,0,0,0-2.88,2.27c-1.35,1.47-3.12,1.63-5.23,1.6-6.75-.08-13.49,0-20.24,0-1.73,0-3.47-.14-5.2-.22"/><path class="cls-1" d="M392.28,185.26a6,6,0,0,0-1.16-.21q-18.51.09-37,.21c-1.17,0-1.73-.44-1.73-1.36,0-2.55.19-2.55,3.76-2.52,11.37.07,22.74,0,34.11,0a29.39,29.39,0,0,1,3.47.44c-.38,1.13,1,2.64-1.16,3.4"/><path class="cls-1" d="M133.82,282.16v33.36a4.89,4.89,0,0,1,0,1.38,10.87,10.87,0,0,1-.84,1.67,12.63,12.63,0,0,1-1.43-1.4,6.25,6.25,0,0,1-.6-1.37"/><path class="cls-1" d="M108.38,282.16v33.36a6.13,6.13,0,0,1,0,1.66,5.88,5.88,0,0,1-.83,1.39c-.49-.37-1.18-.65-1.39-1.13a4.9,4.9,0,0,1-.06-1.92c0-7.79,0-15.57,0-23.35a6.72,6.72,0,0,0-.28-1.39"/><path class="cls-1" d="M160.13,282.16c-.09.93-.27,1.85-.27,2.78q0,16.4,0,32.8"/><path class="cls-1" d="M144.23,282.16q0,16.68,0,33.36c0,1.93-.39,3.42,2.94,2.66s6.9-.16,10.37-.16"/><path class="cls-1" d="M139,282.16v35.58"/><path class="cls-1" d="M118.79,282.16q0,16.81,0,33.64c0,1-.52,2.34,1.14,2.77"/><path class="cls-1" d="M113.59,282.16v35.58"/><path class="cls-1" d="M88.73,276v41.7"/><path class="cls-1" d="M164.18,282.44v35.3"/><path class="cls-1" d="M233.27,475.63c0-4.07,0-8.15,0-12.23,0-1.23-.07-2.14-1.75-1.41a3.14,3.14,0,0,1-1.15,0c-1.64,0-4.28-.56-4.7.12-.82,1.36-.46,3.4-.49,5.16-.05,2.78,0,5.56,0,8.34"/><path class="cls-1" d="M355.27,153.49c2.41.08,4.82.23,7.23.22,9.35-.05,18.69-.19,28-.17,1.41,0,3.15.38,3.16,2s-1.89,1.76-3.16,1.76c-10.7,0-21.39-.1-32.09-.18a7.07,7.07,0,0,0-2,0,3,3,0,0,1-3.69-1.19c-.73-1.2.72-1.78,1.94-2.24"/><path class="cls-1" d="M46.81,243.58c1.44-.07,2.9-.1,4.33-.25a5.09,5.09,0,0,0,1.45-.66,5.67,5.67,0,0,0-1.45-.65c-.85-.11-1.73,0-2.6,0-1.8-.06-3.39.13-5.29-.79-4.09-2-10,1.09-10,4.88q-.06,6.81,0,13.61a10.32,10.32,0,0,0,.55,2.39"/><path class="cls-1" d="M385.63,295.5a12,12,0,0,0-5.79-10c-8.1-5.21-18.1.67-18.79,8.06-.06.65-.19,1.29-.29,1.94"/><path class="cls-1" d="M280.68,154.85c-2.5,1-5,2-7.53,2.92a1.72,1.72,0,0,1-1.37-.44,3.79,3.79,0,0,1-.33-1.79c0-6.43,0-12.86,0-19.29,0-.85-2.25-3.09-3.18-3.18s-3.74,2.15-3.74,3.18q0,11.34,0,22.69a5,5,0,0,0,.27,1.13"/><path class="cls-1" d="M201.18,253.11H167.65"/><path class="cls-1" d="M286.47,131c-1.16-.38-2.55-1.28-3.42-1-1.82.52-3.09,1.54-3,3.53.23,6.27.05,12.55.12,18.83a8.69,8.69,0,0,0,.83,2.49"/><path class="cls-1" d="M42.18,322.19c.1-6,.22-12.05.27-18.07,0-1.2-.94-1.41-2-1.4-2.22,0-4.44.09-6.65,0-2.42-.11-2.36.94-1.45,2.52"/><path class="cls-1" d="M158.11,439.22c.09,6.39.23,12.79.27,19.18,0,2.87-.23,5.74-.24,8.62a13.81,13.81,0,0,0,.55,2.78"/><path class="cls-1" d="M56.06,187.76c4.91.36,4.91.36,4.91-3.41,0-3,.11-6,0-9.07a6.74,6.74,0,0,0-1.18-3.6,5.32,5.32,0,0,0-5.13-1.84c-1.7.24-4,2.57-4,4.3-.09,4.24-.05,8.48,0,12.71a1.59,1.59,0,0,0,1.12,1.08,39.23,39.23,0,0,0,4-.17"/><path class="cls-1" d="M184.42,322.19c.09-6.12.21-12.23.22-18.35,0-.37-.88-1-1.38-1.06-2.5-.11-5-.11-7.51,0-.5,0-1.4.7-1.39,1.06.1,4.91.31,9.82.52,14.73,0,.93.19,1.86.28,2.78"/><path class="cls-1" d="M182.68,322.19l8.67.55"/><path class="cls-1" d="M267.39,18.25c-1.83.53-3.69,1-5.49,1.6-4.22,1.39-6.61,6.06-5.73,9.28,1.08,3.95,6.68,7.5,11.22,7.5,3.53,0,8.58-2.87,10.12-5.67,1.92-3.47,1.2-6.54-2-9.31a10.07,10.07,0,0,0-6.37-2.75c-1.52-.06-1.77-1-1.75-2q.08-3.85,0-7.71c0-2.12-.16-4.24-.28-6.35,0-1,0-1.48,1.76-1.21a44.31,44.31,0,0,0,7.21.25c.58,0,1.16-.56,1.73-.86"/><path class="cls-1" d="M24,322.19c0-5.75-.08-11.49.05-17.24,0-1.81-.47-2.41-2.37-2.26-2.1.17-4.24.07-6.35,0-1.29,0-1.62.07-1.57,1.68.2,5.92-.07,11.86-.17,17.79"/><path class="cls-1" d="M25.41,170.29c-3.64-1-6.68.48-6.87,3.63-.26,4.38-.09,8.77,0,13.16,0,.3.71.85,1.11.86,2.6.08,5.21.09,7.8,0a1.55,1.55,0,0,0,1.11-1.08c.08-4.39.25-8.78-.08-13.15-.09-1.18-1.79-2.28-2.76-3.41"/><path class="cls-1" d="M459.35,243.81c2.77,2.39,3.62,5.49,4.86,8.41,2.48,5.81,4.46,11.72,4.69,17.91.1,2.8.37,5.6.56,8.4"/><path class="cls-1" d="M195.11,281.88a32.77,32.77,0,0,0-4.05-.53q-11-.08-22,0a48.13,48.13,0,0,0-4.91.53"/><path class="cls-1" d="M331.28,295.5c-.14-4.24-1-8.18-4.92-10.84a6.26,6.26,0,0,0-7.51.29c-3.65,2.75-4.89,6.51-4.63,10.83"/><path class="cls-1" d="M431,306.62c0-2.13-.06-4.26,0-6.39a22.53,22.53,0,0,1,.91-4.78c1.14-4.42-2.21-11.12-7.88-11.88-3.22-.44-7,2.51-8.05,6.38a49,49,0,0,0-.91,5.55"/><path class="cls-1" d="M287.33,137.84a19.34,19.34,0,0,1,9.21,4.79,2.81,2.81,0,0,1,.6,2c.05,4.62,0,9.23,0,13.85,0,8.24,0,16.49,0,24.73.05,7,.21,13.92.27,20.88.05,4.61-.19,9.23.09,13.84.17,2.81,1.08,5.6,1.66,8.4"/><path class="cls-1" d="M346.31,199.79l-4.63.22"/><path class="cls-1" d="M335.61,201.83c-8.7,4-17,8.48-24,14.28a43.52,43.52,0,0,1-3.74,2.51"/><path class="cls-1" d="M25.12,221.34H54"/><path class="cls-1" d="M134.4,198.88c2,1.26,2.45,2.91,1.72,4.76a4.54,4.54,0,0,0,.2,4.59,4.47,4.47,0,0,1,.29,3.78c-.63,1.64-.13,2.75.92,4.14,5.31,7.09,11,13.94,18.89,19.45.73.52.54,2.3,2.56,1.4"/><path class="cls-1" d="M155.22,317.46c.19-3.33.47-6.67.55-10,.1-3.89.07-7.79,0-11.68,0-1.11-.6-2.25-.48-3.33a8.09,8.09,0,0,1,1.37-2.51,6.9,6.9,0,0,1,.83,2.23c.06,7.87,0,15.75.06,23.63,0,1-.52,2.34,1.14,2.77"/><path class="cls-1" d="M125.15,288.28c-1.15.4-1.18,2.77-3.18,1.66a8.81,8.81,0,0,0-.83,2.51c-.06,8.43,0,16.86,0,25.29"/><path class="cls-1" d="M30,200.47a23.73,23.73,0,0,0-2.89-.44c-2.51-.06-5.06.21-7.51-.07-5.27-.59-8.55,1.31-11.33,4.57-4.32,5.08-4,10.29-1.39,15.68.49,1,1.59,1.17,2.88,1.15q5.64-.08,11.28,0a26.7,26.7,0,0,1,3.18.44"/><path class="cls-1" d="M49.12,200.47A21.93,21.93,0,0,1,52,200c3.08-.05,6.19.17,9.24-.07a9.37,9.37,0,0,1,7.83,2.77c5,4.77,6.28,10,3.8,15.9-.86,2.05-2.16,2.92-5,2.76-3.26-.19-6.55-.08-9.83,0a26.7,26.7,0,0,0-3.18.44"/><path class="cls-1" d="M447.78,280.77v25.85"/><path class="cls-1" d="M442,280.77v25.85"/><path class="cls-1" d="M395.74,280.77v25.85"/><path class="cls-1" d="M405.57,280.77v25.85"/><path class="cls-1" d="M291.09,280.77c-.09,3.34-.19,6.67-.29,10"/><path class="cls-1" d="M290.8,294.39c.1,1.67.27,3.34.28,5,0,7.6,0,15.2,0,22.8"/><path class="cls-1" d="M469.46,280.77v25.57"/><path class="cls-1" d="M311.91,280.77q.13,20.57.29,41.14"/><path class="cls-1" d="M333.3,280.77q-.15,20.57-.29,41.14"/><path class="cls-1" d="M331.57,272.86l.57-1.59c.2-.53.7-1.14.53-1.58-1.3-3.41-6.11-6-10.64-5.91a9.88,9.88,0,0,0-9,6.81"/><path class="cls-1" d="M172.85,437.83c-.67.37-1.34,1-2,1.06-3.57.11-7.13,0-10.7.05s-3.95-.37-3.51-3.9c.24-1.88,1.11-2.34,2.94-2.25,2.78.13,5.58,0,8.38,0,2.16,0,4.9-.7,4.08,3.06-.07.32.41.72.53,1.11Z"/><path class="cls-1" d="M355,153.49a15.43,15.43,0,0,1,3.71-7.51c.84-1,1.62-.95,2.94-.93,7.81.1,15.61,0,23.42,0a5.83,5.83,0,0,0,1.15-.22"/><path class="cls-1" d="M35.53,171.19c-.77,1.14-2.12,2.25-2.2,3.41-.28,3.92,0,7.86-.15,11.8,0,1.27.44,1.67,2.06,1.61,3-.1,6-.07,9,0,1.36,0,1.78-.33,1.77-1.39-.07-3.93,0-7.86-.06-11.8,0-2.29-1.76-3.9-4.33-4.72-2.07-.65-4.25-.61-5.76,1.09"/><path class="cls-1" d="M432.17,272.86c.19-.53.43-1.06.57-1.6s.49-1.29.25-1.79a10.47,10.47,0,0,0-9.49-5.68c-4.74,0-7.67,2-9.25,5.43"/><path class="cls-1" d="M207,243.58c-1.55,0-3.09.06-4.63,0a4.54,4.54,0,0,1-1.45-.65c.39-.3.75-.84,1.17-.87a33.77,33.77,0,0,1,4.61,0c.42,0,1.12.56,1.11.86-.12,5.07-.36,10.14-.51,15.21-.08,2.39-2,3.32-4.91,2.23a1.3,1.3,0,0,1-.57-1.1c0-5.14,0-10.29,0-15.43"/><path class="cls-1" d="M161.87,243.81c0,5.14.07,10.29-.05,15.43,0,1.84,1.5,1.34,2.65,1.34s2.68.5,2.64-1.34c-.12-5.14,0-10.29,0-15.43"/><path class="cls-1" d="M86.12,253.11c.1,2,.35,4.09.25,6.13-.1,1.85,1.46,1.34,2.64,1.34s2.7.51,2.65-1.34c-.13-4.76,0-9.53,0-14.3,0-3-.43-3.23-4.34-3-1.4.09-1.32.38-1.24,1.39.23,3.17.08,6.35.08,9.53"/><path class="cls-1" d="M361.63,143.28c5.59,0,11.18,0,16.77,0,2.31,0,5.44-.56,6.76.37,2.28,1.64,3.58,4.18,5,6.45.58.91.45,2.1.64,3.16"/><path class="cls-1" d="M277.5,77a120.86,120.86,0,0,1-17.6,6.2c-1.93.53-3.5,1.89-5.23,2.88"/><path class="cls-1" d="M135.27,206.82c-3.29,3.37-7.66,5.45-12.69,6.87a3.53,3.53,0,0,0-2.25,2c-.73,3.11-2.7,5.65-5,8.19a76.5,76.5,0,0,1-13,12c-.34.25-.4.74-.6,1.12"/><path class="cls-1" d="M45.65,242.45c1.7,3,.62,6.2.83,9.3a58.5,58.5,0,0,1,0,7.49c-.12,1.85,1.45,1.34,2.64,1.34s2.69.51,2.64-1.34c-.12-5.14,0-10.29,0-15.43"/><path class="cls-1" d="M286.47,107.88c.09,1.74.27,3.48.27,5.22,0,12.18,0,24.36,0,36.54a19.34,19.34,0,0,0,.27,2.26"/><path class="cls-1" d="M385.92,272.86c-.51-4.68-4.79-8.52-10.42-9.06-6.13-.58-11.63,2-13.57,6.56-.35.82-.59,1.66-.88,2.5"/><path class="cls-1" d="M25.41,170.51a5.45,5.45,0,0,0-2.31,5c0,4,0,8,0,12"/><path class="cls-1" d="M85.83,252.89c-1.06.07-2.12.21-3.18.21q-15.16,0-30.35,0"/><path class="cls-1" d="M260.74,55.23c0,4.85,0,9.69,0,14.53A17.81,17.81,0,0,0,261,72"/><path class="cls-1" d="M53.46,170.74a5.06,5.06,0,0,1,2.64,5c-.14,3.93,0,7.87,0,11.8"/><path class="cls-1" d="M329.25,296.06c.2,2.78.51,5.56.55,8.34.09,5.93,0,11.86,0,17.79"/><path class="cls-1" d="M290.22,295.78a7.44,7.44,0,0,0-.83,2.22c-.06,8.07,0,16.13,0,24.19"/><path class="cls-1" d="M384.18,253.53c-3-.1-6-.27-9-.25-1.74,0-3.47.5-5.21.5-5.1,0-10.21-.24-15.32-.23-6.16,0-12.33.26-18.5.22-4.34,0-8.67-.47-13-.48-3.76,0-7.51.47-11.27.48-6.36,0-12.72-.14-19.08-.25-1.45,0-2.89-.18-4.34-.27"/><path class="cls-1" d="M35.82,171.42a4.06,4.06,0,0,1,1.48,3.63c-.09,4.16,0,8.32,0,12.48"/><path class="cls-1" d="M315.38,296.61q.14,12.66.28,25.3"/><path class="cls-1" d="M43.63,171.65c-1.51.86-1.45,2.14-1.45,3.4v12.48"/><path class="cls-1" d="M355.56,157.58V181"/><path class="cls-1" d="M390.83,157.58V181"/><path class="cls-1" d="M5.18,248.8c5.68,0,11.37,0,17.05,0,1,0,1.93.18,2.89.27"/><path class="cls-1" d="M271.72,102.66c-.09-3-.19-6-.28-9.07,0-1.1-2.66-3.73-3.41-3.34-1.56.82-3.81,2-3.92,3.12-.4,3.9,0,7.85.1,11.79"/><path class="cls-1" d="M32.35,142.37c-4.62-.15-9.3-.68-13.86-.32-3.19.26-4.67,2.89-5.74,5.11-1.42,2.93-.91,5.89,1.12,8.59,1.92,2.54,2,3.37-.3,5.69-.43.43-.78.9-1.17,1.36"/><path class="cls-1" d="M383,301.62c-4.81.09-9.63.19-14.45.27-1.64,0-3.28,0-4.92,0"/><path class="cls-1" d="M364.23,163v15"/><path class="cls-1" d="M385.05,163v15"/><path class="cls-1" d="M360.19,163v15"/><path class="cls-1" d="M374.64,163v15"/><path class="cls-1" d="M381,163v15"/><path class="cls-1" d="M370.88,163v14.75"/><path class="cls-1" d="M46.23,142.6c3.61,4.45,4.33,9,1.16,13.85a10,10,0,0,0-.58,1.13"/><path class="cls-1" d="M48.54,163.25H68.2"/><path class="cls-1" d="M363.94,139.2h17.93"/><path class="cls-1" d="M141.63,252.66c0-2,0-3.93,0-5.9,0-.68.25-1.36.26-2a8,8,0,0,0-.27-1.59,5.21,5.21,0,0,0-1.7.7c-1.06,1.09-1.67.65-2.38-.23-.19-.25-.74-.32-1.12-.47-.2.45-.58.91-.55,1.36.11,1.59.34,3.18.56,4.76,0,.24.29.47.26.68-.42,3.39-.42,3.39,3.77,3.18l4.63-.22"/><path class="cls-1" d="M11,163.25H47.38"/><path class="cls-1" d="M468.89,253.81H452.12c-6.46,0-12.92.05-19.37,0-3.18,0-6.36-.53-9.54-.5-9.25.09-18.5.38-27.76.5-3.17.05-6.39-.48-9.52-.13-1.76.2-1.85-.63-2-1.52-.91-5.07-4.87-7-9.3-8.28a5.11,5.11,0,0,0-4.89,1.34"/><path class="cls-1" d="M116.77,242.9a10.19,10.19,0,0,0-2.84.95c-1,.73-1.47.76-2.4,0-1.09-.91-1.63-.35-1.7.66,0,.53,0,1.06,0,1.59v6.58"/><path class="cls-1" d="M64.73,198.42H14.43"/><path class="cls-1" d="M430.44,301.62a95.13,95.13,0,0,1-10.4.16c-1.71-.14-1.8.27-1.76,1.51s0,2.22,0,3.33"/><path class="cls-1" d="M31.2,200H48"/><path class="cls-1" d="M65,166.43a17.56,17.56,0,0,0-2-.22q-23.43,0-46.84,0a17.32,17.32,0,0,0-2,.22"/><path class="cls-1" d="M107.23,239.72v13.17"/><path class="cls-1" d="M192.51,304.68q29.78,0,59.55,0a19.54,19.54,0,0,1,3.18.53h.58a20.69,20.69,0,0,1,3.18-.53c7.81-.05,15.61,0,23.42,0l.09,171.23"/><path class="cls-1" d="M39.58,331.36c-2.12-.09-4.24-.16-6.36-.28-2.37-.14-2.39.91-1.45,2.51"/><path class="cls-1" d="M136.14,214.76c-4.14,3.51-9.62,4.36-15.33,4.75a3.16,3.16,0,0,1-1.15-.44"/><path class="cls-1" d="M270.86,114.46c-.1-.07-.28-.15-.28-.23-.3-6.58-.63-13.16-.84-19.74,0-1.17-.35-2.42-1.76-2.35a3.27,3.27,0,0,0-2.22,2.36c-.16,3.54.11,7.1.17,10.66.05,2.8,0,5.6,0,8.39a10.88,10.88,0,0,0,.55,2.27"/><path class="cls-1" d="M372.91,101.53c0,3.33-.07,6.65,0,10,0,1.32-.74,2.83,1.08,3.9.11.06-.34.72-.54,1.09"/><path class="cls-1" d="M151.75,239.72q.13,6.48.29,12.94"/><path class="cls-1" d="M413.09,280.77q.15,12.78.29,25.57"/><path class="cls-1" d="M434.48,280.77q-.14,12.78-.29,25.57"/><path class="cls-1" d="M373.48,119.91a19.65,19.65,0,0,1,1.73,1.37c1.3,1.3.58,3-1.44,3.39-2.95.62-4.72,2.15-4.88,4.54a13.39,13.39,0,0,1-4.84,9.38c-1.83,1.65-2.61,4-3.86,6"/><path class="cls-1" d="M45.94,252.89a10.12,10.12,0,0,0-2.85,1.16c-5.85,5.09-11.92,10.07-17.24,15.49-2.39,2.43-4.67,3.09-8.25,2.92-4.12-.19-8.28.09-12.42.17"/><path class="cls-1" d="M358.16,280.77c0,4.73,0,9.45,0,14.18,0,.37-.36.74-.56,1.11"/><path class="cls-1" d="M464.55,280.77v15.29"/><path class="cls-1" d="M246,166.88c-2.5,1.67-5.44,3.07-7.42,5.05-4.21,4.19-4.75,9.13-3.27,14.24"/><path class="cls-1" d="M374.35,124.9a8.67,8.67,0,0,1,3.33,6.34c.23,2,1.78,3.95,2.74,5.91"/><path class="cls-1" d="M15.87,157.35H31.48"/><path class="cls-1" d="M235.3,248.12c0-2.72,0-5.45,0-8.17,0-1,.08-1.64-1.76-1.42-2.07.25-5-.59-6.13.24s-.41,3.15-.51,4.81c-.09,1.51-.19,3-.29,4.54"/><path class="cls-1" d="M388.23,280.77v25.85"/><path class="cls-1" d="M47.38,157.35c4.34,0,8.68,0,13,0,1.67,0,2.69.21,3.32,1.79s2.37,2.76,3.62,4.12"/><path class="cls-1" d="M124.86,252.66c0-.68,0-1.37,0-2,.17-2,.43-3.94.54-5.9a4.57,4.57,0,0,0-.55-1.59c-.58.15-1.37.16-1.69.48-1,.95-1.73,1-2.68,0-.27-.28-.93-.32-1.41-.47a4.23,4.23,0,0,0-.55,1.36,58.88,58.88,0,0,0,.06,7c.06.56,1.18,1.41,2,1.52a24.18,24.18,0,0,0,4.32-.15"/><path class="cls-1" d="M419.16,475.61c0-4.91,0-4.88,4.92-4.92,4,0,8.11,0,12.13-.38,1.66-.16,1.79.35,1.73,1.54s-.18,2.51-.28,3.76"/><path class="cls-1" d="M259.29,162.34c.1,3,.18,6,.3,9.08,0,.91.18,1.82.28,2.72"/><path class="cls-1" d="M285.6,226.34v11.8"/><path class="cls-1" d="M276.93,156.67c0,3.18,0,6.35,0,9.53a11,11,0,0,0,.55,2.27"/><path class="cls-1" d="M281.26,155.08c.1,3,.18,6,.3,9.08,0,.91.18,1.81.28,2.72"/><path class="cls-1" d="M63.86,355.82c-1.13,1.7-.89,2.59,1.45,2.52,2.6-.07,5.2,0,7.8,0,1.29,0,1.71,0,1.56-1.69a58.48,58.48,0,0,1,0-11.38c.31-2.94-2-3-3.58-3.86-2.33-1.23-6.89.84-7.72,2.49-.23.45.32,1.27.51,1.92Z"/><path class="cls-1" d="M255,163.48c.1,3,.18,6.05.3,9.07,0,.91.19,1.82.28,2.73"/><path class="cls-1" d="M119.08,252.89c-4.14.07-8.29.18-12.43.21-4.82,0-9.64,0-14.46,0"/><path class="cls-1" d="M271.72,157.8c-1.92.76-3.77,1.91-5.8,2.17s-1.78,1.06-1.74,2.15c.16,3.55.22,7.11.32,10.66"/><path class="cls-1" d="M250.62,165.07q.13,5.77.29,11.57"/><path class="cls-1" d="M285.6,153.49c0,3,0,6,0,9.08a11.94,11.94,0,0,0,.55,2.5"/><path class="cls-1" d="M289.65,224.75c.09,3,.15,6.05.31,9.07a14.72,14.72,0,0,0,.55,2.5"/><path class="cls-1" d="M272.88,158.26c.1,3.86.19,7.71.29,11.57"/><path class="cls-1" d="M324.92,292.44a2.5,2.5,0,0,1-.29-.27c-.68-.93-1.35-1.86-2-2.78-.67.83-1.83,1.63-1.9,2.51a5.23,5.23,0,0,0,1.12,3.54c.77.92,2.41-.48,3.1-2.72"/><path class="cls-1" d="M268,159.85c.1,3,.18,6.05.3,9.07,0,.84.19,1.67.28,2.5"/><path class="cls-1" d="M132.38,263.55c5.18,2.39,7.61,6.08,8.09,10.67"/><path class="cls-1" d="M61,141.92a17.32,17.32,0,0,1-2,.22q-12.15,0-24.29,0a5.83,5.83,0,0,1-1.15-.22"/><path class="cls-1" d="M289.94,151.45c.09,2.88.17,5.75.29,8.62,0,.91.19,1.82.28,2.73"/><path class="cls-1" d="M263.63,161l-11.85,3.18c-.12,0-.19.2-.3.22-5,.66-5.32,3.39-4.95,6.59.29,2.41.23,4.84.33,7.26"/><path class="cls-1" d="M286.47,96.54c.09,3.32.26,6.65.21,10,0,.46-1.08.91-1.66,1.36"/><path class="cls-1" d="M60.39,322.19a27.05,27.05,0,0,1-.54-4.17c.1-4.73.38-9.45.48-14.18,0-.36-.88-1-1.38-1.06-2.31-.11-4.63,0-6.94-.07s-2.58.82-1.45,2.52"/><path class="cls-1" d="M78.32,305.23c1.13-1.7.89-2.6-1.45-2.52s-4.43.05-6.65,0c-1.28,0-1.61.07-1.56,1.68.2,5.92-.08,11.86-.17,17.79"/><path class="cls-1" d="M22.81,333.59c1.14-1.7.89-2.6-1.44-2.52s-4.63-.05-6.94.06c-.5,0-1.39.7-1.38,1.06.09,5,.46,10,.44,15,0,2.23.63,2.94,3,2.85,1.74-.07,3.86-1,5.21,1"/><path class="cls-1" d="M425.52,246.86c-2.19-1.78-3.94-1.48-4.29.84-.21,1.35-.27,3,1.7,3.28,1.71.22,2.62-.82,2.91-2.45a9,9,0,0,1,.84-1.95c.29.74,1,1.66.78,2.19a26.88,26.88,0,0,1-2.52,3.92"/><path class="cls-1" d="M125.73,263.78a12.24,12.24,0,0,0-7.17,7.05c-.61,1.64-1.31,3.51.81,5"/><path class="cls-1" d="M366.26,137.38l13.3.23c.57,0,1.5-.18,1.67,0,1.4,1.67,3.82,3,3.24,5.41"/><path class="cls-1" d="M324.92,246.86c-2.2-1.78-3.9-1.48-4.31.83-.26,1.42.07,3,1.72,3.27s2.61-.8,2.9-2.43a9,9,0,0,1,.84-1.95c.29.74,1,1.66.78,2.19a26,26,0,0,1-2.51,3.92"/><path class="cls-1" d="M277.79,74.3c-4.7,3-10.23,4.77-15.87,6.4a39.18,39.18,0,0,0-6.65,2.94,2.13,2.13,0,0,0-1.13,1.55c-.17,7.18-.25,14.37-.33,21.56a6.72,6.72,0,0,0,.28,1.36"/><path class="cls-1" d="M93.06,282.44c0,5.46,0,10.93,0,16.4a12.9,12.9,0,0,0,.83,3.06"/><path class="cls-1" d="M260.45,51.38c4.05.07,8.09.16,12.14.21.58,0,1.3-.34,1.71-.17A20.38,20.38,0,0,1,276.93,53c-1.26.68-2.46,1.86-3.77,1.94-4,.26-8.09.18-12.13.05a7.28,7.28,0,0,1-3.15-1.12c-.9-.53-.86-1.3.26-1.77a15.1,15.1,0,0,1,1.73-.47"/><path class="cls-1" d="M19.34,138.29H59.82"/><path class="cls-1" d="M298,206.82c2.75,1.08,5.52,2.12,7.25,4.3,1,1.29,2.55,2.41,1.16,4.11-.1.13.15.45.27.67,1.54,2.82.09,4.8-2.9,6.35"/><path class="cls-1" d="M294.27,149c.1,2.73.16,5.45.31,8.17a15.79,15.79,0,0,0,.56,2.5"/><path class="cls-1" d="M257,107.88c.1,3.56.19,7.11.29,10.67"/><path class="cls-1" d="M261.6,106.52c.1,2.65.18,5.3.3,7.94,0,.91.19,1.82.28,2.73"/><path class="cls-1" d="M242,169.6c.09,2.65.16,5.3.3,8a25.57,25.57,0,0,0,.42,2.72"/><path class="cls-1" d="M274.61,102.21c.1,2.65.18,5.29.3,7.94,0,.91.19,1.82.28,2.72"/><path class="cls-1" d="M264.21,379.17c-.07,1-.17,2,1.44,2,2.41-.07,4.82.06,7.22-.08a2,2,0,0,0,1.39-1.33c.1-4.82,0-9.64.1-14.45,0-1.57-.44-2.18-2.06-2a30.78,30.78,0,0,1-3.18.28c-1.64,0-3.92-.61-4.73.18s-.21,3-.18,4.55c.08,3.52.19,7.05.29,10.57"/><path class="cls-1" d="M329.25,301.62c-4,0-8.09,0-12.14,0a4.87,4.87,0,0,0-1.16.27"/><path class="cls-1" d="M277.79,66.58c.1,3.33.24,6.66.28,10,.05,3.63.08,7.26,0,10.89a19,19,0,0,1-.82,3.63"/><path class="cls-1" d="M30,475.61a7,7,0,0,1,.34-2.28c.33-.62,1.1-1.41,1.68-1.41,4.44,0,8.87.13,13.3.22"/><path class="cls-1" d="M254.67,97.22a2.39,2.39,0,0,0,.85,0c.8-.34,2.16-1.13,2.23-1.06,1.1,1,3.29,1.34,3.08,3.35-.22,2.24.29,4.53.49,6.8"/><path class="cls-1" d="M276.93,99.71c2.14.32,2.34,1.51,2.34,3,0,2.8.16,5.6.26,8.4"/><path class="cls-1" d="M14.43,320.52c4.92,3.93,10.77,1.74,16.19,2.16,4.22.32,8.48.06,12.72.06H161.87c3.27,0,6.55.05,9.83,0a18.52,18.52,0,0,0,2.89-.53"/><path class="cls-1" d="M253.8,379.17c.59,1.19.51,2-1.16,2-2.5,0-5,0-7.51,0-1,0-1.34,0-1.27-1.39a134,134,0,0,0,0-15c-.07-1.4.26-1.4,1.27-1.4,2.5,0,5-.06,7.51.05.5,0,1.38.69,1.38,1.06,0,4.82-.13,9.64-.22,14.46"/><path class="cls-1" d="M256.4,107.65c-3,.44-3.44,2-3.22,4.09.27,2.64.23,5.29.33,7.94"/><path class="cls-1" d="M52.3,293l-1.74.56c-.09-2.23-.19-4.45-.28-6.67l2.31.55"/><path class="cls-1" d="M203.5,443.67c-.6,1.18-.51,2,1.15,1.95,2.41,0,4.82.05,7.23-.06.5,0,1.38-.68,1.38-1.06.1-5,0-10,.09-15,0-1.1-.21-1.69-1.47-1.68-2.41,0-4.82-.05-7.23.06-.49,0-1.38.69-1.38,1.06,0,4.82.13,9.64.23,14.46"/><path class="cls-1" d="M280.68,227.92c.1,3.41.2,6.81.29,10.22"/><path class="cls-1" d="M330.12,383.62c-.59,1.19-.51,2,1.16,1.95,2.4,0,4.82.06,7.22-.05.5,0,1.38-.68,1.39-1.07.09-4.44,0-8.89.09-13.34,0-1.1-.22-1.69-1.48-1.67-2.41,0-4.82-.06-7.22.06-.5,0-1.39.69-1.39,1.06,0,4.26.13,8.52.23,12.78"/><path class="cls-1" d="M104.05,291.33c.09,7.69.21,15.38.26,23.08a16.45,16.45,0,0,1-.55,3"/><path class="cls-1" d="M122.84,290.78v2.78c0,7.69,0,15.38,0,23.07,0,.28.36.56.56.83"/><path class="cls-1" d="M344,414.2c-.65,1.21-.16,1.68,1.15,1.67,2.6,0,5.21.05,7.81-.05a1.57,1.57,0,0,0,1.1-1.06c.08-4.54.09-9.09,0-13.62,0-.47-.69-1.31-1.11-1.33-2.3-.13-4.62,0-6.93-.08-1.44,0-2,.58-2,2,0,4.08,0,8.16,0,12.23"/><path class="cls-1" d="M288.49,383.62c-1.15,1.24-.68,1.89.87,1.93,2.41.07,4.82.1,7.22,0a2,2,0,0,0,1.39-1.33c.11-4.26,0-8.53.1-12.79,0-1.56-.44-2.08-2.07-2-2,.13-4,.09-6.06,0-1.51-.06-2.09.37-2.08,2,0,3.92,0,3.93,4.1,3.64,1.82-.13,3.66,0,5.49,0"/><path class="cls-1" d="M302.37,414.2c-.41.89-.64,1.7.86,1.67h8.39c.09-2.5.23-5,.28-7.51s0-4.82,0-7.22c0-1.24,0-1.81-1.77-1.49-2.13.39-4.41.05-6.63.13-.49,0-1.38.52-1.38.8,0,4.45.13,8.89.23,13.34"/><path class="cls-1" d="M228.65,396.41c-1.06-.19-2.12-.41-3.18-.55-1.52-.19-2.07.48-2.05,1.94.06,4.91,0,9.82.09,14.73,0,.38.88,1,1.38,1.06,2.31.12,4.63,0,6.94.08,1.35.05,1.78-.39,1.76-1.69-.07-4.73-.1-9.46,0-14.18,0-1.78-.88-2-2.35-2s-2.69-.07-2.64,2c.12,4.45,0,8.89,0,13.34"/><path class="cls-1" d="M287.91,414.2c-.05,1.16.44,1.71,1.74,1.69,2.69-.06,5.39,0,8.09,0,.1-2.5.23-5,.28-7.51s0-4.82,0-7.22c0-1.24,0-1.81-1.76-1.49a21.3,21.3,0,0,1-6.62,0c-1.33-.18-1.78-.07-1.75,1.2q.15,6.52.29,13.06"/><path class="cls-1" d="M244,443.67c-.59,1.18-.51,2,1.16,1.95,2.31,0,4.63.07,6.93-.07a2,2,0,0,0,1.39-1.33c.1-4.82,0-9.64.1-14.45,0-1.56-.44-2.09-2.07-2-2,.13-4-.05-6.06.08-.6,0-1.66.69-1.66,1.06,0,4.82.11,9.64.21,14.46"/><path class="cls-1" d="M135.85,472.14l-14.46.29"/><path class="cls-1" d="M316.24,414.2c-.4.89-.64,1.7.87,1.67h8.38c.1-2.5.23-5,.28-7.51s0-4.82,0-7.22c0-1.24,0-1.81-1.77-1.49-2.14.39-4.42.05-6.63.13-.49,0-1.38.52-1.38.8,0,4.45.13,8.89.22,13.34"/><path class="cls-1" d="M223.73,443.67c-.48,1-.67,1.81.87,1.94a3.74,3.74,0,0,0,.58,0l8.09-.28c.1-2.41.24-4.81.28-7.22,0-2.78-.05-5.56,0-8.34,0-1.29-.21-2-1.76-2-2.31.08-4.63,0-6.94.07-.5,0-1.38.69-1.38,1.06,0,4.82.13,9.64.22,14.46"/><path class="cls-1" d="M330.12,414.2c-.63,1.21-.26,1.71,1.16,1.68,2.31-.05,4.62-.08,6.93,0,1.36.05,1.79-.39,1.77-1.69-.07-4.35,0-8.71,0-13.06,0-1.19-.09-1.74-1.76-1.48-2.25.35-4.61,0-6.92.12-.49,0-1.39.52-1.39.8,0,4.45.13,8.89.23,13.34"/><path class="cls-1" d="M302.37,383.62c-.6,1.19-.51,2,1.15,1.95,2.32,0,4.63.08,6.94-.07a2,2,0,0,0,1.38-1.32c.11-4.26,0-8.53.1-12.79,0-1.56-.43-2.08-2.06-2-2,.13-4.05-.05-6.06.09-.61,0-1.66.68-1.67,1.06,0,4.26.12,8.52.22,12.78"/><path class="cls-1" d="M316.24,383.62c-.59,1.19-.5,2,1.16,1.95,2.31,0,4.63.08,6.93-.07a2,2,0,0,0,1.39-1.32c.11-4.26,0-8.53.1-12.79,0-1.56-.43-2.08-2.06-2-2,.13-4.05-.05-6.07.09-.6,0-1.66.68-1.66,1.06,0,4.26.12,8.52.21,12.78"/><path class="cls-1" d="M126.31,292.72v24.74"/><path class="cls-1" d="M344.29,383.9c-.78,1.07-.2,1.61.86,1.64,2.6.08,5.21.08,7.81,0a1.57,1.57,0,0,0,1.1-1.06c.08-4.45,0-8.9.08-13.35,0-1.3-.41-1.74-1.76-1.69-2.31.09-4.63,0-6.94.06-.59,0-1.66.53-1.66.8.09,4.45.31,8.89.51,13.34"/><path class="cls-1" d="M279,100.39c1.93-1.13,3.92-2.2,5.77-3.42,2.63-1.73,3-2.9.8-4.92a26.63,26.63,0,0,0-6.36-4c-.54-.27-2.09.6-3.09,1-1.38.62-.95,1.35,0,2"/><path class="cls-1" d="M208.41,396.41c-1.06-.19-2.11-.41-3.18-.55-1.51-.19-2.06.48-2,1.94.06,4.91,0,9.82.09,14.73,0,.38.88,1,1.39,1.06,2.3.12,4.62,0,6.93.08,1.35.05,1.78-.39,1.76-1.69-.07-4.73-.09-9.46,0-14.18,0-1.78-.88-2-2.35-2s-2.69-.07-2.63,2c.11,4.45,0,8.89,0,13.34"/><path class="cls-1" d="M100.58,292.72v24.47"/><path class="cls-1" d="M260.45,475.61c0-5.49,0-5.49,5.49-5.49,3.37,0,6.75-.08,10.12,0,3.18.1,3.18.18,3.18,3.45v1.73"/><path class="cls-1" d="M126.6,146.12c-.58,2.53-1.24,5.06-1.68,7.61-.11.64.52,1.35.81,2"/><path class="cls-1" d="M263.63,466.36h12.43"/><path class="cls-1" d="M185,412c.1,2.22.28,4.45.22,6.67,0,.47-.84,1.24-1.38,1.32a19,19,0,0,1-3.17-.2c-1.45,0-3.16.42-4.23-.18-.59-.33-.11-2.42-.11-3.72a64.24,64.24,0,0,0-.1-8.33c-.19-1.43.25-1.45,1.26-1.39s2.12.22,3.18.26c1.44,0,2.89,0,4.33,0v5.28"/><path class="cls-1" d="M259.29,106.52c-.19-2.19-.31-4.39-.62-6.58a7.07,7.07,0,0,0-1.11-2c-1.25.45-1.68,1-1.54,2.27a54.5,54.5,0,0,1-.16,6.12c0,.46.54.91.83,1.36"/><path class="cls-1" d="M152,292.72v24.47"/><path class="cls-1" d="M159.55,412c-.09,2.22-.27,4.45-.22,6.67,0,.47.84,1.23,1.39,1.32a14.91,14.91,0,0,0,2.88-.2c1.54,0,3.87.57,4.44-.15.82-1,.43-3,.46-4.59.05-2.4-.05-4.82,0-7.22.05-1.31-.41-1.84-1.76-1.68-1,.12-1.92.24-2.89.27-1.44.05-4.06-.26-4.14.06a21.72,21.72,0,0,0-.2,5.24"/><path class="cls-1" d="M142.79,412c-.1,2.22-.28,4.45-.22,6.67,0,.47.84,1.23,1.38,1.32a14.91,14.91,0,0,0,2.88-.2c1.54,0,3.88.57,4.44-.15.83-1,.43-3,.47-4.59,0-2.4-.06-4.82,0-7.22,0-1.31-.41-1.84-1.76-1.68-1,.12-1.92.24-2.89.27-1.44.05-4.06-.26-4.14.06a21.72,21.72,0,0,0-.19,5.24"/><path class="cls-1" d="M126,412c-.1,2.22-.28,4.45-.22,6.67,0,.47.84,1.23,1.39,1.32a15,15,0,0,0,2.88-.2c1.54,0,3.87.57,4.43-.15.83-1,.44-3,.47-4.59.05-2.4-.05-4.82,0-7.22,0-1.31-.41-1.84-1.76-1.68-1,.12-1.93.24-2.9.27-1.44.05-4-.26-4.14.06a21.72,21.72,0,0,0-.19,5.24"/><path class="cls-1" d="M292.25,453.12a39.78,39.78,0,0,0-4.62-.21,1.77,1.77,0,0,0-1.11,1.32c0,5.93.17,11.86.21,17.79,0,1.1.47,1.42,1.47,1.39a53.49,53.49,0,0,1,7.79-.17c1.49.17,1.46-.25,1.46-1.22,0-5.93,0-11.86-.06-17.79,0-.47-.86-1.26-1.39-1.32a17.58,17.58,0,0,0-3.46.21"/><path class="cls-1" d="M248.31,112.42c.09,2.34.17,4.69.29,7,.05.84.19,1.67.28,2.5"/><path class="cls-1" d="M129.2,143.28c1.16,2.71,1.45,5.22-.48,8-2.56,3.67-4.45,7.64-4.45,12,0,2.57-.23,5.14-.24,7.72a9.47,9.47,0,0,0,.54,2.27"/><path class="cls-1" d="M463.39,287.16a4.64,4.64,0,0,0-.59-1.1c-.83-.86-1.72-1.68-2.59-2.51a23,23,0,0,0-2.55,3.08,24.38,24.38,0,0,0-1.49,3.87"/><path class="cls-1" d="M301.21,443.11c-.19,1.11.45,1.4,1.45,1.39h7.22c1,0,1.32,0,1.27-1.39-.18-5.09.05-10.19.2-15.29,0-1.3-.4-1.75-1.76-1.69-2.21.09-4.44-.08-6.64.09-.61,0-1.66.86-1.66,1.32,0,5.1.11,10.2.21,15.29"/><path class="cls-1" d="M315.66,443.11c.29.46.56,1.31.88,1.33,2.5.11,5,.1,7.51,0,1,0,1.35-.23,1.28-1.65-.23-5,0-10,.19-15,0-1.1-.21-1.69-1.47-1.68-2.41,0-4.82-.05-7.23.06-.5,0-1.38.69-1.38,1.07,0,5.18.13,10.37.22,15.56"/><path class="cls-1" d="M344,443.11c-.78,1.36.15,1.39,1.15,1.39h7.52c1,0,1.32,0,1.27-1.39-.19-5.09,0-10.19.2-15.29,0-1.3-.41-1.74-1.76-1.69-2.31.09-4.63-.05-6.94.07-.59,0-1.66.69-1.66,1.07,0,5.18.12,10.37.22,15.56"/><path class="cls-1" d="M78.32,396.41c-1.64,0-3.28.07-4.92,0-1.15-.07-1.45.45-1.45,1.41q0,8.34,0,16.68c0,1,.3,1.44,1.45,1.41q4.92-.11,9.83,0c1.16,0,1.45-.45,1.45-1.41q0-8.34,0-16.68c0-1-.29-1.48-1.45-1.41-1.54.09-3.08,0-4.62,0"/><path class="cls-1" d="M335,453.12c-1.54-.1-3.08-.25-4.62-.23-.29,0-.83.69-.83,1.06-.05,6,0,12.05,0,18.07,0,1.26.42,1.35,1.75,1.19a29.34,29.34,0,0,1,7.49,0c1.5.22,1.46-.24,1.46-1.21,0-5.93,0-11.86-.05-17.79a1.77,1.77,0,0,0-1.11-1.32,23.84,23.84,0,0,0-3.76.21"/><path class="cls-1" d="M59,396.41c-1.74-.09-3.47-.28-5.2-.21-.41,0-1.11.85-1.11,1.32-.08,5.65-.09,11.31,0,17A2,2,0,0,0,54,415.81c3.27.12,6.55.11,9.82,0,.4,0,1.1-.86,1.11-1.33q.12-8.48,0-17c0-.47-.7-1.3-1.11-1.32a42.13,42.13,0,0,0-4.62.21"/><path class="cls-1" d="M373.48,289.67c2,.62,3.2,2.39,2.59,3.88a3,3,0,0,1-3.73,1.92c-1.59-.37-2.37-2.31-2.08-3.87.33-1.72,1.79-1.53,2.93-1.93"/><path class="cls-1" d="M285.89,289.94c-.19,1.49-.45,3-.53,4.45,0,.36.53.74.82,1.11.29-.37.84-.75.82-1.11-.09-1.49-.34-3-.53-4.45"/><path class="cls-1" d="M459.92,289.94c-.19,1.49-.44,3-.53,4.45,0,.36.53.74.82,1.11.29-.37.84-.75.82-1.11-.08-1.49-.34-3-.53-4.45"/><path class="cls-1" d="M78.32,373.06a4.15,4.15,0,0,0-.87-.27c-5.48-.38-5.86,0-5.5,5.27.15,2.22-.61,5.07.56,6.47.87,1,4.18.1,6.38.22,5.48.32,5.88,0,5.5-5.3a11.5,11.5,0,0,1,0-1.66c.39-5.31.16-5.5-5.78-4.73"/><path class="cls-1" d="M59.24,373.06a4.15,4.15,0,0,0-.87-.27c-5.48-.38-5.85,0-5.51,5.27a41.47,41.47,0,0,1,0,4.73c-.07,1.44.37,2.06,2,2,2.89-.14,5.78-.09,8.67,0,1.36,0,1.8-.39,1.76-1.69-.08-3,0-5.94-.07-8.9,0-.47-.7-1.3-1.11-1.32a42.13,42.13,0,0,0-4.62.21"/><path class="cls-1" d="M131.51,166.65a6.63,6.63,0,0,1,1.21,6.14,7,7,0,0,0,.25,2.71c.1.54.48,1.06.55,1.59.35,3-.83,6,1.12,8.88.3.44,0,1.23-.27,1.78a4,4,0,0,0,.25,4.12c1.63,2.77.63,5.51-1.42,7.89a20.28,20.28,0,0,1-9.55,6c-1.92.58-2.6,1.56-2.73,2.62a23.72,23.72,0,0,0,.47,5.21"/><path class="cls-1" d="M133.54,190.48a24.63,24.63,0,0,1-10.7,7.26"/><path class="cls-1" d="M21.08,373.06h-.29c-5.7-.89-6.14-.51-5.8,4.73a44.29,44.29,0,0,1,0,5.28c-.07,1.3.41,1.72,1.76,1.69,3.08-.08,6.17-.07,9.25,0,1.16,0,1.46-.46,1.45-1.42,0-3,.06-6.11-.07-9.17A2,2,0,0,0,26,372.85a37.69,37.69,0,0,0-4.62.21"/><path class="cls-1" d="M40.74,373.06h-.29c-5.71-.89-6.14-.51-5.8,4.73a44.29,44.29,0,0,1,0,5.28c-.07,1.3.41,1.72,1.76,1.69,3.08-.08,6.17-.07,9.25,0,1.15,0,1.45-.46,1.45-1.42,0-3,.06-6.11-.07-9.17a2,2,0,0,0-1.38-1.32,37.94,37.94,0,0,0-4.63.21"/><path class="cls-1" d="M248.59,396.41c-1.06-.19-2.11-.38-3.18-.55-1.38-.23-1.75.46-1.74,1.66,0,5,0,10,.07,15,0,.38.89,1,1.39,1.06,2.11.12,4.24,0,6.35.08,1.36.06,1.76-.4,1.77-1.69,0-4.82.14-9.64.27-14.46,0-2-1.38-1.64-2.61-1.67s-2.4-.05-2.33,1.67,0,3.15,0,4.73"/><path class="cls-1" d="M32.35,291.05c-.09.75-.19,1.49-.29,2.23l2.6-.28"/><path class="cls-1" d="M40.16,293l2,.28v-6.12l-2.31.28"/><path class="cls-1" d="M270.28,239v9.31"/><path class="cls-1" d="M202.92,464.79c-.1.1-.28.19-.28.28.08,1.85-.47,4.2.5,5.39.69.86,3.44.16,5.27.18.29,0,.58.25.87.26,5.09.13,5.07.13,4.92-4.72-.06-2,0-4.08,0-6.11,0-1.24,0-1.71-1.76-1.5a49.73,49.73,0,0,1-8.08-.18c-1.06-.05-1.88,0-1.74,1.4.15,1.57.2,3.15.3,4.72"/><path class="cls-1" d="M97.69,373.06H97.4c-5.43-1-6.1-.43-5.79,4.73.14,2.31-.64,5.28.57,6.73.92,1.09,4.35.26,6.66.21,6.4-.16,5,1.15,5.2-5,0-1.76-.06-3.52,0-5.28.06-1.11-.21-1.74-1.47-1.67l-4.62.28"/><path class="cls-1" d="M32.64,305c2.31-.18,4.62-.43,6.94-.49.37,0,1.1.86,1.1,1.33q.14,6.94,0,13.9c0,.47-.73,1.33-1.1,1.32-2.32-.05-4.63-.3-6.94-.49"/><path class="cls-1" d="M21.37,396.69a48.2,48.2,0,0,0-4.92-.49c-.38,0-1.1.85-1.1,1.32-.08,5.65,0,11.31-.06,17,0,1,.3,1.44,1.45,1.41,3.08-.07,6.17-.08,9.25,0,1.35,0,1.78-.39,1.76-1.69-.06-5.47,0-10.93,0-16.4,0-1.19-.09-1.88-1.76-1.46a18.2,18.2,0,0,1-4.31.07"/><path class="cls-1" d="M41,396.41c-.67,0-1.35,0-2,0-1.35.07-3.34-.3-3.89.38-.73.92-.42,2.67-.43,4.06,0,4.35,0,8.71,0,13.06,0,1.56.43,2.05,2.06,2,2.89-.12,5.78-.09,8.67,0,1.15,0,1.75-.2,1.74-1.41,0-5.65,0-11.31,0-17,0-1,0-1.6-1.47-1.19a16.79,16.79,0,0,1-4.32.08"/><path class="cls-1" d="M261.6,239v9.31"/><path class="cls-1" d="M306.41,453.4c-1.54-.19-3.08-.45-4.62-.49-.28,0-.83.85-.83,1.32-.06,5.93,0,11.86,0,17.79,0,1,0,1.39,1.46,1.22a53.49,53.49,0,0,1,7.79.17c1,0,1.48-.28,1.47-1.39-.05-5.93,0-11.86-.07-17.79,0-.47-.72-1.32-1.11-1.32a24.36,24.36,0,0,0-3.76.49"/><path class="cls-1" d="M283.29,98.58c.19,2.12-.14,4.37.68,6.33,2.13,5.11-3.24,5.93-6.8,7.44-7.32,3.11-15.2,5.23-23,7.42a19.31,19.31,0,0,0-8.72,5.58"/><path class="cls-1" d="M279,239v9.31"/><path class="cls-1" d="M97.69,396.69a48.2,48.2,0,0,0-4.92-.49c-.38,0-1.1.85-1.1,1.32-.08,5.65,0,11.31-.06,17,0,1,.3,1.44,1.45,1.41,3.08-.07,6.17-.08,9.25,0,1.36,0,1.78-.39,1.76-1.69-.06-5.47,0-10.93,0-16.4,0-1.19-.08-1.88-1.76-1.46a18.2,18.2,0,0,1-4.31.07"/><path class="cls-1" d="M231,239v9.31"/><path class="cls-1" d="M296.58,432.27a31.79,31.79,0,0,0,.5-4.72c0-.48-1.05-1.29-1.66-1.33a51.7,51.7,0,0,0-6.93,0,2,2,0,0,0-1.38,1.32q-.15,7.92,0,15.85c0,.38.88,1,1.38,1.06,2.31.11,4.63.05,6.94.05,1,0,1.37,0,1.27-1.4a64.62,64.62,0,0,1,.47-8.88c.11-1.47-.51-2-2-2-2.5.08-5,0-7.52,0"/><path class="cls-1" d="M330.12,443.11a7.3,7.3,0,0,0,.33,1.38c0,.09.54,0,.83,0,8.38.81,8.38.81,8.38-7.23,0-3.15-.06-6.3,0-9.45,0-1.3-.41-1.75-1.77-1.69-2.11.09-4.24-.06-6.35.07-.6,0-1.66.69-1.66,1.07,0,5.18.11,10.37.21,15.56"/><path class="cls-1" d="M230.67,312.18a32.46,32.46,0,0,0-.22,4.17c0,.39.88,1,1.38,1.06,3.08.1,6.17,0,9.25.08,1.35,0,1.88-.39,1.74-1.7s-.24-2.77-.28-4.16c0-1.58.62-4-.17-4.54-1.14-.84-3.31-.41-5.05-.46s-3.47,0-5.2,0c-1.28,0-2.1,0-1.51,1.7a14.12,14.12,0,0,1,.35,3.59"/><path class="cls-1" d="M14.43,305c2.21-.18,4.43-.43,6.65-.49.37,0,1.09.86,1.1,1.33.09,4.63,0,9.26.08,13.9,0,1.67-1,1.35-2.05,1.4s-2.12.17-3.18.26"/><path class="cls-1" d="M70.8,221.57a24.19,24.19,0,0,0,4.92,9.08"/><path class="cls-1" d="M228.65,333.59a13.09,13.09,0,0,0-1.74-.27c-3.18-.09-3.18-.08-3.18,3.05,0,4.44.19,8.9-.1,13.33-.1,1.4.25,1.4,1.26,1.4,2.5,0,5,.06,7.51-.05.5,0,1.38-.69,1.39-1.06.09-5,0-10,.09-15,0-1.3-.41-1.84-1.76-1.68-1.06.13-2.12.19-3.18.29"/><path class="cls-1" d="M274.61,239v9.08"/><path class="cls-1" d="M182.39,321.91a26.48,26.48,0,0,0,.55-3.61c.07-4,0-8,.07-12,0-1.56-.44-2.15-2.07-1.95-1.92.23-3.85.38-5.78.56"/><path class="cls-1" d="M265.94,239v9.08"/><path class="cls-1" d="M257.27,239v9.08"/><path class="cls-1" d="M237.32,174.14c.19,2.12.35,4.24.59,6.36.11.91.37,1.81.57,2.72"/><path class="cls-1" d="M269.12,333.86c0,4.91,0,9.83,0,14.74,0,.74.39,2,.86,2.12a5.79,5.79,0,0,0,3.66,0c.58-.29.62-1.91.61-2.93,0-4.35-.35-8.72-.14-13.06.06-1.39-.26-1.4-1.27-1.39-2.41,0-4.82.06-7.23,0-1.35,0-1.78.4-1.76,1.7.07,5,0,10,.08,15a1.55,1.55,0,0,0,1.1,1.05,37,37,0,0,0,4.05-.5"/><path class="cls-1" d="M252.64,239v9.08"/><path class="cls-1" d="M248.59,239v9.08"/><path class="cls-1" d="M244,239v9.08"/><path class="cls-1" d="M244,464.79c-.1.1-.28.19-.28.28,0,1.85-.66,4.13.23,5.41.56.81,3.42.19,5.25.14s4.37.45,5.61-.48c.89-.67.17-3.31.17-5.07,0-.83.05-1.67,0-2.5-.25-4-.25-4-4.33-3.9a23.21,23.21,0,0,1-5.47-.08c-1.52-.33-1.51.23-1.46,1.2.07,1.57.18,3.15.28,4.72"/><path class="cls-1" d="M423.5,289.39c2.15,1,2.89,2.6,2,4.7-.26.6-1.24,1.42-1.65,1.31a3.4,3.4,0,0,1-2-1.59c-.83-1.68,0-3,1.39-4.14"/><path class="cls-1" d="M129.78,150.54c.48,1.44,1.32,2.87,1.36,4.32.05,2.28-.57,4.53.6,6.82s-.23,4.58-1.74,6.53-3.53,3.29-5.11,5c-2.08,2.31-1.76,5.05-1.75,7.7,0,.53.47,1.16.23,1.57-1.45,2.5-.94,5-.24,7.51"/><path class="cls-1" d="M93.93,304.68c-1.87,2.92-.45,6.12-.84,9.17a31.53,31.53,0,0,0,0,3.89"/><path class="cls-1" d="M149.15,243.13c-.1,1.59-.27,3.17-.27,4.76s.17,3.18.27,4.77"/><path class="cls-1" d="M144.81,243.81c.1,1.81.18,3.63.3,5.44,0,.23.35.53.25.67-.7,1-1.39,2.2.09,2.89.93.43,2.44.06,3.7.08l12.14.22"/><path class="cls-1" d="M122.84,472.14a6,6,0,0,1,.07-2.28,2.25,2.25,0,0,1,1.66-1.13c3.66-.11,7.33-.06,11-.06"/><path class="cls-1" d="M302.66,218.62a5.92,5.92,0,0,1-2,7.31A41.78,41.78,0,0,0,292,236.32"/><path class="cls-1" d="M288.49,241.54l-.87,3.18"/><path class="cls-1" d="M204.65,312.18c-.09.19-.26.37-.28.56-.5,4.6-.16,4.92,4.62,4.74,1.92-.08,3.86-.08,5.78,0,1.15.05,1.76-.21,1.74-1.42,0-2.68-.07-5.37,0-8.06.05-1.36-.69-1.42-1.76-1.4-2.7,0-5.4.13-8.09,0-1.9-.12-2.63.45-2.33,2.27.17,1,.21,2,.3,3"/><path class="cls-1" d="M297.74,220.66a117.38,117.38,0,0,1-19.93,7.53,1.62,1.62,0,0,0-.84,1.32c-.08,2.88,0,5.75,0,8.63"/><path class="cls-1" d="M290.51,290.5c-.57-1.11-1.19-2.21-1.72-3.34a19.73,19.73,0,0,0-.61-1.93c-1.24-2.1-1.73-2.14-3.75-.58a6.07,6.07,0,0,1-1.14.57"/><path class="cls-1" d="M133,182.77a27.64,27.64,0,0,1-8.91,7.09c-2.86,1.43-2.35,4.11-1.94,6.28.26,1.35-.23,2.44-.35,3.65a45,45,0,0,0,.21,6.35"/><path class="cls-1" d="M124.57,465.78h11"/><path class="cls-1" d="M31.77,471.56c0-3.39,0-3.35,3.47-3.19s6.75.21,10.12.3"/><path class="cls-1" d="M96,289.67c-.07,1.49-1.37,3.05.29,4.44"/><path class="cls-1" d="M452.12,339.15a1.38,1.38,0,0,1-.29,0c-5.26-.95-5.59-.67-5.5,4.18.05,3.14.06,6.3,0,9.45,0,1.1.21,1.68,1.47,1.67,4.72,0,9.45-.05,14.17,0,1.42,0,1.46-.67,1.46-1.69q-.06-6.12,0-12.23c0-1,0-1.76-1.46-1.69-3.18.16-6.36.2-9.54.3"/><path class="cls-1" d="M415.69,339.15a1.43,1.43,0,0,1-.29,0c-5.25-.95-5.58-.67-5.5,4.18.05,3.14.06,6.3,0,9.45,0,1.1.22,1.68,1.48,1.67,4.72,0,9.44-.05,14.16,0,1.42,0,1.47-.67,1.46-1.69q0-6.12,0-12.23c0-1,0-1.76-1.46-1.69-3.18.16-6.36.2-9.54.3"/><path class="cls-1" d="M76.58,293l1.74.56q.14-3.35.29-6.67l-2.32.55"/><path class="cls-1" d="M70.8,287.44c-1.49-1-2.35-.83-2.31,1.11,0,1,.05,2,0,3.06-.15,2.28,1,2.3,2.61,1.39"/><path class="cls-1" d="M176.61,287.44c-1.49-1-2.35-.83-2.32,1.11,0,1,.06,2,0,3.06-.15,2.28,1,2.3,2.61,1.39"/><path class="cls-1" d="M182.39,293l1.74.56q.13-3.35.29-6.67l-2.32.55"/><path class="cls-1" d="M379.27,339.15a1.38,1.38,0,0,1-.29,0c-5.47-1-5.66-.77-5.53,4.45.08,3.06-.11,6.12-.28,9.18-.06,1.3.41,1.71,1.76,1.69,4.62-.07,9.25,0,13.88,0,1.28,0,1.69-.05,1.55-1.69-.34-4.05-.12-8.15-.1-12.22,0-.85.05-1.69-1.16-1.66-3.19.06-6.36.17-9.55.27"/><path class="cls-1" d="M15.58,287.16c-.88-.51-1.87-1.2-2,.56-.1,1.29,0,2.6,0,3.89-.13,2.28.95,2.3,2.61,1.39"/><path class="cls-1" d="M21.66,293l1.73.56c.1-2.23.19-4.45.29-6.67l-2.31.55"/><path class="cls-1" d="M457,306.62c0-3,.05-5.93,0-8.89a6.16,6.16,0,0,0-.82-2,6,6,0,0,0-.83,2c-.09,3,0,5.93,0,8.89"/><path class="cls-1" d="M370.59,434.77a25.41,25.41,0,0,0-4-.47c-.4,0-1.1,1-1.11,1.58-.09,4.26.14,8.54-.16,12.78-.1,1.41.26,1.4,1.27,1.4,2.6,0,5.2,0,7.8,0,1.26,0,1.49-.57,1.47-1.68-.06-4.07-.1-8.15,0-12.23.05-1.78-.88-2-2.35-2s-3-.39-2.92,2c.12,4.45,0,8.9,0,13.34"/><path class="cls-1" d="M389.67,434.77a25.41,25.41,0,0,0-4-.47c-.4,0-1.1,1-1.11,1.58-.09,4.26.14,8.54-.16,12.78-.1,1.41.26,1.4,1.27,1.4,2.6,0,5.2.06,7.8-.05.5,0,1.38-.68,1.38-1.06q.15-6.68.05-13.35c0-2-1.77-1.24-2.88-1.37-1.47-.19-2.37.18-2.34,1.93.1,4.45,0,8.9,0,13.34"/><path class="cls-1" d="M408.75,434.77a25.41,25.41,0,0,0-4-.47c-.4,0-1.1,1-1.11,1.58-.09,4.26.14,8.54-.16,12.78-.1,1.41.26,1.4,1.27,1.4,2.69,0,5.4.05,8.09-.05.5,0,1.38-.68,1.38-1.06.1-4.45.11-8.9,0-13.34a1.92,1.92,0,0,0-1.38-1.32,22.11,22.11,0,0,0-3.76.48"/><path class="cls-1" d="M294,222.93c.1,1.89.12,3.79.33,5.67a11.83,11.83,0,0,0,.83,2.5"/><path class="cls-1" d="M466,434.77a8.44,8.44,0,0,0-1.73-.54c-3.28-.24-3.48-.05-3.47,3,0,3.62,0,7.23,0,10.84,0,1.29.12,2.05,1.77,2,2.5-.11,5,0,7.51-.08.5,0,1.38-.68,1.38-1.06q.15-6.68,0-13.35c0-2-1.73-1.29-2.86-1.37-1.44-.11-2.69-.11-2.64,1.93.11,4.45,0,8.9,0,13.34"/><path class="cls-1" d="M417.14,296.06q-.3,5.28-.58,10.56"/><path class="cls-1" d="M120.24,395.58l-10.41-.28"/><path class="cls-1" d="M466.28,398.63c-5.26-.95-5.59-.68-5.5,4.17.05,2.69.07,5.38,0,8.06,0,1.31.41,1.75,1.77,1.7a66.74,66.74,0,0,1,6.93,0c1.67.11,2.08-.54,2.05-2-.07-3.34-.14-6.68,0-10,.09-1.82-.47-2.54-2.36-2.23-.86.14-1.73.19-2.6.28"/><path class="cls-1" d="M167.07,243.58c1-1.35,1-1.49-.29-1.56a33.92,33.92,0,0,0-4.62,0c-.42,0-.78.56-1.16.86a4.45,4.45,0,0,0,1.45.65c1.43.09,2.89,0,4.33,0"/><path class="cls-1" d="M427.83,398.63a3.62,3.62,0,0,1-.57,0c-4.6-.75-4.7-.65-4.64,3.62,0,2.87.07,5.74,0,8.61,0,1.31.41,1.75,1.77,1.7a66.75,66.75,0,0,1,6.93,0c1.67.11,2.08-.54,2.05-2-.07-3.34-.14-6.68,0-10,.09-1.82-.47-2.53-2.36-2.23-.95.14-1.92.19-2.89.28"/><path class="cls-1" d="M460.21,268.54c.1-.75.17-1.51.3-2.27a2.35,2.35,0,0,0-2.61-2.47c-1.69.09-2.47.84-2.37,2.25,0,.51-.67,1-.78,1.59-.37,1.73-.61,3.48-.9,5.22"/><path class="cls-1" d="M408.75,398.63a3.62,3.62,0,0,1-.57,0c-4.6-.75-4.7-.65-4.64,3.62,0,2.87.07,5.74,0,8.61,0,1.31.41,1.75,1.77,1.7a66.75,66.75,0,0,1,6.93,0c1.67.11,2.08-.54,2-2-.07-3.34-.14-6.68,0-10,.09-1.82-.47-2.53-2.36-2.23-.95.14-1.92.19-2.89.28"/><path class="cls-1" d="M389.67,398.63a3.62,3.62,0,0,1-.57,0c-4.6-.75-4.7-.65-4.64,3.62,0,2.87.07,5.74,0,8.61,0,1.31.41,1.75,1.77,1.7a66.75,66.75,0,0,1,6.93,0c1.67.11,2.08-.54,2.05-2-.07-3.34-.14-6.68,0-10,.09-1.82-.47-2.53-2.36-2.23-1,.15-1.92.19-2.89.28"/><path class="cls-1" d="M348.91,426.71v15.57"/><path class="cls-1" d="M370.59,398.63a3.62,3.62,0,0,1-.57,0c-4.6-.75-4.7-.65-4.64,3.62,0,2.87.07,5.74,0,8.61,0,1.31.41,1.75,1.76,1.7a40.91,40.91,0,0,1,6.36,0c2.28.27,2.72-.63,2.64-2.55a77.54,77.54,0,0,1,0-8.89c.16-2.27-.6-3.17-2.95-2.79-.76.13-1.54.19-2.31.28"/><path class="cls-1" d="M334.75,426.71v15.57"/><path class="cls-1" d="M132.38,175.05c-2.12,2-4.21,4-6.39,5.88a8.21,8.21,0,0,1-2,.93"/><path class="cls-1" d="M320.58,426.71v15.57"/><path class="cls-1" d="M148.86,343.87l-2-1.67c-.48.56-1.35,1.12-1.35,1.67,0,.74.68,1.48,1.06,2.22l2.61-1.94"/><path class="cls-1" d="M446.91,434.77a8.44,8.44,0,0,0-1.73-.54c-3.29-.24-3.48-.05-3.47,3,0,3.62.05,7.23,0,10.84,0,1.29.12,2.05,1.77,2,2.5-.11,5,0,7.51-.08.5,0,1.38-.68,1.38-1.06q.15-6.68,0-13.35c0-2-1.73-1.29-2.86-1.37-1.44-.11-2.69-.11-2.64,1.93.11,4.45,0,8.9,0,13.34"/><path class="cls-1" d="M446.91,398.63a3.62,3.62,0,0,1-.57,0c-4.6-.75-4.7-.65-4.64,3.62,0,2.87.07,5.74,0,8.61,0,1.31.41,1.75,1.77,1.7a66.74,66.74,0,0,1,6.93,0c1.67.11,2.08-.54,2.05-2-.07-3.34-.14-6.68,0-10,.09-1.82-.47-2.53-2.36-2.23-.95.15-1.92.19-2.89.28"/><path class="cls-1" d="M275.48,101.3l-5.2,2.27"/><path class="cls-1" d="M115.61,243.35v9.31"/><path class="cls-1" d="M455.3,280.77l.87,14.73"/><path class="cls-1" d="M292.25,426.71v15.57"/><path class="cls-1" d="M133.54,243.13a23.61,23.61,0,0,0-.58,9.53"/><path class="cls-1" d="M117.92,255.2c-1.65.26-2.73.82-3,2.76-.16,1-1.6,1.88-2.48,2.79-.56.58-1.16,1.12-1.73,1.67"/><path class="cls-1" d="M160.13,439.22c0,5,.08,10,0,15,0,1.62.53,2.12,2.07,1.95.86-.1,1.73-.24,2.6-.27,1.35-.05,3.56.44,3.87-.11.67-1.17.44-2.87.45-4.35,0-4.08,0-8.15,0-12.23"/><path class="cls-1" d="M375.51,374.17c.89-4.56.51-5-4.05-4.74a39.56,39.56,0,0,1-4.62,0c-1.36-.08-1.79.39-1.77,1.69.08,3.52.08,7.05,0,10.57,0,1.3.41,1.81,1.77,1.68.76-.08,1.54,0,2.31,0,2.22-.16,5.28.39,6.41-.77s.26-4,.22-6.18a16.44,16.44,0,0,0-.27-1.94"/><path class="cls-1" d="M389.67,369.72a16.81,16.81,0,0,0-1.73-.27c-3.86-.18-4.07.15-3.8,3.89a67.73,67.73,0,0,1,0,8.06c-.08,1.56.43,2.18,2.06,2a25.23,25.23,0,0,1,2.89-.27c1.92,0,4.6.71,5.57-.22s.21-3.5.21-5.35c0-1.3-.07-2.6,0-3.89.28-4.34-.21-4.75-4.93-3.9"/><path class="cls-1" d="M413.67,374.17c.89-4.56.51-5-4.05-4.74a39.56,39.56,0,0,1-4.62,0c-1.36-.08-1.79.39-1.77,1.69.08,3.52.08,7.05,0,10.57,0,1.3.41,1.81,1.77,1.68.76-.08,1.54,0,2.31,0,2.22-.16,5.28.39,6.41-.77s.26-4,.22-6.18a16.44,16.44,0,0,0-.27-1.94"/><path class="cls-1" d="M427.83,369.72a16.81,16.81,0,0,0-1.73-.27c-3.86-.18-4.07.15-3.8,3.89a67.73,67.73,0,0,1,0,8.06c-.08,1.56.43,2.18,2.06,2a25.23,25.23,0,0,1,2.89-.27c1.92,0,4.6.71,5.57-.22s.21-3.5.21-5.35c0-1.3-.07-2.6,0-3.89.28-4.34-.21-4.75-4.93-3.9"/><path class="cls-1" d="M446.91,369.72a16.81,16.81,0,0,0-1.73-.27c-3.86-.18-4.07.15-3.8,3.89a67.73,67.73,0,0,1,0,8.06c-.08,1.56.43,2.18,2.06,2a28,28,0,0,1,3.18-.27c1.83-.05,4.37.67,5.29-.21s.2-3.32.2-5.09c0-2-.16-4.09,0-6.11s-.59-2.43-2.36-2.23c-.86.11-1.73.19-2.6.28"/><path class="cls-1" d="M466,369.72a16.81,16.81,0,0,0-1.73-.27c-3.86-.18-4.07.15-3.8,3.89a67.73,67.73,0,0,1,0,8.06c-.08,1.56.43,2.18,2.06,2a28,28,0,0,1,3.18-.27c1.83-.05,4.37.67,5.29-.21s.2-3.32.2-5.09c0-2-.16-4.09,0-6.11s-.59-2.43-2.35-2.23c-.87.11-1.74.19-2.61.28"/><path class="cls-1" d="M261.6,72.71q.15,3.86.29,7.71"/><path class="cls-1" d="M39.58,40.48v16.8"/><path class="cls-1" d="M257.27,74.52c.19,2,.39,4.09.57,6.13,0,.45,0,.91,0,1.36"/><path class="cls-1" d="M128.33,243.81v8.85"/><path class="cls-1" d="M266.52,71.57v7.49"/><path class="cls-1" d="M270.28,70q.29,3.75.58,7.49"/><path class="cls-1" d="M287,265.59c1.08-.94,1.56-.32,2,.45a6.71,6.71,0,0,0,.86.92c.19-.46.72-1.15.52-1.32-.83-.71-1.83-1.7-2.85-1.76-1.63-.09-2.14.93-1.45,2.17.11.19,0,.45,0,.68"/><path class="cls-1" d="M272.3,230.87v7.27"/><path class="cls-1" d="M21.37,253.53c-2,2.41-4.06,4.81-6.07,7.23-.43.52-.78,1.11-1.16,1.66"/><path class="cls-1" d="M139,256.86c1.42-1.85,3.5-2.07,3.91-.25.59,2.67,2.42,3.79,4.46,5,.2.12.2.54.3.81"/><path class="cls-1" d="M228.65,333.86v16.68"/><path class="cls-1" d="M208.41,428.38v15"/><path class="cls-1" d="M368.28,245.19c-2.68,2.1-5.11,4.34-4.91,8.06"/><path class="cls-1" d="M274.9,68.17c.2,2.34.39,4.69.58,7"/><path class="cls-1" d="M273.75,432.27a5,5,0,0,0,.27-1.11c.08-3.47-.2-3.71-3.74-3.34-1.74.18-3.95-.17-5,.74-.81.66-.08,3-.17,4.54-.23,3.7-.26,3.69,3.77,3.34a8.42,8.42,0,0,1,.87,0c4.34.21,4.34.21,4.34-3.89"/><path class="cls-1" d="M248.59,428.38v14.73"/><path class="cls-1" d="M248.88,402.8q-.13,4.17-.29,8.34"/><path class="cls-1" d="M179.21,305v16.4"/><path class="cls-1" d="M248.88,363.89v14.45"/><path class="cls-1" d="M269.12,363.89v14.45"/><path class="cls-1" d="M16.74,322.47l-11.56.27"/><path class="cls-1" d="M288.49,375.28c-.19,2.41-.47,4.82-.48,7.23,0,.37,1.25,1.05,1.93,1.06,2.5,0,5-.13,7.51-.23"/><path class="cls-1" d="M335,370v13.34"/><path class="cls-1" d="M348.91,370v13.34"/><path class="cls-1" d="M292.83,370v13.34"/><path class="cls-1" d="M271.43,46.84a44,44,0,0,0-6.06-.18c-3.35.34-5,2.13-5.21,4.72"/><path class="cls-1" d="M18.19,333.31v16.12"/><path class="cls-1" d="M267.68,232c.09,2.12.19,4.23.28,6.35"/><path class="cls-1" d="M273.46,55.23q.14,6.36.29,12.71"/><path class="cls-1" d="M321.16,370v13.34"/><path class="cls-1" d="M160.42,469.24c2.51.09,5,.23,7.52.26,1.83,0,1.38-1.64,1.07-2.16-1-1.6,2-4.2-1.37-5a8.51,8.51,0,0,0-2.31.23c-1.73.12-4.13-.42-5,.46s-.06,3.17-.24,4.83a9,9,0,0,1-1.1,2.5"/><path class="cls-1" d="M36.69,305v15.57"/><path class="cls-1" d="M55.19,305v15.57"/><path class="cls-1" d="M73.69,305v15.57"/><path class="cls-1" d="M18.48,305v15.57"/><path class="cls-1" d="M368,243.8c.65,1.12,1.8,1.8,1,3.67-.9,2.14.68,4,2.75,5.22"/><path class="cls-1" d="M180.66,406.69v12.79"/><path class="cls-1" d="M163.89,406.69v12.79"/><path class="cls-1" d="M292.83,400v13.35"/><path class="cls-1" d="M307,400v13.35"/><path class="cls-1" d="M147.12,406.69v12.79"/><path class="cls-1" d="M320.87,400.3q.15,6.54.29,13.07"/><path class="cls-1" d="M335,400v13.35"/><path class="cls-1" d="M348.91,400v13.35"/><path class="cls-1" d="M130.35,406.69v12.79"/><path class="cls-1" d="M130.35,159.62l-5.2,5.9"/><path class="cls-1" d="M267.39,36.85V43"/><path class="cls-1" d="M126.89,145.55c3-2.66,2.83-5.58,1.15-8.62l.58-4.31c1.32-1.05.36-1.77-.58-2.5"/><path class="cls-1" d="M432.17,251.58c-1.42-2.46-1.84-5.39-5.45-6.51-3.76-1.16-5.92-1.19-8.75,1.19-1.23,1-1.52,3.44-4,2.82-.1.37-.39.84-.25,1.09s.73.58,1.11.86l.58-1.39"/><path class="cls-1" d="M97.69,397v18.34"/><path class="cls-1" d="M331.57,251.58c-1.24-2.68-2.22-5.41-5.47-6.73s-5.44-1.37-8.09.93a13.84,13.84,0,0,0-3.13,3.9c-.44.84-.09,2-1.53.79l-.87,2.78"/><path class="cls-1" d="M419.74,245.47c-.46,2.7-.76,5.36,2,7.22"/><path class="cls-1" d="M307.28,375.56a44.2,44.2,0,0,0-.23,6.39c.32,3.08,2.71,1.29,4.28,1.39"/><path class="cls-1" d="M21.37,397v18.34"/><path class="cls-1" d="M78.32,396.69v18.62"/><path class="cls-1" d="M319.13,245.47c-.45,2.7-.75,5.36,2,7.22"/><path class="cls-1" d="M41,396.69c-.09,4-.21,8-.28,11.95,0,2.22,0,4.45,0,6.67"/><path class="cls-1" d="M59,396.69v18.62"/><path class="cls-1" d="M377.82,245.74c1.43,3,.16,5.16-2.31,6.95"/><path class="cls-1" d="M306.41,453.67q-.14,6.54-.29,13.07"/><path class="cls-1" d="M164.76,439.22v16.4"/><path class="cls-1" d="M405,420.59v6.68"/><path class="cls-1" d="M335,453.4v19.45"/><path class="cls-1" d="M285.6,246.58c-1.76,1.94-1.74,4.3-1.74,6.67"/><path class="cls-1" d="M127.46,99.71c0,3.56,0,7.11,0,10.67a3,3,0,0,0,.89,2.22c1.62,1.3.38,2-.64,2.77"/><path class="cls-1" d="M292.25,453.4c0,5.55,0,11.11,0,16.67,0,.93-.18,1.86-.28,2.78"/><path class="cls-1" d="M390.25,178.45H356.14"/><path class="cls-1" d="M377.82,424.21c.77.92,1.53,1.86,2.32,2.77a4,4,0,0,0,.86.56,3.75,3.75,0,0,0,.27-1.11c-.06-1.95-.17-3.89-.27-5.84"/><path class="cls-1" d="M130.35,294.11c-.38-.74-1.29-1.74-1.06-2.17.91-1.67.41-2.49-1.23-3.16-.25-.1-.21-.88-.31-1.34a4.39,4.39,0,0,1,1.44.3c2.54,1.54,2.91,3,1.74,6.37"/><path class="cls-1" d="M390.25,162.57H356.14"/><path class="cls-1" d="M306.12,426.71v15.57"/><path class="cls-1" d="M274.61,51.38c-.29-.68-.52-1.38-.88-2-.63-1.15-1.39-2.26-2-3.41a5.33,5.33,0,0,0-4.65-2.64,4.63,4.63,0,0,0-4.33,3.78"/><path class="cls-1" d="M228.65,428.38v15"/><path class="cls-1" d="M148.28,294.11c2.05-1.31-.06-3.49,1.12-5,.23-.3-.11-1,.08-1.35a1.37,1.37,0,0,1,1.11-.53c.31,0,.58.51.87.79-.39.28-.73.7-1.16.81-3.55.86-3.9,1.54-2.6,5.3"/><path class="cls-1" d="M276.35,229.06c-3.76,1.06-7.52,2.11-11.28,3.18a1.84,1.84,0,0,0-1.46,2.27c.08,1.2,0,2.42,0,3.63"/><path class="cls-1" d="M463.39,301.62h-5.78"/><path class="cls-1" d="M290.51,247.69c2.44,1.2.95,3.58,1.74,5.28"/><path class="cls-1" d="M103.47,378.62l-11.28.28"/><path class="cls-1" d="M208.41,459v11.4"/><path class="cls-1" d="M83.81,378.62l-11.27.28"/><path class="cls-1" d="M164.47,276v5.56"/><path class="cls-1" d="M103.47,410H92.19"/><path class="cls-1" d="M84.1,410H72.54"/><path class="cls-1" d="M53.17,410H64.44"/><path class="cls-1" d="M46.52,410H35.24"/><path class="cls-1" d="M27.15,410H15.58"/><path class="cls-1" d="M426.39,343.87h-15.9"/><path class="cls-1" d="M462.81,343.87h-15.9"/><path class="cls-1" d="M64.73,378.62l-11.27.28"/><path class="cls-1" d="M46.52,378.9l-11.28-.28"/><path class="cls-1" d="M26.86,378.9l-11.28-.28"/><path class="cls-1" d="M97.69,373.34c-.1,1.76-.2,3.52-.29,5.28"/><path class="cls-1" d="M78.32,373.34c-.19,1.76-.39,3.52-.58,5.28"/><path class="cls-1" d="M59.24,373.34v10.84"/><path class="cls-1" d="M40.74,373.34v10.84"/><path class="cls-1" d="M21.08,373.34v10.84"/><path class="cls-1" d="M249.17,459.23v11.12"/><path class="cls-1" d="M362.79,296.61v10"/><path class="cls-1" d="M306.41,466.94v5.49"/><path class="cls-1" d="M288.78,301.62l-5.49.28"/><path class="cls-1" d="M438.24,420.59v7"/><path class="cls-1" d="M27.15,402.25H15.87"/><path class="cls-1" d="M46.52,402.25H35.24"/><path class="cls-1" d="M53.17,402.25H64.44"/><path class="cls-1" d="M84.1,402.25H72.54"/><path class="cls-1" d="M426.39,349.43h-15.9"/><path class="cls-1" d="M103.47,402.25H92.19"/><path class="cls-1" d="M462.81,349.43l-16.18.28"/><path class="cls-1" d="M35.82,47.07c.2,2.34.51,2.53,4,2.49,2.56,0,3.14-.48,3.18-2.49,0-.46,0-.91,0-1.37.05-1.75-1.14-2.31-3.18-2-.2,0-.42.24-.57.2-3.31-.75-3.6.83-3.48,2.74"/><path class="cls-1" d="M18.76,287.72v5.14"/><path class="cls-1" d="M182.39,287.72v5"/><path class="cls-1" d="M176.61,287.72v5"/><path class="cls-1" d="M73.69,287.72v5.14"/><path class="cls-1" d="M128,105.16c1.35,0,2.71-.07,4,0,.43,0,1.14.62,1.09.85a1.71,1.71,0,0,1-1.09,1.1,38.79,38.79,0,0,1-4,0"/><path class="cls-1" d="M76.58,287.72v5"/><path class="cls-1" d="M179.5,287.72v5.14"/><path class="cls-1" d="M70.8,287.72v5"/><path class="cls-1" d="M97.69,379.17v5"/><path class="cls-1" d="M78,379.17v5"/><path class="cls-1" d="M52.3,287.72v5"/><path class="cls-1" d="M254.67,464.79l-10.41-.28"/><path class="cls-1" d="M40.16,287.72v5"/><path class="cls-1" d="M21.66,287.72v5"/><path class="cls-1" d="M129.2,260.37c-3.57,1.2-4.14,2.68-1.75,4.33a2.77,2.77,0,0,0,3.5,0c1.31-.86,1.48-1.92.78-2.94-.41-.6-1.47-.93-2.24-1.39"/><path class="cls-1" d="M390,349.43H373.77"/><path class="cls-1" d="M307,370v5"/><path class="cls-1" d="M215.93,311.9h-11"/><path class="cls-1" d="M464,296.61v9.73"/><path class="cls-1" d="M368.86,98.35h-5.21"/><path class="cls-1" d="M383.6,296.61v10"/><path class="cls-1" d="M373.19,95a14.52,14.52,0,0,1,2.3,1.15c2.18,1.57,2.16,3.07,0,4.52a4.55,4.55,0,0,1-5.5-.68c-1.41-1.44-.81-3.23,1.45-4.31.37-.17.77-.31,1.16-.46"/><path class="cls-1" d="M69.07,343.32V356.1"/><path class="cls-1" d="M460.79,248.25c1.83,1.35.95,3.29,1.16,5"/><path class="cls-1" d="M390,343.87H373.77"/><path class="cls-1" d="M458.19,339.42v14.46"/><path class="cls-1" d="M452.12,339.42v14.46"/><path class="cls-1" d="M421.76,339.42v14.46"/><path class="cls-1" d="M415.69,339.42v14.46"/><path class="cls-1" d="M385.05,339.42v14.46"/><path class="cls-1" d="M379.27,339.42v14.46"/><path class="cls-1" d="M408.75,435.05V449.5"/><path class="cls-1" d="M231.25,311.9h11"/><path class="cls-1" d="M210.43,307.18v9.73"/><path class="cls-1" d="M236.74,307.18v9.73"/><path class="cls-1" d="M459.63,246.58a13.3,13.3,0,0,0-1.44-.55c-1.28-.33-2.7-1.05-1.54,1.42.54,1.16,0,2.75.15,4.13.05.49.71.93,1.1,1.39a6.15,6.15,0,0,0,1.13-1.4,31.41,31.41,0,0,0,.89-3"/><path class="cls-1" d="M375.8,422.54c-.1,1.57-.2,3.15-.29,4.73"/><path class="cls-1" d="M372.91,91.09V95"/><path class="cls-1" d="M213.61,464.51h-10.4"/><path class="cls-1" d="M149.44,358.6c.19,3,.42,5.93.51,8.9,0,.27-.88.76-1.39.8-1.43.1-3.24.53-4.21-.12-.77-.51-.72-2.45-.65-3.74.11-2,.53-4.08.82-6.11"/><path class="cls-1" d="M134.11,318h10.12"/><path class="cls-1" d="M108.67,318h10.12"/><path class="cls-1" d="M15.87,288v4.72"/><path class="cls-1" d="M296.87,459.51H287"/><path class="cls-1" d="M296.87,466.36H287"/><path class="cls-1" d="M55.19,287.72v4.72"/><path class="cls-1" d="M37,288v4.44"/><path class="cls-1" d="M470.62,378.9h-9.54"/><path class="cls-1" d="M451.54,378.9H442"/><path class="cls-1" d="M432.46,378.9h-9.54"/><path class="cls-1" d="M413.38,378.9h-9.54"/><path class="cls-1" d="M394.3,378.9h-9.54"/><path class="cls-1" d="M413.67,439.77h-9.83"/><path class="cls-1" d="M375.22,378.9h-9.54"/><path class="cls-1" d="M253.51,378.9l-9.25.27"/><path class="cls-1" d="M470.91,403.36h-4.63"/><path class="cls-1" d="M451.83,403.36H447.2"/><path class="cls-1" d="M353.54,442.83h-9.25"/><path class="cls-1" d="M127.17,124.9,125.44,126c.67.45,1.35,1.26,2,1.26s1.35-.81,2-1.26l-1.74-1.14"/><path class="cls-1" d="M432.75,403.36h-9.54"/><path class="cls-1" d="M375.22,445.06h-9.54"/><path class="cls-1" d="M413.67,403.36h-9.54"/><path class="cls-1" d="M394.59,445.33l-9.83-.27"/><path class="cls-1" d="M394.59,403.36h-9.54"/><path class="cls-1" d="M413.67,445.06h-9.83"/><path class="cls-1" d="M451.83,439.77l-9.54-.27"/><path class="cls-1" d="M461.37,407.81h9.54"/><path class="cls-1" d="M212.75,411.7h-9"/><path class="cls-1" d="M470.62,374.17h-9.54"/><path class="cls-1" d="M233,411.7h-9"/><path class="cls-1" d="M451.54,374.17H442"/><path class="cls-1" d="M432.46,374.17h-9.54"/><path class="cls-1" d="M408.46,374.17h-4.62"/><path class="cls-1" d="M73.69,345.26A5,5,0,0,0,69.06,343c-.54,0-1.15-.68-1.73-1.05"/><path class="cls-1" d="M394.3,374.17h-9.54"/><path class="cls-1" d="M375.22,374.17h-9.54"/><path class="cls-1" d="M375.51,403.36H366"/><path class="cls-1" d="M432.17,420.59c.1,2.23.19,4.45.29,6.68"/><path class="cls-1" d="M324.92,442.83h-9"/><path class="cls-1" d="M426.68,420.59l-1.74,4.17"/><path class="cls-1" d="M330.12,459.51h9.54"/><path class="cls-1" d="M442.29,407.81h9.54"/><path class="cls-1" d="M451.83,445.06h-9.54"/><path class="cls-1" d="M432.75,407.81h-9.54"/><path class="cls-1" d="M353.54,413.92h-9.25"/><path class="cls-1" d="M413.67,407.81h-9.54"/><path class="cls-1" d="M339.37,413.92h-9"/><path class="cls-1" d="M127.46,112.19c-2,1.59-2.11,2.15.65,4.26,1.22.93,1.23,1,0,1.92-2.65,2-2.57,2.69-.65,4.26"/><path class="cls-1" d="M394.59,408.08l-9.54-.27"/><path class="cls-1" d="M325.21,413.92h-8.68"/><path class="cls-1" d="M375.51,408.08l-9.54-.27"/><path class="cls-1" d="M259,234.73c.1,1.21.2,2.42.29,3.63"/><path class="cls-1" d="M296.3,442.83h-8.68"/><path class="cls-1" d="M353.83,185.49l-2.61,3.63"/><path class="cls-1" d="M392.56,185.49l2.61,3.63"/><path class="cls-1" d="M64.44,355.82c3.14,1.43,6.34,1,9.54.28"/><path class="cls-1" d="M93.93,322.19c-.1-1.3.23-3.43-.38-3.72-1.36-.64-3.19-.45-4.82-.38-.41,0-1,.81-1.11,1.33a14.19,14.19,0,0,0-.05,2.77"/><path class="cls-1" d="M311,466.36H301.5"/><path class="cls-1" d="M330.12,466.36h9.54"/><path class="cls-1" d="M158.69,322.19c0-.74,0-1.48,0-2.23,0-1.35.11-2.49,2-1.68a2.45,2.45,0,0,0,.86,0c3.76.07,3.76.08,3.76,3.89"/><path class="cls-1" d="M91.33,243.35l-4.63.23"/><path class="cls-1" d="M311,459.51H301.5"/><path class="cls-1" d="M382.16,98.35h-4.63"/><path class="cls-1" d="M470.91,445.06h-9.54"/><path class="cls-1" d="M446.91,398.91V412"/><path class="cls-1" d="M466.28,398.91q-.13,6.54-.29,13.07"/><path class="cls-1" d="M233.27,349.15H224"/><path class="cls-1" d="M273.75,349.15l-4.34.28"/><path class="cls-1" d="M125.15,252.89h11.28"/><path class="cls-1" d="M268.83,349.43l-4.33-.28"/><path class="cls-1" d="M77.74,320.24c-2.75,1.43-5.56,1-8.38.28"/><path class="cls-1" d="M427.83,398.91V412"/><path class="cls-1" d="M233.27,340H224"/><path class="cls-1" d="M353.54,432.27h-9.25"/><path class="cls-1" d="M252.93,443.39h-8.67"/><path class="cls-1" d="M233,443.67l-9-.28"/><path class="cls-1" d="M408.75,398.91V412"/><path class="cls-1" d="M212.75,402.25h-9"/><path class="cls-1" d="M389.67,398.91V412"/><path class="cls-1" d="M233,402.25h-9"/><path class="cls-1" d="M273.75,340H264.5"/><path class="cls-1" d="M297.45,405.58h-9"/><path class="cls-1" d="M73.69,352.77H64.44"/><path class="cls-1" d="M370.59,398.91V412"/><path class="cls-1" d="M344.57,383.62h9"/><path class="cls-1" d="M325.21,405.58h-8.68"/><path class="cls-1" d="M73.69,347.21H64.44"/><path class="cls-1" d="M264.78,378.9h9"/><path class="cls-1" d="M339.37,383.62l-9-.28"/><path class="cls-1" d="M325.21,383.34h-8.68"/><path class="cls-1" d="M307,383.07l-4.33.27"/><path class="cls-1" d="M146.83,358.33q-.14,4.73-.29,9.45"/><path class="cls-1" d="M436.51,465.78v4.34"/><path class="cls-1" d="M212.75,443.67l-9-.28"/><path class="cls-1" d="M339.37,405.58h-9"/><path class="cls-1" d="M77.74,305.23c-2.75-1.39-5.56-1-8.38-.28"/><path class="cls-1" d="M394.3,439.5l-9.25.27"/><path class="cls-1" d="M353.54,405.58h-9.25"/><path class="cls-1" d="M324.92,432.27h-9"/><path class="cls-1" d="M310.75,432.27h-9"/><path class="cls-1" d="M310.75,442.83h-9"/><path class="cls-1" d="M375.22,439.5l-9.25.27"/><path class="cls-1" d="M353.54,375.28h-9"/><path class="cls-1" d="M233,434.49h-9"/><path class="cls-1" d="M339.37,375.28l-9-.28"/><path class="cls-1" d="M212.75,434.49h-9"/><path class="cls-1" d="M297.45,413.92h-9"/><path class="cls-1" d="M311.33,413.92h-8.67"/><path class="cls-1" d="M325.21,375h-8.68"/><path class="cls-1" d="M466,370v12.79"/><path class="cls-1" d="M446.91,370v12.79"/><path class="cls-1" d="M427.83,370q-.13,6.39-.29,12.79"/><path class="cls-1" d="M389.67,370q-.14,6.39-.29,12.79"/><path class="cls-1" d="M370.3,370v12.79"/><path class="cls-1" d="M253.51,369.72h-9"/><path class="cls-1" d="M273.75,370h-9"/><path class="cls-1" d="M373.19,117.41c1.84,1.17.54,2-.58,2.72-2.67,1.78-2.78,2.49-.57,4.54"/><path class="cls-1" d="M461.37,439.5l9.39.55"/><path class="cls-1" d="M289.65,248.8c-.33,4-2.54,5.6-6.66,5-1.9-.26-3.85-.21-5.77-.3"/><path class="cls-1" d="M296.3,147.14a80.79,80.79,0,0,1-12.44,6.57c-.93.43-1.92.77-2.89,1.14"/><path class="cls-1" d="M408.46,370v12.79"/><path class="cls-1" d="M22.23,333.59c-2.74-1.39-5.56-1-8.38-.28"/><path class="cls-1" d="M102.31,287.16c1.06.84,2.14,1.65,3.15,2.54.08.08-.3.75-.58,1.05-.08.09-.79-.15-.8-.25,0-1.44-2.84-1.15-2.06-3.06"/><path class="cls-1" d="M409,373.89l4.34.28"/><path class="cls-1" d="M252.93,412l-8.67-.28"/><path class="cls-1" d="M465.71,403.08l-4.34.28"/><path class="cls-1" d="M339.08,442.83h-8.67"/><path class="cls-1" d="M446.63,403.08l-4.34.28"/><path class="cls-1" d="M67.62,343l-3.18,2.78"/><path class="cls-1" d="M38.42,333l-6.36.28"/><path class="cls-1" d="M392.56,420.32h-4"/><path class="cls-1" d="M248.88,434.21l4.05.28"/><path class="cls-1" d="M288.78,239.27c-2.46-1.63-5.47-.67-8.1-.78-8.46-.34-17-.18-25.44-.11-6.55.06-13.1.29-19.65.44"/><path class="cls-1" d="M127.75,119.45c1,.8,2.23,1.46.64,2.77-.66.55-.64,1.62-.93,2.45"/><path class="cls-1" d="M311.33,375h-8.67"/><path class="cls-1" d="M248.31,434.49h-4.05"/><path class="cls-1" d="M103.76,305H96.24"/><path class="cls-1" d="M289.07,245.74a14.81,14.81,0,0,0-2.31,0c-.33.05-.88.59-.83.79.51,2.05,1.11,4.09,1.69,6.12"/><path class="cls-1" d="M306.12,215.67l-7.8,5"/><path class="cls-1" d="M339.08,432.27h-8.67"/><path class="cls-1" d="M59.53,305c-2.83-.71-5.64-1.11-8.39.28"/><path class="cls-1" d="M127.17,129.89c-1.48,1.06-2,2.12,0,3.18v3.63a13.29,13.29,0,0,0-.86,8.85"/><path class="cls-1" d="M311.33,405.58h-8.67"/><path class="cls-1" d="M252.93,402.25h-8.67"/><path class="cls-1" d="M51.14,320.24c2.75,1.36,5.56,1.08,8.39.28"/><path class="cls-1" d="M133,243.35c-2.21,2.08-3.9,0-5.79-.45"/><path class="cls-1" d="M168.52,443.11h-7.81"/><path class="cls-1" d="M459.92,419.2c-.38,1.21-.71,2.43-1.17,3.61s-1.58,2.2-.61,3.65c.16.25-.31.91-.56,1.34,0,.05-.8-.17-.8-.26a13.58,13.58,0,0,1,.25-1.66"/><path class="cls-1" d="M160.71,450.62h7.81"/><path class="cls-1" d="M388.23,423.65c.19,1.21.38,2.41.58,3.62"/><path class="cls-1" d="M270,103.57l-3.76,1.36"/><path class="cls-1" d="M69.64,312.74a47.79,47.79,0,0,1,5.49.06,8.49,8.49,0,0,1,2.61,1.33"/><path class="cls-1" d="M59.24,312.74h-8.1"/><path class="cls-1" d="M127.46,116.28c-2.19.75-1.71,1.51,0,2.27"/><path class="cls-1" d="M40.16,312.74H32.64"/><path class="cls-1" d="M153.77,287.16l3.18,2.78"/><path class="cls-1" d="M269.41,428.38v7.78"/><path class="cls-1" d="M134.4,411.7h-8.09"/><path class="cls-1" d="M151.17,411.7h-8.09"/><path class="cls-1" d="M14.14,341.09h7.8"/><path class="cls-1" d="M167.94,411.7h-8.1"/><path class="cls-1" d="M184.7,411.7l-8.09.28"/><path class="cls-1" d="M273.46,432.27h-7.81"/><path class="cls-1" d="M168.52,465.78h-7.81"/><path class="cls-1" d="M47.1,46.84h-15"/><path class="cls-1" d="M89.3,281.88q20.67-.13,41.34-.27c6.46,0,12.92,0,19.37,0,4.73,0,9.45.17,14.17.26"/><path class="cls-1" d="M403.26,420.59v6.68"/><path class="cls-1" d="M429,420c-1.35,0-2.7,0-4.05,0-2.06,0-2.95,1-2.6,3.07"/><path class="cls-1" d="M175.45,312.74h6.94"/><path class="cls-1" d="M384.47,420a2,2,0,0,1,2.4,1.35c.3.62.42,1.65,2.22,1.65,2.36,0,1.17,2.68,1.45,4.23"/><path class="cls-1" d="M131.51,318c-3,0-6,.17-9,0-2.73-.2-2.75,1.29-2.61,3.11,0,.37,0,.74,0,1.11"/><path class="cls-1" d="M459.35,244.91c-1.2-1.25-2.28-2-2.61.56"/><path class="cls-1" d="M145.39,318.85v3.34"/><path class="cls-1" d="M14.72,312.74h6.94"/><path class="cls-1" d="M124.57,287.16c-1,.93-1.92,1.86-2.89,2.78"/><path class="cls-1" d="M130.07,305h-6.65"/><path class="cls-1" d="M408.18,427.82H418"/><path class="cls-1" d="M398.35,427.54l8.67.28"/><path class="cls-1" d="M407,420H396"/><path class="cls-1" d="M164.76,462.85V469"/><path class="cls-1" d="M372.91,114.69a2.51,2.51,0,0,0-.58.23c-1.87,1.26,1.48,1.63.78,2.2-1,.82-2.12,1.29-.49,2.33"/><path class="cls-1" d="M398.06,420.59c.09,1.86.25,3.71.27,5.56,0,1.44-.91,1.9-2.3,1.67"/><path class="cls-1" d="M394.3,420c-2.52,0-2.39,2.51-3.76,3.61"/><path class="cls-1" d="M413.38,419.2a10.84,10.84,0,0,0,.6,2.22c1.37,2.7,1.2,3-2.05,3.62"/><path class="cls-1" d="M263.05,233.14c-3.57,1.14-7.16,2.22-10.67,3.45-.74.25-1.18,1-1.76,1.55"/><path class="cls-1" d="M94.22,318.57c3.89-1.26,7.87-.89,11.85-.55"/><path class="cls-1" d="M450.38,420.32a5.1,5.1,0,0,1-1.44.52,10.93,10.93,0,0,1-2-.25"/><path class="cls-1" d="M288.2,241.54c-1.55,1-2.56,2.18-1.73,3.86"/><path class="cls-1" d="M155.22,305a28.38,28.38,0,0,0-4.33.06,9.62,9.62,0,0,0-2.61,1.33"/><path class="cls-1" d="M127.75,287.16c-.19-.09-.4-.29-.57-.26-.78.15-1.55.36-2.32.54l2,.84"/><path class="cls-1" d="M102,287.16c-2.13-.68-4.93,0-5.4,1.69-.23.79.49,1.83.78,2.76"/><path class="cls-1" d="M260.74,106.29l-4.05,1.36"/><path class="cls-1" d="M155.8,290.5c-.35-1.39-3.23-1.14-2.32-3.34h-2.6"/><path class="cls-1" d="M154.93,292.17h-5.21"/><path class="cls-1" d="M127.46,127.62c.1.68.2,1.37.29,2"/><path class="cls-1" d="M128.91,292.17h-5.2"/><path class="cls-1" d="M103.47,292.17h-5.2"/><path class="cls-1" d="M392.56,427.82H386.2"/><path class="cls-1" d="M149.44,365.83h-5.21"/><path class="cls-1" d="M149.44,361.11h-5.21"/><path class="cls-1" d="M413.09,420.87c-.87,2.13-1.73,4.26-2.6,6.4"/><path class="cls-1" d="M386.78,420.32c2.27-.52,1.84,1.56,2.6,2.5"/><path class="cls-1" d="M434.77,427.82h-4.62"/><path class="cls-1" d="M440,420h-4.05"/><path class="cls-1" d="M383.31,420h-4.62"/><path class="cls-1" d="M377,421.15l-1.15,1.11c.86.46,1.72.95,2.61,1.36.08,0,.37-.34.57-.52-1.37-.91-1.42-3.54-4.06-2.81-.42.11-.95-.16-1.44-.25"/><path class="cls-1" d="M148.57,243.58c-1.67,1.58-2.78.12-4-.45"/><path class="cls-1" d="M381.87,296.06h6.07"/><path class="cls-1" d="M422.92,420.32l-3.76-.28"/><path class="cls-1" d="M424.65,427c.2-.19.59-.46.55-.55a30.43,30.43,0,0,0-1.45-2.77,4.24,4.24,0,0,0-.83.26l1.44,3.61"/><path class="cls-1" d="M377.53,427.82h-4"/><path class="cls-1" d="M399.79,420.59c-.45,1.16-.78,2.31.29,3.34"/><path class="cls-1" d="M93.93,315.52h1.44"/><path class="cls-1" d="M402.68,423.93c-3.07-.26-3.76.53-2.89,3.34"/><path class="cls-1" d="M332.72,296.34h-2.89"/><path class="cls-1" d="M415.11,424.21l-.86,3.06"/><path class="cls-1" d="M416.56,296.34h-2.89"/><path class="cls-1" d="M316.53,296.06l-4,.28"/><path class="cls-1" d="M432.46,296.06l1.44.28"/><path class="cls-1" d="M431,296.34l-1.15-.28"/><path class="cls-1" d="M457.9,420.59l-1.45-.83-.86,2.78"/><path class="cls-1" d="M128.62,110.49h-2.31"/><path class="cls-1" d="M98,288l1.15.83v-1.39"/><path class="cls-1" d="M373.19,245.47c-2.45,1.69-2.92,3-1.74,4.45s2.64,1.46,4,.52a2.54,2.54,0,0,0,0-4.11,7,7,0,0,0-2-.86"/><path class="cls-1" d="M91.91,431.71c-.29.56-.83,1.11-.83,1.67-.06,8.06,0,16.12-.08,24.18,0,1.56.44,2.05,2.06,2,3.18-.12,6.36-.09,9.54,0,1.35,0,1.77-.4,1.76-1.7q-.08-12.22,0-24.46c0-1.3-.41-1.72-1.76-1.69-3.47.07-6.94,0-10.41,0"/><path class="cls-1" d="M72.25,431.71c-.29.56-.83,1.11-.83,1.67-.06,8.06,0,16.12-.08,24.18,0,1.56.44,2.05,2.06,2,3.18-.12,6.36-.08,9.54,0,1.51,0,2.09-.37,2.07-2q-.14-11.94,0-23.9c0-1.6-.56-2-2.07-2-3.46.07-6.93,0-10.4,0"/><path class="cls-1" d="M54.32,431.71c-.38.47-1.1.93-1.1,1.39-.07,8.34,0,16.68-.08,25,0,1.11.48,1.4,1.47,1.4,3.18,0,6.36.05,9.54-.07a2,2,0,0,0,1.39-1.33c.08-8.34,0-16.68.08-25,0-1.36-.69-1.41-1.76-1.4-3.08,0-6.16,0-9.25,0"/><path class="cls-1" d="M16.16,431.71c-1.49,0-1.15,1.11-1.15,2q0,11.25,0,22.52c0,1-.41,2.58.09,2.93.81.56,2.22.37,3.38.39,2.4,0,4.82-.05,7.22,0,1.36,0,1.77-.4,1.76-1.7q-.08-12.22,0-24.46c0-1.3-.4-1.73-1.76-1.69-3.08.08-6.16,0-9.25,0"/><path class="cls-1" d="M146.26,340.54c-2.53,1.42-3.54,3.46-2.61,5.28.76,1.47,3.38,2.61,4.9,1.91s2.9-2.05,2.55-3.85-1.18-3.54-3.69-3.35c-.29,0-.58,0-.87,0"/><path class="cls-1" d="M445.18,337.2c-.29.56-.82,1.11-.83,1.67-.06,5.09,0,10.19-.07,15.29,0,1.56.43,2,2.06,2,5.58-.09,11.18-.09,16.76,0,1.63,0,2.1-.42,2.06-2q-.15-7.52,0-15c0-1.57-.43-2-2.06-2-5.87.09-11.75,0-17.63,0"/><path class="cls-1" d="M408.75,337.2c-.29.56-.82,1.11-.83,1.67-.06,5.09,0,10.19-.07,15.29,0,1.56.44,2,2.06,2q8.38-.13,16.77,0c1.62,0,2.09-.42,2.06-2q-.15-7.52,0-15c0-1.57-.44-2-2.06-2-5.88.09-11.76,0-17.64,0"/><path class="cls-1" d="M372.33,337.2c-.29.56-.82,1.11-.83,1.67-.07,5.09,0,10.19-.08,15.29,0,1.56.44,2,2.06,2q8.38-.13,16.77,0c1.62,0,2.09-.42,2.06-2q-.15-7.52,0-15c0-1.57-.44-2-2.06-2-5.88.09-11.76,0-17.63,0"/><path class="cls-1" d="M124.86,403.91a5.85,5.85,0,0,0-.83,1.95c-.07,4.63,0,9.27-.07,13.9,0,1.7.45,2.38,2.35,2.27,2.78-.17,5.59-.1,8.38,0,1.52,0,2.07-.51,2.05-2-.06-4.82-.07-9.64,0-14.46,0-1.3-.41-1.72-1.76-1.69-3.27.08-6.55,0-9.83,0"/><path class="cls-1" d="M141.63,403.91c-.29.56-.82,1.11-.83,1.67-.07,4.73,0,9.46-.07,14.18,0,1.72.56,2.33,2.35,2.25,2.79-.11,5.59-.13,8.38,0,1.67.09,2.06-.54,2-2-.05-4.82-.06-9.64,0-14.46,0-1.3-.41-1.72-1.76-1.69-3.28.08-6.55,0-9.83,0"/><path class="cls-1" d="M158.4,403.91c-.29.56-.82,1.11-.83,1.67-.07,4.73,0,9.46-.07,14.18,0,1.72.55,2.33,2.34,2.25,2.79-.11,5.59-.08,8.39,0,1.52,0,2.06-.51,2-2q-.09-7.23,0-14.46c0-1.3-.41-1.72-1.77-1.69-3.27.08-6.55,0-9.82,0"/><path class="cls-1" d="M175.16,403.91c-.28.56-.82,1.11-.82,1.67-.07,4.73,0,9.46-.08,14.18,0,1.72.56,2.33,2.35,2.25,2.79-.11,5.6-.13,8.38,0,1.67.09,2.07-.54,2-2q-.09-7.23,0-14.46c0-1.3-.4-1.72-1.76-1.69-3.27.08-6.55,0-9.83,0"/><path class="cls-1" d="M91.91,462.29c-.29.46-.82.92-.83,1.39-.08,2.69,0,5.38-.06,8.06,0,1.46.52,2,2,2,3.18-.07,6.36-.09,9.54,0,1.39,0,1.77-.5,1.75-1.7,0-2.69-.07-5.38,0-8.06,0-1.3-.41-1.72-1.76-1.69-3.47.07-6.94,0-10.41,0"/><path class="cls-1" d="M16.16,462.29c-.38.37-1.09.73-1.1,1.11-.1,2.87,0,5.75-.07,8.62,0,1.24.54,1.68,1.75,1.67,2.89,0,5.78-.06,8.67,0,1.52,0,2.09-.51,2.05-2-.08-2.59-.08-5.19,0-7.78.05-1.3-.4-1.73-1.76-1.69-3.08.08-6.16,0-9.25,0"/><path d="M448.6,492.39a124.19,124.19,0,0,1-19.71-1.62c-12.18-1.76-12.47-1.77-25,.05-2.84.41-6.21.64-9,1.06a70.07,70.07,0,0,1-18.21-.15c-3.4-.38-6.74-.87-9.48-1.45-6.28-1.34-12.64-.9-18.91-.14-2.59.31-4.43.92-6.89,1.3a86.85,86.85,0,0,1-26.25,0c-2.45-.38-4.33-1-6.9-1.29-6.31-.78-12.74-1.17-18.87.17-1.48.32-3.88.43-5.4.75a75.41,75.41,0,0,1-27.93.15,85.23,85.23,0,0,0-31.8,0,76.14,76.14,0,0,1-28.94-.32c-1.18-.26-3.24-.31-4.41-.57-6.65-1.46-13.35-.87-20,0-1.83.23-3.16.65-4.82,1a86.13,86.13,0,0,1-28.25,0c-3-.53-5.95-1.13-9.37-1.47a50,50,0,0,0-14.42.28c-1.87.38-4.54.56-6.38.94a75.39,75.39,0,0,1-27.89.2,85.17,85.17,0,0,0-31.83,0,78.48,78.48,0,0,1-29-.25c-3.92-.78-9.7-1.09-14.44-1.68-1-.13-1.16-.58-1.7-.88a35.75,35.75,0,0,1,4.13-.25c5,.47,10.18.93,14.79,1.56,10,1.38,15.89,1.37,25.42-.24a98.3,98.3,0,0,1,33.4.1,55.32,55.32,0,0,0,11.23,1.15,84.45,84.45,0,0,0,14.19-1.1c11.52-1.92,19.6-2,31.8-.2,1.77.26,3.55.52,5.4.75a64.47,64.47,0,0,0,17.93-.07c2.1-.33,4.41-.59,6.44-.93A85.35,85.35,0,0,1,192,488.8c2.6.32,4.93.74,7.45,1.09a74.71,74.71,0,0,0,23.42-.29c13.86-2.19,20.45-2.19,34.31,0a74.73,74.73,0,0,0,23.42.31c2.53-.35,4.85-.78,7.45-1.09a84.57,84.57,0,0,1,24.55.33c.34.06.69.11,1,.18a79.41,79.41,0,0,0,29.8-.1c5.93-1.14,12.53-1.14,19.86-1a49.89,49.89,0,0,1,10,1.12,67,67,0,0,0,16.41,1.26c2.41-.09,4.78-.31,7-.53,1.12-.12,1.83-.41,2.85-.59a100.49,100.49,0,0,1,33.46-.09c9.57,1.62,15.48,1.63,25.41.26,4.61-.63,9.75-1.09,14.79-1.56a37.64,37.64,0,0,1,4.14.22c-.51.31-.79.84-1.58.88-7.35.37-12.64,1.5-18.66,2.37C454,492.05,450.2,492.25,448.6,492.39Z"/><path d="M445.49,505.49c-3.67-.32-8.36-.69-12.9-1.13-2.31-.23-4.45-.57-6.48-.91a59.44,59.44,0,0,0-18.92-.06c-1.76.27-3.78.45-5.41.75-9.58,1.75-19.3,1.39-29.08.12-2.56-.33-4.78-.83-7.47-1.08-6.61-.62-13.23-.83-18.92.49-.6.14-1.19.29-1.88.4a103.65,103.65,0,0,1-32.51,0c-10.35-1.74-15.27-1.76-26.3-.12q-2.64.39-5.44.73a87.49,87.49,0,0,1-24.6-.36c-3.7-.6-7.81-1.17-12.13-1.47a66.63,66.63,0,0,0-17.5,1.26,89.38,89.38,0,0,1-22.23,1c-3.47-.22-6.51-.8-9.65-1.24a86.71,86.71,0,0,0-12.93-1.09,61.16,61.16,0,0,0-12.53,1.16,97.24,97.24,0,0,1-33.35.08A68.43,68.43,0,0,0,110,503.8a95.73,95.73,0,0,1-23.24,1.29c-3.93-.29-7.7-.75-11.21-1.25-10.14-1.43-16.82-1.45-25.58,0-12,2-20,1.94-32.63,0-3.7-.58-8.47-.81-12.65-1.25a6.74,6.74,0,0,1-2.48-.6,9.84,9.84,0,0,1,3.31-.77,59.07,59.07,0,0,1,7.16.32c4.16.46,8.53.94,11.92,1.62,6.34,1.29,12.53.94,18.91.18,1.86-.22,3.31-.6,5-.9a86,86,0,0,1,30.18,0c2.69.46,5.36,1,8.43,1.27a50.68,50.68,0,0,0,14.42-.3c1.87-.37,4.53-.55,6.37-.93a75.29,75.29,0,0,1,27.91-.19,85,85,0,0,0,31.8,0,77.08,77.08,0,0,1,29,.27,77.61,77.61,0,0,0,11,1.36,66.61,66.61,0,0,0,16.36-1.23,80.75,80.75,0,0,1,10.72-1.5,84,84,0,0,1,19.34,1c2.94.54,5.94,1.12,9.34,1.47a51.74,51.74,0,0,0,14.44-.21c3.63-.66,7.58-1.24,11.65-1.75a63.32,63.32,0,0,1,17-.11c3.56.51,7.43.92,11,1.43,9.2,1.32,12.68,1.32,22.13-.06,3.2-.46,6.63-.85,9.86-1.3a71.15,71.15,0,0,1,19.36.18c3.3.43,6.52.91,9.44,1.46a51.51,51.51,0,0,0,16.54.18c2.89-.39,5.48-.89,8.23-1.34a86.54,86.54,0,0,1,27.26,0c2.73.45,5.33.95,8.24,1.33a52.91,52.91,0,0,0,16.57-.19c3.92-.71,8.45-1.28,13-1.79a65.89,65.89,0,0,1,7.17-.21,6.13,6.13,0,0,1,2.58.58c.2.18-.83.58-1.65.64a143.35,143.35,0,0,0-18.72,2.34C454.83,505.29,450.17,505.24,445.49,505.49Z"/><path d="M446.39,499a98.1,98.1,0,0,1-15.75-1.4c-10.69-1.92-15.45-1.9-27-.3-4.23.58-8.79,1.21-13.54,1.41a85.82,85.82,0,0,1-20.13-1.33c-8.51-1.68-13.2-1.86-22.41-.36a112.65,112.65,0,0,1-38.29,0c-9.39-1.57-13.55-1.31-22.56.28-11.36,2-20.25,2.06-32.64.22-.71-.11-1.29-.26-2-.36-10.94-1.52-15.71-1.53-25.89.4-8.31,1.57-23.88,1.68-31.81-.07-.61-.14-1.19-.29-1.86-.4a60.07,60.07,0,0,0-19.62-.42c-2.48.37-5,.72-7.47,1.09A87.28,87.28,0,0,1,138,497.7c-1.71-.27-3.52-.52-5.36-.75-11.66-1.47-12.47-1.52-22.49.4a82.75,82.75,0,0,1-18.84,1.37c-4.09-.15-8.11-.49-11.94-.86-2.68-.26-5.06-.7-7.44-1.1a56.84,56.84,0,0,0-20.54.43,83.11,83.11,0,0,1-19.86,1.53A78,78,0,0,1,20.88,498a157.86,157.86,0,0,0-16.42-2.1c-.81-.08-2-.42-1.78-.49a10.4,10.4,0,0,1,2.69-.58,56.48,56.48,0,0,1,14.25.85c16.05,2.82,14.08,2.3,28.41.16a93.85,93.85,0,0,1,30.49.13c1.34.23,2.93.38,4.41.57,9.83,1.22,14.1,1.26,22.5-.48s25.06-1.85,32.79,0a23.29,23.29,0,0,0,3.84.76c5.39.44,10.82,1.14,16.59.16,2.71-.46,5.81-.81,8.5-1.27,8.2-1.41,23.53-1.36,30.78.38a19.36,19.36,0,0,0,2.84.59c5.68.6,11.37,1.29,17.62.27,3.09-.51,6.26-1,9.56-1.43a91.92,91.92,0,0,1,24.24,0c2.19.29,4.06.7,6.26,1,10.67,1.39,14,1.37,23.7-.43a82,82,0,0,1,17.69-1.29c3.73.1,7.42.35,11,.62,1.53.12,2.64.48,4.07.69,12.29,1.82,16.12,1.84,27.91-.26,8.14-1.45,23.32-1.52,30.85.1.93.2,1.73.45,2.81.6,5.9.81,11.92,1.42,18.61.37,3.14-.49,6.28-1,9.56-1.43a89,89,0,0,1,26,.4c1.35.23,2.76.44,4.22.63,11.64,1.54,13,1.54,23.66-.41a63,63,0,0,1,16.25-1.21,9.48,9.48,0,0,1,2.69.57c.18.07-1,.41-1.79.49-5.81.57-11.45,1.12-16.44,2.09C456.06,498.58,450.74,498.66,446.39,499Z"/><path d="M184.47,509.17c-8.18-.07-12.71.45-16.4,1.3-9.28,2.13-22.5,2-32.13.11s-14.11-1.89-24.86-.32l-5.32.78a88.67,88.67,0,0,1-28.27-.28c-1-.18-1.8-.42-2.83-.59a61.42,61.42,0,0,0-21.14-.2c-4,.56-8.05,1.06-12,1.61a63.5,63.5,0,0,1-17-.14c-6.89-.9-12.8-2.18-20.81-2.66a2.18,2.18,0,0,1-1.32-.46A4.15,4.15,0,0,1,4,508a81.06,81.06,0,0,1,13.56.59c2.53.35,4.75.83,7.38,1.13a68.66,68.66,0,0,0,21.24-.38,103.09,103.09,0,0,1,35.09,0,73.3,73.3,0,0,0,22.37.33c3.64-.49,6.85-1.24,10.76-1.52,7.71-.55,15.29-.58,22.29.74,10.62,2,16.68,2,28.64.25,12.68-1.85,19.4-1.84,32.17.06,1.06.16,2,.37,3.11.51a70.49,70.49,0,0,0,22.25-.45,110.39,110.39,0,0,1,34.28,0,69,69,0,0,0,24.33.19A89.88,89.88,0,0,1,296.36,508c7,0,13.46,0,19.13,1.19a68.4,68.4,0,0,0,25.26.09c13-2.13,19.92-2,33.23,0,.72.1,1.29.26,2,.36a71.94,71.94,0,0,0,23.36-.35,110.7,110.7,0,0,1,34.28,0,68.44,68.44,0,0,0,24.32.15A84.4,84.4,0,0,1,475.52,508c.81,0,1.55.14,2.33.21a5.41,5.41,0,0,1-1.89.66,181.88,181.88,0,0,0-18.66,2.37,72.27,72.27,0,0,1-20.49.2q-5.43-.75-10.73-1.55a63.5,63.5,0,0,0-19.12,0c-3.87.59-8,1.07-11.95,1.64a69.28,69.28,0,0,1-18.21-.12c-3.38-.39-6.76-.86-9.51-1.44-6.78-1.43-13.38-.86-20,0-1.84.23-3.18.65-4.83,1a86.18,86.18,0,0,1-28.26,0c-3-.54-5.95-1.12-9.38-1.47a49.58,49.58,0,0,0-14.41.29c-1.87.37-4.54.55-6.38.93a75.5,75.5,0,0,1-27.91.2,85.12,85.12,0,0,0-31.82,0,77.61,77.61,0,0,1-29-.27C191.72,509.85,186.74,509.46,184.47,509.17Z"/><path d="M444.73,485.59a70.2,70.2,0,0,1-14.05-1.22c-8.95-1.76-15.8-1.71-26.41-.13a108.07,108.07,0,0,1-34.15-.1,64.68,64.68,0,0,0-25.16.22c-7.48,1.45-26.72,1.57-33.45-.08a44.23,44.23,0,0,0-11.11-1.2,76.65,76.65,0,0,0-14.19,1.09c-5.58,1.09-12,1.24-19,1.35S256,484.67,251.05,484c-9-1.18-13.31-1.29-21.91.05a106.89,106.89,0,0,1-36.26-.08,76.73,76.73,0,0,0-13.2-.9,44.54,44.54,0,0,0-11.1,1.21c-6.76,1.64-26,1.52-33.46.06a64.28,64.28,0,0,0-25.12-.2,125.78,125.78,0,0,1-19,1.37c-6.91.1-11.25-.81-16.18-1.47a77,77,0,0,0-24.6.09,101.43,101.43,0,0,1-31.6.26c-4.22-.59-9.14-.94-13.58-1.46-1.2-.15-2.76-.63-2.44-.81a11.58,11.58,0,0,1,3.77-.66,46.71,46.71,0,0,1,6,.33c3.77.43,7.55.88,10.94,1.45s6.76,1.33,11.43,1c4.35-.3,8.43-.81,12.54-1.26,1.11-.12,1.83-.41,2.87-.58a86.68,86.68,0,0,1,27.28,0c3.06.51,6,1.1,9.35,1.48a50.51,50.51,0,0,0,14.43-.19c1.63-.3,3.89-.44,5.36-.76,10.73-2.38,21.53-1.72,32.41-.09,1.76.26,3.43.56,5.18.83a53.72,53.72,0,0,0,15.61,0c4.33-.6,8.77-1.17,13.09-1.77a71.72,71.72,0,0,1,19.38.17c3.3.43,6.55.91,9.45,1.47a51.29,51.29,0,0,0,16.55.18c2.9-.39,5.5-.88,8.23-1.33a86.38,86.38,0,0,1,27.28,0c2.73.45,5.33.94,8.24,1.33a50.84,50.84,0,0,0,16.53-.2c1.23-.25,3.21-.32,4.37-.58,10.67-2.36,21.5-1.75,32.4-.12,1.42.22,2.56.52,4,.73a63.18,63.18,0,0,0,18,0c4.32-.61,8.76-1.17,13.07-1.78a64.89,64.89,0,0,1,17,.14c3,.35,5.78.79,8.63,1.21,10.23,1.48,14.77,1.46,24-.16,1-.18,1.82-.42,2.84-.59a86.31,86.31,0,0,1,27.27,0c2.74.45,5.33.95,8.23,1.34a53.06,53.06,0,0,0,16.59-.15c4.33-.76,9.17-1.4,14.11-1.94a63.27,63.27,0,0,1,7.12,0c.63,0,1.67.29,1.59.41a2.39,2.39,0,0,1-1.57.66c-6.68.8-13.34,1.62-20.28,2.29C452.44,485.4,448.45,485.43,444.73,485.59Z"/><path class="cls-1" d="M298.75,356.38c-.77,1.07-.19,1.61.87,1.64,2.6.08,5.21.08,7.8,0a1.56,1.56,0,0,0,1.11-1.06c.08-4.45,0-8.9.08-13.34,0-1.3-.41-1.75-1.76-1.7-2.31.09-4.63,0-6.94.07-.59,0-1.66.52-1.66.79.09,4.45.31,8.9.5,13.34"/><path class="cls-1" d="M303.38,342.48v13.35"/><path class="cls-1" d="M299,356.1h9"/><path class="cls-1" d="M308,347.76h-9"/><path class="cls-1" d="M334,356.94c-.77,1.07-.19,1.61.87,1.64,2.6.08,5.21.07,7.8,0a1.59,1.59,0,0,0,1.11-1.07c.08-4.44,0-8.89.08-13.34,0-1.3-.41-1.74-1.76-1.69-2.31.09-4.63,0-6.94.06-.59,0-1.67.53-1.66.8.09,4.45.31,8.89.5,13.34"/><path class="cls-1" d="M338.65,343v13.34"/><path class="cls-1" d="M334.31,356.66h9"/><path class="cls-1" d="M343.27,348.32h-9"/><path class="cls-1" d="M233.15,379c.59,1.19.51,2-1.16,2-2.5,0-5,0-7.51,0-1,0-1.34,0-1.27-1.4a134,134,0,0,0,0-15c-.07-1.39.26-1.4,1.27-1.39,2.5,0,5-.06,7.51.05.5,0,1.38.69,1.38,1.06,0,4.82-.13,9.64-.22,14.45"/><path class="cls-1" d="M228.23,363.75v14.46"/><path class="cls-1" d="M232.86,378.76l-9.25.28"/><path class="cls-1" d="M232.86,369.59h-9"/><path class="cls-1" d="M213.49,379.6c.59,1.18.51,2-1.16,1.95-2.5,0-5,0-7.51,0-1,0-1.34,0-1.27-1.4a134,134,0,0,0,0-15c-.07-1.4.26-1.4,1.27-1.4,2.5,0,5-.06,7.51.05.5,0,1.39.7,1.39,1.07,0,4.81-.13,9.63-.23,14.45"/><path class="cls-1" d="M208.58,364.31v14.45"/><path class="cls-1" d="M213.2,379.32l-9.25.28"/><path class="cls-1" d="M213.2,370.15h-9"/><path class="cls-1" d="M213.49,349.58c.59,1.18.51,2-1.16,1.95-2.5,0-5,0-7.51,0-1,0-1.34,0-1.27-1.39a134,134,0,0,0,0-15c-.07-1.4.26-1.4,1.27-1.4,2.5,0,5-.06,7.51,0,.5,0,1.39.69,1.39,1.06,0,4.82-.13,9.64-.23,14.46"/><path class="cls-1" d="M208.58,334.29v14.45"/><path class="cls-1" d="M213.2,349.3l-9.25.28"/><path class="cls-1" d="M213.2,340.13h-9"/><path class="cls-1" d="M253.39,348.46c.59,1.19.5,2-1.16,2-2.51,0-5,0-7.52,0-1,0-1.34,0-1.26-1.39a139,139,0,0,0,0-15c-.08-1.4.25-1.4,1.26-1.4,2.51,0,5-.06,7.52.05.49,0,1.38.69,1.38,1.06,0,4.82-.13,9.64-.22,14.46"/><path class="cls-1" d="M248.47,333.18v14.45"/><path class="cls-1" d="M253.1,348.19l-9.25.27"/><path class="cls-1" d="M253.1,339h-9"/><path class="cls-1" d="M274.2,410.78c.59,1.23.51,2.05-1.16,2-2.5,0-5,0-7.51,0-1,0-1.34,0-1.27-1.45a144.41,144.41,0,0,0,0-15.57c-.07-1.45.26-1.45,1.27-1.45,2.5,0,5-.06,7.51.05.5,0,1.39.72,1.39,1.11,0,5-.13,10-.23,15"/><path class="cls-1" d="M269.29,394.91v15"/><path class="cls-1" d="M273.91,410.49l-9.25.29"/><path class="cls-1" d="M273.91,401h-9"/><path class="cls-1" d="M188.21,439.46c0,9.82-.06,19.64,0,29.46,0,2-.56,2.72-2.65,2.53-3-.28-6-.4-9-.58"/><path class="cls-1" d="M175.2,439.46c.09,6.39.23,12.78.27,19.18,0,2.87-.23,5.74-.24,8.61a13.55,13.55,0,0,0,.55,2.78"/><path class="cls-1" d="M189.94,438.07c-.67.37-1.34,1-2,1.06-3.56.11-7.13,0-10.7.05s-3.95-.37-3.51-3.9c.24-1.88,1.11-2.34,2.94-2.25,2.78.13,5.58,0,8.38,0,2.16,0,4.91-.7,4.08,3.06-.07.32.41.71.53,1.11Z"/><path class="cls-1" d="M177.22,439.46c0,5,.08,10,0,15,0,1.61.53,2.12,2.07,1.94.86-.1,1.73-.23,2.6-.26,1.35,0,3.56.44,3.87-.11.67-1.18.44-2.87.45-4.35,0-4.08,0-8.16,0-12.23"/><path class="cls-1" d="M177.51,469.48c2.51.09,5,.23,7.52.26,1.83,0,1.39-1.64,1.07-2.16-1-1.6,2-4.21-1.37-5a8.4,8.4,0,0,0-2.3.23c-1.74.11-4.14-.42-5,.46s-.06,3.17-.24,4.82a8.94,8.94,0,0,1-1.1,2.51"/><path class="cls-1" d="M181.85,439.46v16.4"/><path class="cls-1" d="M185.61,443.35H177.8"/><path class="cls-1" d="M177.8,450.85h7.81"/><path class="cls-1" d="M185.61,466H177.8"/><path class="cls-1" d="M181.85,463.08v6.12"/><path class="cls-1" d="M152.22,439.18c0,9.82-.06,19.65,0,29.47,0,2-.57,2.72-2.65,2.52-3-.28-6-.39-9-.58"/><path class="cls-1" d="M139.21,439.18c.09,6.4.23,12.79.27,19.18,0,2.87-.23,5.75-.24,8.62a13.65,13.65,0,0,0,.54,2.78"/><path class="cls-1" d="M154,437.79c-.67.37-1.34,1-2,1.06-3.57.11-7.13,0-10.7.06s-3.95-.37-3.51-3.9c.23-1.88,1.11-2.35,2.93-2.26,2.79.14,5.59,0,8.39,0,2.16,0,4.9-.69,4.08,3.06-.07.32.41.72.53,1.11Z"/><path class="cls-1" d="M141.23,439.18c0,5,.08,10,0,15,0,1.62.52,2.13,2.06,1.95.87-.1,1.74-.24,2.61-.27,1.34,0,3.55.44,3.87-.1.67-1.18.44-2.87.45-4.36,0-4.07,0-8.15,0-12.23"/><path class="cls-1" d="M141.52,469.2c2.5.1,5,.23,7.52.27,1.83,0,1.38-1.65,1.07-2.17-1-1.6,2-4.2-1.37-5a8.51,8.51,0,0,0-2.31.23c-1.73.12-4.14-.42-5,.46s-.06,3.18-.24,4.83a8.93,8.93,0,0,1-1.11,2.51"/><path class="cls-1" d="M145.86,439.18v16.4"/><path class="cls-1" d="M149.61,443.07h-7.8"/><path class="cls-1" d="M141.81,450.58h7.8"/><path class="cls-1" d="M149.61,465.74h-7.8"/><path class="cls-1" d="M145.86,462.81v6.12"/><path class="cls-1" d="M135.85,388.68c.78-4,.45-4.37-3.56-4.16a36.66,36.66,0,0,1-4.06,0c-1.2-.07-1.58.34-1.55,1.49q.1,4.63,0,9.28c0,1.14.36,1.59,1.55,1.48.67-.07,1.35,0,2,0,2-.15,4.64.35,5.63-.68s.23-3.55.2-5.42a14.35,14.35,0,0,0-.24-1.71"/><path class="cls-1" d="M148.29,384.77a13.29,13.29,0,0,0-1.52-.23c-3.39-.17-3.58.13-3.34,3.41a57.67,57.67,0,0,1,0,7.08c-.06,1.38.39,1.92,1.82,1.72a21.64,21.64,0,0,1,2.53-.24c1.7,0,4.05.62,4.9-.19s.18-3.08.18-4.71c0-1.14-.06-2.28,0-3.42.24-3.81-.19-4.16-4.33-3.42"/><path class="cls-1" d="M169.38,388.68c.78-4,.45-4.37-3.56-4.16a36.66,36.66,0,0,1-4.06,0c-1.2-.07-1.58.34-1.55,1.49q.1,4.63,0,9.28c0,1.14.36,1.59,1.55,1.48.67-.07,1.35,0,2,0,2-.15,4.64.35,5.63-.68s.23-3.55.2-5.42a14.35,14.35,0,0,0-.24-1.71"/><path class="cls-1" d="M181.82,384.77a13.29,13.29,0,0,0-1.52-.23c-3.39-.17-3.58.13-3.34,3.41a59.73,59.73,0,0,1,0,7.08c-.07,1.38.38,1.92,1.81,1.72a21.64,21.64,0,0,1,2.53-.24c1.7,0,4.05.62,4.9-.19s.19-3.08.19-4.71c0-1.14-.07-2.28,0-3.42.24-3.81-.19-4.16-4.33-3.42"/><path class="cls-1" d="M185.89,392.83H177.5"/><path class="cls-1" d="M169.12,392.83h-8.38"/><path class="cls-1" d="M152.36,392.83H144"/><path class="cls-1" d="M135.59,392.83h-8.38"/><path class="cls-1" d="M185.89,388.68H177.5"/><path class="cls-1" d="M164.8,388.68h-4.06"/><path class="cls-1" d="M152.36,388.68H144"/><path class="cls-1" d="M135.59,388.68h-8.38"/><path class="cls-1" d="M181.82,385c-.08,3.74-.17,7.49-.25,11.23"/><path class="cls-1" d="M148.29,385c-.08,3.74-.17,7.49-.25,11.23"/><path class="cls-1" d="M131.27,385v11.23"/><path class="cls-1" d="M164.8,385v11.23"/><path class="cls-1" d="M165.31,388.44l3.81.24"/><path class="cls-1" d="M37.4,355.6c-1.14,1.7-.89,2.59,1.44,2.52,2.6-.08,5.21-.05,7.81,0,1.28,0,1.71,0,1.56-1.69a57.7,57.7,0,0,1,0-11.38c.31-2.93-2-3-3.59-3.86-2.32-1.23-6.89.84-7.72,2.5-.22.45.33,1.26.52,1.91Z"/><path class="cls-1" d="M42.6,343.09v12.79"/><path class="cls-1" d="M47.23,345a5,5,0,0,0-4.63-2.29c-.55,0-1.15-.68-1.73-1.05"/><path class="cls-1" d="M38,355.6c3.13,1.43,6.33,1,9.54.28"/><path class="cls-1" d="M47.23,352.54H38"/><path class="cls-1" d="M47.23,347H38"/><path class="cls-1" d="M41.16,342.81,38,345.59"/><path class="cls-1" d="M90.59,355.6c-1.13,1.7-.89,2.59,1.45,2.52,2.6-.08,5.2-.05,7.8,0,1.28,0,1.71,0,1.56-1.69a58.47,58.47,0,0,1,0-11.38c.31-2.93-2-3-3.58-3.86-2.33-1.23-6.89.84-7.72,2.5-.23.45.32,1.26.51,1.91Z"/><path class="cls-1" d="M95.8,343.09v12.79"/><path class="cls-1" d="M100.42,345a5,5,0,0,0-4.63-2.29c-.54,0-1.15-.68-1.73-1.05"/><path class="cls-1" d="M91.17,355.6c3.14,1.43,6.33,1,9.54.28"/><path class="cls-1" d="M100.42,352.54H91.17"/><path class="cls-1" d="M100.42,347H91.17"/><path class="cls-1" d="M94.35,342.81l-3.18,2.78"/><path d="M445.31,478.34a69.47,69.47,0,0,1-14.05-1.22c-8.95-1.75-15.8-1.71-26.41-.13a107.84,107.84,0,0,1-34.16-.1,64.63,64.63,0,0,0-25.15.22c-7.48,1.45-26.72,1.58-33.45-.07A43.7,43.7,0,0,0,301,475.83a76.84,76.84,0,0,0-14.2,1.09c-5.58,1.1-12,1.24-19,1.35s-11.19-.85-16.13-1.5c-9-1.19-13.31-1.3-21.9,0a106.89,106.89,0,0,1-36.26-.08,76.85,76.85,0,0,0-13.21-.9A45,45,0,0,0,169.16,477c-6.76,1.64-26,1.52-33.46.07a64.28,64.28,0,0,0-25.12-.21,124.49,124.49,0,0,1-19,1.37c-6.92.1-11.25-.81-16.18-1.47a77.63,77.63,0,0,0-24.6.09,101.43,101.43,0,0,1-31.6.26c-4.23-.59-9.14-.93-13.58-1.46-1.2-.14-2.76-.63-2.45-.8a11.6,11.6,0,0,1,3.78-.67,46.81,46.81,0,0,1,6,.33c3.77.43,7.54.89,10.93,1.45s6.77,1.33,11.44,1c4.35-.3,8.42-.8,12.54-1.26,1.11-.12,1.83-.41,2.87-.58a87,87,0,0,1,27.28,0c3.06.52,6,1.11,9.35,1.48a50.51,50.51,0,0,0,14.43-.19c1.62-.3,3.89-.44,5.36-.76,10.73-2.38,21.53-1.72,32.4-.09,1.77.27,3.43.56,5.19.83a53.37,53.37,0,0,0,15.61,0c4.33-.6,8.76-1.16,13.09-1.77a71.72,71.72,0,0,1,19.38.17c3.3.44,6.54.92,9.44,1.47a51.35,51.35,0,0,0,16.56.18c2.9-.38,5.5-.88,8.23-1.33a86.67,86.67,0,0,1,27.28,0c2.72.45,5.33.95,8.24,1.33a50.29,50.29,0,0,0,16.53-.2c1.23-.25,3.21-.32,4.37-.57,10.67-2.37,21.49-1.76,32.4-.12,1.42.21,2.56.52,4,.73a63.47,63.47,0,0,0,18,0c4.33-.6,8.77-1.17,13.08-1.77a64.9,64.9,0,0,1,17,.13c3,.36,5.78.79,8.63,1.21,10.23,1.49,14.76,1.46,24-.16,1-.18,1.81-.42,2.84-.59a86.61,86.61,0,0,1,27.27,0c2.74.44,5.33.95,8.22,1.34a53.42,53.42,0,0,0,16.6-.16c4.33-.75,9.16-1.4,14.11-1.94a63.08,63.08,0,0,1,7.11,0c.64,0,1.68.29,1.6.41a2.39,2.39,0,0,1-1.57.66c-6.68.8-13.34,1.62-20.28,2.29C453,478.15,449,478.18,445.31,478.34Z"/><path class="cls-1" d="M256.23,304.9c0,4.07,0,8.15,0,12.23,0,1.28.12,2,1.76,2q6.65-.14,13.3,0c1.64,0,1.79-.69,1.76-2-.07-4.08,0-8.16,0-12.23"/><path class="cls-1" d="M258.54,311.84a34.38,34.38,0,0,0-.22,4.17c0,.4.89,1.05,1.38,1.07,3.08.1,6.17,0,9.25.07,1.35,0,1.88-.39,1.75-1.69s-.25-2.78-.29-4.17c-.05-1.58.62-4-.17-4.54-1.14-.84-3.31-.41-5.05-.45s-3.47,0-5.2,0c-1.28,0-2.1,0-1.51,1.7a14.2,14.2,0,0,1,.35,3.6"/><path class="cls-1" d="M259.12,311.57h11"/><path class="cls-1" d="M264.61,306.84v9.73"/><path class="cls-1" d="M38.72,63l-1.16,8.12L39,68.85"/></g></g></svg>