<svg xmlns="http://www.w3.org/2000/svg" viewBox="0 0 627.23 386.48" ><defs><style>.cls-1,.cls-2{fill:none;}.cls-1,.cls-2,.cls-3{stroke:#000; stroke-width:4;}.cls-1,.cls-3{stroke-miterlimit:10;}.cls-2{stroke-linecap:round;stroke-linejoin:round;}.cls-3{fill:#fff;}</style></defs><title>eatheader</title><g id="Layer_2" data-name="Layer 2"><g id="Layer_1-2" data-name="Layer 1"><path class="cls-1" d="M438.87,327.49c-16.56-6.38-31.79-18.89-29.22-33.61,1.69-9.63,11.61-23.78,34.92-28.09,29.4-5.42,58.87-.39,63.49,2.38,9.17,5.49,13,14.85,17.62,21,3.45,4.54,8.74,20.24,2.26,23.33-2.4,1.15-8.93,1.4-14.13,1.19-4-.16-10.22-.3-13.54-2.37-4.51-2.81-1.91-6.81-2.14-10.68-.6-10.29-18.74-23.19-35-21.36-13.92,1.56-24.35,12.24-20.67,19.78,4.9,10,33.74,12.3,53.44,13.84,9.48.74,60.71,4.76,78.39-9.89,1.29-1.07,8.54-7.32,4.27-12.26-4.76-5.51-5.94-8.7-15.52-8.7-18.72,0-21.92,13-30.17,10.68-6.4-1.83-13.44-13-6.61-17,15.43-9.09,18.16-11.86,45.18-13.84,32.5-2.38,59.14,22,54.86,39.15-4.11,16.48-38.06,23.84-60.56,28.88-33.24,7.44-63,5.6-83.37,4.35C462.55,333,451.11,332.21,438.87,327.49Zm174.21-33c.52-.8-2-9.46,1.82-11.87-1-2.75-19.06-13.39-23.66-16.61-10.53-2.75-29.42-3.84-26.38,2.38-17.2-2.19-32.51,2.59-30,11.86,2.48,6,5,2.6,14.56-.79,40.54-3.65,46.69,5,34,22.43-11.45,2.9-.28,12.92-12.89,13.91-17.12.56-12.24,6.72-33.84,6.64-20.68,3.48-57.16-1.62-74.13-5.37,2.17-5.29-4.93-4.91-14.5-7.91-2.45-7.21-4.9-5.55-18.24-9.73-.33-9.67,11.71-8.12,10-16.61,14.43-6.8,34.54-12.22,52.77-3.56.37,6.85,15.89,3.13,11.82,12.66-1.83,4.71,6.23,9.23-.91,12.26,10.28,2.39-2.44,10,14.56,5.93,13.12-4,1-16.09,2.73-21.75-4.92-2.54-6.7-3.14-4.55-6.72-.1-4.69-6.88-5.06-11.83-7.52-2.53-4.1-.31-5-10.91-4.35-6.09-.43-5.42-2.87-12.74-4-3.1-.12-17.74-1.44-11.83,2.38-.79.67-7.62-1.48-14.56-1.19-20.88,2.91-44.59,25.47-36.38,32.83,7.53,6.34-1.1,10.6,20.4,17.86,18.06,10.25,52.26,13.75,75.73,11.07-10.88,3.88,20.61,1.48,21,1.9,14.75-2.13,23.75-3.8,37.06-3.16,3.68-5.93,21.37-3.43,25.78-9.49-4.62-3.84,1.8-3.42,8.06-5.37,1-3.6-2.34-3.29,4.84-7.27-.54-1.18,1-7.32,0-7.91C608.86,295.87,613.08,294.47,613.08,294.47Z"/><path class="cls-1" d="M276.4,178.8a72.17,72.17,0,0,1,18.49,9.73c4.65,3.57,7.55,7.22,7.36,11.13-.21,4.38-4.2,7.61-8.18,10.34a101.06,101.06,0,0,1-31.9,14.32c-13.46,2.92-30.45,6.47-55.62,5.56-14.76-.53-29.32-1.18-46.63-7.95-9.49-3.71-28.22-11-28.63-22.27-.24-6.75,6.24-12.14,9.82-15.11C149.06,178,158,175.5,166,174.29M213.5,285.15a128.24,128.24,0,0,0,45-7.95c6.55-2.52,16-6.24,26.17-14.31a78.48,78.48,0,0,0,22.09-26.25c4.92-9.65,12.4-24.32,6.54-39.76-3.93-10.39-12.12-16.42-16.36-19.09A140.49,140.49,0,0,0,254.4,160.3c-20.06-4.57-36.1-3.49-52.35-2.39-11,.75-23.52,1.67-39.27,6.36s-29.29,8.94-37.62,21.48a41.88,41.88,0,0,0-6.55,19.08c-2.54,21.76,10.66,38.6,17.18,46.92a84.06,84.06,0,0,0,22.09,19.88c10.41,6.32,19.75,8.61,27,10.34m-50.72-64.41a91.42,91.42,0,0,0,25.36,12.72c9.92,3.14,18,3.76,31.09,4.77,11.14.86,20.44.92,27,.8m-51.13,40.7a21.79,21.79,0,0,0,5.73,7.37c5.61,4.7,12.37,5.84,22.09,7.36a131,131,0,0,0,24.54,1.34c7.77-.27,12.69-1.1,22.08-2.68,6.46-1.08,10.77-2.08,14.73-4.68a23.25,23.25,0,0,0,5.72-5.36,18,18,0,0,0,2.46-4.69m29.85-79.92a9.18,9.18,0,0,1-5.72-3.18c-1.44-1.94-.7-3.22-1.64-5.57-1.24-3.1-3.69-3.75-9.82-7.95-5.55-3.81-4.31-3.87-7.36-5.57-5.23-2.9-7.27-2.14-15.54-4.77-10.22-3.25-10.48-5.76-16.36-5.57-2.57.09-5.36.67-9.81,0-3.86-.57-4.73-1.45-8.18-2.38-7.35-2-8.26.68-21.27,0-3.31-.18-5.87-.51-9,.79-2.74,1.14-2.94,2.27-5.73,4-5.84,3.58-8.64.84-13.08,4-1.16.82-3,3.45-6.55,8.75-2.47,3.68-3.37,5.54-5.72,6.36s-3.33-.49-6.55,0-5.41,2.37-8.18,4.78a31.25,31.25,0,0,0-6.54,7.95m30.26,9.54a8.88,8.88,0,0,0-7.36-3.18,8.44,8.44,0,0,0-5.72,3.18m63.69-28a8.9,8.9,0,0,0-7.36-3.18,8.54,8.54,0,0,0-5.73,3.18m-13.9,15.11a8.92,8.92,0,0,0-7.36-3.18,8.54,8.54,0,0,0-5.73,3.18m19,20A8.87,8.87,0,0,0,189,210.4a8.5,8.5,0,0,0-5.73,3.18M234,198.47a8.89,8.89,0,0,0-7.36-3.18,8.5,8.5,0,0,0-5.73,3.18m30.56,14.75a8.93,8.93,0,0,0-7.37-3.18,8.44,8.44,0,0,0-5.72,3.18M253.13,187a8.87,8.87,0,0,0-7.36-3.18A8.5,8.5,0,0,0,240,187"/><path class="cls-2" d="M373.24.5c3.79,4,8.48,8,2.68,14.91-4.19,5-1.76,15.7-2,23.82s.11,16.22-.08,24.32C373.53,76.8,376.26,88,388,96.68c15.53,11.4,19.92,28.8,20.07,47q.56,64.4-.07,128.8c-.07,7.17-2.67,14.31-4.1,21.47,0,0-38.64,20-85.87,0-.48-3.82-1.36-7.64-1.37-11.45q-.13-75.85-.07-151.7c0-12.68,5.38-24.83,14.72-30.86,15.06-9.73,17.41-22.36,16.86-37.84-.43-11.91.14-23.85-.22-35.77a31.26,31.26,0,0,0-2.83-11.41c-4.07-9.2-.1-15,10.12-14.4,5.23.28,10.49,0,15.74,0Zm27.82,117.44c-21.22-.66-42.3-.94-63.07,5.39-5.54,1.7-12.3-.62-18.5-1.1m67.26,107.34H338.09m48.66-63H338.09m48.66-5.73H338.09M372.44,17.76h-22.9M361,206.67l5.73-14.31m-8.59,0c.48,2.38.95,4.77,1.43,7.15m-27.19-63c-1.43,2.86-4.07,5.71-4.11,8.59-.31,28.14.11,56.29-.37,84.43-.13,8,2.16,10.52,10.21,10.2,15.72-.61,31.49-.45,47.22,0,6.7.18,8.79-2,8.72-8.72q-.46-42.92,0-85.86c.07-6.69-2-8.87-8.72-8.72-17.17.39-34.35.13-51.52.13m7.16,10c-3.2,4.25-6.52,8.56,2.86,8.58,12.4,0,24.81.19,37.2-.19,2,0,3.82-2.67,5.73-4.1-1.91-1.43-3.78-4-5.73-4.1-12.87-.37-25.75-.19-38.63-.19m15.74,30.05c-12.42,7-13.62,18.24-9.66,29.94,1.69,5,6.74,11.3,11.25,12.22,4,.83,10.73-3.91,13.9-8,9.26-12,1.12-30.77-14.06-34.15M332.37,251c-6.95,10.88-6.13,14,4.3,14.23,16.21.32,32.43,0,48.65.15,5.27.06,8.81-.21,8.81-7.22s-3.54-7.28-8.81-7.23c-17.17.19-34.35.07-51.52.07"/><ellipse class="cls-3" cx="97.85" cy="260.78" rx="65.82" ry="31.43"/><path class="cls-3" d="M32,267.23S.5,267.33.5,296.14s32.91,26.2,32.91,26.2l12.17.06"/><path class="cls-3" d="M31,277.79s-18.33.06-18.33,18.56,19.13,16.82,19.13,16.82l7.07,0"/><path class="cls-3" d="M56.7,333.55c-9.32,3.54-15.06,8.36-15.06,13.67,0,10.85,23.94,19.64,53.47,19.64s53.48-8.79,53.48-19.64c0-4.48-4.08-8.61-11-11.91"/><path class="cls-3" d="M65.21,339.8c-3.9,1.69-6.16,3.71-6.16,5.88,0,5.91,16.81,10.71,37.55,10.71s37.54-4.8,37.54-10.71c0-1.95-1.82-3.77-5-5.35"/><path class="cls-3" d="M32.23,263.05v26.27a42.71,42.71,0,0,0,4.49,19.21c7.36,14.67,24.93,38.69,61.13,38.69,34.59,0,52.26-20.77,60.23-34.74a42.86,42.86,0,0,0,5.59-21.3v-30.4"/><ellipse class="cls-3" cx="97.31" cy="263.05" rx="60.88" ry="29.07"/><path class="cls-3" d="M154.46,273.1a10.41,10.41,0,0,0,1-4.37c0-13.07-25.78-23.66-57.59-23.66s-57.59,10.59-57.59,23.66a12.34,12.34,0,0,0,3.66,8.3"/><path class="cls-3" d="M144.65,353.35l.07,16.23c.24,7.82,2.15,10.4,7.5,10.4H482.09c6.67,0,8.09-18.1,7.57-27.14"/><path class="cls-3" d="M406.74,280.43h19.93a18.93,18.93,0,0,1,14.89,7.23s38.27,50.95,46.21,58.72c5.13,5,.39,12.92-6.28,12.92,0,0-266.71-2.59-329.87,0-4.27.17-8.75-5.71-6.21-10.41l31.15-57.57a20.78,20.78,0,0,1,18.28-10.89h11.69"/><path class="cls-3" d="M201.85,286.89l-10.35,3.88c-3.18,2.19-6.87,5.58-7.75,10.34-1.4,7.49,5.44,11.29,3.88,18.1-1.14,5-5.35,5.53-12.93,12.93-4.24,4.14-11.91,12.73-11.64,15.52,1.85,19.47,228.07-6.64,261.18,2.59,1.75.49,10.24,3.1,19.39,0,2-.69,11.25-3.82,14.22-11.64,3.46-9.08-3.61-19-10.34-28.45-8.95-12.56-18.85-19.93-19.39-19.39s10.71,11.73,19.39,31c3.48,7.73,3.77,10.63,2.59,12.93-2.79,5.45-12.51,5.07-28.45,5.17-14.23.09-28.44,1.06-42.67,1.29-4.47.08-17.63.48-44,1.3-28,.86-32.64,1.1-36.2,1.29-18.07,1-18.46,1.58-36.2,2.59s-30.29,1.15-42.67,1.29c-44,.49-28.8-2.3-37.5-1.29-3.44.39-8.86,1.18-10.34-1.3-1.94-3.24,4-10.23,7.76-14.22"/><path class="cls-3" d="M227.71,338.61c16.53,1.19,16.78,4,24.56,2.58,12.43-2.29,13-9.72,24.57-11.63,8.58-1.42,10.29,2.32,25.86,5.17A120.3,120.3,0,0,0,336.32,336c12.51-1.16,16.37-3.41,33.61-5.17a181.28,181.28,0,0,1,25.86-1.29c22.72.7,29.7,6.16,34.91,1.29,6.13-5.71,2.87-19.16,0-25.86-3.16-7.39-8-11.57-14.22-16.81-8.14-6.86-18-15.18-32.32-18.1-18.18-3.71-23.88,6.55-40.09,0-9.49-3.83-10.61-7.94-20.68-11.63-11.27-4.14-21.46-2.82-41.38,0-29.62,4.17-28.72,9.67-44,7.75-7.24-.91-15-3.11-22,1.3a23.51,23.51,0,0,0-10.34,16.8c-.72,7.07,3.16,10.15,1.29,16.81S200.6,307.49,198,314c-2.79,6.95-1.64,17.1,3.88,22C206.46,340.1,210.56,337.37,227.71,338.61Z"/><path class="cls-3" d="M309.16,276.55c-16.26-6.4-25.51-4.52-31-1.3-6.71,3.92-6.22,8.84-15.51,15.52-9,6.46-18.23,8.17-23.28,9.05a64.08,64.08,0,0,1-22,0"/><path class="cls-3" d="M406.28,311a166.82,166.82,0,0,1-21.86,0,117.88,117.88,0,0,1-23.15-3.47c-9.24-2.57-8.76-4.45-15.43-6-5.49-1.23-14.68-2-30.86.5"/></g></g></svg>