<svg xmlns="http://www.w3.org/2000/svg" viewBox="0 0 317.74 334.8"><defs><style>.cls-1,.cls-3{fill:#fff;}.cls-1,.cls-2,.cls-3,.cls-4{stroke:#000;stroke-width:3px;}.cls-1,.cls-2{stroke-linecap:round;stroke-linejoin:round;}.cls-2,.cls-4{fill:none;}.cls-3,.cls-4{stroke-miterlimit:10;}</style></defs><title>excursions</title><g id="Layer_2" data-name="Layer 2"><g id="Layer_1-2" data-name="Layer 1"><path class="cls-1" d="M249.68,191.63a31.68,31.68,0,0,1,0-12.48,33.93,33.93,0,0,1,5.55-12.47,34.71,34.71,0,0,1,8.32-8.32,34.29,34.29,0,0,1,3.45-2.15"/><path class="cls-1" d="M195.61,157.84a37.5,37.5,0,0,0-12.48-5,37,37,0,0,0-15.25,0,32.71,32.71,0,0,0-16.64,8.32A31.64,31.64,0,0,0,142.92,175"/><path class="cls-1" d="M273.3,159.25a31.25,31.25,0,1,1-4.48,2.26"/><path class="cls-1" d="M274.89,163.47a26,26,0,1,1-4.58,2.25"/><path class="cls-1" d="M206.62,190.32a31.19,31.19,0,1,1-15.07-29.81"/><path class="cls-1" d="M200.83,191.59a26,26,0,1,1-12.31-27.79"/><path class="cls-2" d="M163,146.57s6.24,10.84,6.24,38"/><path class="cls-2" d="M183.83,148s-8.71,1.48-8.71,31.24"/><path class="cls-1" d="M198.38,136.17c2.45-.33,2.43-3.11,5.55-4.16,1-.35,2.55-.23,5.55,0,3.64.29,4.75.77,5.54,0s.9-2.92,0-4.16c-1.13-1.57-3.18-1.19-8.32-1.38-7.55-.29-9.58-1.37-13.86,0-1.37.43-4,1.27-4.16,2.77-.13,1.18,1.35,2.21,4.16,4.16S197.08,136.35,198.38,136.17Z"/><path class="cls-1" d="M200.46,136.87c0,2,3.54,4.67,4.16,8.31a6.9,6.9,0,0,1,0,2.78,7.81,7.81,0,0,1-2.77,4.16c-11,9.27-19.61,21.12-30.5,30.5a12,12,0,0,0,0,2.77c.14,1.25.33,3,1.38,4.16,1.2,1.3,3.1,1.37,4.16,1.39,16.58.33,24.86.49,26.35,0,.9-.3,3.52-1.24,5.54,0a4.41,4.41,0,0,1,1.39,1.39c1.75,2.53.41,4.63,1.39,6.93,1.29,3.05,5.59,3.9,6.93,4.16a11.08,11.08,0,0,0,8.32-1.39,10.06,10.06,0,0,0,4.16-5.55,10.66,10.66,0,0,0-1.39-8.31c-1.87-3.22-5.07-5.52-6.93-5.55H179.28c-.22.06-.81.24-1,0-.68-.86,4.6-6.07,9.7-11.09,1.62-1.59,7.76-7.59,17.7-16.35l.33-.29s1.39-1.39,2.77,4.16,6.93,23.57,6.93,23.57H224s8.32,4.16,8.32,9.71,11.09-9.71,11.09-9.71,9.71-23.57,19.42-31.89c0,0,1.38-2.77,2.77,1.39s8.32,24.95,11.09,29.11,5.55,9.71,8.32,8.32,2.77-4.16,1.39-5.54-8.32-12.48-11.1-19.41-11.09-30.51-11.09-33.28,5.55-6.93,5.55-6.93,4.16-4.16,4.16-8.32-2.78-9.71-5.55-9.71h-18s-4.16,4.16,0,6.93h15.25s6.93,1.39-2.77,9.71c0,0-3.47-2.08-5.55,0s0,6.93,0,6.93v2.78L231,164.6s-2.78,5.54-8.32,5.54S217.1,166,217.1,166L206,132.71S200.46,131.32,200.46,136.87Z"/><path class="cls-1" d="M231,186.78a23.71,23.71,0,0,0,11.09-12.48c1.38-4.16,9.7-18,9.7-18s9.71-9.71,11.1-12.48-2.78-5.55-2.78-5.55-2.77,5.55-5.54,8.32S237.9,166,235.13,168.75s-5.55,6.94-9.71,6.94h-5.55s1.39,6.93,2.78,6.93"/><path class="cls-1" d="M233.08,171s7.4,3.71,6.8,7.69"/><path class="cls-1" d="M236.5,167.28s1.4,7,5.56,7"/><path class="cls-1" d="M272.88,133.07,275,144.56a2.45,2.45,0,0,0,2.41,2h15.28a2.22,2.22,0,0,0,2.22-2.08L296,128.21a3.94,3.94,0,0,0-3.08-4.11c-3.2-.72-9.06-.22-18.8,6.19A2.74,2.74,0,0,0,272.88,133.07Z"/><line class="cls-1" x1="290.75" y1="123.85" x2="290.75" y2="146.57"/><line class="cls-1" x1="278.67" y1="127.55" x2="279.61" y2="146.57"/><line class="cls-1" x1="272.56" y1="132.71" x2="295.67" y2="132.71"/><line class="cls-1" x1="295.21" y1="139.65" x2="273.95" y2="139.64"/><line class="cls-1" x1="274.82" y1="143.74" x2="294.93" y2="143.74"/><line class="cls-1" x1="267.5" y1="142.68" x2="274.63" y2="142.68"/><polyline class="cls-1" points="221.26 193.71 216.32 202.88 216.32 207.58"/><path class="cls-1" d="M212.8,207.58h7.07v5.54H212.8a2.62,2.62,0,0,1-2.63-2.62v-.3A2.62,2.62,0,0,1,212.8,207.58Z"/><path class="cls-1" d="M271.46,154.17a34.83,34.83,0,0,1,19.82-1.36"/><path class="cls-1" d="M195.64,163.42a31.43,31.43,0,0,1,10.78,19.2"/><path class="cls-1" d="M192.66,166.79a26.13,26.13,0,0,1,8.48,15.83"/><path class="cls-1" d="M209.48,181.93a16.44,16.44,0,0,0,0-5.55c-.51-2.91-1.88-4.91-4.16-8.32a46.81,46.81,0,0,0-4.16-5.54q-.85-.93-1.74-1.74"/><path class="cls-1" d="M284.41,181.22s1.73-34.65.59-34.65l-.59-20.78"/><line class="cls-1" x1="279.49" y1="186.78" x2="249.06" y2="181.93"/><line class="cls-1" x1="149.4" y1="163.51" x2="171.35" y2="186.78"/><line class="cls-1" x1="178.26" y1="190.97" x2="213.93" y2="201.83"/><line class="cls-1" x1="151.94" y1="147.96" x2="190.76" y2="147.96"/><path class="cls-1" d="M289.89,170.83a14.41,14.41,0,0,1,5.55,2.78,14.72,14.72,0,0,1,4.16,5.54,16.56,16.56,0,0,1,1.38,8.32"/><path class="cls-1" d="M267,190.94a20.63,20.63,0,0,0,4.15,6.93,21,21,0,0,0,8.32,5.55"/><path class="cls-1" d="M157.48,181.23a28.12,28.12,0,0,0,0,8.32c.41,2.73.82,5.48,2.77,8.32a16.3,16.3,0,0,0,6.94,5.55,19.91,19.91,0,0,0,11.09,1.38,23.52,23.52,0,0,0,5.55-1.38"/><line class="cls-1" x1="257.31" y1="130.99" x2="264.24" y2="131.32"/><line class="cls-1" x1="258.86" y1="106.36" x2="258.86" y2="113.29"/><line class="cls-1" x1="263.14" y1="106.36" x2="263.14" y2="113.29"/><line class="cls-1" x1="204.62" y1="145.18" x2="210.17" y2="145.18"/><line class="cls-2" x1="136.06" y1="147.97" x2="102.34" y2="147.97"/><line class="cls-2" x1="136.06" y1="162.86" x2="99.27" y2="162.86"/><line class="cls-2" x1="136.06" y1="182.13" x2="105.84" y2="182.13"/><path class="cls-2" d="M202.38,41.43c-.22.84-.15.49-7.45,19.21-5.27,13.49-5.91,15.22-8.18,18.14a66.37,66.37,0,0,1-12.57,11.66c-6.05,4.35-8.93,4.93-10.06,8.39-1.66,5,2.3,10.47,3.34,11.9a22.17,22.17,0,0,0,11.62,7.87c9.69,2.94,19.58-1.06,32.48-7.83,22.95-12,21.71-15.17,48.22-31.08,4.05-2.44,11.92-8.92,27.67-21.9,3.57-2.94,8.36-7,7.87-11.62-.42-4-4.4-5.41-7-12.6-1.29-3.63-.47-3.81-1.5-6.86C285,21,281.38,19.46,271.2,10.56c-8.24-7.21-9.84-9.63-12.36-9-3,.82-4.77,5.45-6.79,10.89s-1.07,5.78-2.47,8c-3.9,6.11-14.81,8.79-21.65,5.22-3.41-1.77-3-3.6-7.28-6.09-1.24-.71-8.28-4.75-12.67-2.43C203.31,19.64,206.14,26.94,202.38,41.43Z"/><path class="cls-2" d="M164.12,98.83a26.41,26.41,0,0,0,11.21.27c4.25-.84,7.59-2.69,13.33-5.88,6.07-3.36,6.49-4.36,9.36-4.77,4.92-.69,7.74,1.65,9.4-.06,1.17-1.21.12-2.72.66-8.32.29-3,.43-4.45,1-5.43,2-3.22,6.59-2.57,13-4.08,4.73-1.11,7.87-2.79,12.26-5.15,3.88-2.08,4.77-3.13,17.61-13.5,8.66-7,8.86-7,11.14-9.12,3-2.82,4.7-4.68,10.41-10.2,2.4-2.32,3.19-4.72,5.74-5.46s5.39.33,7.24,1.39"/><path class="cls-2" d="M168.92,112.89a62.28,62.28,0,0,0,16.26-1.57c5.49-1.27,14.4-4.14,27-13.57,9.4-7,7.81-8,25.48-25.13C262.12,48.86,260.8,54.86,266,47.11c2-2.91,6.71-10.49,13.3-10.59.66,0,1.84.76,3.62.7A9.34,9.34,0,0,0,288,35.38"/><path class="cls-2" d="M254.31,49.54a46.69,46.69,0,0,1,16-39.16"/><path class="cls-2" d="M234,86.93,252.33,74.5c9.35-6.34,18.12-13.63,28-19a36.06,36.06,0,0,0,6.48-4.39,41.75,41.75,0,0,0,4.66-4.73c1.07-1.26,1.9-2.4,2.51-3.28"/><path class="cls-2" d="M240.94,75.13c10.49-7.7,18.91-13.16,24.82-16.82,4.92-3,11-6.63,17.62-13.5a70.8,70.8,0,0,0,6.09-7.28"/><path class="cls-2" d="M185.32,81.32a9.3,9.3,0,0,0,3.62.69c3.27,0,4.87-2.33,7.2-3.3,2.08-.87,5.4-1,10.86,2.09"/><path class="cls-2" d="M255.46,33.81a68.13,68.13,0,0,1-27.05,8.87c-8.55.9-14,.15-15.9-.24a67.09,67.09,0,0,1-9.78-2.82"/><path class="cls-2" d="M203.25,36.9A35.78,35.78,0,0,1,209,31.44a25.18,25.18,0,0,1,8.29-4c4.31-1.22,9.14-1.82,11.55-1.53"/><path class="cls-2" d="M226.43,43.24c.86-.93,4.79-6.83,4.25-12.32a11.78,11.78,0,0,0-1.12-4"/><path class="cls-2" d="M189.08,76.41a27.36,27.36,0,0,0,9-3c3.27-1.76,4.38-3.24,7.56-5.11a33.35,33.35,0,0,1,10.09-3.69c10-1.64,19.11,6.09,21,7.79"/><line class="cls-2" x1="195.55" y1="72.02" x2="191.2" y2="70.25"/><line class="cls-2" x1="196.77" y1="65.69" x2="193.15" y2="64.99"/><line class="cls-2" x1="201.44" y1="60.96" x2="195.34" y2="59.57"/><line class="cls-2" x1="203.21" y1="56.6" x2="197.62" y2="53.75"/><line class="cls-2" x1="207.15" y1="50.79" x2="199.62" y2="48.64"/><line class="cls-2" x1="210" y1="45.71" x2="201.43" y2="44.01"/><line class="cls-2" x1="215.71" y1="35.55" x2="222.22" y2="35.86"/><path class="cls-3" d="M308,246.23q-51.66-.09-103.33,0c-8.89,0-44-.07-52.87.39-10.13.52-18.62,4.63-25.79,10.8-14.33,12.32-23.45,45.84-25,50.22-.94,2.76-2.85,8.59-3.27,13.39-.3,3.55,2.6,6.68,6.59,7.2,1.47.19,56.36,1.54,61.22,1.65,1.87,0,2.79-.33,3.15-2.1.55-2.71,1.45-5.36,2.26-8s2.55-3.84,5.49-3.84q27.32,0,54.63,0c2.71,0,4.53,1.26,5.26,3.55a80.07,80.07,0,0,1,2.34,8.23c.37,1.85,1.32,2.2,3.3,2.19,21.83-.06,43.66,0,65.5-.09"/><path class="cls-3" d="M310.73,274l-.16,0c0,2.86-.05,5.71,0,8.57,0,1.61-.26,2.39-1.63,2.36-3.94-.1-7.88,0-11.82,0-1.61,0-2.43-1.08-2.44-3.24,0-4.84,0-9.67,0-14.51,0-2.52.93-3.57,2.75-3.51s3.62,0,5.43,0c2.44.05,5.9-1.1,7.07.58C311.27,266.19,310.56,270.65,310.73,274Z"/><path class="cls-3" d="M190.06,239.18c12.85-.07,25.71,0,38.56,0s25.47,0,38.2,0"/><path class="cls-3" d="M223.58,333.3c4.29,0,7.84-3.2,7.81-7s-3.59-6.92-7.92-6.89-7.86,3.2-7.83,7S219.3,333.33,223.58,333.3Zm-4-6.77a3.74,3.74,0,0,1,3.9-3.68,3.83,3.83,0,0,1,4.05,3.33,3.73,3.73,0,0,1-3.67,3.67A3.85,3.85,0,0,1,219.55,326.53Z"/><path class="cls-3" d="M203.78,333.3c4.29,0,7.85-3.18,7.83-7s-3.56-6.92-7.89-6.91-7.87,3.18-7.86,7S199.5,333.32,203.78,333.3Zm-4-6.89a4,4,0,1,1,4.15,3.45A3.79,3.79,0,0,1,199.77,326.41Z"/><path class="cls-3" d="M184.06,319.42c-4.29-.05-7.92,3.08-8,6.86s3.51,7,7.79,7,7.91-3.08,8-6.87S188.39,319.46,184.06,319.42Zm-.13,10.44a3.76,3.76,0,0,1-3.94-3.64,3.84,3.84,0,0,1,4-3.37,3.53,3.53,0,1,1-.08,7Z"/><path class="cls-3" d="M254.83,230.45c6-.09,12.1,0,18.16,0h0c5.92,0,11.86-.06,17.78,0"/><path class="cls-3" d="M271,263.56c3.05,0,6.1,0,9.14,0,1.84,0,2.76.68,2.75,2.34,0,3.12,0,6.24,0,9.37,0,1.67-1,2.31-2.78,2.3-6,0-12,0-18,0-2.07,0-3-.69-3-2.57q.09-4.45,0-8.93c0-1.9,1-2.58,3-2.53C265.07,263.62,268,263.57,271,263.56Z"/><path class="cls-3" d="M271.21,263.37c3.05,0,6.1,0,9.15,0,1.83,0,2.75,1,2.74,3.55,0,4.74,0,9.48,0,14.22,0,2.54-1,3.52-2.78,3.5-6,0-12-.05-18,0-2.07,0-3-1-3-3.9q.09-6.78,0-13.56c0-2.88,1-3.91,3-3.84C265.28,263.45,268.25,263.38,271.21,263.37Z"/><path class="cls-3" d="M235.62,284.62c-3,0-6.09,0-9.14,0-1.81,0-2.79-.94-2.78-3.49q0-7.11,0-14.22c0-2.5.9-3.58,2.74-3.57,6.17,0,12.35,0,18.52,0,1.76,0,2.54,1.16,2.53,3.47q0,7.11,0,14.22c0,2.49-.87,3.6-2.73,3.57C241.72,284.59,238.67,284.62,235.62,284.62Z"/><path class="cls-4" d="M308.31,252c-73.95-.25-128,.38-140.9.87-3.88.15-12.08.6-18.3,5.67,0,0-13.84,9.15-16.31,28.77-.2,1.54-3.54.63-5.44.87a80.81,80.81,0,0,1-19.77,0"/><path class="cls-3" d="M183.39,311.07c-3,0-6.09-.07-9.14,0-1.81.06-2.79-1.89-2.78-7q0-14.31,0-28.6c0-5,.9-7.21,2.74-7.2,6.17.07,12.35.06,18.52,0,1.76,0,2.54,2.34,2.53,7q0,14.31,0,28.6c0,5-.87,7.25-2.73,7.19C189.49,311,186.44,311.07,183.39,311.07Z"/><path class="cls-4" d="M151.12,257.08c1.75,0,2.54,1.71,2.53,5.1q0,10.44,0,20.88c0,3.67-.87,5.29-2.72,5.25-3-.08-6.1,0-9.14,0s-6.1-.06-9.14,0"/><path class="cls-3" d="M31,60.24,84.31,42.09a2.93,2.93,0,0,1,2.86.51,7.17,7.17,0,0,0,7.32,1.1c3.65-1.25,4.79-3.72,5.13-5.34a3,3,0,0,1,2-2.15l13.53-4.6a3,3,0,0,1,3.81,1.87l11.6,34.1a3,3,0,0,1-1.87,3.81L115.18,76a3,3,0,0,1-3-.62,6,6,0,0,0-10.13,3.45,3,3,0,0,1-2,2.31L44.54,100a3,3,0,0,1-3.81-1.88L29.13,64A3,3,0,0,1,31,60.24Z"/><line class="cls-4" x1="31.88" y1="72.12" x2="121.67" y2="41.55"/><rect class="cls-4" x="71.93" y="59.84" width="26.41" height="9.61" rx="3" transform="translate(-16.29 30.88) rotate(-18.8)"/><rect class="cls-4" x="112.36" y="62.37" width="12.01" height="6" rx="3" transform="translate(-14.75 41.63) rotate(-18.8)"/><line class="cls-4" x1="38.95" y1="85.43" x2="66.22" y2="76.15"/><line class="cls-4" x1="40.88" y1="91.12" x2="64.75" y2="82.99"/><path class="cls-3" d="M60.92,76.57h56.32a3,3,0,0,1,2.54,1.4,8.06,8.06,0,0,0,13.15,0,3,3,0,0,1,2.55-1.4h14.29a3,3,0,0,1,3,3v36a3,3,0,0,1-3,3H135.54a3,3,0,0,1-2.63-1.55,6,6,0,0,0-10.7,0,3,3,0,0,1-2.63,1.55H60.92a3,3,0,0,1-3-3v-36A3,3,0,0,1,60.92,76.57Z"/><line class="cls-4" x1="57.92" y1="88.1" x2="152.77" y2="88.1"/><rect class="cls-4" x="97.54" y="93.38" width="26.41" height="9.61" rx="3"/><rect class="cls-4" x="135.96" y="106.58" width="12.01" height="6" rx="3"/><line class="cls-4" x1="60.32" y1="102.98" x2="89.14" y2="102.98"/><line class="cls-4" x1="60.32" y1="108.98" x2="85.54" y2="108.98"/><path class="cls-3" d="M61.74,145.19l4-15.89c.86-.23,6.67-1.7,9.27,1.32.34.39.76,1,1.33,4,1.15,6,1.72,9,0,10.59a5.37,5.37,0,0,1-6.62,0c-2.11-2-1.71-7.27,2.64-11.92"/><path class="cls-3" d="M40.57,146.61l-3.36-15.89c-.72-.23-5.65-1.7-7.85,1.32-.28.39-.64,1-1.12,4-1,6-1.46,9,0,10.6a4,4,0,0,0,5.61,0c1.78-2,1.44-7.28-2.25-11.92"/><path class="cls-3" d="M45.85,143.86c.65-6.49,4.17-10.72,6.62-10.59s5.71,5,5.3,11.92"/><path class="cls-3" d="M41.26,172.33H81.93A5.63,5.63,0,0,1,87.56,178v92a5.63,5.63,0,0,1-5.63,5.63H41.26a22.55,22.55,0,0,1-22.55-22.55V194.88A22.55,22.55,0,0,1,41.26,172.33Z" transform="translate(277.1 170.83) rotate(90)"/><rect class="cls-3" x="13.42" y="178.95" width="76.79" height="82.09" rx="5.63" transform="translate(271.81 168.18) rotate(90)"/><rect class="cls-3" x="25.33" y="140.55" width="54.28" height="48.99" rx="7.98"/><rect class="cls-4" x="13.42" y="177.63" width="76.79" height="82.09" rx="5.63" transform="translate(270.48 166.86) rotate(90)"/><rect class="cls-3" x="22.68" y="216.02" width="58.26" height="48.99" rx="7.98"/><rect class="cls-3" x="22.68" y="216.02" width="58.26" height="23.83" rx="7.98"/><rect class="cls-3" x="26.89" y="179.9" width="11.52" height="63.93" rx="2.35"/><rect class="cls-3" x="64.85" y="179.67" width="11.52" height="63.93" rx="2.35"/><rect class="cls-3" x="12.75" y="147.84" width="76.79" height="48.99" rx="7.98"/></g></g></svg>