<svg xmlns="http://www.w3.org/2000/svg" viewBox="0 0 316.19 441"><defs><style>.cls-1,.cls-2,.cls-5,.cls-6{fill:none;}.cls-1,.cls-2,.cls-3,.cls-4,.cls-5,.cls-6{stroke:#000;}.cls-1,.cls-2,.cls-3,.cls-6{stroke-linecap:round;stroke-linejoin:round;}.cls-1,.cls-3,.cls-4,.cls-5{stroke-width:3px;}.cls-2,.cls-6{stroke-width:2px;}.cls-3,.cls-4{fill:#fff;}.cls-4,.cls-5{stroke-miterlimit:10;}.cls-6{stroke-dasharray:5.97 5.97;}</style></defs><title>explore</title><g id="Layer_2" data-name="Layer 2"><g id="Layer_1-2" data-name="Layer 1"><path class="cls-1" d="M242.08,142.16c3.63,1,8.2,1.15,10.57,3.14,1.57,1.31-.16,5.2-.14,7.93.1,11.35.33,22.7.42,34a4.62,4.62,0,0,1-1,2.85q-23.46,28.33-47,56.61a10.67,10.67,0,0,1-1.48,1.24"/><path class="cls-1" d="M201.44,188.91a29.12,29.12,0,0,1,.48,3.69c0,16.68.05,33.36,0,50,0,1.37-.92,2.74-1.42,4.11"/><path class="cls-1" d="M234.15,106.89c0-6.28,0-12.57,0-18.86,0-1.93.05-4-3-4-2.75,0-3.54,1.82-3.51,4,.1,6.43,0,12.86,0,19.68,4.94,0,9.41-.09,13.87,0,3.69.1,5.22,1.53,5.06,4.9-.46,10-.43,20-.6,29.93"/><path class="cls-1" d="M217.3,188.5c0-7-.07-13.94,0-20.91,0-2.27-.44-4.36-3.51-4.42s-4.07,1.9-4,4.42c.14,6.56.05,13.12.05,19.68"/><path class="cls-1" d="M217.3,141.34c-5.45,1.1-10.94,2.06-16.34,3.31-7.43,1.72-8.44,2.92-8.44,9q0,17.24,0,34.45a29.12,29.12,0,0,0,.48,3.69"/><path class="cls-1" d="M233.65,140.52c0-4.51,0-9,0-13.53,0-1.93.07-4-3-4s-3.49,1.91-3.49,4q.06,28.71,0,57.41a42.82,42.82,0,0,1-.47,4.51"/><path class="cls-1" d="M221.76,108.53c0-5,.06-10.11,0-15.17a5,5,0,0,0-1-3.22c-.73-.81-2.51-1.79-3.31-1.55-1.1.34-2.43,1.76-2.43,2.72-.06,6.42.21,12.85.38,19.27"/><path class="cls-1" d="M201.44,145c.17,5.88.42,11.76.48,17.64.08,8.33,0,16.67,0,25"/><path class="cls-1" d="M222.75,59.73V72.65H239.6v34.24"/><path class="cls-1" d="M253.48,146.67a10.27,10.27,0,0,1,5,9.44c-.13,8.06,0,16.13,0,24.19"/><path class="cls-1" d="M241.58,122.07v19.54l-23.78-.94c0-2-.05-4.79,0-7.53,0-2.1.09-4.3-3.48-4-3.33.23-3,2.52-3,4.46.1,2.74.31,5.47.48,8.2"/><path class="cls-1" d="M227.21,107.71c-5.62,1.92-11.56,3.38-16.74,5.9-3.7,1.8-6.53,4.93-9.48,7.67a9.59,9.59,0,0,0-3.07,8.17c.37,5.05.38,10.11.55,15.17"/><path class="cls-1" d="M197,159.8c0,8.61,0,17.22,0,25.83a35.51,35.51,0,0,0,.48,4.1"/><path class="cls-1" d="M233.65,188.91c0-7.52.13-15-.07-22.55-.06-2.39.9-4.36,3.54-4.36s3.6,2,3.54,4.36c-.19,7.79-.07,15.58-.07,23.37"/><path class="cls-1" d="M233.65,71.63c.17-6.29.31-12.58.51-18.87.09-2.7-2.63-2.73-4.47-2.79-9.77-.31-17.9,6.45-17.82,14.68,0,4.38.31,8.75.47,13.13"/><path class="cls-1" d="M233.16,154.46c2.43,3.73,4.27,4.28,6.93,2,1.65-1.37,2.25-3,.46-4.47s-3.8-2.15-5.88-.42a15.64,15.64,0,0,0-2,2.43"/><path class="cls-1" d="M209.37,95q.25,9.23.5,18.46"/><path class="cls-1" d="M222.26,73.27c-12.2,4.52-18.64,12.14-18.34,23.37V118.5"/><path class="cls-1" d="M224.24,13q-10,2.48-7.44,8.21c1.28,2.87,3.58,4.26,7.44,4.14s6.16-1.87,6.8-4.58.05-5.62-3.83-6.95L224.73,13"/><path class="cls-1" d="M223.74,26.11c0,2.15-.47,4.14,2.86,5.52,1.65.68,2.77,3.31,3,5.15a125,125,0,0,1,.14,12.7"/><path class="cls-1" d="M223.74,30.21c-4.88,1.7-6.85,4.45-6.07,9s.46,9,.62,13.52"/><path class="cls-1" d="M228.2,57.27q.26,7.18.5,14.36"/><path class="cls-1" d="M249,191.37l-34.2-2.86a84.66,84.66,0,0,0-10.4-.72,14.44,14.44,0,0,0-6.39,2c-5.93,3.53-11.62,7.32-17.4,11"/><path class="cls-1" d="M217.8,63c.16,3.83.33,7.66.49,11.49"/><path class="cls-1" d="M223.74,1.5c.17,3.69.33,7.38.5,11.07"/><path class="cls-1" d="M213.34,151.59c-3.55.72-5,2.58-3.33,5.27.59.94,2.89,1.66,4.3,1.55,1.24-.09,3.12-1.39,3.28-2.33.2-1.13-1-2.49-1.83-3.64-.32-.44-1.27-.57-1.93-.85"/><path class="cls-2" d="M189.13,63c-1.77-9.4-5.34-14.37-12.15-14.83-4-.28-8.22,1.35-13.27,2.29-7.67-6.57-19.24-5.29-25,7.63H130c-2.49-4.48-6.56-7.08-12-6s-8.35,4.62-8.78,10.28a4,4,0,0,1-2.25,2.8A9.7,9.7,0,0,0,100,72.82c-.35,1.41-2.36,2.77-3.92,3.44-6.56,2.8-10.64,9.11-9.79,15.67"/><path class="cls-2" d="M180.92,70.23c-11.63-8.79-22.65-5.29-25.42,8.09"/><path class="cls-3" d="M166.05,219.86c0-24.33-16.85-44.05-37.64-44.05s-37.64,19.72-37.64,44.05l9.61,8c0-17.25,12.55-31.24,28-31.24s28,14,28,31.24Z"/><polygon class="cls-3" points="66.75 219.06 66.75 211.05 69.95 211.05 69.95 172.61 65.15 164.6 69.95 164.6 69.95 159.8 74.75 159.8 74.75 153.39 79.56 153.39 79.56 159.8 84.36 159.8 84.36 164.6 90.77 164.6 85.97 172.61 85.97 211.05 89.17 211.05 89.17 219.06 66.75 219.06"/><line class="cls-3" x1="66.75" y1="219.06" x2="66.75" y2="246.28"/><line class="cls-3" x1="90.77" y1="219.06" x2="90.77" y2="246.28"/><polygon class="cls-3" points="167.65 219.06 167.65 211.05 170.85 211.05 170.85 172.61 166.05 164.6 170.85 164.6 170.85 159.8 175.66 159.8 175.66 153.39 180.46 153.39 180.46 159.8 185.27 159.8 185.27 164.6 191.67 164.6 186.87 172.61 186.87 211.05 190.07 211.05 190.07 219.06 167.65 219.06"/><line class="cls-3" x1="167.65" y1="219.06" x2="167.65" y2="246.28"/><line class="cls-3" x1="190.07" y1="219.06" x2="190.07" y2="246.28"/><circle class="cls-4" cx="77.16" cy="147.78" r="4"/><circle class="cls-4" cx="178.86" cy="146.98" r="4"/><path class="cls-4" d="M105.19,163.8H88.37s-1.6-30.43,24-30.43H146c20.82,0,24.82,29.63,24.82,29.63H154"/><polyline class="cls-4" points="114.2 133.37 114.2 127.77 143.63 127.77 143.63 133.37"/><polyline class="cls-4" points="118.8 125.36 118.8 120.56 139.62 120.56 139.62 127.77"/><path class="cls-4" d="M129.6,120.56v-24s11.62-3.2,16.43,0,14.41,1.6,14.41,1.6v14.42s-11.21,4.8-16,0-12.82-1.6-12.82-1.6"/><line class="cls-4" x1="141.22" y1="96.53" x2="141.22" y2="110.53"/><path class="cls-4" d="M129.6,102.7s5.22-4.57,13.22.24,17.62,1.53,17.62,1.53"/><line class="cls-4" x1="89.25" y1="154" x2="107.79" y2="154"/><line class="cls-4" x1="168.61" y1="154" x2="149.97" y2="154"/><line class="cls-4" x1="91.08" y1="147.78" x2="165.64" y2="147.78"/><line class="cls-4" x1="94.01" y1="142.31" x2="162.7" y2="142.31"/><line class="cls-4" x1="101.35" y1="135.81" x2="156.37" y2="135.81"/><path class="cls-4" d="M96.38,223.06s3.2-36.84,33.63-36.84,32.19,36.84,32.19,36.84"/><path class="cls-3" d="M86,175.81h4.8l14.42-11.21V155s11.21-4.8,22.42-4.8,25.62,4.8,25.62,4.8v9.61l12.82,11.21h4.8"/><polygon class="cls-4" points="91.57 181.42 91.57 189.43 104.39 176.61 104.39 170.21 91.57 181.42"/><path class="cls-4" d="M110.79,162.2s9.61-3.2,17.62-3.2,19.22,3.2,19.22,3.2v9.61s-12.81-3.2-17.62-3.2-19.22,4.8-19.22,4.8Z"/><polygon class="cls-4" points="152.43 175.01 152.43 178.22 165.25 191.03 165.25 179.82 152.43 170.21 152.43 175.01"/><path class="cls-4" d="M27.51,266.21a49.12,49.12,0,0,1,81.63-54.66"/><path class="cls-4" d="M45.42,148.27c-1.27,2-2.11,3.18-2.32,3.47-2.55,3.51-3.6,4-4.62,5.78s-.88,3.13-1.15,8.09-.8,9.32-1.16,11.55c-1,6.45-1.54,9.67-3.47,11.56-3.2,3.14-6.76,1.69-10.4,5.78-1,1.17-2.41,2.71-2.31,4.62.13,2.53,2.82,4.86,10.4,8.09C37,210,41,210.83,48.88,213c12.15,3.33,18.23,5,22,6.93.84.43,4.41,1.83,11.56,4.62,3.29,1.29,5,1.92,5.78,1.16s-.08-2.74-2.32-9.24c-2.51-7.32-2.59-8.85-4.62-10.41a14.56,14.56,0,0,0-5.78-2.31,33.68,33.68,0,0,0-6.34-.74h-1a111,111,0,0,0-11.2.75s8.82-1,10.22-1.13l.18,0c3.19-.43,5.1-4.38,5.78-5.78,2.1-4.33-.16-7.84-1.15-15-.79-5.67.38-5.82,0-13.86a86.65,86.65,0,0,0-1.16-11.56c-2.34-11.91-11.26-24.28-16.18-23.11C51.83,133.92,51.31,138.83,45.42,148.27Z"/><path class="cls-4" d="M45.42,133.25a6.68,6.68,0,0,0,1.15,4.62c1.6,2,3.79,1.45,5.78,3.47,1.59,1.61.72,2.51,2.31,5.77.68,1.4,3.08,6.35,6.93,6.94,1.93.29,2.71-.73,4.63,0s2.24,2.32,3.46,2.31c1.75,0,4-3.19,3.47-5.78s-3.64-2.28-5.78-5.78c-2-3.26-.08-4.9-2.31-8.09-1.51-2.15-2.73-1.89-4.62-4.62-1.71-2.46-1.1-3.22-2.31-4.62-2.57-3-8.48-3.21-12.71-1.16a12.94,12.94,0,0,0-5.78,5.78c-.51,1-4.12,8.17,0,12.71,2.37,2.62,6.46,3.42,10.4,2.31l2.31-3.46"/><path class="cls-5" d="M39.64,161A16,16,0,0,1,42,164.45c1.21,2.47,1,3.73,2.31,4.62s2.35.18,3.47,1.16c.84.73.73,1.57,1.15,3.47,1,4.53,2.89,5.52,2.31,8.08A5.54,5.54,0,0,1,50,184.1"/><path class="cls-5" d="M63.33,172a15.52,15.52,0,0,1-1.16,4.62c-.46,1.1-2.08,4.94-5.78,6.94-1.89,1-4.72,1.07-10.4,1.15-4.26.07-6.4.1-6.93,0-1.38-.25-2.5-.62-3.47,0a3.16,3.16,0,0,0-1.15,3.47c.58,1.52,2.82,2,5.78,2.31,7.24.82,10.86,1.23,15,0a27.32,27.32,0,0,0,15-11.55"/><path class="cls-5" d="M40.22,184.67a70.87,70.87,0,0,0,2.31-8.09,68.85,68.85,0,0,0,1.15-6.93"/><path class="cls-5" d="M51.77,162.72a5.28,5.28,0,0,0,0,3.46,5.6,5.6,0,0,0,4.62,3.47"/><polygon class="cls-3" points="194.04 248.81 228.16 399.05 314.69 323.93 276.91 170.23 194.04 248.81"/><polygon class="cls-3" points="194.04 248.81 83.15 216.46 120.93 367.85 228.16 399.05 194.04 248.81"/><polygon class="cls-3" points="83.15 216.46 1.5 293.88 35.62 439.5 120.93 367.85 83.15 216.46"/><polygon class="cls-1" points="84.98 228.01 11.1 294.21 41.98 418.7 117.95 353.97 225.06 385.4 300.67 318.73 270.21 191.61 196.23 258.45 84.98 228.01"/><polyline class="cls-2" points="15.56 312.19 94.17 260.64 203.9 292.19 220.24 274.82 249.49 295.62 266.55 286.37 290.14 274.76"/><polyline class="cls-2" points="223.88 277.4 233.65 265.57 228.77 245.93 275.22 212.53"/><polyline class="cls-2" points="37.97 402.52 56.95 390.38 67.92 371.89 110.98 327.98 166.62 333.76 182.47 304.86 194.65 307.18 215.47 343.18 297.42 305.15"/><polyline class="cls-2" points="141.43 274.23 141.03 295.62 182.47 304.86"/><line class="cls-2" x1="37.97" y1="270.14" x2="54.87" y2="286.42"/><line class="cls-2" x1="271.19" y1="317.32" x2="271.19" y2="344.73"/><path class="cls-2" d="M61.82,369.58c.64.1,1.67.25,3,.37"/><path class="cls-6" d="M70.75,370.08c5.46-.25,12.29-1.66,17.88-6.28,12.26-10.12,10.71-29.16,4.88-40.45-5.3-10.23-11.24-8.54-20.72-22C67.22,293.51,59.06,282,63,270.19s17.37-16.31,20.72-17.33c1.5-.46,17.16-5,29.24,3.47,8.1,5.67,10.22,14.11,13.41,27.73,4.26,18.19.66,21.65,3.66,32.36,6.19,22.19,29.12,34.23,36.55,38.14,6.47,3.39,35.43,18.6,59.72,6.93,3.06-1.47,18-8.64,18.28-20.8.22-9.43-8.44-17.86-17.06-20.8-10.24-3.49-15.1,2.57-30.47,3.46-3.11.19-31.49,1.84-41.43-13.86-7.16-11.3-7-30.91,4.87-37,7.71-3.95,17.71.06,23.15,2.31,13,5.35,12.84,11.59,26.81,20.8,5.88,3.87,19.53,12.62,36.56,11.56,5.5-.35,16.18-1,20.72-8.09,4-6.17,2.3-15.74-4.51-24.45"/><path class="cls-2" d="M261.33,272.35c-.66-.73-1.36-1.45-2.09-2.16"/><path class="cls-2" d="M52.68,360.91l8.53-16.18s7.31-31.2-17.06-30-13.4,26.58-9.75,30S52.68,360.91,52.68,360.91Z"/><ellipse class="cls-2" cx="46.59" cy="333.18" rx="8.53" ry="6.93"/><line class="cls-1" x1="244.01" y1="271.93" x2="263.5" y2="241.88"/><line class="cls-1" x1="237.91" y1="247.66" x2="269.6" y2="266.15"/></g></g></svg>