<svg xmlns="http://www.w3.org/2000/svg" viewBox="0 0 948.14 570.07"><defs><style>.cls-1{fill:#00bbd6;}.cls-17,.cls-2,.cls-62{fill:#fbb03b;}.cls-3,.cls-4,.cls-6,.cls-7{fill:#999;}.cls-3,.cls-4,.cls-7{stroke:#999;}.cls-3{stroke-linecap:round;stroke-width:45px;}.cls-13,.cls-15,.cls-16,.cls-17,.cls-3,.cls-4,.cls-55,.cls-56,.cls-57,.cls-58,.cls-59,.cls-60,.cls-62,.cls-7{stroke-miterlimit:10;}.cls-4{stroke-width:17px;}.cls-5{fill:#f7931e;}.cls-8{fill:#b3b3b3;}.cls-12,.cls-15,.cls-9{fill:#29abe2;}.cls-9{opacity:0.8;}.cls-10{fill:#e6e6e6;}.cls-11,.cls-13,.cls-14,.cls-16{fill:#0071bc;}.cls-11,.cls-13{stroke:#0071bc;}.cls-11{stroke-linejoin:round;}.cls-15,.cls-16{stroke:#29abe2;}.cls-16,.cls-17{stroke-width:0.5px;}.cls-17,.cls-60{stroke:#f15a24;}.cls-18{fill:#92d7e7;}.cls-19{fill:#d4eded;}.cls-20{fill:#d0ecf4;}.cls-21{fill:#f6f6f6;}.cls-22{fill:#f7f7f7;}.cls-23{fill:#f9f9f9;}.cls-24{fill:#fafafa;}.cls-25{fill:#fefefe;}.cls-26{fill:#024063;}.cls-27{fill:#e8e8e8;}.cls-28{fill:#3e3e3e;}.cls-29{fill:#c8c8c8;}.cls-30{fill:#c7c7c7;}.cls-31{fill:#dedede;}.cls-32{fill:#d5d5d5;}.cls-33{fill:#d9d9d9;}.cls-34{fill:#d4d4d4;}.cls-35{fill:#fdfdfd;}.cls-36{fill:#818181;}.cls-37{fill:#cbcbcb;}.cls-38{fill:#dbdbdb;}.cls-39{fill:#d7d7d7;}.cls-40{fill:#dcdcdc;}.cls-41,.cls-61{fill:#f15a24;}.cls-42{fill:#b8b8b8;}.cls-43{fill:#c2c2c2;}.cls-44{fill:#bcbcbc;}.cls-45{fill:#c3c3c3;}.cls-46{fill:#bebebe;}.cls-47{fill:#c1c1c1;}.cls-48{fill:silver;}.cls-49{fill:#bbb;}.cls-50{fill:#bdbdbd;}.cls-51{fill:#acacac;}.cls-52{fill:#ddd;}.cls-53{fill:#d3d3d3;}.cls-54{fill:#f3ac71;}.cls-55,.cls-56,.cls-57,.cls-58,.cls-59,.cls-60{fill:none;}.cls-55,.cls-56,.cls-57,.cls-58,.cls-59{stroke:#6ac9cd;stroke-width:3px;}.cls-56{stroke-dasharray:8.01 8.01;}.cls-57{stroke-dasharray:8.07 8.07;}.cls-58{stroke-dasharray:7.94 7.94;}.cls-59{stroke-dasharray:8.05 8.05;}.cls-60{stroke-width:6px;}.cls-61{font-size:83px;font-family:MyriadPro-Semibold, Myriad Pro;font-weight:600;}.cls-62{stroke:#ed1c24;stroke-width:2px;}</style></defs><title>musterIllustration</title><g id="Layer_2" data-name="Layer 2"><g id="Layer_1-2" data-name="Layer 1"><rect class="cls-1" x="643.57" y="107.07" width="222" height="185" rx="12"/><rect class="cls-2" x="729.57" y="131.07" width="33" height="51" rx="12"/><line class="cls-3" x1="270.07" y1="432.07" x2="270.07" y2="279.57"/><line class="cls-4" x1="141.07" y1="482.07" x2="141.07" y2="368.07"/><line class="cls-4" x1="356.07" y1="349.07" x2="356.07" y2="235.07"/><line class="cls-4" x1="415.07" y1="416.07" x2="415.07" y2="302.07"/><path class="cls-5" d="M152.57,406.07l4,80v14s11,2,15,0v-8s13,4,25,2,13-7,13-7-17.11-9.26-23.56-10.13l-2.44-2.87,2-79S154.57,383.07,152.57,406.07Z"/><path class="cls-2" d="M421.57,71.07c-5.9-2.84-16.52,6.06-22,13-6.12,7.73-7.72,15.37-10,27-1.85,9.42-4.5,22.92-2,40,1.9,13,5.19,17.26,3,26-1.67,6.64-5.38,10.7-12,18-15.18,16.73-25,17.79-26,27-.71,6.7,3.62,14.46,9,16,3.4,1,6.61-.71,9-2,16.8-9.1,25.2-13.64,31-20,2.47-2.72,9.67-11,16-28,8.17-21.92,4.25-29.7,7-84C425.6,83.71,426.72,73.54,421.57,71.07Z"/><polyline class="cls-6" points="116.57 392.07 147.57 378.07 215.57 417.07 212.57 431.07 129.57 468.07"/><polyline class="cls-7" points="414.57 315.07 504.57 260.07 504.57 210.07 519.57 152.07 519.57 137.07 511.57 122.07 439.57 97.07 418.57 114.07 404.57 189.07 393.57 210.07 324.57 249.07 327.57 265.07 409.57 313.07"/><path class="cls-5" d="M453.57,72.07c3.81,7.15,9.89,6.29,20,13,0,0,12.06,8,19,21,4.78,8.94,4.29,15.46,5,33,1.87,46.26,7.26,50.06,1,62,0,0-.65,1.23-20,25a28.49,28.49,0,0,1-1,15c-2.94,8-8.87,11.26-25,23-10.82,7.86-16.22,11.8-21,16a304.35,304.35,0,0,0-23,23q.49,47,1,94a72.46,72.46,0,0,0-3,10c-1.17,6.07,1.64,8.56,0,11-2.38,3.52-8.11.24-16,3-6.64,2.32-7.28,6.28-14,11-4.26,3-15.21,10.5-21,7-4.47-2.71-5.56-11.83-6-13l19-21c-.23-19.48-.66-35.26-1-46-.45-14.18-.3-28.79,0-58,.09-8.49.17-13,2-19,4.79-15.82,21.8-24.6,26.63-28.47,1.55-1.23-.61-.55-.63-.53-15,11-51.68,36-39,26-3.19,29.42-3.45,48.09-3,60,0,0,0,.43,1,25q-2.51,5-5,10c.82,2.33,1.5,5.51,0,8-2.44,4-8,1.89-16,5-7.76,3-7.05,6.83-18,13-5.75,3.23-10.64,6-14,4-3.63-2.16-3.77-8.85-3-13,0,0,1-5.5,14-20a60.46,60.46,0,0,0,3-8c3.33-8.91.76-30,0-37a258,258,0,0,1-1-43c.83-12.11,1.1-18.17,3-23,6.42-16.35,22-25.06,38-34,18.46-10.32,27.54-10.86,34-22,3.17-5.47,3.88-10.35,5-18,2.34-16.09-.79-24.28-2-40-.74-9.65-1.94-25.27,3-43a86.11,86.11,0,0,1,21-37c9.79-10,21.84-16.91,27-14,1.09.61,6,4,6,4C451.59,68.36,453.57,72.07,453.57,72.07Z"/><path class="cls-2" d="M459.56,133s4,62.61,4,62.61a1,1,0,0,1-.26.76L425.59,239l0,.05L418,246.65a1,1,0,0,0-.28,1l.65,2.6a1.05,1.05,0,0,1-.55,1.2c-1.4.67-4.55,2.15-8.24,3.63-4,1.6-12.48,10.24-15.71,13.63a1,1,0,0,0,.65,1.76,5.69,5.69,0,0,0,3.06-.39l.52-.27a1,1,0,0,1,1.34,1.54,59.09,59.09,0,0,1-3.86,4.73c-2,2-4,8-6,9-1.47.73.83,2.54,2.16,3.45a1,1,0,0,0,1.43-.24l.53-.7a1,1,0,0,1,1.88.63h0a1,1,0,0,0,.85,1c3.08.58,13.6,2.24,16.15-1.16,2.75-3.67,16.43-20.79,18.69-23.61a1,1,0,0,1,.81-.39h6.07a1.05,1.05,0,0,0,.74-.31l7.69-7.69,32.09-30.49.09-.1c17.39-21.35,19.65-24.48,19.92-24.89l.06-.1c6.22-11.9.85-15.76-1-62-.71-17.53-.22-24-5-33a60.68,60.68,0,0,0-11.71-15,9.33,9.33,0,0,0-14.16,1.55C462.39,98.64,457.94,110.86,459.56,133Z"/><ellipse class="cls-8" cx="266.57" cy="284.07" rx="144" ry="75"/><path class="cls-9" d="M396.34,253.07c1.55-1.24-.61-.55-.63-.54-15,11-51.68,36-39,26"/><ellipse class="cls-10" cx="266.57" cy="272.07" rx="144" ry="75"/><polyline class="cls-11" points="225.38 287.84 234.59 297.05 227.07 292.57 225.38 290.87"/><path class="cls-12" d="M225.38,310.2V265.14a2.1,2.1,0,0,0-1-1.8l-16.62-10a2.09,2.09,0,0,0-3.17,1.8v45.06a2.1,2.1,0,0,0,1,1.79l16.62,10A2.09,2.09,0,0,0,225.38,310.2Z"/><path class="cls-13" d="M223.3,307V266.49a1.89,1.89,0,0,0-.88-1.62l-14.4-9a1.81,1.81,0,0,0-2.75,1.61v40.54a1.91,1.91,0,0,0,.88,1.62l14.4,9A1.81,1.81,0,0,0,223.3,307Z"/><path class="cls-14" d="M344.18,245V200a2.08,2.08,0,0,0-1-1.8l-16.62-10a2.09,2.09,0,0,0-3.17,1.79v45.06a2.1,2.1,0,0,0,1,1.8l16.62,10A2.09,2.09,0,0,0,344.18,245Z"/><path class="cls-15" d="M342.1,241.86V201.32a1.88,1.88,0,0,0-.88-1.61l-14.4-9a1.81,1.81,0,0,0-2.75,1.61v40.54a1.91,1.91,0,0,0,.89,1.62l14.39,9A1.82,1.82,0,0,0,342.1,241.86Z"/><path class="cls-2" d="M452.57,57.07c3.45-5.6,5.19-8.45,6-11,3.13-9.91.35-18.84-1-23-1.94-6-4.27-13.14-11-18-11-8-28.95-6.23-37,3-3.33,3.81-4.22,9.54-6,21a85.31,85.31,0,0,0-1,23c.69,6.88,1.47,13.82,6,21,2.32,3.67,4.61,7.3,9,9,8.43,3.25,17.63-3.31,20-5C442.32,73.67,445.74,68.14,452.57,57.07Z"/><polygon class="cls-14" points="329.57 223.07 336.57 227.07 333.57 247.07 324.57 242.07 329.57 223.07"/><path class="cls-16" d="M209.31,312.3s.26,3.77.26,4.77"/><path class="cls-5" d="M158.57,328.07l-60,5s-44-33-12-32,66,12,66,12Z"/><path class="cls-5" d="M80.57,215.07c-2.79,9.25-9.46,13.68-14,18-10.06,9.57-15,23.72-17,72-2.45,59.76-3.68,89.64,9,102,15.11,14.72,37.49,14.86,60,15,32.83.2,64.37-12.36,68.61-16.8a.48.48,0,0,1,.39-.2s4.12.45-4,110c.41-6.79-1.53,16,4,20,3.66,2.61,7.79-1.15,20-4,13.6-3.18,15.46-.14,26-3,12.16-3.3,25.05-11.52,24-16-1.24-5.3-22.84-9.42-33-6-.75.25-2.64.94-4,0-3.21-2.22.09-12,1-15,5.17-16.83-1.21-25.75-1-67,.16-32.94,4.27-34.18,0-40-16.12-22-78-9-78-9s-10.52-23.84-12-47c-1.72-26.8,10.11-30,4-45-5.62-13.79-19.11-19.68-25-34-1.72-4.18-.67-3.92-4.74-18.92-.12-.43-1-3.72-.26-4.08.9-.44,2.57,4.09,7,6a12.66,12.66,0,0,0,9,0c3.16-1.19,5-3.37,7-6,6.79-8.73,10.19-13.1,12-17a61.48,61.48,0,0,0,5-18c1.52-10.11,2.66-17.66,0-25-4.7-13-20.91-24.25-37-22-18.63,2.6-30,22.3-31,37C75.66,195.17,84.56,201.84,80.57,215.07Z"/><path class="cls-2" d="M148.57,334.07c-9.82-16.36-4.2-27.06-11-45-1.11-2.93-8.49-22.52-20-23-5.19-.22-10.24,3.34-13,7-18.63,24.61,31.17,97.3,32,99,1.92,2.27,5.34,5.52,10,6,6.84.7,12.33-5,18-11,9.54-10.14,9-12.57,19-22,4.17-3.95,8.14-9.63,10-11,7-5.21,11.8-5.29,12-8,.22-3.05-5-6.68-10-7-4.51-.29-6.19,4.21-13,8-9,5-19,10-27,14C153.53,342.09,151.41,338.81,148.57,334.07Z"/><path class="cls-17" d="M202.73,297.31s-2.57-1-2.57,1,.85,13.88,1.71,14.88,9.45,7.93,10.31,5S207,299.3,202.73,297.31Z"/><path class="cls-17" d="M200.16,313.19v-3l-.86-4s-.86-8.93,2.57,0l1.72,5.95"/><path class="cls-17" d="M199.92,302.27s-1.48-5,.24-4,3.43,7.93,3.43,7.93l2.58,4"/><path class="cls-17" d="M203.59,319.14l5.15-5.95,2.33-2.81s2-6.12.25-6.12a4.39,4.39,0,0,0-4.16,2.26c-1,1.71-.14,2.7-2.71,3.69s-7.73,2-7.73,3-5.15,4-5.15,7.93,12,6.95,12,6.95a31.78,31.78,0,0,0,6-2c1.72-1,5.15-2,6-4s-.58-9.9-2.87-14.87-4.86-6.95-4.86-6.95l-3.43-3s-6-2,2.57,8.93"/><path class="cls-17" d="M147.57,317.36s0-10,1.82-12.74,2.73-10,2.73-10.93,4.55-3.64,4.55.91a72.54,72.54,0,0,1-.91,10s-.91,4.55.91,3.64,8.2-3.64,9.11-4.55,7.28-.91,5.46,2.73c0,0,3.64.91,1.82,6.37,0,0,.91,4.55,0,6.37s0,3.65-.91,4.56-3.64,3.64-5.46,3.64-4.56,4.55-10.93,2.73S147.57,317.36,147.57,317.36Z"/><path class="cls-17" d="M169.42,308.26s-.91,3.64,2.73,4.55"/><path class="cls-17" d="M172.15,318.27s-2.73-3.64-.91-4.55"/><path class="cls-17" d="M172.15,320.09s-.91-2.73-1.82-.91-.91,1.83.91,3.65"/><path class="cls-17" d="M167.6,314.63s3.3-1.34,3.92-2"/><path class="cls-17" d="M171.24,306.44a13.31,13.31,0,0,0-4.55,2.73c-1.82,1.82,0,4.55,0,4.55"/><path class="cls-17" d="M167.6,314.63s2.73,1.82,1.82,3.64"/><path class="cls-17" d="M167.6,321.92a12.9,12.9,0,0,0,2.5-2.28"/><path class="cls-17" d="M165,326.47s-2-6.38-1.06-9.11,0-7.28,0-7.28"/><polyline class="cls-7" points="129.57 468.07 29.57 407.07 18.57 340.07 0.57 290.07 6.57 283.07 88.57 333.07 116.57 392.07"/><polyline class="cls-7" points="188.41 405.26 213.28 417.24 210.28 431.24 127.28 468.24"/><line class="cls-4" x1="129.57" y1="570.07" x2="129.57" y2="456.07"/><line class="cls-4" x1="36.07" y1="513.07" x2="36.07" y2="399.07"/><line class="cls-4" x1="202.07" y1="538.07" x2="202.07" y2="424.07"/><line class="cls-4" x1="496.07" y1="363.07" x2="496.07" y2="249.07"/><path class="cls-14" d="M635.49,432.15c-11.07-.28-11.07-.28-11.07-11.29q0-57.24,0-114.48c0-6.81,0-6.81,6.88-7,.67,0,1.56.25,2-.08,1.43-1.19,2.7-2.57,4-3.88-1.41-1.23-2.81-3.53-4.21-3.53-8.84,0-7.59-1.26-7.6-8.46q0-77,0-154c0-6.81,0-7,6.76-7,4.2,0,5.43-1.62,5.41-5.64-.13-22.33-.08-44.66,0-67,0-6.74.79-13.28,5.52-18.73,5.57-6.4,13-7.82,20.81-7.85q46.49-.14,93-.11,42,0,84,.12c1.84,0,3.67,0,5.5,0,17.71.46,26,8.68,26.1,26.38q.21,33,0,66c0,4.26.49,7.24,5.72,6.92,2.78-.17,3.75,1.62,3.67,4.19,0,1.49,0,3,0,4.49q0,76,0,152c0,9,1.52,7-8.77,9.78-1.11,3.79-.59,6.24,4.25,6.65,1.24.1,2.54,2.29,3.35,3.77.49.9.13,2.28.13,3.45q0,59,0,118c0,4,.41,7.88-5.66,7.48-.79-.05-2.54,3-2.56,4.69-.2,18-.07,36-.21,54a52.3,52.3,0,0,1-1.32,12.38c-1.78,7-5.84,12.25-13.51,13.68v-1c7.77-3.63,12.27-9.58,12.39-18.29.24-18.27.41-36.55.41-54.82,0-12.78,1.52-10.69-10.72-10.9l-19.08.15-116,0H707.16c1,1.43,1.53,2.06,2,2.72,4.54,6.94.78,14.81-7.47,15-10.66.28-21.34.32-32,0-7.88-.25-11.61-8.38-7.23-14.93.52-.78,1.15-1.49,2.27-2.94-4.62,0-8.41.09-12.19,0-3-.09-4.26,1.17-4.21,4.13.07,4.84,0,9.67,0,14.5,0,7.47,0,7.48,7.41,7.48l145,0a32.86,32.86,0,0,1-5.33.86c-47.48.05-95,0-142.45.13-4.48,0-5.79-1.46-5.6-5.76.3-6.93.08-13.88.08-21.35h-7.67Zm219-133,5.06-.16c2.24.34,4.47.78,6.72,1,3.17.29,4.4-1.32,4.4-4.43s-1.23-4.73-4.4-4.44c-2.25.2-4.48.64-6.72,1l-18.93-.17c-1-.05-2-.15-3-.15H654.79c-1,0-2,0-3,.07-2.94.06-3.57,1.9-3.37,4.38.28,3.5,3,3.05,5.22,3.08,15,.2,30,.46,44.94.49q56.68.1,113.38,0c2.31,0,4.61-.39,6.92-.6,3.46-3.09,6.5-.29,9.67.7l9.15-1.67c1.9.57,3.8,1.59,5.7,1.62C847.08,299.93,850.77,299.44,854.46,299.18Zm24.07-174h-3.92c-.73,1.94-2.1,3.89-2.1,5.84q-.15,75.9,0,151.82c0,1.16-.34,2.62.23,3.42.8,1.14,2.28,2.48,3.48,2.48s2.52-1.45,3.23-2.62c.53-.85.18-2.26.18-3.43q0-75.91,0-151.82A31.37,31.37,0,0,0,878.53,125.19Zm-231.13-.08c-7.69-.11-7.7-.11-7.7,7.35V281.34c0,1.33.08,2.67,0,4-.17,3,1.51,3.62,4.08,3.59s3.65-.85,3.63-3.5c0-4.15.18-8.31.29-12.46.2,2.47.54,4.94.57,7.42.08,8.55,0,8.56,8.81,8.56H708l151.7.11c.66,0,1.32-.11,2-.12,8.77-.12,8.68,1.21,8.67-8.65q-.08-72.35-.13-144.7c0-10.57,0-10.57-10.56-10.52l-211,0Zm45.21,177.14c-13-.06-26,0-39-.25-4.2-.09-5.43,1.49-5.42,5.53q.16,57.92,0,115.85c0,4.76,1.77,5.89,6.15,5.87,24-.16,47.94-.06,71.91-.08l133.34-.11c.66,0,1.32.11,2,.12,8.78.21,8.78.21,8.78-8.44q0-54.12-.06-108.24c0-12.23,1.47-10.26-10.69-10.43l-3.27,1.1c-2.43-1.56-4-1.13-4.59,1.89-.31,1.43-1.06,2.76-1.49,4.18-.6,2-1.08,4-1.61,6l-5.3.05,6.66-8.65c-8.3,2.05-1.39-2.92-3.43-4.87l-11,1.3-6.1-.86c-2.95.38-5.91,1.08-8.87,1.05s-5.8-1.11-8.71-1.17c-7.82-.18-15.64-.07-23.47-.06Zm-44.9-180.18c1.48.12,3,.34,4.45.34q99.76,0,199.54,0c2.65,0,5.31-.22,8-.34a19.85,19.85,0,0,0,2.92.51c7.59.2,7.62.19,7.59-7.49-.1-22.27-.09-44.55-.37-66.82-.17-13.91-4-18.57-17.16-22.25a75.39,75.39,0,0,0-7.89-.83q-89.94-.11-179.88-.07a74.3,74.3,0,0,0-8.37.9c-8.93,1.6-14.67,7.19-16,16a79,79,0,0,0-.75,11.41c-.07,20.6,0,41.2,0,61.8C639.72,122.79,639.83,122.87,647.71,122.07Zm-19.85,85q0,38,0,76c0,5.54,1,6.27,5.93,5.91,4.53-.34,3.59-3.61,3.6-6.26q.12-58.26.17-116.5c0-12.17-.05-24.33.08-36.5,0-3.39-1.14-4.6-4.62-4.77-4.43-.22-5.25,1.75-5.23,5.62C627.91,156.06,627.86,181.56,627.86,207.06Zm-1.06,158c0,19.65.07,39.31,0,59,0,3.78,1.09,5.24,5.1,5.33,5,.1,5.72-2.32,5.71-6.47q-.19-57.47-.16-114.93a7.41,7.41,0,0,0-.16-3c-.5-1.06-1.35-2.38-2.34-2.71-5.53-1.85-8.09.05-8.09,5.81Q626.78,336.58,626.8,365.06Zm20.34-62.61c-3.54-.09-7.44-2.24-7.43,3.69q.1,59.4.09,118.8c0,4.29,2.44,5,5.35,3.9,1.22-.46,2.15-3.32,2.16-5.09q.18-58.15.07-116.31C647.38,306,647.24,304.49,647.14,302.45Zm231.3,63.49q0-28.47,0-56.94c0-1.33.31-2.79-.14-4s-1.67-1.93-2.55-2.88a18,18,0,0,0-3,3c-.46.73-.14,1.95-.14,2.95q0,57.44-.07,114.88c0,1.33-.26,2.82.26,3.94a3.78,3.78,0,0,0,2.78,2,3.68,3.68,0,0,0,2.66-2.07c.48-1.34.23-3,.23-4.46Q878.45,394.17,878.44,365.94ZM645.18,290.79l-2.66-.17c-.94,1.57-2.33,3-2.74,4.74-.61,2.58.32,4.44,3.57,4.44,2.87,0,4.62-.94,4-4A25.61,25.61,0,0,0,645.18,290.79Z"/><path class="cls-14" d="M657.44,517.2c-9.59-1.55-15.83-7.45-17-16.87a163.43,163.43,0,0,1-.75-18.39c-.09-16.62,0-33.23,0-49.85h7.67c0,7.47.22,14.42-.08,21.35-.19,4.3,1.12,5.78,5.6,5.76,47.49-.14,95-.08,142.45-.13a32.86,32.86,0,0,0,5.33-.86h59V432.07c12.24.21,10.72-1.88,10.72,10.9,0,18.27-.17,36.55-.41,54.82-.12,8.71-4.62,14.66-12.39,18.29-3.64.34-7.27,1-10.91,1-18.14.08-36.3-.11-54.44,0-23.14.17-46.27.75-69.41.76-20,0-39.93-.53-59.9-.81C661.1,517,659.27,517.14,657.44,517.2ZM755,497.07c12.83,0,25.66,0,38.49,0,2.43,0,5.82.33,5.52-3.17-.13-1.4-3.35-3.6-5.18-3.61q-38.75-.36-77.47,0c-1.86,0-5.12,2.13-5.28,3.54-.39,3.5,3,3.24,5.44,3.25C729.37,497.09,742.2,497.07,755,497.07Z"/><path class="cls-14" d="M852.64,26c13.17,3.68,17,8.34,17.16,22.25.28,22.27.27,44.55.37,66.82,0,7.68,0,7.69-7.59,7.49a19.85,19.85,0,0,1-2.92-.51V81.27H647.71v40.8c-7.88.8-8,.72-8-6.88,0-20.6,0-41.2,0-61.8A79,79,0,0,1,640.52,42c1.31-8.78,7.05-14.37,16-16l4,.87-8,2.28c33.52-2.34,67.24-.73,100.93-1s67.2-.06,102-.06l-5.72-1.2ZM754.76,54.06c13,0,26,.12,39-.13,1.84,0,3.65-1.83,5.47-2.81-1.78-1-3.54-2.07-5.36-3-.39-.21-1,0-1.48,0q-37.23,0-74.44,0a13,13,0,0,0-4.44.34c-1,.38-2.33,1.68-2.35,2.6s1.23,2.28,2.23,2.68a12.74,12.74,0,0,0,4.44.37Q736.27,54.09,754.76,54.06Z"/><path class="cls-18" d="M859.64,429.06l-133.34.11c-24,0-47.94-.08-71.91.08-4.38,0-6.17-1.11-6.15-5.87q.22-57.93,0-115.85c0-4,1.22-5.62,5.42-5.53,13,.26,26,.19,39,.25l1.92,21.92c.69,5,4.86,3.74,7.66,3.75,40.49.16,81,.12,121.48.09a30.87,30.87,0,0,0,4.24-.59l-.17-1.36h-5.89q-59,0-118,0a61.44,61.44,0,0,1-7.35-.9l69.4,0q28.46,0,56.92,0c6.4,0,6.69-.32,6.71-6.83,0-5.33,0-10.65,0-16l6.1.86c-.2,7.1,1.64,10,7.77,12.22l5.3-.05c5.91-2.18,7.94-5.38,7.69-12.11l3.27-1.1Q859.65,365.56,859.64,429.06ZM693.55,359.13c.25,5.52,4.61,4.84,8,4.85q60.91.16,121.83,0c1.52,0,3-.27,4.55-.41l0-1.58h-5.65q-59.16,0-118.34,0a59.27,59.27,0,0,1-7.34-.89l85.45-.05c14,0,28-.09,42,.05,4,0,5.82-1.34,5.65-5.51-.21-5.15,0-10.32-.09-15.48-.2-7.3-2-9-9.35-9q-43.49,0-86.95,0c-11,0-22,.07-33,0-4.11,0-7.23,1.56-7.33,5.74C692.74,344.22,693.29,351.68,693.55,359.13Zm49.23,62.09q30.48,0,61,0c6.8,0,8.62-1.77,8.67-8.57q.14-15.5,0-31c0-6.58-2.08-8.54-8.8-8.55q-59.46,0-118.93,0c-6.29,0-8.1,1.78-8.15,8-.07,11.33.17,22.66-.12,34-.12,4.9,1.74,6.26,6.41,6.22C702.8,421.12,722.79,421.23,742.78,421.22Zm110.72,2.32c-3.38-4.93-6.29-8.4-11.59-8.43-6.14,0-12.28-.19-18.41,0-5.22.2-8.42,3.58-12,8.4ZM662.66,394.11c6-.1,10.14-4.45,10.06-10.55a10.38,10.38,0,0,0-10.44-10.38,10.7,10.7,0,0,0-10.16,10.76A10.12,10.12,0,0,0,662.66,394.11Zm183.1-42.26a10.71,10.71,0,0,0,10.79-10.22c.15-5.47-4.77-10.56-10.35-10.69a10.64,10.64,0,0,0-10.66,10.27A10.5,10.5,0,0,0,845.76,351.85Z"/><path class="cls-19" d="M647.71,122.07V81.27H859.66v40.79c-2.65.12-5.31.34-8,.34q-99.76,0-199.54,0C650.68,122.41,649.19,122.19,647.71,122.07Zm34.93-10.86a14.72,14.72,0,0,0,3.56,1.38c3.31.38,6.65.49,10,.72,1.25.09,2.51.21,3.77.31.1-1.44.71-3.17.13-4.24-.44-.8-2.44-1.08-3.71-1s-3.27,1.6-3.85,1.13c-3.27-2.62-6.53-1.2-9.85-.59l-4-2.16-.54,5Zm148.83-.55.13-2.24c-1.73-1.25-3.56-3.61-5.15-3.46-1.75.16-4.53,2.61-4.56,4.12s2.4,4.32,4.11,4.65S829.63,111.78,831.47,110.66Zm-95,1.29c2.39,0,3.79-.11,5.17,0,2.47.24,5.49,1.46,4.82-3.16-2.44-.19-4.74-.32-7-.57C735.36,107.79,735.46,109.7,736.51,112Zm91.91-22.19h6.18c-.14-2-.26-3.57-.39-5.26h-5.54C828.58,86.31,828.51,87.89,828.42,89.76ZM718.64,111.39v-4c-2.75,1.07-6.67-.59-6.9,4Zm123.58-20c1.2-2,2.51-3.28,2.32-4.23s-1.78-1.81-2.76-2.7c-.85,1-2.29,2-2.37,3.07S840.79,89.5,842.22,91.35Z"/><path class="cls-20" d="M859.69,289.06,708,289h-50.9c-8.78,0-8.73,0-8.81-8.56,0-2.48-.37-4.95-.57-7.42l.07-1.75c.29,0,.59.09.88.12,2.47.24,4.93.69,7.4.69,47.49,0,95,.16,142.47-.1,7.58-.05,14.15.82,19,7.12,1.11.67,2.22,1.9,3.34,1.92,7.4.17,14.82.27,22.21,0,4.31-.15,7.07-2.86,8.44-6.93l6.9-2.86,1-.08Q859.59,280.08,859.69,289.06Z"/><path class="cls-20" d="M829.53,302.25c0,5.33,0,10.65,0,16,0,6.51-.31,6.83-6.71,6.83q-28.46,0-56.92,0l-69.4,0-2-.95-1.92-21.92,95.87-.18c7.83,0,15.65-.12,23.47.06,2.91.06,5.81,1.14,8.71,1.17S826.58,302.63,829.53,302.25Zm-116.85,1.21c.23,1.89.32,4.38.58,4.4,3.73.25,7.47.17,11.22.17l.29-2.18Zm19.49,1.94a62.18,62.18,0,0,0,6.71,3.16c.56.19,1.6-1,2.42-1.62-.55-.7-1-1.71-1.67-2A38.25,38.25,0,0,0,735,303.6c-3.35-1-5.28-.43-4,4.18C731.5,306.7,731.84,306,732.17,305.4Zm61.5.65.63,1.43,7.77,2.1v-5.05Zm-40.92-.19.4,2.36,5.77-.64a12.13,12.13,0,0,0-.64-2.49A54.85,54.85,0,0,0,752.75,305.86Z"/><path class="cls-18" d="M859.66,432.07v26.14h-59l-145,0c-7.39,0-7.4,0-7.41-7.48,0-4.83.08-9.66,0-14.5,0-3,1.24-4.22,4.21-4.13,3.78.12,7.57,0,12.19,0-1.12,1.45-1.75,2.16-2.27,2.94-4.38,6.55-.65,14.68,7.23,14.93,10.65.35,21.33.31,32,0,8.25-.21,12-8.08,7.47-15-.43-.66-.93-1.29-2-2.72h17.39c-3.26,3.51-5.24,7.41-3.12,12.23,1.64,3.72,4.94,4.6,8.68,4.6q52.95,0,105.89,0c4.24,0,6.93-2,8.68-5.55s.29-6.43-2.16-9c-.69-.73-1.3-1.52-1.94-2.29Z"/><path class="cls-20" d="M840.58,432.22c.64.77,1.25,1.56,1.94,2.29,2.45,2.61,3.91,5.52,2.16,9s-4.44,5.55-8.68,5.55q-52.95-.11-105.89,0c-3.74,0-7-.88-8.68-4.6-2.12-4.82-.14-8.72,3.12-12.23Z"/><path class="cls-14" d="M859.69,289.06q-.11-9-.19-18l0-144.06.12-2c10.55,0,10.55,0,10.56,10.52q.06,72.35.13,144.7c0,9.86.1,8.53-8.67,8.65C861,289,860.35,289,859.69,289.06Z"/><path class="cls-21" d="M627.86,207.06c0-25.5,0-51-.06-76.5,0-3.87.8-5.84,5.23-5.62,3.48.17,4.66,1.38,4.62,4.77-.13,12.17-.07,24.33-.08,36.5q-.08,58.24-.17,116.5c0,2.65.93,5.92-3.6,6.26-5,.36-5.92-.37-5.93-5.91Q627.83,245.07,627.86,207.06Z"/><path class="cls-14" d="M859.64,429.06q0-63.49,0-127c12.16.17,10.66-1.8,10.69,10.43q.12,54.12.06,108.24c0,8.65,0,8.65-8.78,8.44C861,429.17,860.3,429.1,859.64,429.06Z"/><path class="cls-22" d="M626.8,365.06q0-28.49,0-57c0-5.76,2.56-7.66,8.09-5.81,1,.33,1.84,1.65,2.34,2.71a7.41,7.41,0,0,1,.16,3q.06,57.46.16,114.93c0,4.15-.72,6.57-5.71,6.47-4-.09-5.13-1.55-5.1-5.33C626.87,404.37,626.8,384.71,626.8,365.06Z"/><path class="cls-14" d="M647.4,125.11l.34,2.91c-.06,2.16-.18,4.32-.18,6.48q0,63.12,0,126.25c0,3.49.15,7,.23,10.47l-.07,1.75c-.11,4.15-.34,8.31-.29,12.46,0,2.65-1.19,3.47-3.63,3.5s-4.25-.62-4.08-3.59c.07-1.33,0-2.67,0-4V132.46C639.7,125,639.71,125,647.4,125.11Z"/><path class="cls-14" d="M647.14,302.45c.1,2,.24,3.52.24,5q0,58.15-.07,116.31c0,1.77-.94,4.63-2.16,5.09-2.91,1.09-5.36.39-5.35-3.9q.08-59.4-.09-118.8C639.7,300.21,643.6,302.36,647.14,302.45Z"/><path class="cls-20" d="M837.7,298.24l-9.15,1.67c-.4-4.64-3.74-4.85-7.26-4.85H762.85c-20.64,0-41.29-.05-61.93.08-2.2,0-4.39,1.07-6.58,1.64l.42,1.91c2.08.12,4.17.33,6.25.33q58.93.12,117.87.19c-2.31.21-4.61.59-6.92.6q-56.69,0-113.38,0c-15,0-30-.29-44.94-.49-2.25,0-4.94.42-5.22-3.08-.2-2.48.43-4.32,3.37-4.38,1,0,2-.07,3-.07h182.8c1,0,2,.1,3,.15-.68,1.73-1.35,3.45-2,5.18Z"/><path class="cls-23" d="M878.44,365.94q0,28.23,0,56.44c0,1.5.25,3.12-.23,4.46a3.68,3.68,0,0,1-2.66,2.07,3.78,3.78,0,0,1-2.78-2c-.52-1.12-.26-2.61-.26-3.94q0-57.44.07-114.88c0-1-.32-2.22.14-2.95a18,18,0,0,1,3-3c.88.95,2.11,1.76,2.55,2.88s.14,2.63.14,4Q878.45,337.47,878.44,365.94Z"/><path class="cls-20" d="M818.88,299.21Q759.95,299.12,701,299c-2.08,0-4.17-.21-6.25-.33l-.42-1.91c2.19-.57,4.38-1.63,6.58-1.64,20.64-.13,41.29-.08,61.93-.08h58.44c3.52,0,6.86.21,7.26,4.85C825.38,298.92,822.34,296.12,818.88,299.21Z"/><path class="cls-24" d="M878.53,125.19V286.51l-1.64.08c-.11-1.69-.31-3.38-.32-5.07-.08-16.95.07-33.91-.27-50.85-.26-13.38-2.62-26.91-1.26-40.09a252.11,252.11,0,0,0,1.12-34.17c-.34-10.41-1-20.82-1.55-31.22Z"/><path class="cls-25" d="M731.58,127.28c-25.66,0-51.32,0-77-.12-2,0-4-1.34-6-2.06l211,0-.12,2a19,19,0,0,1-2,.2q-48.25,0-96.5,0Q746.32,127.24,731.58,127.28Z"/><path class="cls-14" d="M852.64,26l-3,.87c-3.16.06-6.32.17-9.48.17q-67.65,0-135.3,0c-14.81,0-29.61-.11-44.42-.17l-4-.87a74.3,74.3,0,0,1,8.37-.9q89.94,0,179.88.07A75.39,75.39,0,0,1,852.64,26Z"/><path class="cls-26" d="M843.4,315.33c-6.13-2.23-8-5.12-7.77-12.22l11-1.3c2,1.95-4.87,6.92,3.43,4.87Z"/><path class="cls-27" d="M838.57,297.12c.67-1.73,1.34-3.45,2-5.18l18.93.17V299l-5.06.16C849.81,293.53,844.31,294.36,838.57,297.12Z"/><path class="cls-14" d="M645.18,290.79a25.61,25.61,0,0,1,2.16,5c.63,3.05-1.12,4-4,4-3.25,0-4.18-1.86-3.57-4.44.41-1.7,1.8-3.17,2.74-4.74Z"/><path class="cls-26" d="M856.39,303.17c.25,6.73-1.78,9.93-7.69,12.11.53-2,1-4,1.61-6,.43-1.42,1.18-2.75,1.49-4.18C852.43,302,854,301.61,856.39,303.17Z"/><path class="cls-26" d="M838.57,297.12c5.74-2.76,11.24-3.59,15.89,2.06-3.69.26-7.38.75-11.06.68-1.9,0-3.8-1.05-5.7-1.62Z"/><path class="cls-28" d="M859.52,299v-6.91c2.24-.34,4.47-.78,6.72-1,3.17-.29,4.4,1.33,4.4,4.44s-1.23,4.72-4.4,4.43C864,299.8,861.76,299.36,859.52,299Zm5.65-8.62c-2.11,2.29-4,3.46-4.42,5-.68,2.8,1.46,3.63,4,3.62s5.18-.17,4.62-3.49C869.08,294,867.16,292.75,865.17,290.4Z"/><path class="cls-26" d="M755,497.07c-12.82,0-25.65,0-38.48,0-2.45,0-5.83.25-5.44-3.25.16-1.41,3.42-3.52,5.28-3.54q38.73-.35,77.47,0c1.83,0,5,2.21,5.18,3.61.3,3.5-3.09,3.16-5.52,3.17C780.68,497.09,767.85,497.07,755,497.07Z"/><path class="cls-26" d="M754.76,54.07q-18.5,0-37,0a12.74,12.74,0,0,1-4.44-.37c-1-.4-2.25-1.77-2.23-2.68s1.33-2.22,2.35-2.6a13,13,0,0,1,4.44-.34q37.22,0,74.44,0c.5,0,1.09-.17,1.48,0,1.82.95,3.58,2,5.36,3-1.82,1-3.63,2.78-5.47,2.81C780.74,54.18,767.74,54.06,754.76,54.07Z"/><path class="cls-14" d="M660.47,26.88c14.81.06,29.61.17,44.42.17q67.65,0,135.3,0c3.16,0,6.32-.11,9.48-.17l5.72,1.2c-34.83,0-68.43-.23-102,.06s-67.41-1.32-100.93,1Z"/><path class="cls-1" d="M742.78,421.22c-78.4-3.48-65.4,16.4-66.25-40.11.05-6.21,1.86-8,8.15-8q59.46-.06,118.93,0c6.72,0,8.75,2,8.8,8.55q.14,15.49,0,31c0,6.8-1.87,8.56-8.67,8.57Q773.26,421.27,742.78,421.22Zm-32.3-28c4.46,3.08,10,.34,15,.32-4.4-4.15-8.82-1.61-13.7,0l1.41-3.68-.87-.46-1.81,2.49c-5.59-.27-11.34-2.18-16.67.28l.25,2.32Zm-13.56,5.29c0,5.54,3.07,6,14.2,3C706.81,397,701.33,401.9,696.92,398.53Zm-1.38,10.16c13.76,4,13.76,4,13.72,0Zm18.74,1c.51,6.14,4.67,1.41,6.79,3.19C720.41,407.93,719.16,407.4,714.28,409.69Zm-16.79-24.93c-.76-4.82-4.74-1.18-7.11-1.76-.61-.16-1.59,1.23-2.4,1.91C691.1,387.09,694,385.44,697.49,384.76Zm3.14-1.59.23,1.71c5.81-1.17,7.21,4.33,9.42.13C707.19,383.2,704.2,382.12,700.63,383.17Zm-8.43,11.5.28-2.38c-2.73.23-7.12-2.43-8.85.19C683.92,395.15,690,393.87,692.2,394.67Zm65.16,5.23-1.22-.8c-2.5.51-5.24.2-5.83,3.35C753.76,405,755.2,402.32,757.36,399.9Zm-20.52,2-.14-1.43c-2.58-1.25-4.39-1.42-6,1.26C732.91,403.63,734.61,404.27,736.84,401.94Zm49.93-6.71,2,1.18c2.83-4.89.83-7.22-3.79-3.49Z"/><path class="cls-20" d="M693.55,359.13c-.26-7.45-.81-14.91-.65-22.35.1-4.18,3.22-5.77,7.33-5.74,11,.1,22,0,33,0q43.47,0,86.95,0c7.31,0,9.15,1.74,9.35,9,.14,5.16-.12,10.33.09,15.48.17,4.17-1.64,5.55-5.65,5.51-14-.14-28-.05-42-.05l-85.45.05ZM828.7,337.46c-2.72-1.93-4.26-3.84-5.89-3.92-1.19-.06-3.7,2.54-3.48,3.48a5.93,5.93,0,0,0,3.8,3.82C824.34,341.1,826,339.18,828.7,337.46ZM713.81,353.37l10.76-1.21-.08-1.89-11.21-1.17C713.56,351.33,713.7,352.45,713.81,353.37Zm39.9-3.63.18,2.16c2.41.33,4.8.81,7.21.9.69,0,1.67-1,2-1.76a2.5,2.5,0,0,0-.76-2C759.49,349.17,756.6,349.48,753.71,349.74Zm11-10-1.31.74c.64,1.16,1.11,3.12,2,3.32,1.82.43,3.85-.07,5.8-.2-1.23-.71-2.47-1.42-3.69-2.15C766.56,340.91,765.65,340.32,764.72,339.75ZM744.19,342c7.92,3.46,7.92,3.46,7.85-1.48Zm42-.51-.45,1.82a16.82,16.82,0,0,0,4.09,1.19c1.18.05,2.39-.64,3.59-1l-.39-1.22Z"/><path class="cls-20" d="M853.5,423.54h-42c3.54-4.82,6.74-8.2,12-8.4,6.13-.22,12.27-.07,18.41,0C847.21,415.14,850.12,418.61,853.5,423.54Z"/><path class="cls-26" d="M662.66,394.11a10.12,10.12,0,0,1-10.54-10.17,10.7,10.7,0,0,1,10.16-10.76,10.38,10.38,0,0,1,10.44,10.38C672.8,389.66,668.66,394,662.66,394.11Zm-.33-9.71,1.14.14q.72,2.34,1.47,4.68c5.07-4.73,4.88-8.05-.87-11.19C663.48,380.18,662.91,382.29,662.33,384.4Z"/><path class="cls-26" d="M845.76,351.85a10.5,10.5,0,0,1-10.22-10.64,10.64,10.64,0,0,1,10.66-10.27c5.58.13,10.5,5.22,10.35,10.69A10.71,10.71,0,0,1,845.76,351.85Zm.45-4.23c7.79-6.22,7.58-9.26,0-13.28Z"/><path class="cls-29" d="M693.55,359.13l3,2a59.27,59.27,0,0,0,7.34.89q59.18.09,118.34,0h5.65l0,1.58c-1.51.14-3,.41-4.55.41q-60.92,0-121.83,0C698.16,364,693.8,364.65,693.55,359.13Z"/><path class="cls-30" d="M694.53,324.17l2,.95a61.44,61.44,0,0,0,7.35.9q59,.08,118,0h5.89l.17,1.36a30.87,30.87,0,0,1-4.24.59c-40.5,0-81,.07-121.48-.09C699.39,327.91,695.22,329.15,694.53,324.17Z"/><path class="cls-31" d="M682.68,108.9c3.32-.61,6.58-2,9.85.59.58.47,2.51-1.07,3.85-1.13s3.27.22,3.71,1c.58,1.07,0,2.8-.13,4.24-1.26-.1-2.52-.22-3.77-.31-3.34-.23-6.68-.34-10-.72a14.72,14.72,0,0,1-3.56-1.38C682.65,110.44,682.67,109.67,682.68,108.9Z"/><path class="cls-26" d="M831.47,110.66c-1.84,1.12-3.89,3.37-5.47,3.07s-4.15-3-4.11-4.65,2.81-4,4.56-4.12c1.59-.15,3.42,2.21,5.15,3.46Z"/><path class="cls-32" d="M736.51,112c-1-2.25-1.15-4.16,3-3.71,2.28.25,4.58.38,7,.57.67,4.62-2.35,3.4-4.82,3.16C740.3,111.84,738.9,112,736.51,112Z"/><path class="cls-26" d="M828.42,89.76c.09-1.87.16-3.45.25-5.26h5.54c.13,1.69.25,3.28.39,5.26Z"/><path class="cls-33" d="M682.68,108.9c0,.77,0,1.54,0,2.31l-4.53.55.54-5Z"/><path class="cls-34" d="M718.64,111.39h-6.9c.23-4.55,4.15-2.89,6.9-4Z"/><path class="cls-26" d="M842.22,91.35c-1.43-1.85-2.87-2.91-2.81-3.86s1.52-2,2.37-3.07c1,.89,2.56,1.66,2.76,2.7S843.42,89.31,842.22,91.35Z"/><path class="cls-35" d="M832.43,270.85l26,.33-6.9,2.86c-2.65,1.89-5.21,5.23-8,5.4-8.63.51-17.34-.17-26-.39-4.89-6.3-11.46-7.17-19-7.12-47.49.26-95,.14-142.47.1-2.47,0-4.93-.45-7.4-.69l-.1-.29,27.05,0,31-.08,10,0h84.91l3,0Z"/><path class="cls-36" d="M647.78,271.22c-.08-3.49-.23-7-.23-10.47q0-63.12,0-126.25c0-2.16.12-4.32.18-6.48l.75.1q0,71.46.07,142.93l.1.29C648.37,271.31,648.07,271.27,647.78,271.22Z"/><path class="cls-37" d="M817.57,279.05c8.68.22,17.39.9,26,.39,2.76-.17,5.32-3.51,8-5.4-1.37,4.07-4.13,6.78-8.44,6.93-7.39.27-14.81.17-22.21,0C819.79,281,818.68,279.72,817.57,279.05Z"/><path class="cls-38" d="M712.68,303.46l12.09,2.39-.29,2.18c-3.75,0-7.49.08-11.22-.17C713,307.84,712.91,305.35,712.68,303.46Z"/><path class="cls-38" d="M732.17,305.4c-.33.64-.67,1.3-1.24,2.38-1.24-4.61.69-5.16,4-4.18a38.25,38.25,0,0,1,4.66,1.32c.71.31,1.12,1.32,1.67,2-.82.58-1.86,1.81-2.42,1.62A62.18,62.18,0,0,1,732.17,305.4Z"/><path class="cls-39" d="M793.67,306.05l8.4-1.52v5.05l-7.77-2.1Z"/><path class="cls-40" d="M752.75,305.86a54.85,54.85,0,0,1,5.53-.77,12.13,12.13,0,0,1,.64,2.49l-5.77.64Z"/><path class="cls-41" d="M720.58,155.09q3-10,6-20l5-7.07c6.12,0,12.24,0,18.36-.1,10.12-.13,14.16,2.6,17.58,12.07.73,2,1.38,4.06,2.07,6.09.08,2.93.32,5.87.18,8.78-.08,1.59-.8,11.5-1.22,11.5-2,0-4-.82-6-1.34-.29-2-.58-11-.88-13l-1.11-3.88c-4.11-4.37-7.92-9.09-12.49-12.91-1.48-1.24-5-4.23-7.47-.12l-1.09.93c-2.12,1.53-5.39,2.64-6.14,4.68-1.82,5-2.47,10.35-3.59,15.56v2.7c2.44,7.89,4.06,16.24,11.87,21.1.17,1.77.22,3.56.54,5.31.69,3.72-.11,6.75-3.6,8.7l-18.74,4.86-1.24-1.65c3.22-4.35,6.3-8.81,9.69-13,1.66-2,2.61-3.69.72-6.09-.63-.8-.53-2.15-.89-3.2-.94-2.76-1.15-6.51-3.09-8C720.79,163.63,720.31,159.67,720.58,155.09Z"/><path class="cls-14" d="M865.17,290.4c2,2.35,3.91,3.61,4.17,5.14.56,3.32-2.14,3.47-4.62,3.49s-4.65-.82-4-3.62C861.13,293.86,863.06,292.69,865.17,290.4Z"/><path class="cls-42" d="M696.92,398.53c4.41,3.37,9.89-1.5,14.2,3C700,404.57,696.88,404.07,696.92,398.53Z"/><path class="cls-43" d="M710.48,393.24l-16.4,1.29-.25-2.32c5.33-2.46,11.08-.55,16.67-.28C710.5,392.37,710.49,392.8,710.48,393.24Z"/><path class="cls-29" d="M710.48,393.24c0-.44,0-.87,0-1.31l1.81-2.49.87.46-1.41,3.68c4.88-1.63,9.3-4.17,13.7,0-3.9.42-7.79,1-11.7,1.17C712.71,394.78,711.58,393.76,710.48,393.24Z"/><path class="cls-44" d="M695.54,408.69h13.72C709.3,412.65,709.3,412.65,695.54,408.69Z"/><path class="cls-45" d="M714.28,409.69c4.88-2.29,6.13-1.76,6.79,3.19C719,411.1,714.79,415.83,714.28,409.69Z"/><path class="cls-46" d="M697.49,384.76a51.53,51.53,0,0,1-6.45,1.33c-1,.08-2-.76-3.06-1.18.81-.68,1.79-2.07,2.4-1.91C692.75,383.58,696.73,379.94,697.49,384.76Z"/><path class="cls-42" d="M700.63,383.17c1.53-.15,3.13-.67,4.56-.37a26.42,26.42,0,0,1,5.09,2.21c-2,3.82-3.78-.08-5.67-.12-1.25,0-2.5,0-3.75,0Z"/><path class="cls-47" d="M692.2,394.67c-2.71-.29-5.42-.56-8.12-.94-.22,0-.57-.91-.45-1.25s.75-1.19,1.1-1.16c2.59.24,5.17.63,7.75,1Z"/><path class="cls-48" d="M757.36,399.9c-1.22,1.27-2.28,2.84-3.75,3.67-.67.38-2.17-.7-3.3-1.12.41-.81.63-2.07,1.27-2.34a23.58,23.58,0,0,1,4.56-1Z"/><path class="cls-49" d="M736.84,401.94c-1,.6-2,1.74-2.84,1.66-1.15-.1-2.23-1.17-3.33-1.83.79-.78,1.51-2.08,2.4-2.22,1.14-.18,2.41.6,3.63,1Z"/><path class="cls-50" d="M786.77,395.23,785,392.92a17.29,17.29,0,0,1,3.52-2c.41-.14,1.84,1.12,1.77,1.57a19.32,19.32,0,0,1-1.5,3.94Z"/><path class="cls-51" d="M828.7,337.46c-2.68,1.72-4.36,3.64-5.57,3.38a5.93,5.93,0,0,1-3.8-3.82c-.22-.94,2.29-3.54,3.48-3.48C824.44,333.62,826,335.53,828.7,337.46Z"/><path class="cls-32" d="M713.81,353.37c-.11-.92-.25-2-.53-4.27l11.21,1.17.08,1.89Z"/><path class="cls-52" d="M753.71,349.74c2.89-.26,5.78-.57,8.68-.67a2.5,2.5,0,0,1,.76,2c-.38.77-1.36,1.78-2,1.76-2.41-.09-4.8-.57-7.21-.9Z"/><path class="cls-39" d="M764.72,339.75c.93.57,1.84,1.16,2.78,1.71,1.22.73,2.46,1.44,3.69,2.15-2,.13-4,.63-5.8.2-.87-.2-1.34-2.16-2-3.32Z"/><path class="cls-53" d="M744.19,342l7.85-1.48C752.11,345.41,752.11,345.41,744.19,342Z"/><path class="cls-52" d="M786.24,341.44l6.84.78.39,1.22c-1.2.37-2.41,1.06-3.59,1a16.82,16.82,0,0,1-4.09-1.19Z"/><path class="cls-26" d="M662.33,384.4c.58-2.11,1.15-4.22,1.74-6.37,5.75,3.14,5.94,6.46.87,11.2q-.75-2.36-1.47-4.69Z"/><path class="cls-26" d="M846.21,347.62V334.34C853.79,338.36,854,341.4,846.21,347.62Z"/><path class="cls-5" d="M805.6,228l-1.92-9c-2.54-7.48-4.68-15.14-7.84-22.35-1.31-3-4.8-5-7.3-7.54l-8-4.06c-33-13-73.07,16.94-73.07,16.94-1.43,12.2-2.7,24.41-4.36,36.58l.43,32.48h102Z"/><path class="cls-54" d="M719.81,198.9,738.55,194l.81,3.06c8.51,4.4,19.48,2.65,25.26-4l-2-3c2.25-.77,4.37-1.67,5.72,1.55,1.58,3.78,3.79,4,6.2.81a11,11,0,0,0,2.25-7.38"/><path class="cls-2" d="M741.61,180h2l9.07-1.91,3.86-2.12c.93,5.15-.11,11.15,6.06,14l2,3c-3.46-.78-7-5.36-10.38-.55-2.7,3.86-6,3.84-10,3.48-1.59-.15-3.28.7-4.93,1.1l-.81-3.06c3.49-1.95,4.29-5,3.6-8.7C741.83,183.59,741.78,181.8,741.61,180Z"/><path class="cls-41" d="M762.58,190.05c-6.17-2.89-5.13-8.89-6.06-14l6.06-12.94c1.54.34,3.31.31,4.58,1.09,4.18,2.58,4,4.4-.22,6.92a25.85,25.85,0,0,0-2.8,2.5c2,.72,3.24,1.28,4.54,1.6a10.91,10.91,0,0,1,5.82,17.23c-2.41,3.17-4.62,3-6.2-.81C767,188.38,764.83,189.28,762.58,190.05Z"/><path class="cls-2" d="M704.61,255c.6-2.79-.09-6.33,4-7.1,13.19,3.06,24-2.94,34.55-9.41,2.64-1.62,4.21-5,6.28-7.58,1,7.05,5.36,9.06,11,5.07.07.7.14,1.41.2,2.12-1.94.59-3.91,1.1-5.81,1.81-1.45.55-2.79,1.37-4.18,2.06l-9.07,5.09c-1.87.56-4,.71-5.57,1.75C726.37,255.21,716.71,261.14,704.61,255Z"/><path class="cls-2" d="M802.63,245.16c.69,6.38-2.45,10.44-8.23,12.19a68.41,68.41,0,0,1-14,2.68c-4.35.38-6.07-2.55-5.88-6.69,1.07-1.18,1.92-3,3.24-3.43,6.11-2.14,12.3-4.12,18.57-5.68C798.21,243.75,800.5,244.8,802.63,245.16Z"/><path class="cls-2" d="M760.47,236c-5.62,4-10,2-11-5.07,2.14-9,10.52-11.69,18.15-5.89Z"/><path class="cls-2" d="M775.6,251c0,2-.07,4-.1,6h0l-13-2c-1.6-2-2.91-4.41-4.93-5.74-.88-.58-3.21,1.22-5,1.68-.56.15-1.33-.53-2-.84l4-5.14c4.65,1,9.36,1.72,14,2.94C771,248.53,773.27,250,775.6,251Z"/><path class="cls-2" d="M739.36,197.1c1.65-.4,3.34-1.25,4.93-1.1,3.94.36,7.25.38,10-3.48,3.35-4.81,6.92-.23,10.38.55C758.84,199.75,747.87,201.5,739.36,197.1Z"/><path class="cls-2" d="M758.64,238c-1.34,1.71-6.67,10.43-8,12.14l-9.14,4.21-1.9.09-1-1.35,3-5.95,9.07-5.09C752,243,757.32,237,758.64,238Z"/><path class="cls-2" d="M760.47,236l7.17-11a38.41,38.41,0,0,1,1.8,5.57,23.77,23.77,0,0,1-.17,5l-4.56-1.09-4,3.63C760.61,237.42,760.54,236.71,760.47,236Z"/><path class="cls-2" d="M741.61,247.09c-1,2-2,7-3,9-2.56.66-5.27,1-7.66,2.06-6.66,2.94-13.09,6.38-19.83,9.1-1.23.5-4.16-4.05-5-5.45-1.14-1.82-1-4.44-1.46-6.72,12.1,6.11,21.76.18,31.43-6.19C737.6,247.8,739.74,247.65,741.61,247.09Z"/><path class="cls-2" d="M741.49,254.3l9.14-4.21c.68.31,1.45,1,2,.84,1.74-.46,4.07-2.26,5-1.68,2,1.33,3.33,3.76,4.93,5.74l-3.07,5L757.51,262C752.21,263.39,744.54,259.68,741.49,254.3Z"/><path class="cls-2" d="M759.45,260l3.07-5,13,2Z"/><line class="cls-55" x1="206.57" y1="253.07" x2="210.13" y2="251.24"/><line class="cls-56" x1="217.26" y1="247.58" x2="641.43" y2="29.74"/><line class="cls-55" x1="645" y1="27.91" x2="648.56" y2="26.08"/><line class="cls-55" x1="204.57" y1="302.07" x2="208.18" y2="303.78"/><line class="cls-57" x1="215.47" y1="307.25" x2="649.31" y2="513.61"/><line class="cls-55" x1="652.96" y1="515.35" x2="656.57" y2="517.07"/><line class="cls-55" x1="223.57" y1="266.07" x2="227.33" y2="264.7"/><line class="cls-58" x1="234.79" y1="261.98" x2="857.59" y2="34.87"/><line class="cls-55" x1="861.32" y1="33.51" x2="865.08" y2="32.14"/><line class="cls-55" x1="223.57" y1="312.07" x2="227.39" y2="313.26"/><line class="cls-59" x1="235.08" y1="315.65" x2="861.75" y2="510.68"/><line class="cls-55" x1="865.59" y1="511.88" x2="869.41" y2="513.07"/><rect class="cls-60" x="624.07" y="122.57" width="258" height="169" rx="12"/><rect class="cls-60" x="624.57" y="300.07" width="258" height="129" rx="8.13"/><text class="cls-61" transform="translate(903.65 224.73)">1</text><text class="cls-61" transform="translate(903.57 377.21)">2</text><text class="cls-61" transform="translate(297.81 156.49)">3</text><path class="cls-62" d="M320.09,179.07s2.15,14.5,21.48,0c0,0-16.11,16.91-7.52,29a21.77,21.77,0,0,0-21.48,0s10.74-7.25,0-16.92C312.57,191.15,322.24,192,320.09,179.07Z"/></g></g></svg>