<svg xmlns="http://www.w3.org/2000/svg" viewBox="0 0 173.82 155.76"><defs><style>.cls-1,.cls-3{fill:#11eab6;}.cls-2{fill:none;}.cls-2,.cls-3{stroke:#2b0c7d;stroke-miterlimit:10;stroke-width:2px;}</style></defs><g id="Layer_2" data-name="Layer 2"><g id="Layer_1-2" data-name="Layer 1"><path class="cls-1" d="M86.86,14.83C97.27,5.6,109,.55,122.55,1.07c21.54.83,37.39,11.1,45.81,30.94s4.9,38.45-9.9,53.88c-19.88,20.72-40.58,40.66-61,60.84-6.39,6.32-15,6.36-21.3.09C55.73,126.64,35.23,106.52,15.09,86-3.39,67.25-3.64,37.52,14,17.77a50.73,50.73,0,0,1,68.16-6.6C83.66,12.29,85.12,13.46,86.86,14.83Z"/><path class="cls-2" d="M86.86,14.83C97.27,5.6,109,.55,122.55,1.07c21.54.83,37.39,11.1,45.81,30.94s4.9,38.45-9.9,53.88c-19.88,20.72-40.58,40.66-61,60.84-6.39,6.32-15,6.36-21.3.09C55.73,126.64,35.23,106.52,15.09,86-3.39,67.25-3.64,37.52,14,17.77a50.73,50.73,0,0,1,68.16-6.6C83.66,12.29,85.12,13.46,86.86,14.83Z"/><path class="cls-3" d="M114.48,1.43C107.78,2.93,97,5.67,86.49,14,77,21.51,62.14,37.59,66.74,46.91c2.59,5.26,10.35,6.32,12.35,6.59,0,0,9.32,1.27,37-16.46h0c15.92,11.52,9.56,4.22,25.48,15.74"/><path class="cls-3" d="M136.14,57.51l21,21a13,13,0,0,1,0,18.32h0a13,13,0,0,1-18.32,0l-21-21"/><path class="cls-3" d="M118.3,75.34l21,21a13,13,0,0,1,0,18.32h0a13,13,0,0,1-18.33,0l-21-21"/><path class="cls-3" d="M102.71,97.13,121.59,116c4.55,4.55,4.13,12.34-.92,17.4h0c-5.06,5.06-12.85,5.47-17.4.93L84.39,115.45"/><rect class="cls-3" x="17.12" y="68.33" width="52.4" height="24.41" rx="12.2" transform="translate(-44.26 54.22) rotate(-45)"/><rect class="cls-3" x="34.89" y="86.1" width="52.4" height="24.41" rx="12.2" transform="translate(-51.62 71.99) rotate(-45)"/><rect class="cls-3" x="52.47" y="103.69" width="52.4" height="24.41" rx="12.2" transform="translate(-58.9 89.58) rotate(-45)"/><rect class="cls-3" x="69.24" y="120.46" width="52.4" height="24.41" rx="12.2" transform="translate(-65.85 106.35) rotate(-45)"/></g></g></svg>