<svg id="Слой_1" data-name="Слой 1" xmlns="http://www.w3.org/2000/svg" viewBox="0 0 636.9 32.3"><defs><style>.cls-1{fill:#fff;}.cls-1,.cls-4{stroke:#2b0c7d;stroke-linecap:round;stroke-linejoin:round;}.cls-2{fill:#dedede;}.cls-3{fill:#640d0d;}.cls-4{fill:none;}</style></defs><path class="cls-1" d="M6.14,10.39a3.1,3.1,0,0,1,1.5-2.22c5.19-3,17.23-2.08,21.58.53a1.25,1.25,0,0,1,.66,1.06c.11,7.56,1.91,15.78-11.95,15.78C3.91,25.59,5.13,16.8,6.14,10.39Z"/><ellipse class="cls-2" cx="18.16" cy="10.47" rx="10.39" ry="3.3"/><path class="cls-1" d="M5.37,18a2.29,2.29,0,0,1-1.54.47C2.17,18.38,1,16.33,1.14,13.93s1.65-4.26,3.3-4.15a2.33,2.33,0,0,1,1.46.69l-.13,2.46a1.88,1.88,0,0,0-1.5-1.51c-1-.07-1.87,1-2,2.48s.62,2.66,1.61,2.73a1.81,1.81,0,0,0,1.64-1.19Z"/><ellipse class="cls-3" cx="18.16" cy="11.31" rx="9.19" ry="2.46"/><path class="cls-4" d="M28.55,10.47c0,1.82-4.65,3.29-10.39,3.29S7.77,12.29,7.77,10.47"/><path class="cls-1" d="M460.47,10.39A3.13,3.13,0,0,1,462,8.17c5.19-3,17.23-2.08,21.59.53a1.27,1.27,0,0,1,.66,1.06c.1,7.56,1.9,15.78-12,15.78S459.46,16.8,460.47,10.39Z"/><ellipse class="cls-2" cx="472.5" cy="10.47" rx="10.39" ry="3.3"/><path class="cls-1" d="M459.71,18a2.32,2.32,0,0,1-1.54.47c-1.66-.11-2.87-2.16-2.7-4.56s1.65-4.26,3.31-4.15a2.35,2.35,0,0,1,1.46.69l-.14,2.46a1.85,1.85,0,0,0-1.49-1.51c-1-.07-1.88,1-2,2.48s.62,2.66,1.61,2.73a1.82,1.82,0,0,0,1.65-1.19Z"/><ellipse class="cls-3" cx="472.5" cy="11.31" rx="9.19" ry="2.46"/><path class="cls-4" d="M482.89,10.47c0,1.82-4.66,3.29-10.39,3.29s-10.39-1.47-10.39-3.29"/><path class="cls-1" d="M511.85,10.39a3.13,3.13,0,0,1,1.5-2.22c5.19-3,17.23-2.08,21.59.53a1.27,1.27,0,0,1,.66,1.06c.1,7.56,1.9,15.78-12,15.78S510.84,16.8,511.85,10.39Z"/><ellipse class="cls-2" cx="523.88" cy="10.47" rx="10.39" ry="3.3"/><path class="cls-1" d="M511.09,18a2.32,2.32,0,0,1-1.54.47c-1.66-.11-2.87-2.16-2.7-4.56s1.65-4.26,3.31-4.15a2.35,2.35,0,0,1,1.46.69l-.14,2.46A1.85,1.85,0,0,0,510,11.42c-1-.07-1.88,1-2,2.48s.62,2.66,1.61,2.73a1.82,1.82,0,0,0,1.65-1.19Z"/><path class="cls-3" d="M533.07,11.31c0,1.35-4.12,2.45-9.19,2.45s-9.19-1.1-9.19-2.45c0-.43-.27-1.68.47-2,1.56-.76,5.26-.43,8.72-.43C529,8.85,533.07,10,533.07,11.31Z"/><path class="cls-4" d="M534.27,10.47c0,1.82-4.66,3.29-10.39,3.29s-10.39-1.47-10.39-3.29"/><path class="cls-1" d="M562.45,10.39A3.13,3.13,0,0,1,564,8.17c5.19-3,17.23-2.08,21.59.53a1.27,1.27,0,0,1,.66,1.06c.1,7.56,1.9,15.78-12,15.78S561.44,16.8,562.45,10.39Z"/><ellipse class="cls-2" cx="574.48" cy="10.47" rx="10.39" ry="3.3"/><path class="cls-1" d="M561.69,18a2.32,2.32,0,0,1-1.54.47c-1.66-.11-2.87-2.16-2.7-4.56s1.65-4.26,3.31-4.15a2.35,2.35,0,0,1,1.46.69l-.14,2.46a1.85,1.85,0,0,0-1.49-1.51c-1-.07-1.88,1-2,2.48s.62,2.66,1.61,2.73a1.82,1.82,0,0,0,1.65-1.19Z"/><ellipse class="cls-3" cx="574.48" cy="11.31" rx="9.19" ry="2.46"/><path class="cls-4" d="M584.87,10.47c0,1.82-4.66,3.29-10.39,3.29s-10.39-1.47-10.39-3.29"/><path class="cls-1" d="M611.9,10.39a3.13,3.13,0,0,1,1.5-2.22c5.19-3,17.23-2.08,21.59.53a1.27,1.27,0,0,1,.66,1.06c.1,7.56,1.9,15.78-12,15.78C609.68,25.59,610.89,16.8,611.9,10.39Z"/><ellipse class="cls-2" cx="623.93" cy="10.47" rx="10.39" ry="3.3"/><path class="cls-1" d="M611.14,18a2.32,2.32,0,0,1-1.54.47c-1.66-.11-2.87-2.16-2.7-4.56s1.65-4.26,3.31-4.15a2.35,2.35,0,0,1,1.46.69l-.14,2.46A1.85,1.85,0,0,0,610,11.42c-1-.07-1.88,1-2,2.48s.62,2.66,1.61,2.73a1.82,1.82,0,0,0,1.65-1.19Z"/><ellipse class="cls-3" cx="623.93" cy="11.31" rx="9.19" ry="2.46"/><path class="cls-4" d="M634.32,10.47c0,1.82-4.66,3.29-10.39,3.29s-10.39-1.47-10.39-3.29"/><path class="cls-1" d="M57.43,9a3.15,3.15,0,0,1,1.78-2c5.54-2.35,17.35.16,21.33,3.31a1.26,1.26,0,0,1,.52,1.14c-.87,7.51-.14,15.89-13.89,14.1S55.61,15.21,57.43,9Z"/><ellipse class="cls-2" cx="69.35" cy="10.61" rx="3.3" ry="10.39" transform="matrix(0.13, -0.99, 0.99, 0.13, 49.89, 78.01)"/><path class="cls-1" d="M55.69,16.45a2.35,2.35,0,0,1-1.59.27c-1.63-.33-2.56-2.51-2.08-4.87s2.18-4,3.81-3.69A2.34,2.34,0,0,1,57.19,9l-.45,2.43a1.84,1.84,0,0,0-1.29-1.69c-1-.2-2,.78-2.28,2.2s.27,2.72,1.25,2.92a1.8,1.8,0,0,0,1.78-1Z"/><path class="cls-3" d="M73.33,14.18c-6-.07-13.59-2.34-14-3.81S65.85,8.1,71.85,8.7c1,.1,3.05-.51,4.54-.21a6.87,6.87,0,0,1,3.29,2.31c1.21,1.18-.15,2.36-.46,2.61A19.57,19.57,0,0,1,73.33,14.18Z"/><path class="cls-4" d="M79.65,12c-.23,1.8-5,2.67-10.73,1.93s-10.11-2.81-9.87-4.61"/><path class="cls-1" d="M109.35,7.9a3.15,3.15,0,0,1,2-1.8c5.76-1.73,17.23,2.07,20.84,5.64a1.27,1.27,0,0,1,.39,1.18c-1.69,7.37-1.9,15.78-15.36,12.49C103.59,22.14,106.85,13.89,109.35,7.9Z"/><ellipse class="cls-2" cx="121.02" cy="10.83" rx="3.3" ry="10.39" transform="translate(81.78 125.82) rotate(-76.27)"/><path class="cls-1" d="M106.8,15.13a2.36,2.36,0,0,1-1.61.1c-1.58-.51-2.27-2.78-1.53-5.08s2.61-3.75,4.19-3.24a2.4,2.4,0,0,1,1.26,1l-.72,2.36a1.85,1.85,0,0,0-1.09-1.82c-1-.3-2.07.56-2.51,1.94s0,2.73.91,3a1.8,1.8,0,0,0,1.89-.77Z"/><path class="cls-3" d="M124.58,14.81c-6-.73-13.25-3.82-13.55-5.32s6.78-1.54,12.68-.28c1,.21,3.09-.18,4.54.29s3.61.77,4.28,1.59a2.75,2.75,0,0,1,.45,3,.88.88,0,0,1-1.15.33C129.42,13.23,127.05,15.11,124.58,14.81Z"/><path class="cls-4" d="M130.52,14.07c-1.52,1.06-5.66,1.09-10.29,0-5.57-1.36-9.74-3.9-9.3-5.67"/><path class="cls-1" d="M157.72,7.9a3.12,3.12,0,0,1,2-1.8c5.76-1.73,17.23,2.07,20.84,5.64a1.27,1.27,0,0,1,.39,1.18c-1.69,7.37-1.9,15.78-15.36,12.49C152,22.14,155.22,13.89,157.72,7.9Z"/><ellipse class="cls-2" cx="169.39" cy="10.83" rx="3.3" ry="10.39" transform="translate(118.67 172.81) rotate(-76.27)"/><path class="cls-1" d="M155.17,15.13a2.36,2.36,0,0,1-1.61.1c-1.58-.51-2.27-2.78-1.53-5.08s2.61-3.75,4.19-3.24a2.4,2.4,0,0,1,1.26,1l-.72,2.36a1.85,1.85,0,0,0-1.09-1.82c-.95-.3-2.07.56-2.51,1.94s0,2.73.91,3a1.81,1.81,0,0,0,1.89-.77Z"/><path class="cls-3" d="M173.24,14.79c-6-.73-12.56-3-12.86-4.47s6.1-2.4,12-1.14c1,.22,3.09-.17,4.54.3s4.38.75,5.25,1.35a3.25,3.25,0,0,1-.27,5.61c-1.29.6-1.75-1.39-1.45-2.28C181.31,11.6,175.72,15.09,173.24,14.79Z"/><path class="cls-4" d="M178.89,14.07c-1.52,1.06-5.66,1.09-10.29,0-5.57-1.36-9.74-3.9-9.3-5.67"/><path class="cls-1" d="M208,7.9a3.11,3.11,0,0,1,2-1.8c5.77-1.73,17.23,2.07,20.84,5.64a1.26,1.26,0,0,1,.4,1.18c-1.7,7.37-1.9,15.78-15.36,12.49C202.24,22.14,205.51,13.89,208,7.9Z"/><ellipse class="cls-2" cx="219.67" cy="10.83" rx="3.3" ry="10.39" transform="translate(157.02 221.65) rotate(-76.27)"/><path class="cls-1" d="M205.46,15.13a2.36,2.36,0,0,1-1.61.1c-1.59-.51-2.27-2.78-1.54-5.08s2.62-3.75,4.2-3.24a2.38,2.38,0,0,1,1.25,1l-.71,2.36A1.87,1.87,0,0,0,206,8.46c-.94-.3-2.07.56-2.51,1.94s0,2.73.92,3a1.81,1.81,0,0,0,1.89-.77Z"/><path class="cls-3" d="M223.19,14.62c-5.77-.66-12.09-2.81-12.36-4.3s5.91-2.46,11.59-1.27c1,.2,3-.21,4.38.24A25.75,25.75,0,0,1,231.64,12c2.26,1.59,2.75,3,.89,3.89-1.25.6-.71-.56-1.45-1.44C229.35,12.39,225.58,14.89,223.19,14.62Z"/><path class="cls-4" d="M229.18,14.07c-1.52,1.06-5.66,1.09-10.29,0-5.57-1.36-9.74-3.9-9.31-5.67"/><path class="cls-3" d="M232.85,17.54a.6.6,0,0,0-.78.18c-1.44,2.27.84,5.74,2.05,2.26C235.07,18.26,233.83,18,232.85,17.54Z"/><path class="cls-1" d="M257.51,8.73a3.15,3.15,0,0,1,1.83-2c5.59-2.21,17.34.58,21.25,3.82a1.3,1.3,0,0,1,.49,1.15c-1.05,7.49-.53,15.88-14.23,13.77C253,23.42,255.54,14.92,257.51,8.73Z"/><ellipse class="cls-2" cx="269.39" cy="10.65" rx="3.3" ry="10.39" transform="translate(217.73 275.25) rotate(-81.22)"/><path class="cls-1" d="M255.59,16.16a2.28,2.28,0,0,1-1.59.23c-1.62-.36-2.5-2.57-2-4.92s2.28-4,3.9-3.59a2.31,2.31,0,0,1,1.34.9l-.51,2.41a1.85,1.85,0,0,0-1.25-1.72c-1-.22-2,.74-2.33,2.15s.21,2.72,1.18,3a1.83,1.83,0,0,0,1.81-.94Z"/><path class="cls-3" d="M273.22,14.12c-3.68.13-12.82-1.63-12.69-3.22.06-.61,1.36-3.48,11.44-2.26,1,.11,3-.47,4.38-.14s4.3.5,5.06,2.31c0,.12.55,1.12.12,1.64s-1-.12-2.17-.06-1.54.7-2.89,1.23A9.09,9.09,0,0,1,273.22,14.12Z"/><path class="cls-4" d="M279.14,13.06c-1.43,1.18-5.55,1.57-10.26.85-5.67-.88-10-3.05-9.76-4.85"/><path class="cls-3" d="M283.65,19.63a1.2,1.2,0,0,0-1.62,1c-.32,2.18.88,2.71,2.19,1.18C285.27,20.56,284.5,19.92,283.65,19.63Z"/><path class="cls-1" d="M307.18,9.07A3.09,3.09,0,0,1,308.85,7c5.41-2.62,17.33-.71,21.47,2.23a1.28,1.28,0,0,1,.58,1.11c-.5,7.54.65,15.88-13.17,14.79C303.76,24.05,305.66,15.39,307.18,9.07Z"/><ellipse class="cls-2" cx="319.16" cy="10.1" rx="3.3" ry="10.39" transform="translate(283.93 327.47) rotate(-85.48)"/><path class="cls-1" d="M305.81,16.62a2.28,2.28,0,0,1-1.57.35c-1.64-.24-2.69-2.38-2.33-4.76s2-4.12,3.63-3.87a2.36,2.36,0,0,1,1.4.8l-.34,2.44A1.84,1.84,0,0,0,305.24,10c-1-.15-2,.89-2.17,2.31s.41,2.71,1.39,2.85a1.82,1.82,0,0,0,1.74-1.06Z"/><path class="cls-3" d="M329.23,11.1c-.2.61-1.06.89-2.79,1.43a17.1,17.1,0,0,1-3.2.75c-3.66.4-12.91-.68-12.89-2.27,0-1,3.8-.42,11.23-3.11a6.66,6.66,0,0,1,4.36-.46C327.9,8.05,329.61,10,329.23,11.1Z"/><path class="cls-4" d="M329.06,11.78c-1.33,1.29-5.41,2-10.16,1.61-5.72-.45-10.24-2.29-10.1-4.11"/><path class="cls-3" d="M334.05,23a1.19,1.19,0,0,0-1.54,1.09c-.17,2.19,1.08,2.63,2.27,1C335.74,23.8,334.91,23.22,334.05,23Z"/><path class="cls-1" d="M358.43,9.51a3.14,3.14,0,0,1,1.67-2.09c5.42-2.63,17.34-.72,21.48,2.23a1.24,1.24,0,0,1,.57,1.11c-.49,7.54.66,15.88-13.16,14.78C355,24.49,356.92,15.83,358.43,9.51Z"/><ellipse class="cls-2" cx="370.41" cy="10.54" rx="3.3" ry="10.39" transform="translate(330.71 378.97) rotate(-85.48)"/><path class="cls-1" d="M357.07,17.06a2.33,2.33,0,0,1-1.57.35c-1.65-.25-2.69-2.38-2.33-4.76s2-4.12,3.62-3.87a2.28,2.28,0,0,1,1.4.8L357.86,12a1.86,1.86,0,0,0-1.37-1.63c-1-.14-1.95.89-2.16,2.32s.4,2.7,1.39,2.85a1.79,1.79,0,0,0,1.73-1.06Z"/><path class="cls-3" d="M380.49,11.54c0,.48-1.06.84-2.79,1.43a15.83,15.83,0,0,1-3.21.75c-3.66.4-12.9-.68-12.89-2.27,0-.13-.35-.54-.35-.54a1.67,1.67,0,0,1,1.53-.37,17,17,0,0,0,6.6.19C374.21,9.6,380.53,10.45,380.49,11.54Z"/><path class="cls-4" d="M380.32,12.22c-1.34,1.28-5.42,2-10.17,1.6-5.71-.45-10.23-2.29-10.09-4.1"/><path class="cls-1" d="M410.07,10.35a3.12,3.12,0,0,1,1.51-2.21c5.2-3,17.24-2,21.58.6a1.25,1.25,0,0,1,.66,1.06c.08,7.56,1.85,15.78-12,15.74S409,16.76,410.07,10.35Z"/><ellipse class="cls-2" cx="422.1" cy="10.47" rx="3.3" ry="10.39" transform="translate(410.21 432.53) rotate(-89.81)"/><path class="cls-1" d="M409.28,18a2.36,2.36,0,0,1-1.54.47c-1.66-.12-2.85-2.17-2.68-4.58s1.67-4.25,3.32-4.13a2.33,2.33,0,0,1,1.46.69l-.15,2.46a1.83,1.83,0,0,0-1.48-1.51c-1-.08-1.88,1-2,2.47s.61,2.66,1.6,2.74a1.81,1.81,0,0,0,1.65-1.19Z"/><path class="cls-3" d="M431.49,11.39c0,.47-1.64.67-3.31,1.39s-4.93.48-5.22.53c-3.61.68-9.76,0-9.86-1.58,0-.13-.39-.51-.39-.51a1.68,1.68,0,0,1,1.49-.49c2,.13,1.32.4,3.66-.34C422.59,8.89,431.45,10.3,431.49,11.39Z"/><path class="cls-4" d="M432.1,11.39c-1.23,1.39-5.25,2.39-10,2.38-5.74,0-10.39-1.52-10.38-3.34"/></svg>