<svg xmlns="http://www.w3.org/2000/svg" viewBox="0 0 181.23 237.3"><defs><style>.cls-1,.cls-3,.cls-4,.cls-5{fill:#2f117f;}.cls-2{fill:none;}.cls-2,.cls-3,.cls-4,.cls-5{stroke:#fff;}.cls-2,.cls-3{stroke-linecap:round;stroke-linejoin:round;}.cls-4,.cls-5{stroke-miterlimit:10;}.cls-5{stroke-linecap:square;}</style></defs><g id="Layer_2" data-name="Layer 2"><g id="Layer_1-2" data-name="Layer 1"><path class="cls-1" d="M108.08,101.77a36.72,36.72,0,0,1,.86-7.06l3.67-19.54c.9-4.81,3.88-9.55,3.71-14.44-.46-14.14,4.94-14.78,4.93-18.21,0-10.6,3.65-21.68,6.61-24.56,4.44-4.32,13.2,37.16,13.38,56.67a4.2,4.2,0,0,0,.49,2.38c.62.9,1.81,1.14,2.81,1.56,3.56,1.51,5.15,5.81,5.06,9.67s-1.42,7.59-1.94,11.42c-1,7.27.94,15-2,21.76-3.15,7.31-20.94,19.51-29.18,15.18-4.11-2.16-3.9-8.75-4.26-12.66C111.55,116.47,108.17,109.2,108.08,101.77Z"/><path class="cls-1" d="M46.63,112.13c-.21-6.27-1.08-12.73.87-18.69A20.85,20.85,0,0,1,59.35,80.79a37.89,37.89,0,0,1,9.39-2.07c6.92-.88,14.24-1.39,20.63,1.42a26.63,26.63,0,0,1,11.87,11.14,53.43,53.43,0,0,1,5.65,15.49,29.91,29.91,0,0,0,1.88,6.39,26.7,26.7,0,0,0,2.61,4.06l11.8,16.1c3.6,4.92,7.38,10.41,7,16.49A15.66,15.66,0,0,1,125,159.94a24.78,24.78,0,0,1-10.16,5.42c-12.81,3.66-26.42-.15-39.19-3.94-7.94-2.36-15.89-4.72-23.61-7.73a17.32,17.32,0,0,1-4.27-2.16c-2.94-2.24-4.23-6-5.37-9.51-.72-2.24-1.28-4.58,0-6.76,1.07-1.89,2.41-2.84,3-5.13C46.76,124.41,46.83,118,46.63,112.13Z"/><path class="cls-2" d="M134.1,75.5V68.2c0-1,0-2.16-1.73-2.16s-2,1-2,2.16q0,15.49,0,31a20.07,20.07,0,0,1-.27,2.43m-2.84-43.37c0-2.69,0-5.45,0-8.18a2.59,2.59,0,0,0-.57-1.74,2.77,2.77,0,0,0-1.91-.83c-.63.18-1.39.95-1.39,1.46,0,3.47.12,6.94.21,10.4m-8,18.57c.1,3.17.24,6.34.28,9.52,0,4.49,0,9,0,13.48m12-69v7h9.7V57.36m8,21.46a5.73,5.73,0,0,1,2.2,2.17,5.27,5.27,0,0,1,.68,2.92c-.08,4.35,0,8.71,0,13"/><path class="cls-2" d="M138.66,65.55V76.09L125,75.58c0-1.08,0-2.58,0-4.06,0-1.13.06-2.32-2-2.16-1.91.13-1.72,1.36-1.72,2.41,0,1.48.17,3,.27,4.42m8.87-18.39A89.75,89.75,0,0,0,120.76,61c-2.13,1-3.76,2.66-5.46,4.14a5.24,5.24,0,0,0-1.45,2,4.92,4.92,0,0,0-.32,2.4c.22,2.72.22,5.45.32,8.18M113,85.9V99.84a16.46,16.46,0,0,0,.27,2.21m20.82-.44c0-4.06.07-8.09,0-12.17,0-1.29.51-2.35,2-2.35s2.07,1.08,2,2.35c-.11,4.21,0,8.41,0,12.61m-4-63.71c.09-3.4.17-6.79.29-10.18.05-1.46-1.51-1.48-2.57-1.51-5.63-.17-10.3,3.48-10.26,7.92,0,2.36.18,4.72.27,7.08m12,41.37c1.4,2,2.46,2.31,4,1.08.95-.74,1.3-1.62.27-2.41a2.55,2.55,0,0,0-3.39-.23,8.92,8.92,0,0,0-1.15,1.31M120.12,50.94l.29,10"/><path class="cls-2" d="M139,76.39c2.09.54,4.72.62,6.08,1.69.9.71-.09,2.81-.08,4.28.06,6.12.19,12.25.24,18.34a2.39,2.39,0,0,1-.57,1.54q-13.5,15.29-27.05,30.54a6.11,6.11,0,0,1-.85.67m-1.16-31.84a14.89,14.89,0,0,1,.28,2c0,9,0,18,0,27a6.94,6.94,0,0,1-.82,2.21m19.36-75.43V47.18c0-1,0-2.15-1.72-2.15-1.59,0-2,1-2,2.15.06,3.47,0,6.94,0,10.62,2.84,0,5.41,0,8,0,2.12.05,3,.83,2.91,2.64-.26,5.4-.25,10.79-.34,16.15m-16.5,24.8c0-3.78,0-7.52,0-11.28,0-1.23-.26-2.36-2-2.39a2,2,0,0,0-2.3,2.39c.08,3.54,0,7.07,0,10.61m4.3-24.78c-3.14.6-6.3,1.12-9.41,1.79-4.27.93-4.85,1.58-4.85,4.86v18.58a14.65,14.65,0,0,0,.27,2"/><path class="cls-2" d="M127.54,39.22c-7,2.44-10.73,6.55-10.55,12.61V63.62M128.68,6.7c-3.84.9-5.26,2.37-4.28,4.43.74,1.55,2.06,2.3,4.28,2.24s3.55-1,3.91-2.47a2.87,2.87,0,0,0-2.2-3.75L129,6.7m-.57,7.08c0,1.16-.27,2.23,1.65,3a3.67,3.67,0,0,1,1.73,2.77,65.39,65.39,0,0,1,.08,6.86M128.39,16c-2.81.92-3.94,2.4-3.49,4.85a51.15,51.15,0,0,1,.36,7.3m5.7,2.45q.15,3.87.29,7.75m11.68,64.6-19.68-1.55a54.43,54.43,0,0,0-6-.39,8.83,8.83,0,0,0-3.67,1.08c-3.42,1.91-6.69,4-10,5.94M125,33.68c.1,2.07.19,4.13.29,6.2M128.39.5c.1,2,.19,4,.29,6m-6.27,75c-2,.39-2.88,1.4-1.92,2.85a3.46,3.46,0,0,0,2.48.83c.71,0,1.79-.75,1.88-1.25s-.57-1.35-1-2c-.18-.23-.73-.3-1.11-.46"/><path class="cls-2" d="M108.48,33.68c-1-5.07-3.08-7.75-7-8-2.3-.15-4.73.73-7.63,1.23C89.43,23.37,82.78,24.06,79.46,31h-5a6.29,6.29,0,0,0-6.91-3.24,5.67,5.67,0,0,0-5.05,5.55,2.09,2.09,0,0,1-.46.9,2.3,2.3,0,0,1-.83.61,5.64,5.64,0,0,0-2.65,1.52A5.13,5.13,0,0,0,57.18,39c-.2.76-1.35,1.49-2.25,1.85-3.78,1.51-6.12,4.92-5.64,8.46m54.46-11.71c-6.69-4.74-13-2.85-14.63,4.36"/><path class="cls-3" d="M95.19,118.31c0-13.13-9.69-23.77-21.66-23.77s-21.66,10.64-21.66,23.77l5.53,4.31c0-9.3,7.23-16.85,16.12-16.85s16.11,7.55,16.11,16.85Zm-57.14-.43v-4.33h1.84V92.81l-2.76-4.32h2.76V85.9h2.76V82.45h2.77V85.9h2.76v2.59h3.69l-2.76,4.32v20.74H51v4.33Zm0,0v14.68m13.82-14.68v14.68m44.24-14.68v-4.33H98V92.81l-2.77-4.32H98V85.9h2.76V82.45h2.77V85.9h2.76v2.59h3.69l-2.76,4.32v20.74H109v4.33Zm0,0v14.68M109,117.88v14.68"/><path class="cls-4" d="M44,77.26a2.41,2.41,0,0,0-1.63.63,2.12,2.12,0,0,0-.67,1.53,2.08,2.08,0,0,0,.67,1.52,2.4,2.4,0,0,0,3.26,0,2.08,2.08,0,0,0,.67-1.52,2.12,2.12,0,0,0-.67-1.53A2.41,2.41,0,0,0,44,77.26Zm58.53-.43a2.41,2.41,0,0,0-1.63.63,2.13,2.13,0,0,0-.68,1.53,2.09,2.09,0,0,0,.68,1.52,2.37,2.37,0,0,0,1.63.64,2.34,2.34,0,0,0,1.62-.64,2.05,2.05,0,0,0,.68-1.52,2.09,2.09,0,0,0-.68-1.53A2.38,2.38,0,0,0,102.57,76.83ZM60.17,88.06H50.49S49.57,71.64,64.3,71.64H83.66c12,0,14.28,16,14.28,16H88.26m-22.9-16v-3H82.29v3M68,67.32V64.73H80v3.89m-5.76-3.89V51.79s6.69-1.73,9.45,0,8.3.86,8.3.86v7.78s-6.46,2.59-9.21,0-7.38-.86-7.38-.86m5.53-7.8v7.55"/><path class="cls-4" d="M74.22,55.1s3-2.47,7.61.13S92,56.05,92,56.05M51,82.77H61.67m35,0H85.94M52.05,79.42H95m-41.22-3H93.27M58,73H89.62M55.1,120s1.84-19.87,19.35-19.87S93,120,93,120"/><path class="cls-3" d="M49.13,94.54h2.76l8.3-6.05V83.31a39.85,39.85,0,0,1,12.9-2.59c6.45,0,14.74,2.59,14.74,2.59V88.5l7.38,6H98"/><path class="cls-5" d="M52.33,97.57v4.32L59.71,95V91.52ZM63.39,87.2a40.68,40.68,0,0,1,10.14-1.73A53.33,53.33,0,0,1,84.59,87.2v5.18s-7.37-1.72-10.14-1.72-11.06,2.59-11.06,2.59Zm24,6.91v1.73l7.37,6.91v-6l-7.37-5.18Zm-71.89,49.2a25.18,25.18,0,0,1-4.19-19.86,26.51,26.51,0,0,1,12-16.83,29.82,29.82,0,0,1,21.17-4,28.44,28.44,0,0,1,18,11.19"/><path class="cls-4" d="M25.77,79.68c-.73,1.08-1.21,1.72-1.33,1.88-1.47,1.89-2.07,2.15-2.66,3.11s-.51,1.69-.66,4.37a61.37,61.37,0,0,1-.67,6.23c-.57,3.48-.88,5.22-2,6.24-1.84,1.69-3.89.91-6,3.11a3.71,3.71,0,0,0-1.33,2.5c.08,1.36,1.62,2.62,6,4.36a78,78,0,0,0,10.64,3.13c7,1.79,10.49,2.69,12.66,3.73.48.24,2.53,1,6.65,2.5,1.89.69,2.88,1,3.33.62s0-1.48-1.34-5c-1.44-4-1.49-4.78-2.66-5.62a8.67,8.67,0,0,0-3.32-1.24,19.51,19.51,0,0,0-3.65-.4h-.58q-3.22,0-6.44.4s5.07-.54,5.88-.61h.1c1.84-.23,2.94-2.36,3.33-3.12,1.21-2.33-.1-4.23-.66-8.09-.46-3.06.21-3.14,0-7.48a44.94,44.94,0,0,0-.67-6.23c-1.35-6.43-6.48-13.1-9.31-12.47C29.46,71.94,29.16,74.59,25.77,79.68Z"/><path class="cls-4" d="M25.77,71.58a3.44,3.44,0,0,0,.67,2.49c.92,1.08,2.18.78,3.32,1.87.92.87.42,1.36,1.33,3.12.39.75,1.77,3.42,4,3.74,1.11.16,1.56-.39,2.66,0s1.29,1.25,2,1.25c1,0,2.3-1.72,2-3.12s-2.09-1.23-3.32-3.12,0-2.64-1.33-4.36c-.87-1.16-1.57-1-2.66-2.5-1-1.32-.63-1.73-1.33-2.49-1.48-1.62-4.88-1.73-7.32-.62A7.26,7.26,0,0,0,22.45,71c-.29.54-2.37,4.41,0,6.86a6.17,6.17,0,0,0,6,1.25l1.33-1.87"/><path class="cls-4" d="M22.45,86.55a8.79,8.79,0,0,1,1.36,1.86c.69,1.34.57,2,1.33,2.5s1.35.09,2,.62.42.85.66,1.87c.58,2.45,1.67,3,1.33,4.36A2.8,2.8,0,0,1,28.41,99"/><path class="cls-4" d="M36.08,92.49A7.87,7.87,0,0,1,35.41,95a7.54,7.54,0,0,1-3.32,3.74c-1.09.54-2.72.58-6,.62-2.45,0-3.68.06-4,0-.79-.13-1.43-.33-2,0a1.68,1.68,0,0,0-.65.84,1.61,1.61,0,0,0,0,1c.33.82,1.62,1.07,3.32,1.24,4.17.44,6.25.66,8.63,0a15.66,15.66,0,0,0,8.64-6.23"/><path class="cls-4" d="M22.78,99.32A35.32,35.32,0,0,0,24.11,95a34.46,34.46,0,0,0,.66-3.74m4.66-3.74a2.73,2.73,0,0,0,0,1.87,3,3,0,0,0,1.05,1.28,3.38,3.38,0,0,0,1.61.59"/><path class="cls-3" d="M111.3,133.93l19.64,81,49.79-40.53L159,91.53Z"/><path class="cls-3" d="M111.3,133.93,47.49,116.47l21.74,81.68L130.94,215Z"/><path class="cls-3" d="M47.49,116.47.5,158.24,20.14,236.8l49.09-38.65Z"/><path class="cls-3" d="M48.54,122.7,6,158.42,23.8,225.58l43.71-34.92,61.64,17,43.51-36-17.52-68.58-42.58,36.06Z"/><path class="cls-3" d="M8.59,168.12l45.24-27.81,63.15,17,9.4-9.37,16.83,11.22,9.82-5,13.57-6.26"/><path class="cls-2" d="M128.47,149.35,134.1,143l-2.81-10.6,26.73-18M21.49,216.85l10.92-6.55,6.31-10L63.5,176.64l32,3.12,9.12-15.6,7,1.26,12,19.42,47.16-20.52M81,147.64l-.23,11.54,23.84,5M21.49,145.43l9.72,8.79M155.7,170.89v14.78M35.21,199.08c.37.06,1,.14,1.73.2"/><path class="cls-2" d="M40.35,199.35A17.94,17.94,0,0,0,50.64,196c7.06-5.46,6.16-15.73,2.81-21.82-3.05-5.52-6.47-4.61-11.92-11.87-3.21-4.23-7.91-10.44-5.64-16.81s10-8.8,11.93-9.35c.86-.25,9.87-2.7,16.82,1.87,4.66,3.06,5.88,7.61,7.72,15,2.45,9.82.38,11.68,2.11,17.46,3.56,12,16.75,18.47,21,20.58,3.72,1.83,20.39,10,34.37,3.74,1.76-.8,10.35-4.66,10.52-11.22.12-5.09-4.86-9.64-9.82-11.23-5.89-1.88-8.69,1.39-17.54,1.87-1.79.1-18.12,1-23.84-7.48-4.12-6.09-4-16.67,2.8-20,4.44-2.13,10.2,0,13.33,1.25,7.48,2.88,7.39,6.25,15.43,11.22,3.38,2.09,11.23,6.81,21,6.24,3.17-.19,9.32-.54,11.93-4.37,2.3-3.33,1.32-8.49-2.6-13.19"/><path class="cls-3" d="M150,146.63c-.38-.4-.79-.79-1.21-1.17M30,194.4l4.91-8.73s4.21-16.83-9.82-16.18-7.71,14.34-5.61,16.18S30,194.4,30,194.4Z"/><path class="cls-3" d="M26.45,175.7A5.79,5.79,0,0,0,23,176.8a3.15,3.15,0,0,0,0,5.29,6.07,6.07,0,0,0,6.94,0,3.15,3.15,0,0,0,0-5.29A5.79,5.79,0,0,0,26.45,175.7Zm113.61-29.3,11.21-16.21m-14.72,3.11,18.23,10"/></g></g></svg>