<?xml version="1.0" encoding="utf-8"?>
<!-- Generator: Adobe Illustrator 24.1.2, SVG Export Plug-In . SVG Version: 6.00 Build 0)  -->
<svg version="1.1" id="Layer_1" xmlns="http://www.w3.org/2000/svg" xmlns:xlink="http://www.w3.org/1999/xlink" x="0px" y="0px"
	 viewBox="0 0 423 551.5" style="enable-background:new 0 0 423 551.5;" xml:space="preserve">
<style type="text/css">
	.st0{fill:#FFFFFF;stroke:#2B0C7D;stroke-miterlimit:10;}
	.st1{fill:#FFFFFF;stroke:#2B0C7D;stroke-width:0.5;stroke-miterlimit:10;}
	.st2{fill:#FFFFFF;stroke:#2B0C7D;stroke-width:2;stroke-miterlimit:10;}
	.st3{font-family:'Arial-BoldMT';}
	.st4{font-size:7.4233px;}
</style>
<g id="Layer_2_1_">
	<g id="Layer_1-2">
		<polygon class="st0" points="23.4,54.8 72.4,82.8 72.4,246.8 23.4,218.8 		"/>
		<path class="st0" d="M108.9,118.7c0,0,4.1-3.8,4.8-12.8c0-0.4,0.1-0.8,0.1-1.2l-1-32h44.6l25,25l-12,50l-45,47l-43,10l5-91
			L108.9,118.7z"/>
		<path class="st0" d="M72.4,82.8l90-52c0,0,39-14,39,24v37c0,78-39,103-39,103l-90,52V82.8z M108.9,184.8l37.3-23.1
			c0,0,16.2-11.1,16.2-45.7V96.5c0-16.9-16.2-10.7-16.2-10.7L108.9,107V184.8z"/>
		<polygon class="st0" points="72.4,82.8 23.4,54.8 113.4,2.8 162.4,30.8 		"/>
		<path class="st0" d="M162.4,30.8c0,0,15.2-5.5,26.7-0.3L149.4,6.8c0,0-22-12-36-4L162.4,30.8z"/>
		<path class="st0" d="M390.6,308.4l-90.3-51.5c0,0-11-7.5-17-3.5l-16,10l-60.4-47.2l74.4-50.8l81,40l42,22L390.6,308.4z"/>
		<polygon class="st0" points="212.3,240.4 288.3,195.2 288.3,220.7 212.3,267.7 		"/>
		<polygon class="st0" points="212.3,237.5 288.3,192.3 288.3,252 286.5,253.2 286.5,198.9 214,241.2 214,292.1 212.3,294.4 		"/>
		<path class="st0" d="M168.9,302c0,0-6.8-4.5-6.8-16v-65.2l36.2-11.4l86,80l3,7V370L168.9,302z"/>
		<path class="st0" d="M254.1,157.1l-68.9,39.7c0,0-38.4,20.1-16.2,32.4l118.9,67.6l36-20.3l-90.5-51.9c0,0-13.5-7,0.8-15.1l45-25.9
			c0,0,7.3-5.4,21.3,1.2l91.8,51.6l29.4-16.2l-118.2-68.4C303.4,151.8,283.9,139.8,254.1,157.1z"/>
		<polygon class="st0" points="322.7,276.4 322.7,348.4 287.3,370 287.3,296.4 		"/>
		<polygon class="st0" points="421.1,219.9 421.1,291.9 390.6,308.5 390.6,235.9 		"/>
		<polygon class="st0" points="257.4,289.3 198.4,256.4 194,254 194,311.2 257.4,346.5 		"/>
		<path class="st0" d="M415,309.1c2.8,0.1,5.9,0.7,7.3,3.1c1.2,2,0.7,4.6,0.4,6.9c-0.4,2.5-0.6,5.1-0.6,7.6c0,0.4,0,0.8-0.2,1.1
			c-0.2,0.2-0.4,0.4-0.6,0.6c-2.2,1.5-5.1,1.2-7.7,0.5c-2.5-0.5-4.8-1.7-6.8-3.4c-1.9-1.8-2.9-4.5-2.5-7.1c0.1-0.6,0.4-1.2,0.7-1.6
			c0.5-0.5,1-0.9,1.7-1.2c1.5-0.8,3.9-1.6,4.8-3.1C412.8,310.8,412.2,309,415,309.1z"/>
		<path class="st0" d="M417.1,301.6c-0.5,0.2-0.9,0.5-1.2,0.9c-1,1.1-1.4,2.6-1,4c0.2,0.4,0.3,0.8,0.4,1.2c0,0.9-0.2,1.7-0.8,2.3
			c-1.1,1.5-2.2,2.9-3.5,4.2c-1.2,1-2.1,2.2-2.8,3.6c-0.1,0.2-0.1,0.4-0.1,0.5c0.1,0.1,0.1,0.2,0.2,0.3c1.1,1,2.3,1.8,3.7,2.3
			c0.2,0.1,0.4,0.1,0.7,0.1c0.3-0.1,0.5-0.3,0.7-0.5c1-1.2,2.3-2.1,3.7-2.8c0.9-0.3,1.7-0.8,2.3-1.5c0.8-1.2,0.5-2.8,0.4-4.2
			c0-1.4,0.2-2.8,0.6-4.1c0.3-1.1,1.1-2.2,1.2-3.4C421.6,302.7,418.5,301.2,417.1,301.6z"/>
		<path class="st0" d="M417.8,294.8c-0.4-0.1-0.9-0.1-1.3,0.2c-0.5,0.4-0.8,0.9-0.8,1.5c-0.2,1.3,0,2.6,0.6,3.7
			c0.1,0.2,0.2,0.3,0.3,0.4c0.2,0.2,0.4,0.3,0.6,0.3c1.1,0.2,2.3-0.3,2.9-1.3c0.5-0.7,1.2-2.3,0.7-3.2
			C420,295.7,419,295.1,417.8,294.8z"/>
		<path class="st0" d="M416.4,299c-0.2-0.7-0.2-1.4,0-2.2c0.2-0.7,0.7-1.3,1.3-1.6c0.6-0.2,1.2-0.2,1.7-0.1c0.4,0,0.9,0.1,1.2,0.4
			c0.3,0.5,0.4,1.1,0.3,1.7c-0.1,0.7-0.2,1.3-0.5,1.9c-0.2,0.5-0.6,1-0.9,1.5c-0.2,0.5-0.4,1-0.4,1.5c0,0.1,0,0.2-0.1,0.3
			c-0.1,0.1-0.2,0.1-0.3,0.1c-0.4,0-0.7,0-1.1-0.1c-1-0.1-0.3-1-0.4-1.6c0-0.3-0.5,0-0.7-0.3C416.5,300.1,416.4,299.5,416.4,299z"/>
		<path class="st0" d="M416.3,295.5c-0.1-0.2-0.1-0.5,0.1-0.7c0.1-0.1,0.2-0.1,0.4-0.1c0.8-0.1,1.5-0.2,2.2-0.3c0.5-0.1,1,0,1.4,0.2
			c0.5,0.3,0.8,0.8,0.9,1.3c0.3,1.1,0.1,2.2-0.4,3.2c-0.2,0.4-0.5,0.8-0.7,1.2c-0.2,0.4-0.2,0.9,0,1.3c0.2,0.4,0.6,0.6,0.6,1
			s-0.7,0.8-1.1,0.5c-0.4-0.4-0.6-0.9-0.5-1.4c-0.1-0.7,0.1-1.4,0.5-2c0.3-0.3,0.5-0.6,0.8-1c0.2-0.4,0.1-0.9-0.2-1.2
			c-0.1,0-0.1-0.1-0.2,0c-0.4,0-0.4,0.6-0.4,1c-0.3-0.3-0.5-0.7-0.6-1.1c-0.3-0.5-0.7-0.9-1.1-1.1
			C417.1,296,416.5,296.1,416.3,295.5z"/>
		<path id="armDress" class="st0" d="M412.1,304.9c-0.5-0.3-1.2-1.3-1.7-1.6c-0.6-0.5-1.4-0.7-2.2-0.8c-0.4-0.1-0.7-0.5-0.7-1
			c0,0,0,0,0,0l0,0c0.8,0.3,1.6-0.3,2.4,0.1c0.3,0.1,0.5,0.3,0.7,0.5c0.7,0.7,1.5,1.3,2.3,1.9c0.5,0.4,1,0.7,1.6,0.8
			c0.7,0.1,7.7-3.5,7-0.2c-0.3,1.4-3.5,1.7-4.5,1.7C415.4,306.4,413.6,305.9,412.1,304.9z"/>
		<path class="st0" d="M415.1,307.9c-2.1-0.3-4.3-0.5-6.2,0.4c-0.3,0.1-0.6,0.3-0.9,0.3c-0.3,0.1-0.6,0-0.9-0.2
			c0-0.4,0.5-0.7,0.9-0.8l2.5-0.9c0.7-0.3,1.5-0.5,2.3-0.6c0.7-0.1,1.4,0,2.1,0.4C415,306.6,415.5,307.9,415.1,307.9z"/>
		<path class="st0" d="M418.3,329.2c0,4.7-7.5,8.6-16.7,8.6s-16.7-3.8-16.7-8.6l1-11.6h31L418.3,329.2z"/>
		<ellipse class="st0" cx="401.4" cy="317.6" rx="15.5" ry="8"/>
		<ellipse class="st0" cx="333.9" cy="297.5" rx="10.4" ry="5.8"/>
		<polygon class="st0" points="326,300 328.8,289.5 332,290.8 332,303.6 332.9,291.3 337,289.9 337.9,300.4 337.9,289.5 
			331.5,283.1 326.9,284.4 327.9,289 		"/>
		<g>
			<path class="st0" d="M331.1,290.1l4.1,2.1c0.2,0.1,0.4,0.4,0.3,0.7l-2.7,7.4c-0.1,0.4-0.1,0.8,0.1,1.1l1.3,2.5c0,0,1.2,1,1.5,0.8
				c0.5-0.4-0.7-2.7-0.7-2.7c-0.1-0.2-0.1-0.5,0-0.7l3.5-9c0.1-0.4,0.1-0.8-0.2-1.1l-2.7-3.3l3.5,2.1c0.2,0.1,0.4,0.4,0.4,0.7
				l1.4,7.7c0,0.2,0.1,0.4,0.3,0.5l2.1,2.1c0,0,1.4,0.4,1.5,0c0.3-0.8-2.3-2.3-2.3-2.3v-8.9c0-0.7-0.3-1.3-0.8-1.7l-6.1-4.7
				l-6.4,2.1l0.1,2.2C329.4,288.6,330.1,289.6,331.1,290.1z"/>
			<path class="st0" d="M333.1,271.3c0.5-0.3,1.1-0.4,1.7-0.5c0.6-0.1,1.2,0.2,1.5,0.6c0.5,0.7,0.9,0.9,0.7,1.8
				c-1.2,4,0.1,8.7-1.9,12.4c-0.1,0.3-0.3,0.5-0.6,0.7c-0.3,0.2-0.7,0.2-1,0.2c-1,0-2,0-3,0c-0.3,0-0.6,0-0.8-0.2
				c-0.1-0.2-0.2-0.4-0.3-0.6c-0.2-1.6-0.2-3.1,0-4.7c0-1.3-0.1-2.7-0.3-4c-0.2-1.1-0.6-2-0.1-3
				C329.9,272.3,331.3,272.1,333.1,271.3z"/>
			<path class="st0" d="M334.9,278.9c0.7-0.5,1.7-0.2,2.5-0.6c0.5-0.4,1-0.9,1.3-1.5c0.7-1.1,1.8-1.8,3-2c1.3-0.2,2.5,0.6,2.9,1.8
				c0.1,0.4,0.1,0.9,0,1.3c-0.4,2.1-2,3.7-3.7,5.1c-1.4,1-2.6,2.2-3.7,3.5c-0.8,1.1-1.9,2.4-3.5,1.6c-0.9-0.5-1.4-1.5-1.5-2.5
				c0-1.3,0.2-2.5,0.6-3.7C333.3,280.6,334,279.7,334.9,278.9z"/>
			<path class="st0" d="M341.6,285.7c0.3-0.1,0.6-0.2,0.9-0.5c2.4-2,3.4-5.2,2.5-8.3c-0.2-0.7-0.8-1.5-1.5-1.5
				c-0.5,0.1-0.9,0.3-1.2,0.7l-1.9,1.9c-0.3,0.4-0.7,0.7-1.1,0.9c-0.9,0.5-1.9,0.6-2.8,1c-0.9,0.5-1.5,1.3-1.9,2.2
				c-0.3,0.9-0.6,1.9-0.6,2.9c-0.2,1.7,1.1,3.6,2.8,2.3c0.6-0.4,1-1.1,1.6-1.4C339.5,285.3,340.4,285.9,341.6,285.7z"/>
			<path class="st0" d="M336.4,282.4c0.1-0.8,0.7-1.5,1.5-1.5c0.9,0,1.4,0.9,1.5,1.5c0.1,1-0.6,2-1.5,2.3c-0.5,0.2-1,0.2-1.5,0
				l-8.4,4.6l-2.3,1.5h-1.5v-1.5l2.3-1.5h0.8L336.4,282.4z"/>
			<path class="st0" d="M342.6,279.5c0-0.1-0.2-0.3-0.3-0.3s-0.1,0.2-0.1,0.3c0,0.8,0.1,1.6,0.3,2.4c0,0.1,0.1,0.5,0.3,0.3
				s0.1-1,0.1-1.2C342.8,280.6,342.7,280,342.6,279.5z"/>
			<path class="st0" d="M341.3,275.4c0.2,0.3,0.4,0.6,0.5,1c0.1,0.4,0.1,0.7,0,1.1c-0.2,1.7-0.5,3.4-0.9,5c-0.1,0.3-0.4,0.4-0.7,0.3
				c-0.2-0.1-0.3-0.2-0.3-0.4c-0.1-0.8-0.1-1.5,0-2.3c0-0.8,0.2-1.5,0.4-2.2c0.1-0.2,0.1-0.4,0.1-0.6c-0.1-0.3-0.3-0.5-0.5-0.7
				c-1.1-0.8-5.8-3.7-3.8-5.6C337.3,269.7,340.6,274.4,341.3,275.4z"/>
			<path class="st0" d="M338,273.9c0.3-0.5,0.4-1,0.4-1.6c0-0.2,0-0.3-0.1-0.5c-0.1-0.2-0.2-0.3-0.3-0.4c-0.4-0.5-1-0.8-1.6-1
				c-0.1,0-0.3,0-0.4,0c-0.2,0.1-1.1,0.3-1.1,0.5c0,0.2,0,0.4,0.1,0.6c0.3,1,0.9,2,1.5,2.8c0.4,0.3,1.1,0.2,1.4-0.2
				C337.9,274.1,338,274,338,273.9z"/>
			<path class="st0" d="M329.8,274.3c-0.2-0.2-0.5-0.3-0.8-0.3c-0.1,0-0.3,0.1-0.4,0.2c-0.9,1-1.7,2.2-2.3,3.5c-0.6,0.9-0.9,2-0.9,3
				c0.1,0.8,0.4,1.5,0.8,2.2c0.6,1.2,1.3,2.3,2.1,3.4c0.9,1,2.1,2.8,3.3,2.1c0.5-0.3-0.3-1.1-0.6-1.6c-0.8-1.1-1.5-2.2-2.2-3.4
				c-1-1.8-0.6-3,0.7-4.4C330.8,277.8,331,275.7,329.8,274.3z"/>
			<path class="st0" d="M326.9,278c-0.2-0.3-0.3-0.7-0.2-1.1c0.1-0.2,0.2-0.5,0.3-0.7l0.9-1.5c0.2-0.4,0.5-0.8,0.9-1.1
				c0.4-0.3,0.9-0.4,1.3-0.2c0.5,0.3,0.6,1,0.7,1.6l0.1,1.3c0.1,0.6,0.1,1.2-0.1,1.7c-0.4,0.8-1.1,1.3-1.9,1.5
				C327.9,279.7,327.3,278.7,326.9,278z"/>
			<path class="st0" d="M332,271.1c0,0.3,0,0.5,0.1,0.8c0.1,0.3,0.3,0.6,0.6,0.9c0.1,0.1,0.2,0.2,0.3,0.2c0.3,0.1,0.7,0,0.9-0.3
				c0.3-0.5,0.5-1.1,0.5-1.7v-1.5c0-0.2,0-0.4-0.1-0.6c-0.3-0.5-1.6-1-2-0.5c-0.2,0.3-0.2,0.7-0.2,1L332,271.1z"/>
			<path class="st0" d="M332.6,270.1c0.1,0.6,0.4,1.1,0.8,1.5c0.4,0.4,0.9,0.7,1.5,0.8c1.4,0,2.6-2.2,2.3-3.8
				c-0.1-0.6-0.4-1.1-0.8-1.5c-0.6-0.7-1.4-1.3-2.3-1.5c-0.6,0.1-1.1,0.3-1.5,0.8C331.8,267,332.6,270.1,332.6,270.1"/>
			<path class="st0" d="M332.5,269.8c0.2,0.1,0.4,0.1,0.6,0c0.3-0.3,0-0.9,0.4-1c0.1,0,0.2,0,0.3,0l1,0.1c0.1,0,0.1,0,0.2,0
				c0.1,0,0.1-0.1,0.1-0.2c0.2-0.4,0.7-0.7,1.2-0.6c0.5,0.1,0.8,0.5,0.8,1c0,0.2,0,0.4,0.1,0.5c0.1,0,0.2,0,0.3,0
				c0.3-0.1,0.5-0.4,0.6-0.7c0.1-0.3,0.1-0.7-0.1-0.9c-0.1-0.1-0.2-0.3-0.4-0.4l-1.8-1.4c-0.2-0.2-0.4-0.3-0.6-0.4
				c-0.6-0.3-1.3-0.2-1.9,0.1c-0.6,0.3-1,0.8-1.2,1.5c-0.1,0.3-0.2,0.6-0.2,0.8C331.8,268.8,332,269.4,332.5,269.8z"/>
		</g>
		<path class="st0" d="M370,337.5c2.5-0.5,5.5-0.6,7.3,1.3c1.5,1.5,1.6,3.8,1.7,5.9c0.2,2.3,0.5,4.5,1,6.8c0.1,0.3,0.1,0.7,0,1
			c-0.1,0.2-0.2,0.4-0.4,0.6c-1.8,1.7-4.4,2.1-6.9,2c-2.4,0.1-4.7-0.5-6.8-1.6c-2.1-1.2-3.5-3.3-3.6-5.7c0-0.5,0.1-1.1,0.3-1.6
			c0.3-0.5,0.8-1,1.3-1.4c1.2-1,3.2-2.2,3.8-3.7C368.3,339.4,367.5,337.9,370,337.5z"/>
		<path class="st0" d="M368.9,348.4c-0.5,0.3-1,0.5-1.6,0.6c-0.9,0-1.9-0.2-2.7-0.7c-1.1-0.5-2.2-1.5-2-2.7s1.4-1.8,2.4-2.4
			c1.4-0.8,2.6-1.9,4-2.7c2-1.2,7.2-1.7,7.6,1.8C376.8,344.8,370.8,347.5,368.9,348.4z"/>
		<path id="orangeManHead" class="st0" d="M369.3,328c0,0.2,0,0.3,0.1,0.5c0.1,0.3,0.5,0.4,0.7,0.6c0.5,0.5,0,1.4,0.3,2
			c0.2,0.3,0.4,0.5,0.8,0.6c0.5,0.3,1.2,0.4,1.7,0.2c0.4-0.3-0.3-0.8-0.1-1.2c0.3-0.8,1.4-1.5,1.6-2.3c0.4-1,0.5-2.1,0.3-3.1
			c-0.4-1.3-1.8-2.1-3.2-1.7c0,0,0,0-0.1,0C369.9,324.3,369.3,326.5,369.3,328z"/>
		<path id="orangeManShirt" class="st0" d="M372.4,330.9c0.4-0.3,0.9-0.6,1.4-0.8c0.5-0.2,1.1,0,1.5,0.4c0.3,0.4,0.4,0.8,0.4,1.2
			c0.5,3.2,0.8,6.4,0.9,9.6c0.1,0.4,0,0.9-0.2,1.3c-0.5,0.6-1.2,0.9-1.9,0.9c-1,0.2-2.1,0.2-3.1,0c-1-0.2-2-0.8-2.4-1.8
			c-0.3-0.7-0.4-1.5-0.3-2.2l0.1-5.5c0-0.4,0-0.9-0.1-1.3c-0.2-0.5-0.4-0.9-0.7-1.3l-3.2-4.3c-1.8-2.4-0.8-6-0.8-9.1
			c0-0.6,0.3-1.5,0.9-1.4s0.7,0.7,0.8,1.2l0.9,6.2c0.1,0.7,0.3,1.5,0.5,2.1c0.3,0.5,0.6,1,1,1.5c0.6,0.8,1.1,1.7,1.8,2.4
			C370.6,330.6,371.5,331,372.4,330.9z"/>
		<path id="orangeManArm2" class="st0" d="M374.1,330c-0.1,0.1-0.2,0.3-0.2,0.5c-0.3,1.6,1,3.2,2.5,4c0.8,0.5,1.8,0.9,2.1,1.8
			c-1.4,1.2-2.8,2.4-4.1,3.7c-0.4,0.3-0.8,0.9-0.5,1.3s1.1,0.3,1.6,0l4.7-2.9c0.6-0.3,1.1-0.7,1.5-1.2c0.3-0.3,0.4-0.8,0.3-1.2
			c-0.3-0.7-1.4-1.1-2-1.6c-0.6-0.6-1.2-1.2-1.8-1.9C377.5,331.7,375.2,329,374.1,330z"/>
		<path class="st0" d="M370.7,354c0,4.7-7.5,8.6-16.7,8.6s-16.7-3.8-16.7-8.6l1-11.6h31L370.7,354z"/>
		<ellipse class="st0" cx="353.8" cy="342.4" rx="15.5" ry="8"/>
		<path class="st0" d="M352,343.9l0.5-1.3c0.1-0.1,0.1-0.3,0.1-0.4c-0.1-0.3-0.4-0.3-0.5-0.5c-0.2-0.3-0.4-0.6-0.3-1
			c-0.1-0.9-0.1-1.8,0.1-2.7c0.2-0.9,0.9-1.6,1.9-1.8c0.4-0.1,0.9,0,1.3,0.2c0.5,0.2,1,0.6,1.3,1.1c0.3,0.6,0.4,1.3,0.1,2
			c-0.2,0.7-0.6,1.2-1.1,1.8c0,0.9-0.1,2-0.1,2.9c0,0.1,0,0.2,0,0.2c-0.1,0.1-0.2,0.2-0.3,0.2c-0.9,0.3-1.8,0.3-2.7,0
			C352.1,344.4,352,344.1,352,343.9z"/>
		<path id="blueShirt" class="st0" d="M350.3,342.5c-0.3-0.1-1.7-0.3-1.8-0.7c-0.1-0.3,0-0.6,0.1-0.9c0.7-2,1.8-4.1,1.5-6.1
			c-0.3-0.5-1,0-1.3,0.5l-2,3.5c-0.8,1.4-1.6,3.4-0.4,4.5c0.5,0.4,1.1,0.7,1.7,0.9c1.8,1.1,1.6,3.8,1.6,5.9c0,1.5,0.2,3,0.5,4.5
			c0.1,0.6,0.6,1.1,1.2,1.1c0,0,0,0,0,0c2.1,0.2,4.1,0.2,6.2,0c0.5,0.1,0.9-0.3,0.9-0.7c0-0.1,0-0.3,0-0.4l-0.4-7.5
			c-0.1-0.7,0-1.3,0.2-1.9c0.3-0.5,0.6-0.9,1-1.3c1.6-2.1,0.9-5,0.1-7.5l-1.1-3.5c-0.2-0.5-0.6-1.2-1.1-1c-0.2,2.2,0.6,5.4,0.5,7.6
			c-0.1,1.2-1.2,1.4-1.8,2.5C354.7,344.7,352.3,343.5,350.3,342.5z"/>
		<path class="st0" d="M347.8,358.7c-0.5,0-1,0.1-1.5,0.3l-0.9,10.5c0,0.2,0,0.5,0.1,0.7c0.1,0.1,0.3,0.2,0.5,0.2
			c5.1,0.8,10.2,0.7,15.2-0.3c0.8-0.1,1.5-0.4,2.1-0.8c0.6-0.5,0.9-1.3,0.6-2.1c-0.2-0.4-0.6-0.6-0.9-1c-0.3-0.5-0.4-1.1-0.4-1.6
			l-0.3-4.9c0-0.3-0.1-0.7-0.2-1c-0.3-0.5-0.9-0.6-1.5-0.8c-1.1-0.4-1.9-1.4-2.1-2.6c0-0.4-0.1-0.9-0.3-1.3
			c-0.2-0.3-0.5-0.5-0.8-0.6c-1.7-0.8-4.7-1.3-6.4-0.1C349.6,354.8,348.4,356.7,347.8,358.7z"/>
		<polygon class="st0" points="322.8,340.9 382.3,306.4 382.3,303.6 322.7,337.9 		"/>
		<polygon class="st0" points="322.8,334.8 378.4,303.3 378.4,300.4 322.8,331.9 		"/>
		<polygon class="st0" points="382.3,304.7 390.3,308.4 390.3,302.5 375.6,299.9 		"/>
		<polygon class="st0" points="194.3,311.4 245.2,282.5 257.3,289.4 257.3,346.4 		"/>
		<ellipse class="st0" cx="216" cy="315.8" rx="8.8" ry="4.4"/>
		<ellipse class="st0" cx="241.1" cy="317" rx="9.2" ry="4.4"/>
		<path class="st0" d="M216,287.8l0.2-0.4h1.9c0.1,0.7,0,1.5,0,2.3H216L216,287.8z"/>
		<path class="st0" d="M215,284.7l1.1,2.7l-0.2,0.3l-0.9,0.5c-2.5-4.3-1.3-6.3,3.6-6.1C217.3,282.2,213.8,282.6,215,284.7z"/>
		<path class="st0" d="M244.3,291.4l0.8-1.6l1.8,0.5c0.8-1.1,1.8-7,3.4-5.9c0.1,1.4-0.8,2.5-1.1,3.8
			C248.2,291.7,247.9,292.2,244.3,291.4z"/>
		<path class="st0" d="M218.7,282.1c1.9,1.6,1.8,4.2-0.2,5.9c0-0.6-0.1-1.2-0.1-1.9c-0.7-0.6-1.4-1.2-2-1.9
			c-0.3-0.2-0.7-0.2-0.9,0.1c-0.1,0.1-0.1,0.1-0.1,0.2l-0.3,0.8C213.8,282.7,217.3,282.3,218.7,282.1z"/>
		<path class="st0" d="M239,282.3c2.6,0.2,3.3,0.8,2.8,3.4c-2.4-0.2-2.6-2.9-4.6-1.2c-0.2-0.1-0.3-0.2-0.4-0.4
			C236.6,282.3,238.1,282.8,239,282.3L239,282.3z"/>
		<path id="dancerArm" class="st0" d="M234.4,295.5c-2.2,1.8-4.9,3.8-7.8,3.7v-0.8c2.6-1.3,5.6-2,7.5-4.3
			C234.2,294.5,234.3,295,234.4,295.5z"/>
		<g id="dancerArmLeft">
			<path class="st0" d="M215,284.8c0-0.5,0.2-1.2,0.7-1.4c1.1-0.4,2,1,2.7,2.1c0.3,0.5,0.3,1.1,0.1,1.6c-0.1,0.3-0.3,0.5-0.5,0.6
				c-0.6,0.3-1.3,0.3-1.9,0C215.3,287,214.9,285.9,215,284.8z"/>
			<path class="st0" d="M218.8,292.2c0.2-0.6,0.4-0.9,0.5-1.6l-1.4-1.2c0-0.5,0.9,0.3,0.9-0.1c1.4,0.8,2.7,1.7,4,2.6
				c-0.8,1.2-1.3,0.5-2.3,0.1C220,292.2,219.4,292.3,218.8,292.2z"/>
			<path class="st0" d="M219.4,291.8c1.3-0.9,2.2,1.8,3.4,0.1c2.2,0.7,2,3.3,2.7,5.1H225c0-0.1,0-0.2,0-0.2
				C223.5,293.9,222.2,293.2,219.4,291.8z"/>
			<path class="st0" d="M214.1,290.4c0,0.8,0.1,1.6,0.1,2.4l-0.5,0.3c-1.9-0.3-3.3,5-4.1-1.3h1l0.2,1.3c0.9-1,1.9-1.9,3-2.6
				C214,290.3,214.1,290.4,214.1,290.4z M208,287.9c0.1,1.4,1.1,2.5,1.7,3.8h1C210.4,290.2,209.9,287.7,208,287.9z"/>
			<path class="st0" d="M225,297h0.6l1,1.3v0.8C225.6,298.8,225,298,225,297z"/>
		</g>
		<path class="st0" d="M221.5,314.4c-0.1-0.6-0.1-1.2-0.1-1.9c0.8,0.2,2.3,2.5,2.1,3.2C222.6,316.5,222,315,221.5,314.4z"/>
		<path class="st0" d="M237.3,284.5c2-1.6,2.2,1,4.6,1.2c-0.3,0.5-0.5,1.1-0.8,1.7c-0.5,0.4-1.1,0.6-1.8,0.6l0.2-0.4l-2.2-2.2
			L237.3,284.5z M240.1,289.2c-0.5-0.4-1.2-0.5-1.4-1.2c-0.1,0.9,0.1,1.7,0.5,2.5l1.6-0.3c0.1-0.8,0.2-1.8,0.2-2.7l-0.8,0.5
			L240.1,289.2z M239.3,288.1l0.2-0.4l-2.2-2.2c-0.1,1,0.4,2,1.3,2.5c0.2,0.7,0.8,0.9,1.4,1.2l0.2-1.3L239.3,288.1z"/>
		<path class="st0" d="M209.3,310c0.2,0.5,0.4,1,0.6,1.4C209.7,310.9,209.5,310.4,209.3,310z"/>
		<path class="st0" d="M219.3,300.3l-0.4-0.8l0.6-0.2C219.3,299.5,219.3,299.9,219.3,300.3z"/>
		<path class="st0" d="M224.4,296l0.5,0.8L224.4,296z"/>
		<path class="st0" d="M214.1,296.7l-0.2,0.6L214.1,296.7z"/>
		<path class="st0" d="M209.1,309.4l0.3,0.6L209.1,309.4z"/>
		<path class="st0" d="M239,282.3c0,0,0-0.1,0-0.1V282.3z"/>
		<path class="st0" d="M236.8,284.1l0.2,0.3L236.8,284.1z"/>
		<path class="st0" d="M219.1,297.1L219.1,297.1"/>
		<path class="st0" d="M208.9,309.1l0.2,0.4L208.9,309.1z"/>
		<path class="st0" d="M213.8,317.4c-0.7,1.4-2.3,2-3.8,1.6C211.4,318.1,212.2,317.1,213.8,317.4z"/>
		<path class="st0" d="M215.3,295.7l2.4,1.4C216.7,297.3,215.6,296.7,215.3,295.7z"/>
		<path class="st0" d="M217.4,306.5c-1.1,4.7,1.2,5,4.3,6.4c0.2,0.1,0.3,0.4,0.2,0.6c-0.1,0.2-0.3,0.3-0.5,0.3
			c-1.7-0.3-3.4-0.8-5.1-1.4c-0.9,0-1.7-0.8-1.7-1.8c0-0.1,0-0.3,0.1-0.4c0.3-3.2,0.9-6.4,1.5-9.6l0,0c-1.7,1.4-2.8,3.4-4.4,4.8
			c-2.4,2.4,2.7,8.9,1.7,12.3h-1.1l-1.2-3.3l0,0c-0.5-1-0.9-2.1-1.4-3c-0.1-0.5-0.3-1-0.6-1.5l0,0l-0.3-0.6l0,0
			c-3.4-3.8,4-8.5,5-12.8l0,0l1.2-1l0,0c0.3,1,1.4,1.6,2.4,1.4l0,0l1.6,2.2l-0.6,0.2L217.4,306.5z M219.3,300.3l-0.4-0.8
			c-0.5,2.4-0.9,4.7-1.4,7C218.7,304.7,218.6,302.3,219.3,300.3z M219.4,299.3l-0.2-2.1l0,0l-0.2-0.2h-1.2L219.4,299.3z
			 M214.1,296.8l1.2-1l-1-0.8C214.3,295.5,214.2,296.1,214.1,296.8L214.1,296.8z"/>
		<path class="st0" d="M213.9,290.3l0.3-0.3c0,0.1-0.1,0.2-0.1,0.3C214.1,290.4,214,290.3,213.9,290.3z"/>
		<path class="st0" d="M216.3,297c-1-0.3-1.8-1.1-2.2-2.1c-0.1-0.5-0.1-1-0.1-1.5l0.1-3.2c0-0.3,0-0.2,0.2-0.4
			c0.3-0.4,0.7-0.7,1.1-0.9c0.2-0.1,0.3-0.1,0.5-0.1c0.1,0,0.2,0.5,0.3,0.5c0.3,0.2,0.7,0.3,1.1,0.1c0.3-0.2,0.6-0.3,1-0.4
			c0.5-0.1,0.9,0.3,1,0.8c0,0.1,0,0.1,0,0.2c-0.1,0.6-0.1,1.3,0,1.9c0.1,0.2,0.2,0.5,0.3,0.7c0,0.3,0,0.6-0.2,0.9
			c-0.2,0.7-0.4,1.4-0.4,2.1c0,0.6,0.4,1.3-0.3,1.5C218,297.4,217.1,297.3,216.3,297z"/>
		<path class="st0" d="M235.7,317.1c0.1-0.3,0.2-0.6,0.3-0.9c1.1-0.8,2.1-1.7,2.9-2.6c0.3-0.3,0.6-0.7,0.7-1.1
			c0.1-0.3,0.1-0.7,0.1-1v-4.7c-0.1-0.9,0.1-1.7,0.7-2.4c0.6-0.3,1.3-0.3,1.9,0.1c0.7,0.4,1.4,0.8,2,1.4c0.2,0.2,0.4,0.4,0.5,0.7
			c0.1,0.3,0.1,0.7,0,1c-0.3,2.4-0.7,4.7-1.1,7l3.5,0.8c0.1,0.1,0.2,0,0.3,0c0.1-0.1,0.1-0.2,0.1-0.3l0.1-1.3
			c-0.5-0.8-1.9-0.5-2-1.4c0-0.2,0-0.5,0.1-0.7c0.6-1.6,1-3.2,1.3-4.8c0.1-0.6,0.2-1.2,0.1-1.8c-0.2-0.8-0.6-1.6-1.2-2.3
			c-1-1.2-2.1-2.4-3.3-3.4c-0.1-0.1-0.2-0.2-0.4-0.2c-0.4,0-0.6,0.3-0.8,0.7c-1,1.6-2.7,2.7-4.6,2.9c-0.7,0-1.6,0.2-1.6,1
			c0,0.2,0.1,0.4,0.2,0.6c0.7,1.8,1.2,3.7,1.5,5.6c0.1,0.5,0.1,0.9,0,1.4c-0.1,0.5-0.3,0.9-0.6,1.3c-0.6,1.1-1.4,2.1-2.4,2.9
			c-0.3,0.1-0.5,0.4-0.6,0.6c-0.1,0.2-0.1,0.4,0,0.7c0.1,0.6,0.4,2.8,1.1,2.9S235.5,317.7,235.7,317.1z"/>
		<path class="st0" d="M235.7,303.7v-0.8c1.2-0.4,0.4-2.1,0-2.9c-0.1-1.7,1.4-3.8-0.3-4.9c0.1-1-0.3-1.5-1.3-1.5
			c1-2,2.6-3.6,4.5-4.6l0.3,0.7c0.2,0.4,0.6,0.7,1.1,0.6l0.2,0c0.4-0.1,0.6-0.4,0.7-0.7l0.2-1.8c1.4,0.6,3.5,0.4,4,2.1l-0.7,1.6
			c-2.2,1.1-2.2,6.5-0.8,8.3c-1.4-0.6-1.5,1.3-1.9,2.2C239.9,303.1,237.8,303.8,235.7,303.7z M235.4,295.1c0.1-1-0.3-1.5-1.3-1.5
			c0,0.6,0.1,1.3,0.3,1.9L235.4,295.1z M235.7,302.9c1.2-0.4,0.4-2.1,0-2.9C235.7,301,235.7,302,235.7,302.9z"/>
		<path class="st0" d="M172.4,325.8c-2.5-0.5-5.5-0.6-7.3,1.3c-1.4,1.5-1.6,3.8-1.7,5.9c-0.2,2.3-0.5,4.5-1,6.8
			c-0.1,0.3-0.1,0.7,0,1c0.1,0.2,0.3,0.4,0.4,0.6c1.8,1.7,4.4,2.1,6.9,2c2.4,0.1,4.7-0.5,6.8-1.6c2.1-1.2,3.5-3.3,3.6-5.7
			c0-0.5-0.1-1.1-0.3-1.6c-0.3-0.5-0.8-1-1.3-1.4c-1.2-1-3.2-2.2-3.8-3.7C174,327.6,174.9,326.2,172.4,325.8z"/>
		<path class="st0" d="M173.4,336.7c0.5,0.3,1,0.5,1.6,0.5c0.9,0,1.9-0.2,2.7-0.7c1.1-0.6,2.2-1.5,2-2.7s-1.4-1.8-2.4-2.4
			c-1.4-0.8-2.6-1.9-4-2.7c-2-1.2-7.2-1.7-7.6,1.8C165.6,333.1,171.5,335.8,173.4,336.7z"/>
		<g id="redShirt">
			<path class="st0" d="M168.4,317.3c0,0-2-4.3,1.9-5.6v-1.3c0,0-4,1-4,3S168.4,317.3,168.4,317.3z"/>
			<path class="st0" d="M173.1,316.3c0,0.2,0,0.3-0.1,0.5c-0.1,0.3-0.5,0.4-0.7,0.6c-0.5,0.5,0,1.4-0.3,2c-0.2,0.3-0.4,0.5-0.8,0.6
				c-0.5,0.3-1.2,0.4-1.7,0.2c-0.4-0.3,0.3-0.8,0.1-1.2c-0.3-0.8-1.4-1.5-1.6-2.3c-0.4-1-0.5-2.1-0.3-3.1c0.4-1.3,1.8-2.1,3.2-1.7
				c0,0,0,0,0.1,0C172.4,312.6,173,314.8,173.1,316.3z"/>
			<path class="st0" d="M170,319.2c-0.4-0.3-0.9-0.6-1.4-0.8c-0.5-0.2-1.1,0-1.5,0.4c-0.3,0.4-0.4,0.8-0.4,1.2
				c-0.5,3.2-0.8,6.4-0.9,9.6c-0.1,0.4,0,0.9,0.2,1.3c0.5,0.6,1.2,0.9,1.9,0.9c1,0.2,2.1,0.2,3.1,0c1-0.2,1.9-0.8,2.4-1.8
				c0.3-0.7,0.4-1.5,0.3-2.2l-0.1-5.5c0-0.4,0-0.9,0.1-1.3c0.2-0.5,0.4-0.9,0.7-1.3l3.2-4.3c1.8-2.4,0.8-6,0.7-9.1
				c0-0.6-0.3-1.5-0.9-1.4s-0.7,0.7-0.8,1.2l-0.9,6.2c-0.1,0.7-0.3,1.5-0.6,2.1c-0.3,0.5-0.6,1-1,1.5c-0.6,0.8-1.1,1.7-1.8,2.4
				C171.8,318.9,170.9,319.3,170,319.2z"/>
			<path class="st0" d="M168.3,318.3c0.1,0.1,0.2,0.3,0.2,0.5c0.3,1.6-1,3.1-2.5,4c-0.8,0.5-1.8,0.9-2.1,1.8
				c1.4,1.2,2.8,2.4,4.1,3.7c0.4,0.3,0.8,0.9,0.5,1.3s-1.1,0.2-1.6-0.1l-4.7-2.9c-0.6-0.3-1.1-0.7-1.5-1.2c-0.3-0.3-0.4-0.8-0.3-1.2
				c0.3-0.7,1.4-1.1,2-1.6c0.6-0.6,1.2-1.2,1.7-1.9C164.9,320,167.2,317.4,168.3,318.3z"/>
		</g>
		<path class="st0" d="M171.7,342.3c0,4.7,7.5,8.6,16.7,8.6s16.7-3.8,16.7-8.6l-1-11.6h-31L171.7,342.3z"/>
		<ellipse class="st0" cx="188.6" cy="330.7" rx="15.5" ry="8"/>
		<path class="st0" d="M190.4,332.1l-0.5-1.2c-0.1-0.1-0.1-0.3-0.1-0.4c0.1-0.3,0.4-0.3,0.6-0.5c0.2-0.3,0.4-0.6,0.3-1
			c0.1-0.9,0.1-1.8-0.1-2.7c-0.2-1.2-1.3-2-2.6-1.8c-0.2,0-0.4,0.1-0.6,0.2c-0.5,0.2-1,0.6-1.3,1.1c-0.3,0.6-0.4,1.3-0.1,2
			c0.2,0.6,0.6,1.2,1.1,1.8c0,0.9,0.1,2,0.1,2.9c0,0.1,0,0.2,0,0.2c0.1,0.1,0.2,0.2,0.3,0.2c0.9,0.3,1.8,0.3,2.7,0
			C190.3,332.7,190.4,332.4,190.4,332.1z"/>
		<path id="pinkShirt" class="st0" d="M192.1,330.8c0.3-0.1,1.7-0.3,1.8-0.7c0.1-0.3,0-0.6-0.1-0.9c-0.7-2-1.9-4.1-1.5-6.1
			c0.3-0.5,1,0,1.3,0.5l2,3.5c0.8,1.4,1.6,3.4,0.4,4.5c-0.5,0.4-1.1,0.7-1.7,0.9c-1.8,1.1-1.6,3.8-1.6,5.9c0,1.5-0.2,3-0.5,4.5
			c-0.1,0.6-0.6,1.1-1.2,1.1c0,0,0,0,0,0c-2.1,0.2-4.1,0.2-6.2,0c-0.3,0-0.5-0.1-0.7-0.2c-0.2-0.2-0.2-0.5-0.2-0.8l0.4-7.5
			c0.1-0.7,0-1.3-0.2-1.9c-0.3-0.5-0.6-0.9-1-1.3c-1.6-2.1-0.9-5-0.1-7.5l1.1-3.5c0.2-0.5,0.6-1.2,1.1-1c0.2,2.2-0.6,5.4-0.5,7.6
			c0.1,1.2,1.2,1.4,1.8,2.5C187.7,333,190,331.8,192.1,330.8z"/>
		<path class="st0" d="M194.6,347c0.5,0,1,0.1,1.5,0.3l0.9,10.5c0.1,0.2,0,0.5-0.1,0.7c-0.1,0.1-0.3,0.2-0.5,0.2
			c-5.1,0.8-10.2,0.7-15.2-0.3c-0.8-0.1-1.5-0.4-2.1-0.8c-0.6-0.5-0.9-1.3-0.6-2.1c0.2-0.4,0.6-0.6,0.8-1c0.3-0.5,0.4-1.1,0.4-1.6
			l0.3-4.9c0-0.3,0.1-0.7,0.2-1c0.3-0.5,0.9-0.6,1.5-0.8c1.1-0.5,1.9-1.4,2.1-2.6c0-0.4,0.1-0.9,0.3-1.3c0.2-0.3,0.5-0.5,0.8-0.6
			c1.7-0.8,4.7-1.3,6.4-0.1S194,345.3,194.6,347z"/>
		<path class="st0" d="M188.1,328.3l0.8,4.8c0.1,0.4,0.1,0.8-0.2,1c-0.2,0.1-0.4,0.1-0.6,0.1c-1,0-1.9-0.1-2.9-0.2
			c-0.3,0-0.6-0.1-0.8-0.3c-0.2-0.2-0.2-0.5-0.2-0.8c-0.1-1.6,0.1-3.1,0.4-4.7c0.4-1.4,2.6-5,4.5-3.4
			C188.3,326.1,187.8,326.6,188.1,328.3z"/>
		<polygon class="st0" points="107.4,543.8 159.9,513.8 159.9,365.8 99.4,331.8 99.4,539.8 106.8,544 		"/>
		<polyline class="st0" points="157.4,424.8 217.4,389.8 217.4,355.2 157.4,389.4 157.4,424.8 157.4,390.8 		"/>
		<polygon class="st0" points="33.5,318.7 33.5,353.7 157.4,424.8 157.4,389.2 		"/>
		<polygon class="st0" points="33.4,318.8 93.3,284.1 217.3,355.2 157.4,389.8 		"/>
		<polygon class="st0" points="106.9,544 106.9,395.2 73.1,375.7 73.1,524.6 		"/>
		<polygon class="st0" points="23.5,233.9 54.6,216.4 54.6,222.5 23.5,240.7 		"/>
		<polygon class="st0" points="29.6,243.7 23.5,240.7 54.6,222.5 60.7,225.5 		"/>
		<polygon class="st0" points="29.6,243.6 29.6,248.9 60.7,231.4 60.7,225.4 		"/>
		<polygon class="st0" points="29.6,248.9 60.7,231.4 66,234.5 35.6,251.9 		"/>
		<polygon class="st0" points="35.6,251.9 35.6,257.2 66,239.8 66,234.5 		"/>
		<polygon class="st0" points="35.6,257.2 40.9,259.5 71.3,242 66,239.8 		"/>
		<polygon class="st0" points="40.9,259.5 40.9,265.5 71.3,247.4 71.2,242.1 		"/>
		<polygon class="st0" points="0,219.9 23.5,233.6 23.5,240.4 29.6,243.4 29.6,248.8 35.6,251.8 35.6,256.3 40.9,259.4 40.9,265.4 
			0,241.2 0,224.5 		"/>
		<polygon class="st0" points="54.6,216.9 34.2,204.4 0,219.9 23.5,233.9 		"/>
		<path class="st1" d="M89.3,115.4l11-3c0,0-1,10-6,13C89.3,128.4,89.3,115.4,89.3,115.4z"/>
		<path class="st1" d="M96.3,121.4l9,4c0,0-1,11-8,11S96.3,121.4,96.3,121.4z"/>
		<path class="st1" d="M91.8,118.9c0.8-0.1,1.5-0.5,2-1"/>
		<path class="st1" d="M95.8,117.9c0.5,0.6,1.4,0.6,2,0c0,0,0,0,0,0"/>
		<path class="st1" d="M92.8,120.9c0,0,2,3,4,0"/>
		<path class="st1" d="M96.8,126.9c0,0,2-1,2,0"/>
		<path class="st1" d="M100.8,127.9c0,0,2,0,2,1"/>
		<path class="st1" d="M96.8,130.9c0,0,3-1,3,2"/>
		<path id="musicNote" class="st2" d="M173.8,89.9l14-14v20c0,0-4-1-4,3s3,5,5,0s1-26,1-26l-18,17l1,15c0,0-5,4-1,6s4-2,4-7
			L173.8,89.9z"/>
		<polygon class="st0" points="80.8,220.5 87.2,225.1 118,206.9 111.7,202.4 		"/>
		<polygon class="st0" points="87.2,225.1 87.2,246.9 80.8,242.3 80.8,220.5 		"/>
		<polygon class="st0" points="87.2,246.9 118,227.8 118,206.9 87.2,225.1 		"/>
		<polygon class="st0" points="87,235 93.3,239.5 124.4,221.4 117.8,216.8 		"/>
		<polygon class="st0" points="93.5,239.5 93.5,251.3 87.2,246.8 87.2,235 		"/>
		<polygon class="st0" points="93.5,251.4 124.4,231.7 124.4,221.4 93.5,239.6 		"/>
		<polygon class="st0" points="90.4,233 96.7,237.3 121.2,222.8 114.8,218.6 		"/>
		<polygon class="st0" points="92.2,233 94.9,235.3 95.8,234.7 93.2,232.4 		"/>
		<polygon class="st0" points="94.1,232 96.8,234.3 97.7,233.7 95.1,231.3 		"/>
		<polygon class="st0" points="95.8,230.8 98.5,233.1 99.4,232.5 96.8,230.1 		"/>
		<polygon class="st0" points="98.6,229 101.4,231.3 102.2,230.7 99.7,228.4 		"/>
		<polygon class="st0" points="100.4,227.8 103.1,230.1 104,229.6 101.4,227.2 		"/>
		<polygon class="st0" points="103.7,225.8 106.4,228.1 107.3,227.5 104.7,225.2 		"/>
		<polygon class="st0" points="105.6,224.8 108.3,227.1 109.2,226.5 106.6,224.1 		"/>
		<polygon class="st0" points="107.3,223.6 110,225.9 110.9,225.3 108.3,222.9 		"/>
		<polygon class="st0" points="110.1,221.8 112.9,224.1 113.7,223.5 111.2,221.2 		"/>
		<polygon class="st0" points="111.9,220.6 114.6,222.9 115.4,222.4 112.9,220 		"/>
		<polygon class="st0" points="92.3,232.1 95.1,234.3 95.9,233.8 93.4,231.5 		"/>
		<polygon class="st0" points="94.2,231.1 96.9,233.4 97.7,232.8 95.2,230.6 		"/>
		<polygon class="st0" points="95.9,230 98.6,232.2 99.4,231.7 96.9,229.4 		"/>
		<polygon class="st0" points="98.7,228.4 101.4,230.6 102.3,230 99.7,227.8 		"/>
		<polygon class="st0" points="100.4,227.2 103.1,229.4 103.9,228.9 101.4,226.6 		"/>
		<polygon class="st0" points="103.7,225.3 106.4,227.5 107.2,227 104.7,224.7 		"/>
		<polygon class="st0" points="105.5,224.4 108.2,226.6 109.1,226 106.5,223.8 		"/>
		<polygon class="st0" points="107.2,223.3 109.9,225.4 110.8,224.9 108.2,222.6 		"/>
		<polygon class="st0" points="110,221.6 112.7,223.8 113.6,223.2 111,221 		"/>
		<polygon class="st0" points="111.7,220.4 114.4,222.6 115.3,222.1 112.7,219.9 		"/>
		<polygon class="st0" points="114.3,217.8 89.7,232.3 89.7,233.4 114.3,218.9 		"/>
		<polygon class="st0" points="154.5,510.7 149.5,507.8 149.5,467.1 154.5,464.2 		"/>
		<polygon class="st0" points="114.5,487.3 149.5,467.2 149.5,513.3 114.5,533.5 		"/>
		<polygon class="st0" points="114.5,533.9 154.5,510.9 149.5,507.8 114.5,527.3 		"/>
		<polygon class="st0" points="114.5,494.7 149.5,474.6 149.5,472.2 114.5,492.3 		"/>
		<polygon class="st0" points="131.5,477.5 131.5,517.9 132,517.6 132,477.2 		"/>
		<text transform="matrix(1.3594 -0.7197 -2.998651e-02 0.9996 119.5198 502.9802)" class="st0 st3 st4">D</text>
		<text transform="matrix(1.3594 -0.7197 -2.998651e-02 0.9996 119.2525 511.8902)" class="st0 st3 st4">C</text>
		<text transform="matrix(1.3594 -0.7197 -2.998651e-02 0.9996 118.9856 520.7896)" class="st0 st3 st4">T</text>
		<path id="waiver" class="st0" d="M111.8,152.5c-0.9-0.5-1.9-0.6-2.9-0.3v17.4l0.3-2.2c1.3-2.3,3-7.5,4.2-9.8
			c1.9-0.6,3.8,0.4,5.7-0.3c0.6-0.1,1.1-0.4,1.6-0.8c1-1,1-1.7,1.1-3.9c0.1-2.2,0-4.3-0.1-6.5c0-1-0.2-1.9-0.7-2.7
			c-0.8,1-0.9,2.5-0.9,3.8l-0.1,5.4c0,0.5-0.1,0.9-0.3,1.3c-0.3,0.3-0.8,0.4-1.3,0.3l-2-0.3c-1-0.1-2.2-0.6-3.2-0.7L111.8,152.5z"/>
		<path class="st0" d="M110.3,152.3c0.8-1.4-0.5-2.8,0-4s1-2.9,2.1-3.1c0.7-0.1,2.2,0.1,2.7,0.8c0.3,0.8,0.6,1.6,0.7,2.4
			c0.2,2.2-1.3,4.8-2.7,4.8C112.1,153.2,110.8,154.4,110.3,152.3l-1.2-0.1"/>
		<path class="st0" d="M112.2,146.4c-0.3-0.1-0.7,0-0.9,0.3c-0.1,0.1-0.1,0.3-0.2,0.4c-0.2,0.6-0.5,1.8-1,2.1c0-0.7,0.1-1.4,0.4-2
			c0.3-0.5,0-1,0.3-1.4c0.1-0.2,0.2-0.3,0.4-0.5c0.3-0.2,0.6-0.4,1-0.4c0.6-0.1,1.2-0.1,1.8,0c0.3,0.1,0.5,0.3,0.7,0.5
			c0.4,0.4,2.1,2.5,0.9,2.5c-0.4,0-1-0.6-1.4-0.8C113.6,146.7,112.9,146.5,112.2,146.4z"/>
		<g>
			<path class="st0" d="M32.1,228.3c0.9,1,1.4,2.3,1.6,3.6c0.5,2.6,0.6,5.3,0.4,8c0,1-0.2,2-0.5,3c-0.4,1-1.3,1.6-2.4,1.7
				c-1.3,0-2.3-1.3-2.9-2.5c-1.4-2.7-2.8-7-2.6-10.1S29.2,225.1,32.1,228.3z"/>
			<path class="st0" d="M40,241.3c0.3,0.1,0.6,0.2,0.8,0.5c0.2,0.3,0.2,0.6,0.2,0.9c0.1,3.4-0.1,6.8-0.5,10.2c1-0.2,1.8,0.2,3.1,0.1
				c0.8-0.1,0.3,1.7-0.9,1.9c-0.7,0.2-1.5,0.3-2.3,0.3c-0.6,0.1-1.1-0.1-1.5-0.6c-0.1-0.2-0.2-0.4-0.2-0.7l-1.3-8.7
				c-1.3,0.4-3.1-0.6-3.9,0.5c-0.2,0.4-0.3,0.8-0.3,1.2c-0.3,5.6-0.9,11.2-1.8,16.8c1.3,0.2,2.5,0.7,3.6,1.5c-1.5,1-3.5,0.5-4.5-1
				c-0.1-0.1-0.1-0.2-0.2-0.4c-0.2-0.6-0.3-1.2-0.4-1.8l-2-19.1c-0.1-0.3,0-0.6,0.1-0.9c0.2-0.3,0.5-0.5,0.8-0.6
				C32.5,239.8,36.5,240.3,40,241.3z"/>
		</g>
		<path class="st0" d="M28.9,231.9c0.2-0.9,0-1.9-0.4-2.7c-0.5-0.8-1.7-1.1-2.3-0.4c-0.3,0.4-0.4,0.8-0.4,1.3l-0.5,7.1
			c-0.1,0.2-0.1,0.4,0,0.6c0.1,0.2,0.3,0.4,0.5,0.6c2.4,2,4.4,4.3,6,7c0.2,0.3,0.4,0.6,0.7,0.6c0.4,0,0.7-0.2,0.8-0.6
			c0-0.3,0-0.7-0.1-1c-0.8-2.4-2-4.6-3.5-6.5C28.3,236,28.8,234.1,28.9,231.9z"/>
		<path class="st0" d="M27.4,224.2c-0.4-0.8-0.6-1.7-0.4-2.6c0.4-1.1,1.6-1.8,2.8-1.6c1.1,0.3,2.1,1,2.7,2.1
			c0.4,0.7,0.7,1.5,0.8,2.3c0.1,0.3,0,0.7-0.1,1c-0.5,0.7-1.7,0.4-2.2,1.1c-0.2,0.4-0.2,0.8-0.1,1.3c0,0.4,0,1-0.4,1.1
			c-0.2,0-0.3,0-0.5,0c-1.2,0-1.7,0.2-1.8-1.1C28.1,226.5,27.9,225.3,27.4,224.2z"/>
		<path class="st0" d="M29.2,219.5c-1,0-1.9,0.5-2.3,1.3c-0.2,0.5-0.3,1.1-0.2,1.7c0.1,0.3,0.1,0.6,0,0.9c-0.1,0.1-0.1,0.2-0.2,0.3
			l-1.6,1.8c-0.1,0.1-0.2,0.3-0.3,0.4c0,0.2,0.2,0.4,0.4,0.4c1.2,0.3,2.5-2.3,3.4-3c1-1,2.5-1.6,3.3-2.7
			C31,219.9,30.1,219.5,29.2,219.5z"/>
		<path class="st0" d="M251.8,300.9c1.3,3.4,4.1,6.3,4.4,9.9c0.2,2.6-1.1,5.1-2,7.6c-1.9,5.3-2.3,10.9-2.5,16.4c-0.2,2,0,4.1,0.6,6
			c0.7,1.9,4.7,5.7,4.7,5.7s0.6-11.1,0.6-15.7c0.1-11.5,0.2-41.5,0.2-41.5c-1.5-0.8-3-1.5-4.5-2.1
			C250.4,289,250.8,298.3,251.8,300.9z"/>
		<path class="st0" d="M200.7,261.9c-1,3.4-5.1,10.3-5.3,13.9c-0.1,2.6,0.8,5.1,1.5,7.6c1.4,5.3,1.7,10.9,1.9,16.4c0.2,2,0,4-0.4,6
			c-0.6,1.9-4.5,5.7-4.5,5.7s0.6-11.1,0.5-15.7c0-11.5-0.1-41.5-0.1-41.5l3.4,1.9C197.7,256.1,201.5,259.4,200.7,261.9z"/>
		<path class="st0" d="M177.7,549.4c-0.9-0.2-1.8,0.3-2,1.2c0,0.1,0,0.1,0,0.2c0.9,0.3,1.8,0.5,2.7,0.6c0.5,0.1,1,0,1.3-0.3
			c0.4-0.4,0.6-0.9,0.6-1.5l1.3-14.1c0.9,4,1.6,8.1,2,12.3c0.1,0.4,0,0.8-0.1,1.2c-0.3,0.4-0.8,0.5-1.2,0.8s-0.8,0.8-0.5,1.2
			l3.2,0.1c0.4,0.1,0.8-0.1,0.9-0.5c0-0.1,0-0.3,0-0.4c0.2-6.5,0.2-13.1-0.1-19.6c0-0.9-0.2-1.7-0.6-2.5c-0.8-1.1-2.3-1.3-3.7-1.4
			c-5.4-0.4-4,4.6-3.9,8.5C177.6,536.6,177.1,549.3,177.7,549.4z"/>
		<path class="st0" d="M182.4,509.7c-0.2-0.5-0.6-0.9-1-1.2c-0.4-0.3-0.9-0.6-1.4-0.7c-0.5-0.1-1.1-0.1-1.5,0.3
			c-0.4,0.4-0.7,1-0.8,1.6c-0.2,1.1-0.3,2.2-0.3,3.3c0,0.7,0.5,0.8,0.8,1.3s-0.2,1.2,0,1.7c0.3,1,1.4,0.9,2,0.4
			C181.6,515.3,183,511.4,182.4,509.7z"/>
		<path class="st0" d="M183,514.4c1.6-2.7,3.5-5.8,3.8-9c0-1.6,0.2-3.1,0.7-4.6c0.3-0.6,0-1.3,0.7-1.1s0.9,1,0.9,1.7
			c0.1,2.8-0.3,5.6-1.1,8.3c-0.4,1.3-0.9,2.6-1.3,4c-1.4,5.6,0.6,11.7-1.6,17.1c-0.2,0.5-0.5,1-0.9,1.4c-0.8,0.5-1.7,0.8-2.6,0.7
			c-1.2,0.2-2.3-0.1-3.4-0.7c-0.6-0.5-1-1.1-1.3-1.8c-0.7-1.5-0.2-3.1-0.3-4.7c0-1.3-0.1-2.5-0.2-3.8c-0.5-1-2.7,1.4-3.9,1.2
			c-2.9-0.6-5.2-2.9-5.7-5.9c-0.1-0.6,0.1-1.4,0.6-1.5s0.9,0.3,1.1,0.7c1.7,2.2,5.1,4.7,6.8,1.1c0.3-1,1.1-1.8,2-2.2
			C179.6,515.5,181.2,514.7,183,514.4z"/>
		<path class="st0" d="M180.1,507.3c-0.6-0.1-1.2,0-1.6,0.4c-0.4,0.4-0.4,1.1,0,1.5c0.2,0.1,0.5,0.3,0.7,0.4
			c0.3,0.2,0.5,0.5,0.5,0.8c0,0.1,0,0.2,0,0.3c-0.1,0-0.1,0.1-0.2,0.1c-0.2,0.1-0.2,0.4-0.1,0.6c0,0.1,0.1,0.1,0.2,0.2
			c0.2,0,0.4,0,0.6,0s0.2,0.5,0.1,0.7c-0.2,0.2-0.3,0.4-0.4,0.7c0,0.3,0.1,0.5,0.3,0.7c0.2,0.1,0.5,0.2,0.7,0.3
			c0.4,0.1,0.8,0.1,1.2,0c0.2-0.1,0.3-0.2,0.4-0.4c0.7-0.7,1.1-1.5,1.3-2.5C184.2,509.1,181.8,507.6,180.1,507.3z"/>
		<path class="st0" d="M154.9,535c0,0.4-0.1,0.7-0.3,1c-0.2,0.2-0.4,0.4-0.6,0.5c-0.9,0.6-1.9,1-3,1.1c-0.5,0-1-0.2-1-0.7
			c0-0.5,0.4-0.9,0.9-1c0.5,0,0.9-0.1,1.3-0.3c0.7-0.6,0.6-1.8,0.4-2.7c-0.4-1.9-0.6-3.9-0.7-5.8c-0.1-1.3,0-2.8,1.2-3.4
			c0.7-0.5,1.7-0.2,2.2,0.5c0.1,0.1,0.1,0.2,0.2,0.4c0.4,1.3,0.1,3.5,0,4.9C155.3,531.3,155.1,533.2,154.9,535z"/>
		<path class="st0" d="M151.7,535c0.1,0.3,0,0.7-0.1,1c-0.1,0.2-0.3,0.4-0.5,0.6c-0.7,0.8-1.6,1.4-2.6,1.8c-0.4,0.1-1.1,0.1-1.2-0.5
			c-0.1-0.5,0.2-1,0.7-1.2c0.4-0.1,0.8-0.3,1.2-0.7c0.6-0.7,0.2-1.9-0.2-2.7c-0.8-1.8-1.5-3.6-2-5.5c-0.4-1.2-0.6-2.7,0.4-3.5
			c0.6-0.6,1.6-0.6,2.2,0c0.1,0.1,0.2,0.2,0.2,0.3c0.7,1.2,0.9,3.4,1.1,4.8C151.3,531.3,151.6,533.1,151.7,535z"/>
		<path class="st0" d="M155.3,504.2c0,1.9-0.4,3.8-1.3,5.5c-0.2,0-0.3-0.2-0.3-0.4c-0.2-1.8-0.3-3.7-0.2-5.5
			C153.6,501.4,155.2,502.4,155.3,504.2z"/>
		<path class="st0" d="M154.1,502.5c1.3,7.3,1.9,14.7,1.8,22.1c0.1,0.6-0.2,1.1-0.8,1.4c-2.5,1.5-5.6,1.6-8.2,0.2
			c-0.6-0.3-1.1-0.8-1.3-1.4c-0.1-0.5-0.1-1,0.1-1.5c1.2-4.8,2-9.8,2.5-14.7c0.1-1.5-0.1-3.9,0.8-5.2
			C150,502,152.6,502.3,154.1,502.5z"/>
		<path class="st0" d="M146.9,505.6l0.3,3.8c0.1,0.2,0,0.4-0.3,0.5c-0.1,0-0.1,0-0.2,0l-1.9,0.1c-0.3,0-0.6,0.1-0.6,0.4
			s0.2,0.3,0.3,0.4l2.2,1.2c0.3,0.2,0.6,0.3,0.9,0.3c0.4,0,0.8-0.3,1-0.8c0.2-0.4,0.2-0.8,0.2-1.3c0-1.2,0-2.5,0.2-3.7
			c0.1-0.9,0.8-2,0.4-2.9c-0.3-0.7-1.1-1-1.8-0.6C146.8,503.5,146.9,504.8,146.9,505.6z"/>
		<path class="st0" d="M148.5,497.5c0.4-0.6,1.1-0.9,1.8-1c0.7,0,1.4,0.3,1.9,0.9c0.3,0.4,0.4,0.8,0.4,1.3c0.2,1.7,0,5.8-2.5,4.6
			C148,502.2,146.9,499.6,148.5,497.5z"/>
		<path class="st0" d="M149.6,499c0.5,0.7,0.7,1.7,0.6,2.6c-0.1,0.9-0.3,1.8-0.4,2.6c-0.1,0.5,0,1.1,0.3,1.6
			c0.2,0.3,0.6,0.6,0.9,0.7c0.5,0.3,1,0.5,1.6,0.5c0.6,0.1,1.1-0.2,1.5-0.6c0.2-0.3,0.2-0.5,0.3-0.9c0.2-1.6,0.3-3.2,0.2-4.9
			c-0.1-2.1-1.1-5.4-4.2-5.4c-1.1,0-2,0.6-2.5,1.6C147.3,498.4,148.9,498.1,149.6,499z"/>
		<path class="st0" d="M149,536.3c-0.4,0.2-0.9,0.3-1.3,0.5c-0.3,0.2-0.5,0.7-0.4,1.1c0.1,0.4,0.5,0.7,0.9,0.7c0.4,0,0.7-0.2,1-0.4
			c0.6-0.4,1.3-0.8,2-1.1c0.6-0.3,0.8-1.9,0.1-2.2C150.4,534.5,149.7,536,149,536.3z"/>
		<path class="st0" d="M151.6,535.8c-0.1,0-0.2,0.1-0.4,0.1c-0.4,0.1-0.7,0.5-0.6,0.9c0.1,0.4,0.4,0.7,0.8,0.7
			c0.6,0,1.1-0.4,1.7-0.5c0.8-0.1,2.9-0.3,1.3-1.3C153.6,535.1,152.5,535.1,151.6,535.8z"/>
		<path class="st0" d="M162.2,533.7l1.2,7.5c-0.6,0.1-1.3,0.1-1.9,0c-0.7,0-1.4,0.5-1.2,1.2c0.1,0.2,0.2,0.3,0.4,0.4
			c1,0.7,2.1,1.3,3.4,1.6c0.3,0.1,0.6,0.1,0.9,0c0.4-0.2,0.6-0.5,0.7-0.9c0.9-2.6,0.3-5.4-0.1-8.1s-0.6-5.7,1-7.9l0.2,12.8
			c-0.2,0.2-0.5,0.2-0.8,0.1c0,1.7,1,3.2,2.5,4c0.3,0.2,0.7,0.2,1,0.2c0.5-0.2,0.7-0.8,0.8-1.4c0.5-4,0.7-8,0.8-12
			c0-2.7,1.4-9.1-1.8-10.3C162.7,518.5,161.6,530,162.2,533.7z"/>
		<path class="st0" d="M165.2,506.3c-1.2,0.5-1.6,2-2.5,2.9c-0.7,0.6-1.8,1-2,2c0,0.6,0.1,1.2,0.4,1.8c1.2,2.9,0.7,6.1,0.9,9.2
			c0,0.5,0.1,0.9,0.4,1.3c0.2,0.2,0.4,0.3,0.7,0.3c1.7,0.4,3.4,0.5,5.1,0.5c1,0.1,2.1-0.2,2.9-0.8c0.5-0.7,0.7-1.5,0.6-2.3
			c0-3.3,0.9-8.1-0.1-11.2C170.9,507.8,167.3,505.4,165.2,506.3z"/>
		<path class="st0" d="M160.6,514.6c-0.3,1.3-0.3,2.7,0,4c0.1,0.5,0.4,1,0.8,1.3c0.4,0.3,1,0.4,1.5,0.2c0.5-0.4,0.7-1,0.7-1.7
			l0.4-3.8c0.1-1.2,0.1-3.8-1.8-3.5C160.6,511.3,160.7,513.6,160.6,514.6z"/>
		<path class="st0" d="M163.4,501.2c0.5-0.7,1.3-1.2,2.2-1.2c0.9-0.1,1.7,0.3,2.2,1c0.3,0.4,0.5,1,0.5,1.5c0.2,2,0,6.9-2.9,5.5
			C162.8,506.7,161.5,503.7,163.4,501.2z"/>
		<g id="balloons">
			<path class="st1" d="M172.7,481.5c0,2.4,1.4,4.6,2.6,6.7s2.2,4.6,1.2,6.9c-0.9,2-3.1,3.5-3.6,5.6c-0.1,0.8-0.1,1.6-0.1,2.3
				c-0.1,1.9-2.3,3-3.8,4.4c1.9-2.1,2.3-5.3,0.9-7.8c-0.6-1-1.4-2-1.6-3.1c-0.2-2.1,2.2-3.8,2.2-5.9"/>
			<path class="st1" d="M177.4,488.6l0.4,5.4c0.1,0.5,0,1-0.2,1.5c-0.4,0.8-1.6,1.1-2.4,1.6c-3.6,2.1-2,8-5.7,9.8"/>
			<path class="st0" d="M172.8,481.6c-1.2-1.4-2.5-3-2.4-4.7c0.1-2.4,3.2-4.2,5.5-3.2c1.9,3.1,0,7.6-3.6,8.7"/>
			<path class="st0" d="M176.1,486.5c-1.1-1.5-1.2-3.5-0.4-5.1c1-1.6,2.7-2.6,4.6-2.6c0.9,1.1,2,2.4,1.8,3.8
				c-0.2,2.8-4.3,3.9-4.9,6.6c-0.5,0-0.9-0.4-0.9-0.9c0,0,0-0.1,0-0.1"/>
			<path class="st0" d="M168.2,488.6c0.1-1-0.9-1.8-1.5-2.7c-0.8-1.1-0.9-2.6-0.3-3.9c0.7-1.3,2.1-1.9,3.6-1.7
				c1.5,0.4,2.6,1.7,2.9,3.2c0.2,1.5,0,3-0.4,4.4c-0.1,0.8-0.5,1.6-1.1,2.2c-0.7,0.5-2,0.5-2.3-0.3"/>
		</g>
		<path class="st0" d="M103.3,534.4l-27-16v-28l27,16V534.4z"/>
		<path class="st0" d="M81.4,517.7c2.3,0.9,3.3,3.3,4.8,5.3s4.2,3.6,6.1,2.2c0.8-0.7,1.3-1.6,1.5-2.6c0.3-1,0.4-2.1,0.2-3.1
			c-0.4-1.4-1-2.7-1.8-3.9c-0.7-1.3-1-2.9-0.2-4.1c1.9-1,4.1-1.3,6.3-1c-2.2,0.7-4.6-2.7-6.4-1.3c-0.6,0.6-0.9,1.5-0.9,2.4l-0.7,8.7
			c-1.3-0.6-1.9-2.2-1.3-3.5c0,0,0,0,0-0.1"/>
		<path class="st0" d="M97.4,506.5c-0.8,1.3-1.1,2.8-1.1,4.4c0.2,1.5,1.8,2.9,3.2,2.3c0.8-0.4,1.3-1.1,1.6-1.9
			c0.6-1.4,0.6-2.9-0.1-4.3c-0.8-1.3-2.4-1.7-3.7-0.9c0,0-0.1,0-0.1,0.1"/>
		<path class="st0" d="M102.6,515c-1-0.9-2.8-0.2-3.3,1.1c-0.4,1.4-0.2,2.8,0.6,4c-1.9,0.6-4,0.7-6,0.3c0.3,1.1-0.2,2.2-1.2,2.7
			c2.7,1.3,5.7,2,8.7,2.2c1-2.6,1.3-5.5,0.9-8.2"/>
		<path class="st0" d="M96.6,513c-2.4,0-4.4,2-4.4,4.5c0,0.2,0,0.3,0,0.5"/>
		<path class="st0" d="M97.2,525.5c-0.6,3,1.1,6,3.9,7.1"/>
		<path class="st0" d="M96.1,525c-1.5,1.1-3.4,1.6-5.3,1.3"/>
		<path class="st0" d="M85.2,513.5c-0.7-3.8,1.9-7.4,5.7-8.1c1.6-0.3,3.3,0,4.7,0.8l0.7-0.6"/>
		<path class="st0" d="M81.8,515.5c-1.9-1.3-3.4-3.1-4.2-5.3c-0.7-2.2,0.1-4.9,2.2-5.9c0.9-0.4,1.9-0.4,2.8-0.8
			c1.6-0.7,2.5-2.3,2.4-4c-0.3-1.7-1.7-2.9-3.4-3c-1.7,0.1-3.1,1.5-3.1,3.2"/>
		<path class="st0" d="M85.3,516.2c-2.1-1.8-4.5-4.6-3.4-7.1c0.8-1.9,3.2-2.6,5-3.6s3.5-3.5,2.2-5c-1.2-0.7-2.7-0.2-3.4,1
			c-0.2,0.4-0.3,0.9-0.3,1.4"/>
		<path class="st0" d="M83.5,517.3c1-2.1-1.5-4.8-3.8-4.2s-3.2,3.8-1.8,5.8"/>
		<path class="st0" d="M84.7,516.4c1.4,0.4,3.5,0.6,4-0.9s-1.5-2.5-3-2.8c-1.2-0.3-2.4-0.3-3.5,0c-1.2,0.3-2,1.4-2,2.7
			c0.1,1.2,1.8,2,2.6,1.2"/>
		<path class="st0" d="M232.7,377.5c0,0.3,0,0.5,0.2,0.8c0.2,0.2,0.5,0.3,0.8,0.3c0.7-0.1,1.3-0.6,1.7-1.2c0.2-0.5,0-1.1-0.5-1.4
			c-0.1-0.1-0.2-0.4-0.3-1c-0.1-0.6-0.1-1.2,0-1.8c0.4-3,0.5-6,0.3-9c0-0.3,0.2-0.5,0.4-0.5c0,0,0,0,0,0h0.4c0.3,0,0.5,0.2,0.5,0.5
			c0,0,0,0,0,0c0,2.3,0.2,4.6,0.5,6.9l0.8,6.5c0,0.6,0.5,1,1,1c0.2,0,0.4-0.1,0.5-0.2c0.7-0.6,1.3-1.3,1.8-2.1
			c0.1-0.2,0-0.6-0.2-0.7c-0.1-0.1-0.2-0.1-0.3-0.1c-0.5,0.1-0.9,0.5-0.9,0c-0.1-0.7-0.3-1.4-0.3-2.1l0.4-8.1
			c0.2-3.7-3.2-11.3-6.6-6C230.6,362.8,232.7,373.1,232.7,377.5z"/>
		<path id="hidHead" class="st0" d="M238.1,344.8l0.1-1.9c0.1-0.6,0-1.2-0.1-1.8c-0.3-0.9-1.1-1.5-2.1-1.7c-0.9-0.2-1.9,0.2-2.6,0.9
			c-0.7,1-1,2.3-0.7,3.5c0,0.2,0.1,0.4,0.1,0.6c0.1,0.1,0.2,0.3,0.3,0.4c0.7,1-0.5,3,1.3,3.5c1.3,0.4,2.1-1,2.2-2
			C237.8,346.5,238.1,345.5,238.1,344.8z"/>
		<path class="st0" d="M232.2,348.5c-0.2,3.2-0.2,6.5,0.1,9.7c0,0.5,0.1,1.1,0.4,1.5c0.4,0.5,0.9,0.8,1.5,1c0.7,0.3,1.5,0.5,2.2,0.5
			c0.8,0,1.5-0.5,1.8-1.3c0.1-0.3,0.1-0.7,0.1-1l-0.1-7.2c1.8,0.8,4-2.1,5.2-3.7s1.7-1.8,1.9-3.9c0.1-0.6,0-1.1-0.2-1.6
			c-0.2-0.5-0.8-0.8-1.3-0.6c-1,2.8-2.4,6.5-5.4,6.3C236.7,348.1,232.5,344.6,232.2,348.5z"/>
		<path class="st0" d="M227.1,371.3c0,0.3,0,0.6,0.2,0.9c0.3,0.3,0.7,0.3,1.1,0.4c0.6,0.3,1,0.9,1,1.6c-0.7,0.2-1.5,0.2-2.2,0.2
			c-0.6,0-1.6,0-1.7-0.6c-0.2-2.4-0.3-4.9-0.3-7.4c0.3-1.9-0.1,0.2-0.1-1.7c0-0.5,0.1-0.9,0.2-1.4c0.3-0.7,1.1-1,1.7-0.4
			c0.4,0.5,0.1,1.2,0.1,1.7C227,366.9,227,369.1,227.1,371.3z"/>
		<path class="st0" d="M223.1,373.7c-0.1,0.6,0,1.2,0.3,1.7c0.6,0.7,1.4,1,2.3,0.9c0.6,0.1,1.2-0.1,1.7-0.4c0.5-0.4,0.7-0.2,0.3-0.6
			l-2.8-1c-1.6-0.6,2.1-11.8-0.6-11.5c-1.4,0.2-1.5,2.5-1.4,3.5C223,368.8,223.1,371.2,223.1,373.7z"/>
		<path class="st0" d="M232.5,348.8c0.5-0.4,0.9-0.8,1.3-1.2c0.4-0.4,1-0.6,1.6-0.4c0.5,0.6,0.5,1.4,0.2,2c-0.3,0.6-0.8,0.1-1.4,0.6
			c-0.8,0.9-1.8,1.4-3,1.6c-1.1,0-2.1,0.2-3-0.6l1.2,12.1c0.1,0.6,0.1,1.3-0.1,1.9c-0.3,0.9-1,1.6-1.8,1.9c-2.2,1.1-4.8,0.9-6.8-0.5
			c-1.3-0.9-2.3-2.7-1.7-4.2c0.3-0.5,0.6-0.9,0.9-1.4c1.4-1.9,1.4-4.6,1.4-7c0-2.9-1.3-9.9,2.8-10.2
			C227.5,343.2,229,351,232.5,348.8z"/>
		<g id="partnerHead">
			<path class="st0" d="M238.4,341.5c0,0.1,0,0.3-0.1,0.4c-0.1,0.1-0.2,0.1-0.3,0.1c-0.5,0-1.1,0.2-1.6,0.4
				c-0.5,0.2-0.8,0.7-0.9,1.2c0.1,0.4,0.2,0.9,0.4,1.3c0.2,0.4,0,0.9-0.4,1.1c-0.1,0-0.3,0.1-0.4,0.1c-0.5,0.1-1.1,0-1.6-0.3
				c-0.3-0.2-0.5-0.5-0.6-0.9c-0.5-1.3-0.4-2.7,0.2-4c0.1-0.3,0.3-0.5,0.5-0.7c0.4-0.3,0.8-0.4,1.2-0.5l1.1-0.2
				C237.7,339.1,238.2,340,238.4,341.5z"/>
			<path class="st0" d="M226.3,336.9c-2.4,0.6-5.1,7.4-1.1,6.7c1.3-0.3,2.5-1.1,3.1-2.4C228.9,339.7,228.6,336.4,226.3,336.9z"/>
			<path class="st0" d="M228.3,338.6c0,0.2,0,0.4-0.1,0.5c-0.1,0.2-0.3,0.4-0.4,0.5c-1.8,1.4-3.5,3.1-4,5.4c-0.4,1.9,0.2,4-0.8,5.7
				c-0.3,0.7-1.1,1.2-1.9,1c-0.8-0.3-1-1.4-1-2.4c-0.2-1.6,0-3.3,0.4-4.8c0.3-0.9,0.8-1.8,1.2-2.7c0.7-1.7,0.8-4.4,2.6-5.3
				S228.2,336.9,228.3,338.6z"/>
		</g>
		<ellipse class="st0" cx="205.6" cy="435.8" rx="6.5" ry="4.2"/>
		<polygon class="st0" points="199.1,435.3 205.1,429.3 206.4,429.3 212.1,435.3 		"/>
		<ellipse class="st0" cx="205.6" cy="430.3" rx="2" ry="1"/>
		<polygon class="st0" points="203.6,430.3 203.6,429.4 207.6,429.4 207.6,430.4 		"/>
		<ellipse class="st0" cx="205.6" cy="429.3" rx="2" ry="1"/>
		<path class="st0" d="M205.1,397.3v31.6c0,0.3,0.2,0.5,0.5,0.5s0.5-0.2,0.5-0.5v-32.6L205.1,397.3z"/>
		<ellipse class="st0" cx="161.2" cy="457.4" rx="6.5" ry="4.2"/>
		<polygon class="st0" points="154.7,456.9 160.7,450.9 162,450.9 167.7,456.9 		"/>
		<ellipse class="st0" cx="161.2" cy="451.9" rx="2" ry="1"/>
		<polygon class="st0" points="159.2,452 159.2,451 163.2,451 163.2,452 		"/>
		<ellipse class="st0" cx="161.2" cy="450.9" rx="2" ry="1"/>
		<path class="st0" d="M160.7,422.4v28.2c0,0.3,0.2,0.5,0.5,0.5s0.5-0.2,0.5-0.5v-29.2L160.7,422.4z"/>
		<ellipse class="st0" cx="44.2" cy="393" rx="6.5" ry="4.2"/>
		<polygon class="st0" points="37.7,392.5 43.7,386.5 45,386.5 50.7,392.5 		"/>
		<ellipse class="st0" cx="44.2" cy="387.5" rx="2" ry="1"/>
		<polygon class="st0" points="42.2,387.5 42.2,386.6 46.1,386.6 46.1,387.6 		"/>
		<ellipse class="st0" cx="44.2" cy="386.5" rx="2" ry="1"/>
		<path class="st0" d="M43.7,358.4v27.8c0.1,0.3,0.3,0.5,0.6,0.4c0.2,0,0.4-0.2,0.4-0.4v-26.9L43.7,358.4z"/>
		<path class="st0" d="M121.1,251.3c0,0.3-0.1,0.7-0.3,0.9c-0.2,0.2-0.4,0.4-0.6,0.5c-0.9,0.6-1.9,1-2.9,1.1c-0.5,0-1-0.2-1-0.7
			c0-0.5,0.4-0.9,0.9-1c0.4,0,0.9-0.1,1.3-0.3c0.7-0.5,0.6-1.8,0.4-2.7c-0.4-1.9-0.6-3.8-0.7-5.7c-0.1-1.2,0-2.7,1.2-3.3
			c0.7-0.4,1.7-0.2,2.1,0.5c0.1,0.1,0.1,0.2,0.1,0.3c0.4,1.3,0.1,3.4,0,4.8C121.5,247.6,121.3,249.4,121.1,251.3z"/>
		<path class="st0" d="M118,251.2c0.1,0.3,0,0.7-0.1,1c-0.1,0.2-0.3,0.4-0.5,0.6c-0.7,0.8-1.6,1.4-2.6,1.8c-0.4,0.1-1,0.1-1.2-0.5
			c-0.1-0.5,0.2-1,0.7-1.1c0.4-0.1,0.8-0.3,1.2-0.6c0.6-0.7,0.2-1.8-0.2-2.7c-0.8-1.7-1.5-3.5-2-5.4c-0.4-1.2-0.6-2.6,0.4-3.5
			c0.6-0.6,1.6-0.6,2.2,0c0.1,0.1,0.2,0.2,0.2,0.3c0.7,1.1,0.9,3.3,1.1,4.7C117.6,247.6,117.8,249.4,118,251.2z"/>
		<path class="st0" d="M121.5,221c0,1.9-0.4,3.7-1.3,5.4c-0.2,0-0.3-0.2-0.3-0.4c-0.2-1.8-0.3-3.6-0.2-5.4
			C119.8,218.3,121.4,219.2,121.5,221z"/>
		<path class="st0" d="M120.3,219.4c1.2,7.1,1.9,14.4,1.8,21.6c0,0.2,0,0.5-0.1,0.7c-0.2,0.3-0.4,0.5-0.7,0.6
			c-2.5,1.4-5.5,1.5-8,0.2c-0.6-0.3-1.1-0.7-1.3-1.4c-0.1-0.5,0-1,0.1-1.5c1.2-4.7,2-9.6,2.4-14.4c0.1-1.5-0.1-3.8,0.8-5.1
			C116.3,218.9,118.8,219.2,120.3,219.4z"/>
		<path id="pianoArm" class="st0" d="M113.3,222.4l0.3,3.7c0,0.1,0,0.3-0.1,0.4c-0.1,0.1-0.2,0.1-0.4,0.1l-1.8,0.1
			c-0.3,0-0.6,0.1-0.6,0.4s0.2,0.3,0.3,0.4l2.2,1.1c0.3,0.2,0.6,0.3,0.9,0.3c0.4,0,0.8-0.3,1-0.7c0.2-0.4,0.2-0.8,0.2-1.3
			c0-1.2,0-2.4,0.2-3.6c0.1-0.9,0.8-2,0.4-2.9c-0.3-0.7-1.1-0.9-1.8-0.6C113.1,220.3,113.2,221.6,113.3,222.4z"/>
		<path class="st0" d="M114.8,214.5c0.4-0.6,1.1-0.9,1.8-1c0.7,0,1.4,0.3,1.8,0.9c0.2,0.4,0.4,0.8,0.4,1.3c0.2,1.6,0,5.7-2.4,4.5
			C114.3,219.1,113.3,216.6,114.8,214.5z"/>
		<path class="st0" d="M115.9,214.6c0.5,0.4,0.7,1,0.6,1.5c-0.1,0.5-0.3,1.1-0.4,1.6c-0.1,0.3,0,0.7,0.3,0.9
			c0.3,0.2,0.6,0.4,0.9,0.4c0.5,0.2,1,0.3,1.5,0.3c0.5,0,1-0.1,1.4-0.4c0.1-0.1,0.2-0.3,0.3-0.5c0.2-1,0.3-1.9,0.2-2.9
			c-0.1-1.3-1.1-3.3-4.2-3.2c-0.9,0-1.8,0.3-2.4,1C113.7,214.2,115.2,214,115.9,214.6z"/>
		<path class="st0" d="M115.3,252.5c-0.4,0.2-0.9,0.3-1.3,0.5c-0.3,0.2-0.5,0.7-0.4,1.1c0.1,0.4,0.5,0.7,0.9,0.7
			c0.4,0,0.7-0.2,1-0.4c0.6-0.4,1.3-0.8,2-1.1c0.6-0.3,0.7-1.8,0-2.2C116.7,250.7,116,252.2,115.3,252.5z"/>
		<path class="st0" d="M117.9,252c-0.1,0.1-0.2,0.1-0.3,0.1c-0.4,0.1-0.6,0.5-0.6,0.9c0.1,0.4,0.4,0.7,0.8,0.7
			c0.6,0,1.1-0.4,1.7-0.5c0.7-0.1,2.8-0.3,1.3-1.3C119.8,251.3,118.7,251.4,117.9,252z"/>
		<path class="st0" d="M155.8,198.8c-0.2,0.1-0.3,0.3-0.4,0.5c-0.1,0.3-0.2,0.5-0.2,0.8c0,1,0.1,2,0.4,3c0,0.1,0.1,0.2,0.1,0.3
			c0.3,0.3,1-0.1,1.2,0.3c0.1,0.2,0.1,0.4,0,0.6c-0.1,0.2-0.2,0.3-0.4,0.5c-0.1,0.2-0.2,0.4-0.2,0.6c0,0.1,0,0.1,0.1,0.2
			c0.1,0,0.1,0,0.2,0l1.9-0.3c0.1,0,0.2,0,0.3-0.1c0.1-0.1,0.2-0.2,0.2-0.3c0.4-0.9,0.7-1.8,0.9-2.8c0.2-1,0.1-2-0.3-2.9
			c-0.1-0.3-0.4-0.6-0.6-0.8C157.9,197.3,156.8,198,155.8,198.8z"/>
		<path class="st0" d="M154.8,200.1c1.3,0.2,2.6,0.1,3.9-0.4c0.4,0.9,0.5,1.8,0.4,2.8c0,0.1,0,0.2,0.1,0.3c0.1,0,0.2,0.1,0.2,0.1
			c0.3,0.1,0.7,0.2,0.9,0.4c0.3,0.1,0.8,0.1,1-0.1c0.1-0.1,0.1-0.3,0-0.4l-0.3-1.8c-0.3-1.5-0.9-3.6-3.1-3.7c-0.7,0-1.4,0.3-1.9,0.8
			C155.9,198.2,154.4,200.1,154.8,200.1z"/>
		<path class="st0" d="M160.9,212.3c0.5-0.1,0.9-0.4,1.2-0.8c0.2-0.4,0.3-0.8,0.2-1.3c0-1.5-0.2-2.9-0.5-4.3c-0.2-1-0.7-2.1-1.6-2.2
			c-0.6,0-1.1,0.1-1.6,0.4c-0.8,0.3-1.7,0.2-2.5-0.1c-0.7-0.3-1.6,0-2,0.7l-1.3,2.3c-0.4,0.7-0.8,1.4-1.4,1.9
			c-0.3,0.2-0.6,0.4-0.7,0.7c-0.1,0.5,0.1,1,0.6,1.2c0.4,0.2,0.9,0.3,1.4,0.5c0.5,0.2,0.8,0.6,0.8,1.1c0.9,0.1,1.8-0.3,2.4-1
			c0.5-0.7,1-1.5,1.4-2.2c0.5-0.8,1.3-1.3,2.2-1.5l0.5,3.1c-1.6,0.6-3.2,1.2-4.7,2.1c-0.7,0.3-1.3,0.9-1.4,1.6
			c0.9,0.2,2-0.8,2.8-1.1C158.1,212.9,159.6,212.8,160.9,212.3z"/>
		<path class="st0" d="M149.3,210c-0.4,0-0.9-0.1-1.3-0.2c-0.3-0.2-0.7-0.5-0.9-0.8c-0.5-0.5-1-0.9-1.7-1.1
			c-0.6-0.2-1.4-0.1-1.9,0.3c-0.7,0.7-1,1.8-0.7,2.7c0.3,1,0.3,2,0.2,2.9c0.8-0.1,1.5-0.1,2.3,0c0,0.5,0,0.9-0.1,1.4
			c2.4,0,4.8-0.1,7.2-0.4c0.7,0,1.3-0.3,1.8-0.7c0.2-0.3,0.3-0.6,0.4-1c0.2-1.2,0.3-3-1.2-3.5C152.1,209.3,150.5,210,149.3,210z"/>
		<path class="st0" d="M138.8,216.7c-0.2,0.1-0.5,0.3-0.5,0.6c0,0.2,0.1,0.3,0.2,0.4c0.2,0.3,0.4,0.5,0.7,0.6
			c0.7,0.3,1.4-0.3,1.9-0.8c0.6-0.5,1.2-0.9,1.8-1.2c0.8-0.4,1.9-0.8,2.4-1.7s0-2.4-1.1-2.4s-1.9,1.1-2.6,1.8
			C140.9,215.1,139.9,216,138.8,216.7z"/>
		<path class="st0" d="M144.4,212.9c-0.7,0-1.3,0.6-1.5,1.3c-0.1,0.7-0.2,1.4-0.2,2.1c-0.1,1-0.6,1.9-1.3,2.6
			c-0.5,0.5-1.1,0.9-1.3,1.6c0.4,0.4,1,0.5,1.5,0.3c0.5-0.2,1-0.5,1.3-0.9l0.9-0.8c0.2-0.1,0.3-0.3,0.4-0.5c0.1-0.2,0.1-0.4,0.1-0.6
			c0.2-1,0.5-1.9,1-2.8C145.7,214.3,145.4,213,144.4,212.9z"/>
		<path class="st0" d="M133.6,216.9c-0.2,0-0.4,0-0.5,0.2c0,0.1,0,0.3,0.1,0.4c0.1,0.1,0.3,0.1,0.4,0.1c0.6,0.1,1.2,0.4,1.6,0.8
			c0.2,0.2,0.4,0.4,0.7,0.6c0.4,0.2,0.8,0.3,1.3,0.2c0.4-0.1,0.8-0.4,1.2-0.6c0.2-0.1,0.5-0.1,0.7-0.2c0.4-0.2,0.8-0.7,0.4-1.1
			s-1.2-0.2-1.6-0.2C136.5,217.1,135.1,217.1,133.6,216.9z"/>
		<path class="st0" d="M177.2,129.9l11,62.1c0,0,0.2,1,0.7,0.9s0.4-1.1,0.4-1.1l-10.6-60.1L177.2,129.9z"/>
		<path class="st0" d="M184.4,125.7l11,62.1c0,0,0.2,1,0.7,0.9s0.4-1.1,0.4-1.1l-10.7-60.1L184.4,125.7z"/>
		<path class="st0" d="M190.8,159l-7.1,4.4c0,0-0.1,0.1,0.2,0.5s0.4,0.4,0.4,0.4l6.9-4.3L190.8,159z"/>
		<path class="st0" d="M190.1,154.8l-7.1,4.4c0,0-0.1,0.1,0.2,0.5s0.4,0.4,0.4,0.4l6.9-4.3L190.1,154.8z"/>
		<path class="st0" d="M189.4,150.5l-7.1,4.4c0,0-0.1,0.1,0.2,0.5s0.4,0.4,0.4,0.4l6.9-4.3L189.4,150.5z"/>
		<path class="st0" d="M188.7,146.3l-7.1,4.4c0,0-0.1,0.1,0.2,0.5s0.4,0.4,0.4,0.4l6.9-4.3L188.7,146.3z"/>
		<path class="st0" d="M188,142.1l-7.1,4.4c0,0-0.1,0.1,0.2,0.5s0.4,0.4,0.4,0.4l6.9-4.3L188,142.1z"/>
		<path class="st0" d="M187.3,137.9l-7.1,4.4c0,0-0.1,0.1,0.2,0.5s0.4,0.4,0.4,0.4l6.9-4.3L187.3,137.9z"/>
		<path class="st0" d="M186.6,133.6l-7.1,4.4c0,0-0.1,0.1,0.2,0.5s0.4,0.4,0.4,0.4l6.9-4.3L186.6,133.6z"/>
		<path class="st0" d="M185.9,129.4l-7.1,4.4c0,0-0.1,0.1,0.2,0.5s0.4,0.4,0.4,0.4l6.9-4.3L185.9,129.4z"/>
		<path class="st0" d="M195.2,184l-7.1,4.4c0,0-0.1,0.1,0.2,0.5s0.4,0.4,0.4,0.4l6.9-4.3L195.2,184z"/>
		<path class="st0" d="M194.5,179.7l-7.1,4.4c0,0-0.1,0.1,0.2,0.5s0.4,0.4,0.4,0.4l6.9-4.3L194.5,179.7z"/>
		<path class="st0" d="M193.8,175.5l-7.1,4.4c0,0-0.1,0.1,0.2,0.5s0.4,0.4,0.4,0.4l6.9-4.3L193.8,175.5z"/>
		<path class="st0" d="M193.1,171.3l-7.1,4.4c0,0-0.1,0.1,0.2,0.5s0.4,0.4,0.4,0.4l6.9-4.3L193.1,171.3z"/>
		<path class="st0" d="M192.4,167.1l-7.1,4.4c0,0-0.1,0.1,0.2,0.5s0.4,0.4,0.4,0.4l6.9-4.3L192.4,167.1z"/>
		<path class="st0" d="M191.6,162.8l-7.1,4.4c0,0-0.1,0.1,0.2,0.5s0.4,0.4,0.4,0.4l6.9-4.3L191.6,162.8z"/>
		<path class="st0" d="M191,158.6l-7.1,4.4c0,0-0.1,0.1,0.2,0.5s0.4,0.4,0.4,0.4l6.9-4.3L191,158.6z"/>
		<g id="reach">
			<path class="st0" d="M181.3,122c-1.1,0.8-2.4,1.3-3,2.4c-0.5,1-0.6,2-0.5,3.1c0.1,4.3,0.5,8.5,1.1,12.7c0.3,0.2,0.6-0.3,0.7-0.7
				c0.4-3.4,0.7-6.8,0.8-10.1l1.2,4.5c0.4,1.4,0.9,2.9,2.3,3.3c1.3,0.2,2.6-0.6,3-1.9c0.3-1.2,0.4-2.5,0.1-3.8
				c-0.2-2.6-0.8-5.2-1.7-7.7c-0.3-0.6-0.5-1.3-0.6-2c0-0.9,0.3-1.8,0.8-2.6c1.4-3,2.1-6.2,2.3-9.6c0-1.3-1.1-2.1-2-1
				c-0.5,0.6,0,3.4-0.1,4.2C185.3,116.2,184.1,119.9,181.3,122z"/>
			<path class="st0" d="M177.5,117.7c-0.6,0.7-0.9,1.6-0.8,2.6c0,0.4,0.1,0.8,0.3,1.2c0.5,0.7,1.5,0.7,2.2,1.2
				c0.4,0.3,0.7,0.6,1.1,0.9c0.7,0.3,1.4,0.1,1.9-0.4c0.5-0.6,0.6-1.3,0.5-2c-0.2-0.4-0.2-0.9-0.2-1.4c0-0.2,0.1-0.4,0.1-0.6
				c0-0.7-0.3-1.3-0.9-1.6C180.4,116.8,178.5,116.5,177.5,117.7z"/>
			<path class="st0" d="M183.6,145.6c0.2,1.6,0.3,5.2-0.1,6.7c-0.4,1.1-1.3,0.9-1,2c0.9,0.1,1.8-0.3,2.4-0.9
				c0.2-0.4,0.4-0.8,0.4-1.2c0.4-3.4,0.5-6.8,0.3-10.3c1,3.4,1,5.4,1.6,8.5c0,0.1-1.6,1.8-1.6,1.9c0,1,3.4-1.5,3.4-1.5
				c0-0.5-0.1-0.9-0.2-1.4c-0.2-1.2,0.4-17.2-1.9-17c-1.4,0.1-4.1,0.9-4.4,1.9C181.8,137,183.3,143,183.6,145.6z"/>
			<path class="st0" d="M179.9,118.9c0.1-0.4,0-0.7-0.1-1.1c-0.1-0.4-0.4-0.7-0.8-0.8c-0.5-0.2-1.1,0-1.5,0.3
				c-0.4,0.3-0.7,0.7-0.9,1.2c-0.4,0.6-0.5,1.4-0.3,2.2c0.1,0.2,0.2,0.5,0.4,0.7c0.2,0.2,0.3,0.4,0.6,0.6
				C179.2,123.5,179.7,120,179.9,118.9z"/>
		</g>
		<polygon class="st0" points="36.7,150.3 52.5,159.4 52.5,212.2 36.7,203.1 		"/>
	</g>
</g>
</svg>
