<svg xmlns="http://www.w3.org/2000/svg" viewBox="0 0 137.32 148.27"><defs><style>.cls-1{fill:#fe3d54;}.cls-1,.cls-2{stroke:#fff;stroke-width:2px;}.cls-2{fill:none;}</style></defs><g id="Layer_2" data-name="Layer 2"><g id="Layer_1-2" data-name="Layer 1"><path class="cls-1" d="M107.46,147.27H40.67c-7.33,0-13.34-3.93-13.34-8.72l8.5-24.27c0-4.8,6-8.72,13.34-8.72H99c7.33,0,13.33,3.93,13.33,8.72l8.5,24.27C120.79,143.34,114.79,147.27,107.46,147.27Z"/><path class="cls-1" d="M74.06,15.44a56.74,56.74,0,1,0,40.12,16.62A56.74,56.74,0,0,0,74.06,15.44Zm36.71,26.7s23.36,30.05,0,53.4M122.46,0V15m-8.34-7.51H130.8m1.59,15.72V32.1m-4.93-4.44h9.86M58.89,80.23V89.1M54,84.66H63.8M39.91,66.12v13M32.72,72.6h14.4"/><path class="cls-2" d="M38.36,86.65v8m-4.35-4h8.71M4.93,118.56v8.87M0,123H9.86m0-31.17v8.87M4.91,96.25h9.84"/></g></g></svg>