<svg xmlns="http://www.w3.org/2000/svg" viewBox="0 0 2400 100" width="2400" height="100"><path d="M21.24 10.25h106.35c1.0805 0 2.1175.4295 2.8815 1.1935.764.764 1.1935 1.801 1.1935 2.8815v67.85c0 1.0805-.4295 2.1175-1.1935 2.8815-.764.764-1.801 1.1935-2.8815 1.1935H21.24c-1.0805 0-2.1175-.4295-2.8815-1.1935-.764-.764-1.1935-1.801-1.1935-2.8815v-67.85c0-1.0805.4295-2.1175 1.1935-2.8815.764-.764 1.801-1.1935 2.8815-1.1935M6.685 86.95h136.63c.3805 0 .7455.1515 1.0145.4205.269.269.4205.634.4205 1.0145V90.5c0 .3805-.1515.7455-.4205 1.0145-.269.269-.634.4205-1.0145.4205H6.685c-.3805 0-.7455-.1515-1.0145-.4205-.269-.269-.4205-.634-.4205-1.0145v-2.115c0-.3805.1515-.7455.4205-1.0145.269-.269.634-.4205 1.0145-.4205" fill="#eae4dd" stroke="#22267a" stroke-width="2"/><path d="M19.915 13.75h109v67.5h-109z" fill="#eae4dd" stroke="#22267a" stroke-width="2"/><path d="M90.5 80.75H62.725c-3.05 0-5.55-1.635-5.55-3.63l3.535-10.09c0-2 2.5-3.63 5.55-3.63h20.705c3.05 0 5.545 1.635 5.545 3.63l3.535 10.09c0 1.995-2.495 3.63-5.545 3.63z" fill="#eae4dd" stroke="#22267a" stroke-width="2"/><path d="M76.61 25.92c-4.993-.016-9.865 1.5535-13.91 4.481-4.0455 2.927-7.059 7.064-8.605 11.812-1.546 4.748-1.546 9.866 0 14.614 1.546 4.748 4.5595 8.885 8.605 11.812 4.045 2.9275 8.917 4.497 13.91 4.481 6.2565 0 12.2635-2.488 16.6875-6.9125 4.4245-4.424 6.9125-10.431 6.9125-16.6875 0-6.2565-2.488-12.2635-6.9125-16.6875C88.8735 28.408 82.8665 25.92 76.61 25.92zm15.27 11.105s9.715 12.5 0 22.21M96.74 19.5v6.245m-3.47-3.12h6.94m.66 6.535v3.69m-2.05-1.845h4.1M70.3 52.865v3.69m-2.05-1.845h4.095M62.41 47v5.39m-2.99-2.695h5.985" fill="#eae4dd" stroke="#22267a" stroke-width="2"/><path d="M61.765 55.535v3.335m-1.81-1.67h3.62M47.86 68.81v3.685m-2.05-1.845h4.1M49.895 57.685v3.69M47.85 59.53h4.095" fill="none" stroke="#22267a" stroke-width="2"/><path d="M171.24 10.25h106.35c1.0805 0 2.1175.4295 2.8815 1.1935.764.764 1.1935 1.801 1.1935 2.8815v67.85c0 1.0805-.4295 2.1175-1.1935 2.8815-.764.764-1.801 1.1935-2.8815 1.1935H171.24c-1.0805 0-2.1175-.4295-2.8815-1.1935-.764-.764-1.1935-1.801-1.1935-2.8815v-67.85c0-1.0805.4295-2.1175 1.1935-2.8815.764-.764 1.801-1.1935 2.8815-1.1935m-14.555 76.7h136.63c.3805 0 .7455.1515 1.0145.4205.269.269.4205.634.4205 1.0145V90.5c0 .3805-.1515.7455-.4205 1.0145-.269.269-.634.4205-1.0145.4205h-136.63c-.3805 0-.7455-.1515-1.0145-.4205-.269-.269-.4205-.634-.4205-1.0145v-2.115c0-.3805.1515-.7455.4205-1.0145.269-.269.634-.4205 1.0145-.4205" fill="#eae4dd" stroke="#22267a" stroke-width="2"/><path d="M169.915 13.75h109v67.5h-109z" fill="#e9e3db" stroke="#22267a" stroke-width="2"/><path d="M240.5 79.974609h-27.775c-3.05 0-5.55-1.635-5.55-3.63l3.535-10.09c0-2 2.5-3.63 5.55-3.63h20.705c3.05 0 5.545 1.635 5.545 3.63l3.535 10.09c0 1.995-2.495 3.63-5.545 3.63z" fill="#eae4dd" stroke="#22267a" stroke-width="2"/><path d="M226.61 25.144609c-4.993-.016-9.865 1.5535-13.91 4.481-4.0455 2.927-7.059 7.064-8.605 11.812-1.546 4.748-1.546 9.866 0 14.614 1.546 4.748 4.5595 8.885 8.605 11.812 4.045 2.9275 8.917 4.497 13.91 4.481 6.2565 0 12.2635-2.488 16.6875-6.9125 4.4245-4.424 6.9125-10.431 6.9125-16.6875 0-6.2565-2.488-12.2635-6.9125-16.6875-4.424-4.4245-10.431-6.9125-16.6875-6.9125zm15.27 11.105s9.715 12.5 0 22.21m4.86-39.735v6.245m-3.47-3.12h6.94m.66 6.535v3.69m-2.05-1.845h4.1m-32.62 21.86v3.69m-2.05-1.845h4.095m-9.935-7.71v5.39m-2.99-2.695h5.985" fill="#eae4dd" stroke="#22267a" stroke-width="2"/><path d="M211.765 54.759609v3.335m-1.81-1.67h3.62M197.86 68.034609v3.685m-2.05-1.845h4.1M199.895 56.909609v3.69m-2.045-1.845h4.095" fill="none" stroke="#22267a" stroke-width="2"/><path d="M321.24 10.25h106.35c1.0805 0 2.1175.4295 2.8815 1.1935.764.764 1.1935 1.801 1.1935 2.8815v67.85c0 1.0805-.4295 2.1175-1.1935 2.8815-.764.764-1.801 1.1935-2.8815 1.1935H321.24c-1.0805 0-2.1175-.4295-2.8815-1.1935-.764-.764-1.1935-1.801-1.1935-2.8815v-67.85c0-1.0805.4295-2.1175 1.1935-2.8815.764-.764 1.801-1.1935 2.8815-1.1935m-14.555 76.7h136.63c.3805 0 .7455.1515 1.0145.4205.269.269.4205.634.4205 1.0145V90.5c0 .3805-.1515.7455-.4205 1.0145-.269.269-.634.4205-1.0145.4205h-136.63c-.3805 0-.7455-.1515-1.0145-.4205-.269-.269-.4205-.634-.4205-1.0145v-2.115c0-.3805.1515-.7455.4205-1.0145.269-.269.634-.4205 1.0145-.4205" fill="#eae4dd" stroke="#22267a" stroke-width="2"/><path d="M319.915 13.75h109v67.5h-109z" fill="#e7e0d3" stroke="#22267a" stroke-width="2"/><path d="M390.5 76.59525h-27.775c-3.05 0-5.55-1.635-5.55-3.63l3.535-10.09c0-2 2.5-3.63 5.55-3.63h20.705c3.05 0 5.545 1.635 5.545 3.63l3.535 10.09c0 1.995-2.495 3.63-5.545 3.63z" fill="#eae4dd" stroke="#22267a" stroke-width="2"/><path d="M376.61 21.76525c-4.993-.016-9.865 1.5535-13.91 4.481-4.0455 2.927-7.059 7.064-8.605 11.812-1.546 4.748-1.546 9.866 0 14.614 1.546 4.748 4.5595 8.885 8.605 11.812 4.045 2.9275 8.917 4.497 13.91 4.481 6.2565 0 12.2635-2.488 16.6875-6.9125 4.4245-4.424 6.9125-10.431 6.9125-16.6875 0-6.2565-2.488-12.2635-6.9125-16.6875-4.424-4.4245-10.431-6.9125-16.6875-6.9125zm15.27 11.105s9.715 12.5 0 22.21m4.86-39.735v6.245m-3.47-3.12h6.94m.66 6.535v3.69m-2.05-1.845h4.1m-32.62 21.86v3.69m-2.05-1.845h4.095m-9.935-7.71v5.39m-2.99-2.695h5.985" fill="#eae4dd" stroke="#22267a" stroke-width="2"/><path d="M361.765 51.38025v3.335m-1.81-1.67h3.62M347.86 64.65525v3.685m-2.05-1.845h4.1M349.895 53.53025v3.69m-2.045-1.845h4.095" fill="none" stroke="#22267a" stroke-width="2"/><g><path d="M471.24 10.25h106.35c1.0805 0 2.1175.4295 2.8815 1.1935.764.764 1.1935 1.801 1.1935 2.8815v67.85c0 1.0805-.4295 2.1175-1.1935 2.8815-.764.764-1.801 1.1935-2.8815 1.1935H471.24c-1.0805 0-2.1175-.4295-2.8815-1.1935-.764-.764-1.1935-1.801-1.1935-2.8815v-67.85c0-1.0805.4295-2.1175 1.1935-2.8815.764-.764 1.801-1.1935 2.8815-1.1935m-14.555 76.7h136.63c.3805 0 .7455.1515 1.0145.4205.269.269.4205.634.4205 1.0145V90.5c0 .3805-.1515.7455-.4205 1.0145-.269.269-.634.4205-1.0145.4205h-136.63c-.3805 0-.7455-.1515-1.0145-.4205-.269-.269-.4205-.634-.4205-1.0145v-2.115c0-.3805.1515-.7455.4205-1.0145.269-.269.634-.4205 1.0145-.4205" fill="#eae4dd" stroke="#22267a" stroke-width="2"/><path d="M469.915 13.75h109v67.5h-109z" fill="#e2d9c2" stroke="#22267a" stroke-width="2"/><path d="M540.5 73.741598h-27.775c-3.05 0-5.55-1.635-5.55-3.63l3.535-10.09c0-2 2.5-3.63 5.55-3.63h20.705c3.05 0 5.545 1.635 5.545 3.63l3.535 10.09c0 1.995-2.495 3.63-5.545 3.63z" fill="#eae4dd" stroke="#22267a" stroke-width="2"/><path d="M526.61 18.911598c-4.993-.016-9.865 1.5535-13.91 4.481-4.0455 2.927-7.059 7.064-8.605 11.812-1.546 4.748-1.546 9.866 0 14.614 1.546 4.748 4.5595 8.885 8.605 11.812 4.045 2.9275 8.917 4.497 13.91 4.481 6.2565 0 12.2635-2.488 16.6875-6.9125 4.4245-4.424 6.9125-10.431 6.9125-16.6875 0-6.2565-2.488-12.2635-6.9125-16.6875-4.424-4.4245-10.431-6.9125-16.6875-6.9125zm15.27 11.105s9.715 12.5 0 22.21m4.86-39.735v6.245m-3.47-3.12h6.94m.66 6.535v3.69m-2.05-1.845h4.1m-32.62 21.86v3.69m-2.05-1.845h4.095m-9.935-7.71v5.39m-2.99-2.695h5.985" fill="#eae4dd" stroke="#22267a" stroke-width="2"/><path d="M511.765 48.526598v3.335m-1.81-1.67h3.62M497.86 61.801598v3.685m-2.05-1.845h4.1M499.895 50.676598v3.69m-2.045-1.845h4.095" fill="none" stroke="#22267a" stroke-width="2"/></g><g><path d="M621.24 10.25h106.35c1.0805 0 2.1175.4295 2.8815 1.1935.764.764 1.1935 1.801 1.1935 2.8815v67.85c0 1.0805-.4295 2.1175-1.1935 2.8815-.764.764-1.801 1.1935-2.8815 1.1935H621.24c-1.0805 0-2.1175-.4295-2.8815-1.1935-.764-.764-1.1935-1.801-1.1935-2.8815v-67.85c0-1.0805.4295-2.1175 1.1935-2.8815.764-.764 1.801-1.1935 2.8815-1.1935m-14.555 76.7h136.63c.3805 0 .7455.1515 1.0145.4205.269.269.4205.634.4205 1.0145V90.5c0 .3805-.1515.7455-.4205 1.0145-.269.269-.634.4205-1.0145.4205h-136.63c-.3805 0-.7455-.1515-1.0145-.4205-.269-.269-.4205-.634-.4205-1.0145v-2.115c0-.3805.1515-.7455.4205-1.0145.269-.269.634-.4205 1.0145-.4205" fill="#eae4dd" stroke="#22267a" stroke-width="2"/><path d="M619.915 13.75h109v67.5h-109z" fill="#dacda6" stroke="#22267a" stroke-width="2"/><path d="M690.5 72.446h-27.775c-3.05 0-5.55-1.635-5.55-3.63l3.535-10.09c0-2 2.5-3.63 5.55-3.63h20.705c3.05 0 5.545 1.635 5.545 3.63l3.535 10.09c0 1.995-2.495 3.63-5.545 3.63z" fill="#eae4dd" stroke="#22267a" stroke-width="2"/><path d="M676.61 17.616c-4.993-.016-9.865 1.5535-13.91 4.481-4.0455 2.927-7.059 7.064-8.605 11.812-1.546 4.748-1.546 9.866 0 14.614 1.546 4.748 4.5595 8.885 8.605 11.812 4.045 2.9275 8.917 4.497 13.91 4.481 6.2565 0 12.2635-2.488 16.6875-6.9125 4.4245-4.424 6.9125-10.431 6.9125-16.6875 0-6.2565-2.488-12.2635-6.9125-16.6875-4.424-4.4245-10.431-6.9125-16.6875-6.9125zm15.27 11.105s9.715 12.5 0 22.21m4.86-39.735v6.245m-3.47-3.12h6.94m.66 6.535v3.69m-2.05-1.845h4.1m-32.62 21.86v3.69m-2.05-1.845h4.095m-9.935-7.71v5.39m-2.99-2.695h5.985" fill="#eae4dd" stroke="#22267a" stroke-width="2"/><path d="M661.765 47.231v3.335m-1.81-1.67h3.62M647.86 60.506v3.685m-2.05-1.845h4.1M649.895 49.381v3.69m-2.045-1.845h4.095" fill="none" stroke="#22267a" stroke-width="2"/></g><g><path d="M771.24 10.25h106.35c1.0805 0 2.1175.4295 2.8815 1.1935.764.764 1.1935 1.801 1.1935 2.8815v67.85c0 1.0805-.4295 2.1175-1.1935 2.8815-.764.764-1.801 1.1935-2.8815 1.1935H771.24c-1.0805 0-2.1175-.4295-2.8815-1.1935-.764-.764-1.1935-1.801-1.1935-2.8815v-67.85c0-1.0805.4295-2.1175 1.1935-2.8815.764-.764 1.801-1.1935 2.8815-1.1935m-14.555 76.7h136.63c.3805 0 .7455.1515 1.0145.4205.269.269.4205.634.4205 1.0145V90.5c0 .3805-.1515.7455-.4205 1.0145-.269.269-.634.4205-1.0145.4205h-136.63c-.3805 0-.7455-.1515-1.0145-.4205-.269-.269-.4205-.634-.4205-1.0145v-2.115c0-.3805.1515-.7455.4205-1.0145.269-.269.634-.4205 1.0145-.4205" fill="#eae4dd" stroke="#22267a" stroke-width="2"/><path d="M769.915 13.75h109v67.5h-109z" fill="#d0bf82" stroke="#22267a" stroke-width="2"/><path d="M840.5 71.89179h-27.775c-3.05 0-5.55-1.635-5.55-3.63l3.535-10.09c0-2 2.5-3.63 5.55-3.63h20.705c3.05 0 5.545 1.635 5.545 3.63l3.535 10.09c0 1.995-2.495 3.63-5.545 3.63z" fill="#eae4dd" stroke="#22267a" stroke-width="2"/><path d="M826.61 17.06179c-4.993-.016-9.865 1.5535-13.91 4.481-4.0455 2.927-7.059 7.064-8.605 11.812-1.546 4.748-1.546 9.866 0 14.614 1.546 4.748 4.5595 8.885 8.605 11.812 4.045 2.9275 8.917 4.497 13.91 4.481 6.2565 0 12.2635-2.488 16.6875-6.9125 4.4245-4.424 6.9125-10.431 6.9125-16.6875 0-6.2565-2.488-12.2635-6.9125-16.6875-4.424-4.4245-10.431-6.9125-16.6875-6.9125zm15.27 11.105s9.715 12.5 0 22.21m4.86-39.735v6.245m-3.47-3.12h6.94m.66 6.535v3.69m-2.05-1.845h4.1m-32.62 21.86v3.69m-2.05-1.845h4.095m-9.935-7.71v5.39m-2.99-2.695h5.985" fill="#eae4dd" stroke="#22267a" stroke-width="2"/><path d="M811.765 46.67679v3.335m-1.81-1.67h3.62M797.86 59.95179v3.685m-2.05-1.845h4.1M799.895 48.82679v3.69m-2.045-1.845h4.095" fill="none" stroke="#22267a" stroke-width="2"/></g><g><path d="M921.24 10.25h106.35c1.0805 0 2.1175.4295 2.8815 1.1935.764.764 1.1935 1.801 1.1935 2.8815v67.85c0 1.0805-.4295 2.1175-1.1935 2.8815-.764.764-1.801 1.1935-2.8815 1.1935H921.24c-1.0805 0-2.1175-.4295-2.8815-1.1935-.764-.764-1.1935-1.801-1.1935-2.8815v-67.85c0-1.0805.4295-2.1175 1.1935-2.8815.764-.764 1.801-1.1935 2.8815-1.1935m-14.555 76.7h136.63c.3805 0 .7455.1515 1.0145.4205.269.269.4205.634.4205 1.0145V90.5c0 .3805-.1515.7455-.4205 1.0145-.269.269-.634.4205-1.0145.4205h-136.63c-.3805 0-.7455-.1515-1.0145-.4205-.269-.269-.4205-.634-.4205-1.0145v-2.115c0-.3805.1515-.7455.4205-1.0145.269-.269.634-.4205 1.0145-.4205" fill="#eae4dd" stroke="#22267a" stroke-width="2"/><path d="M919.915 13.75h109v67.5h-109z" fill="#c7b264" stroke="#22267a" stroke-width="2"/><path d="M990.5 71.750188h-27.775c-3.05 0-5.55-1.635-5.55-3.63l3.535-10.09c0-2 2.5-3.63 5.55-3.63h20.705c3.05 0 5.545 1.635 5.545 3.63l3.535 10.09c0 1.995-2.495 3.63-5.545 3.63z" fill="#eae4dd" stroke="#22267a" stroke-width="2"/><path d="M976.61 16.920188c-4.993-.016-9.865 1.5535-13.91 4.481-4.0455 2.927-7.059 7.064-8.605 11.812-1.546 4.748-1.546 9.866 0 14.614 1.546 4.748 4.5595 8.885 8.605 11.812 4.045 2.9275 8.917 4.497 13.91 4.481 6.2565 0 12.2635-2.488 16.6875-6.9125 4.4245-4.424 6.9125-10.431 6.9125-16.6875 0-6.2565-2.488-12.2635-6.9125-16.6875-4.424-4.4245-10.431-6.9125-16.6875-6.9125zm15.27 11.105s9.715 12.5 0 22.21m4.86-39.735v6.245m-3.47-3.12h6.94m.66 6.535v3.69m-2.05-1.845h4.1m-32.62 21.86v3.69m-2.05-1.845h4.095m-9.935-7.71v5.39m-2.99-2.695h5.985" fill="#eae4dd" stroke="#22267a" stroke-width="2"/><path d="M961.765 46.535188v3.335m-1.81-1.67h3.62M947.86 59.810188v3.685m-2.05-1.845h4.1M949.895 48.685188v3.69m-2.045-1.845h4.095" fill="none" stroke="#22267a" stroke-width="2"/></g><g><path d="M1071.24 10.25h106.35c1.0805 0 2.1175.4295 2.8815 1.1935.764.764 1.1935 1.801 1.1935 2.8815v67.85c0 1.0805-.4295 2.1175-1.1935 2.8815-.764.764-1.801 1.1935-2.8815 1.1935h-106.35c-1.0805 0-2.1175-.4295-2.8815-1.1935-.764-.764-1.1935-1.801-1.1935-2.8815v-67.85c0-1.0805.4295-2.1175 1.1935-2.8815.764-.764 1.801-1.1935 2.8815-1.1935m-14.555 76.7h136.63c.3805 0 .7455.1515 1.0145.4205.269.269.4205.634.4205 1.0145V90.5c0 .3805-.1515.7455-.4205 1.0145-.269.269-.634.4205-1.0145.4205h-136.63c-.3805 0-.7455-.1515-1.0145-.4205-.269-.269-.4205-.634-.4205-1.0145v-2.115c0-.3805.1515-.7455.4205-1.0145.269-.269.634-.4205 1.0145-.4205" fill="#eae4dd" stroke="#22267a" stroke-width="2"/><path d="M1069.915 13.75h109v67.5h-109z" fill="#c0a84c" stroke="#22267a" stroke-width="2"/><path d="M1140.5 72.127866h-27.775c-3.05 0-5.55-1.635-5.55-3.63l3.535-10.09c0-2 2.5-3.63 5.55-3.63h20.705c3.05 0 5.545 1.635 5.545 3.63l3.535 10.09c0 1.995-2.495 3.63-5.545 3.63z" fill="#eae4dd" stroke="#22267a" stroke-width="2"/><path d="M1126.61 17.297866c-4.993-.016-9.865 1.5535-13.91 4.481-4.0455 2.927-7.059 7.064-8.605 11.812-1.546 4.748-1.546 9.866 0 14.614 1.546 4.748 4.5595 8.885 8.605 11.812 4.045 2.9275 8.917 4.497 13.91 4.481 6.2565 0 12.2635-2.488 16.6875-6.9125 4.4245-4.424 6.9125-10.431 6.9125-16.6875 0-6.2565-2.488-12.2635-6.9125-16.6875-4.424-4.4245-10.431-6.9125-16.6875-6.9125zm15.27 11.105s9.715 12.5 0 22.21m4.86-39.735v6.245m-3.47-3.12h6.94m.66 6.535v3.69m-2.05-1.845h4.1m-32.62 21.86v3.69m-2.05-1.845h4.095m-9.935-7.71v5.39m-2.99-2.695h5.985" fill="#eae4dd" stroke="#22267a" stroke-width="2"/><path d="M1111.765 46.912866v3.335m-1.81-1.67h3.62M1097.86 60.187866v3.685m-2.05-1.845h4.1M1099.895 49.062866v3.69m-2.045-1.845h4.095" fill="none" stroke="#22267a" stroke-width="2"/></g><g><path d="M1221.24 10.25h106.35c1.0805 0 2.1175.4295 2.8815 1.1935.764.764 1.1935 1.801 1.1935 2.8815v67.85c0 1.0805-.4295 2.1175-1.1935 2.8815-.764.764-1.801 1.1935-2.8815 1.1935h-106.35c-1.0805 0-2.1175-.4295-2.8815-1.1935-.764-.764-1.1935-1.801-1.1935-2.8815v-67.85c0-1.0805.4295-2.1175 1.1935-2.8815.764-.764 1.801-1.1935 2.8815-1.1935m-14.555 76.7h136.63c.3805 0 .7455.1515 1.0145.4205.269.269.4205.634.4205 1.0145V90.5c0 .3805-.1515.7455-.4205 1.0145-.269.269-.634.4205-1.0145.4205h-136.63c-.3805 0-.7455-.1515-1.0145-.4205-.269-.269-.4205-.634-.4205-1.0145v-2.115c0-.3805.1515-.7455.4205-1.0145.269-.269.634-.4205 1.0145-.4205" fill="#eae4dd" stroke="#22267a" stroke-width="2"/><path d="M1219.915 13.75h109v67.5h-109z" fill="#bca13c" stroke="#22267a" stroke-width="2"/><path d="M1290.5 73.162098h-27.775c-3.05 0-5.55-1.635-5.55-3.63l3.535-10.09c0-2 2.5-3.63 5.55-3.63h20.705c3.05 0 5.545 1.635 5.545 3.63l3.535 10.09c0 1.995-2.495 3.63-5.545 3.63z" fill="#eae4dd" stroke="#22267a" stroke-width="2"/><path d="M1276.61 18.332098c-4.993-.016-9.865 1.5535-13.91 4.481-4.0455 2.927-7.059 7.064-8.605 11.812-1.546 4.748-1.546 9.866 0 14.614 1.546 4.748 4.5595 8.885 8.605 11.812 4.045 2.9275 8.917 4.497 13.91 4.481 6.2565 0 12.2635-2.488 16.6875-6.9125 4.4245-4.424 6.9125-10.431 6.9125-16.6875 0-6.2565-2.488-12.2635-6.9125-16.6875-4.424-4.4245-10.431-6.9125-16.6875-6.9125zm15.27 11.105s9.715 12.5 0 22.21m4.86-39.735v6.245m-3.47-3.12h6.94m.66 6.535v3.69m-2.05-1.845h4.1m-32.62 21.86v3.69m-2.05-1.845h4.095m-9.935-7.71v5.39m-2.99-2.695h5.985" fill="#eae4dd" stroke="#22267a" stroke-width="2"/><path d="M1261.765 47.947098v3.335m-1.81-1.67h3.62M1247.86 61.222098v3.685m-2.05-1.845h4.1M1249.895 50.097098v3.69m-2.045-1.845h4.095" fill="none" stroke="#22267a" stroke-width="2"/></g><g><path d="M1371.24 10.25h106.35c1.0805 0 2.1175.4295 2.8815 1.1935.764.764 1.1935 1.801 1.1935 2.8815v67.85c0 1.0805-.4295 2.1175-1.1935 2.8815-.764.764-1.801 1.1935-2.8815 1.1935h-106.35c-1.0805 0-2.1175-.4295-2.8815-1.1935-.764-.764-1.1935-1.801-1.1935-2.8815v-67.85c0-1.0805.4295-2.1175 1.1935-2.8815.764-.764 1.801-1.1935 2.8815-1.1935m-14.555 76.7h136.63c.3805 0 .7455.1515 1.0145.4205.269.269.4205.634.4205 1.0145V90.5c0 .3805-.1515.7455-.4205 1.0145-.269.269-.634.4205-1.0145.4205h-136.63c-.3805 0-.7455-.1515-1.0145-.4205-.269-.269-.4205-.634-.4205-1.0145v-2.115c0-.3805.1515-.7455.4205-1.0145.269-.269.634-.4205 1.0145-.4205" fill="#eae4dd" stroke="#22267a" stroke-width="2"/><path d="M1369.915 13.75h109v67.5h-109z" fill="#b89c30" stroke="#22267a" stroke-width="2"/><path d="M1440.5 73.599015h-27.775c-3.05 0-5.55-1.635-5.55-3.63l3.535-10.09c0-2 2.5-3.63 5.55-3.63h20.705c3.05 0 5.545 1.635 5.545 3.63l3.535 10.09c0 1.995-2.495 3.63-5.545 3.63z" fill="#eae4dd" stroke="#22267a" stroke-width="2"/><path d="M1426.61 18.769015c-4.993-.016-9.865 1.5535-13.91 4.481-4.0455 2.927-7.059 7.064-8.605 11.812-1.546 4.748-1.546 9.866 0 14.614 1.546 4.748 4.5595 8.885 8.605 11.812 4.045 2.9275 8.917 4.497 13.91 4.481 6.2565 0 12.2635-2.488 16.6875-6.9125 4.4245-4.424 6.9125-10.431 6.9125-16.6875 0-6.2565-2.488-12.2635-6.9125-16.6875-4.424-4.4245-10.431-6.9125-16.6875-6.9125zm15.27 11.105s9.715 12.5 0 22.21m4.86-39.735v6.245m-3.47-3.12h6.94m.66 6.535v3.69m-2.05-1.845h4.1m-32.62 21.86v3.69m-2.05-1.845h4.095m-9.935-7.71v5.39m-2.99-2.695h5.985" fill="#eae4dd" stroke="#22267a" stroke-width="2"/><path d="M1411.765 48.384015v3.335m-1.81-1.67h3.62M1397.86 61.659015v3.685m-2.05-1.845h4.1M1399.895 50.534015v3.69m-2.045-1.845h4.095" fill="none" stroke="#22267a" stroke-width="2"/></g><g><path d="M1521.24 10.25h106.35c1.0805 0 2.1175.4295 2.8815 1.1935.764.764 1.1935 1.801 1.1935 2.8815v67.85c0 1.0805-.4295 2.1175-1.1935 2.8815-.764.764-1.801 1.1935-2.8815 1.1935h-106.35c-1.0805 0-2.1175-.4295-2.8815-1.1935-.764-.764-1.1935-1.801-1.1935-2.8815v-67.85c0-1.0805.4295-2.1175 1.1935-2.8815.764-.764 1.801-1.1935 2.8815-1.1935m-14.555 76.7h136.63c.3805 0 .7455.1515 1.0145.4205.269.269.4205.634.4205 1.0145V90.5c0 .3805-.1515.7455-.4205 1.0145-.269.269-.634.4205-1.0145.4205h-136.63c-.3805 0-.7455-.1515-1.0145-.4205-.269-.269-.4205-.634-.4205-1.0145v-2.115c0-.3805.1515-.7455.4205-1.0145.269-.269.634-.4205 1.0145-.4205" fill="#eae4dd" stroke="#22267a" stroke-width="2"/><path d="M1519.915 13.75h109v67.5h-109z" fill="#b69827" stroke="#22267a" stroke-width="2"/><path d="M1590.5 73.737635h-27.775c-3.05 0-5.55-1.635-5.55-3.63l3.535-10.09c0-2 2.5-3.63 5.55-3.63h20.705c3.05 0 5.545 1.635 5.545 3.63l3.535 10.09c0 1.995-2.495 3.63-5.545 3.63z" fill="#eae4dd" stroke="#22267a" stroke-width="2"/><path d="M1576.61 18.907635c-4.993-.016-9.865 1.5535-13.91 4.481-4.0455 2.927-7.059 7.064-8.605 11.812-1.546 4.748-1.546 9.866 0 14.614 1.546 4.748 4.5595 8.885 8.605 11.812 4.045 2.9275 8.917 4.497 13.91 4.481 6.2565 0 12.2635-2.488 16.6875-6.9125 4.4245-4.424 6.9125-10.431 6.9125-16.6875 0-6.2565-2.488-12.2635-6.9125-16.6875-4.424-4.4245-10.431-6.9125-16.6875-6.9125zm15.27 11.105s9.715 12.5 0 22.21m4.86-39.735v6.245m-3.47-3.12h6.94m.66 6.535v3.69m-2.05-1.845h4.1m-32.62 21.86v3.69m-2.05-1.845h4.095m-9.935-7.71v5.39m-2.99-2.695h5.985" fill="#eae4dd" stroke="#22267a" stroke-width="2"/><path d="M1561.765 48.522635v3.335m-1.81-1.67h3.62M1547.86 61.797635v3.685m-2.05-1.845h4.1M1549.895 50.672635v3.69m-2.045-1.845h4.095" fill="none" stroke="#22267a" stroke-width="2"/></g><g><path d="M1671.24 10.25h106.35c1.0805 0 2.1175.4295 2.8815 1.1935.764.764 1.1935 1.801 1.1935 2.8815v67.85c0 1.0805-.4295 2.1175-1.1935 2.8815-.764.764-1.801 1.1935-2.8815 1.1935h-106.35c-1.0805 0-2.1175-.4295-2.8815-1.1935-.764-.764-1.1935-1.801-1.1935-2.8815v-67.85c0-1.0805.4295-2.1175 1.1935-2.8815.764-.764 1.801-1.1935 2.8815-1.1935m-14.555 76.7h136.63c.3805 0 .7455.1515 1.0145.4205.269.269.4205.634.4205 1.0145V90.5c0 .3805-.1515.7455-.4205 1.0145-.269.269-.634.4205-1.0145.4205h-136.63c-.3805 0-.7455-.1515-1.0145-.4205-.269-.269-.4205-.634-.4205-1.0145v-2.115c0-.3805.1515-.7455.4205-1.0145.269-.269.634-.4205 1.0145-.4205" fill="#eae4dd" stroke="#22267a" stroke-width="2"/><path d="M1669.915 13.75h109v67.5h-109z" fill="#b49620" stroke="#22267a" stroke-width="2"/><path d="M1740.5 73.676201h-27.775c-3.05 0-5.55-1.635-5.55-3.63l3.535-10.09c0-2 2.5-3.63 5.55-3.63h20.705c3.05 0 5.545 1.635 5.545 3.63l3.535 10.09c0 1.995-2.495 3.63-5.545 3.63z" fill="#eae4dd" stroke="#22267a" stroke-width="2"/><path d="M1726.61 18.846201c-4.993-.016-9.865 1.5535-13.91 4.481-4.0455 2.927-7.059 7.064-8.605 11.812-1.546 4.748-1.546 9.866 0 14.614 1.546 4.748 4.5595 8.885 8.605 11.812 4.045 2.9275 8.917 4.497 13.91 4.481 6.2565 0 12.2635-2.488 16.6875-6.9125 4.4245-4.424 6.9125-10.431 6.9125-16.6875 0-6.2565-2.488-12.2635-6.9125-16.6875-4.424-4.4245-10.431-6.9125-16.6875-6.9125zm15.27 11.105s9.715 12.5 0 22.21m4.86-39.735v6.245m-3.47-3.12h6.94m.66 6.535v3.69m-2.05-1.845h4.1m-32.62 21.86v3.69m-2.05-1.845h4.095m-9.935-7.71v5.39m-2.99-2.695h5.985" fill="#eae4dd" stroke="#22267a" stroke-width="2"/><path d="M1711.765 48.461201v3.335m-1.81-1.67h3.62M1697.86 61.736201v3.685m-2.05-1.845h4.1M1699.895 50.611201v3.69m-2.045-1.845h4.095" fill="none" stroke="#22267a" stroke-width="2"/></g><g><path d="M1821.24 10.25h106.35c1.0805 0 2.1175.4295 2.8815 1.1935.764.764 1.1935 1.801 1.1935 2.8815v67.85c0 1.0805-.4295 2.1175-1.1935 2.8815-.764.764-1.801 1.1935-2.8815 1.1935h-106.35c-1.0805 0-2.1175-.4295-2.8815-1.1935-.764-.764-1.1935-1.801-1.1935-2.8815v-67.85c0-1.0805.4295-2.1175 1.1935-2.8815.764-.764 1.801-1.1935 2.8815-1.1935m-14.555 76.7h136.63c.3805 0 .7455.1515 1.0145.4205.269.269.4205.634.4205 1.0145V90.5c0 .3805-.1515.7455-.4205 1.0145-.269.269-.634.4205-1.0145.4205h-136.63c-.3805 0-.7455-.1515-1.0145-.4205-.269-.269-.4205-.634-.4205-1.0145v-2.115c0-.3805.1515-.7455.4205-1.0145.269-.269.634-.4205 1.0145-.4205" fill="#eae4dd" stroke="#22267a" stroke-width="2"/><path d="M1819.915 13.75h109v67.5h-109z" fill="#b2941c" stroke="#22267a" stroke-width="2"/><path d="M1890.5 72.812451h-27.775c-3.05 0-5.55-1.635-5.55-3.63l3.535-10.09c0-2 2.5-3.63 5.55-3.63h20.705c3.05 0 5.545 1.635 5.545 3.63l3.535 10.09c0 1.995-2.495 3.63-5.545 3.63z" fill="#eae4dd" stroke="#22267a" stroke-width="2"/><path d="M1876.61 17.982451c-4.993-.016-9.865 1.5535-13.91 4.481-4.0455 2.927-7.059 7.064-8.605 11.812-1.546 4.748-1.546 9.866 0 14.614 1.546 4.748 4.5595 8.885 8.605 11.812 4.045 2.9275 8.917 4.497 13.91 4.481 6.2565 0 12.2635-2.488 16.6875-6.9125 4.4245-4.424 6.9125-10.431 6.9125-16.6875 0-6.2565-2.488-12.2635-6.9125-16.6875-4.424-4.4245-10.431-6.9125-16.6875-6.9125zm15.27 11.105s9.715 12.5 0 22.21m4.86-39.735v6.245m-3.47-3.12h6.94m.66 6.535v3.69m-2.05-1.845h4.1m-32.62 21.86v3.69m-2.05-1.845h4.095m-9.935-7.71v5.39m-2.99-2.695h5.985" fill="#eae4dd" stroke="#22267a" stroke-width="2"/><path d="M1861.765 47.597451v3.335m-1.81-1.67h3.62M1847.86 60.872451v3.685m-2.05-1.845h4.1M1849.895 49.747451v3.69m-2.045-1.845h4.095" fill="none" stroke="#22267a" stroke-width="2"/></g><g><path d="M1971.24 10.25h106.35c1.0805 0 2.1175.4295 2.8815 1.1935.764.764 1.1935 1.801 1.1935 2.8815v67.85c0 1.0805-.4295 2.1175-1.1935 2.8815-.764.764-1.801 1.1935-2.8815 1.1935h-106.35c-1.0805 0-2.1175-.4295-2.8815-1.1935-.764-.764-1.1935-1.801-1.1935-2.8815v-67.85c0-1.0805.4295-2.1175 1.1935-2.8815.764-.764 1.801-1.1935 2.8815-1.1935m-14.555 76.7h136.63c.3805 0 .7455.1515 1.0145.4205.269.269.4205.634.4205 1.0145V90.5c0 .3805-.1515.7455-.4205 1.0145-.269.269-.634.4205-1.0145.4205h-136.63c-.3805 0-.7455-.1515-1.0145-.4205-.269-.269-.4205-.634-.4205-1.0145v-2.115c0-.3805.1515-.7455.4205-1.0145.269-.269.634-.4205 1.0145-.4205" fill="#eae4dd" stroke="#22267a" stroke-width="2"/><path d="M1969.915 13.75h109v67.5h-109z" fill="#b29319" stroke="#22267a" stroke-width="2"/><path d="M2040.5 72.070073h-27.775c-3.05 0-5.55-1.635-5.55-3.63l3.535-10.09c0-2 2.5-3.63 5.55-3.63h20.705c3.05 0 5.545 1.635 5.545 3.63l3.535 10.09c0 1.995-2.495 3.63-5.545 3.63z" fill="#eae4dd" stroke="#22267a" stroke-width="2"/><path d="M2026.61 17.240073c-4.993-.016-9.865 1.5535-13.91 4.481-4.0455 2.927-7.059 7.064-8.605 11.812-1.546 4.748-1.546 9.866 0 14.614 1.546 4.748 4.5595 8.885 8.605 11.812 4.045 2.9275 8.917 4.497 13.91 4.481 6.2565 0 12.2635-2.488 16.6875-6.9125 4.4245-4.424 6.9125-10.431 6.9125-16.6875 0-6.2565-2.488-12.2635-6.9125-16.6875-4.424-4.4245-10.431-6.9125-16.6875-6.9125zm15.27 11.105s9.715 12.5 0 22.21m4.86-39.735v6.245m-3.47-3.12h6.94m.66 6.535v3.69m-2.05-1.845h4.1m-32.62 21.86v3.69m-2.05-1.845h4.095m-9.935-7.71v5.39m-2.99-2.695h5.985" fill="#eae4dd" stroke="#22267a" stroke-width="2"/><path d="M2011.765 46.855073v3.335m-1.81-1.67h3.62M1997.86 60.130073v3.685m-2.05-1.845h4.1M1999.895 49.005073v3.69m-2.045-1.845h4.095" fill="none" stroke="#22267a" stroke-width="2"/></g><g><path d="M2121.24 10.25h106.35c1.0805 0 2.1175.4295 2.8815 1.1935.764.764 1.1935 1.801 1.1935 2.8815v67.85c0 1.0805-.4295 2.1175-1.1935 2.8815-.764.764-1.801 1.1935-2.8815 1.1935h-106.35c-1.0805 0-2.1175-.4295-2.8815-1.1935-.764-.764-1.1935-1.801-1.1935-2.8815v-67.85c0-1.0805.4295-2.1175 1.1935-2.8815.764-.764 1.801-1.1935 2.8815-1.1935m-14.555 76.7h136.63c.3805 0 .7455.1515 1.0145.4205.269.269.4205.634.4205 1.0145V90.5c0 .3805-.1515.7455-.4205 1.0145-.269.269-.634.4205-1.0145.4205h-136.63c-.3805 0-.7455-.1515-1.0145-.4205-.269-.269-.4205-.634-.4205-1.0145v-2.115c0-.3805.1515-.7455.4205-1.0145.269-.269.634-.4205 1.0145-.4205" fill="#eae4dd" stroke="#22267a" stroke-width="2"/><path d="M2119.915 13.75h109v67.5h-109z" fill="#b19217" stroke="#22267a" stroke-width="2"/><path d="M2190.5 71.811503h-27.775c-3.05 0-5.55-1.635-5.55-3.63l3.535-10.09c0-2 2.5-3.63 5.55-3.63h20.705c3.05 0 5.545 1.635 5.545 3.63l3.535 10.09c0 1.995-2.495 3.63-5.545 3.63z" fill="#eae4dd" stroke="#22267a" stroke-width="2"/><path d="M2176.61 16.981503c-4.993-.016-9.865 1.5535-13.91 4.481-4.0455 2.927-7.059 7.064-8.605 11.812-1.546 4.748-1.546 9.866 0 14.614 1.546 4.748 4.5595 8.885 8.605 11.812 4.045 2.9275 8.917 4.497 13.91 4.481 6.2565 0 12.2635-2.488 16.6875-6.9125 4.4245-4.424 6.9125-10.431 6.9125-16.6875 0-6.2565-2.488-12.2635-6.9125-16.6875-4.424-4.4245-10.431-6.9125-16.6875-6.9125zm15.27 11.105s9.715 12.5 0 22.21m4.86-39.735v6.245m-3.47-3.12h6.94m.66 6.535v3.69m-2.05-1.845h4.1m-32.62 21.86v3.69m-2.05-1.845h4.095m-9.935-7.71v5.39m-2.99-2.695h5.985" fill="#eae4dd" stroke="#22267a" stroke-width="2"/><path d="M2161.765 46.596503v3.335m-1.81-1.67h3.62M2147.86 59.871503v3.685m-2.05-1.845h4.1M2149.895 48.746503v3.69m-2.045-1.845h4.095" fill="none" stroke="#22267a" stroke-width="2"/></g><g><path d="M2271.24 10.25h106.35c1.0805 0 2.1175.4295 2.8815 1.1935.764.764 1.1935 1.801 1.1935 2.8815v67.85c0 1.0805-.4295 2.1175-1.1935 2.8815-.764.764-1.801 1.1935-2.8815 1.1935h-106.35c-1.0805 0-2.1175-.4295-2.8815-1.1935-.764-.764-1.1935-1.801-1.1935-2.8815v-67.85c0-1.0805.4295-2.1175 1.1935-2.8815.764-.764 1.801-1.1935 2.8815-1.1935m-14.555 76.7h136.63c.3805 0 .7455.1515 1.0145.4205.269.269.4205.634.4205 1.0145V90.5c0 .3805-.1515.7455-.4205 1.0145-.269.269-.634.4205-1.0145.4205h-136.63c-.3805 0-.7455-.1515-1.0145-.4205-.269-.269-.4205-.634-.4205-1.0145v-2.115c0-.3805.1515-.7455.4205-1.0145.269-.269.634-.4205 1.0145-.4205" fill="#eae4dd" stroke="#22267a" stroke-width="2"/><path d="M2269.915 13.75h109v67.5h-109z" fill="#b19217" stroke="#22267a" stroke-width="2"/><path d="M2340.5 71.75h-27.775c-3.05 0-5.55-1.635-5.55-3.63l3.535-10.09c0-2 2.5-3.63 5.55-3.63h20.705c3.05 0 5.545 1.635 5.545 3.63l3.535 10.09c0 1.995-2.495 3.63-5.545 3.63z" fill="#eae4dd" stroke="#22267a" stroke-width="2"/><path d="M2326.61 16.92c-4.993-.016-9.865 1.5535-13.91 4.481-4.0455 2.927-7.059 7.064-8.605 11.812-1.546 4.748-1.546 9.866 0 14.614 1.546 4.748 4.5595 8.885 8.605 11.812 4.045 2.9275 8.917 4.497 13.91 4.481 6.2565 0 12.2635-2.488 16.6875-6.9125 4.4245-4.424 6.9125-10.431 6.9125-16.6875 0-6.2565-2.488-12.2635-6.9125-16.6875-4.424-4.4245-10.431-6.9125-16.6875-6.9125zm15.27 11.105s9.715 12.5 0 22.21m4.86-39.735v6.245m-3.47-3.12h6.94m.66 6.535v3.69m-2.05-1.845h4.1m-32.62 21.86v3.69m-2.05-1.845h4.095M2312.41 38v5.39m-2.99-2.695h5.985" fill="#eae4dd" stroke="#22267a" stroke-width="2"/><path d="M2311.765 46.535v3.335m-1.81-1.67h3.62M2297.86 59.81v3.685m-2.05-1.845h4.1M2299.895 48.685v3.69m-2.045-1.845h4.095" fill="none" stroke="#22267a" stroke-width="2"/></g></svg>