<svg xmlns="http://www.w3.org/2000/svg" viewBox="0 0 235.96 139"><defs><style>.cls-1{fill:none;}.cls-1,.cls-2{stroke:#fff;stroke-width:2px;}.cls-2{fill:#fe3d54;}</style></defs><g id="Layer_2" data-name="Layer 2"><g id="Layer_1-2" data-name="Layer 1"><path class="cls-1" d="M27.82,1H206.18A6.83,6.83,0,0,1,213,7.83v113.8a6.83,6.83,0,0,1-6.84,6.83H27.82A6.83,6.83,0,0,1,21,121.63V7.83A6.83,6.83,0,0,1,27.82,1M3.41,129.64H232.56A2.39,2.39,0,0,1,235,132v3.55a2.4,2.4,0,0,1-.7,1.7,2.43,2.43,0,0,1-1.7.71H3.41a2.41,2.41,0,0,1-1.7-.71,2.37,2.37,0,0,1-.71-1.7V132a2.41,2.41,0,0,1,2.41-2.4"/><path class="cls-1" d="M25.6,6.87H208.41V120.08H25.6Z"/><path class="cls-2" d="M144,112.27H97.39c-5.11,0-9.3-2.74-9.3-6.09L94,89.26c0-3.35,4.19-6.09,9.3-6.09h34.73c5.11,0,9.3,2.74,9.3,6.09l5.93,16.92C153.28,109.53,149.09,112.27,144,112.27Z"/><path class="cls-2" d="M120.68,20.31a39.59,39.59,0,1,0,28,11.6A39.66,39.66,0,0,0,120.68,20.31Zm25.61,18.63s16.3,21,0,37.25m8.15-66.64V20m-5.82-5.23h11.64m1.11,11v6.19m-3.44-3.1h6.88M110.1,65.5v6.19m-3.44-3.09h6.87M96.87,55.67v9m-5-4.52h10"/><path class="cls-1" d="M95.78,70v5.6m-3-2.81h6.07M72.46,92.25v6.18M69,95.33H75.9m0-21.74v6.19m-3.43-3.1h6.86"/></g></g></svg>