<svg viewBox="0 0 29 47.3" xmlns="http://www.w3.org/2000/svg">
                          <path d="M14.5 0C12.6 0 11 1.6 11 3.5v2.6l-.4-.2c-.5-.3-1-.4-1.6-.4-1.9 0-3.5 1.6-3.5 3.5v10.4l-.4-.3c-.8-.5-1.6-.8-2.5-.8-1.4 0-2.6 1.2-2.6 2.6v11.9c0 8 6.5 14.5 14.5 14.5S29 40.8 29 32.8V12.7c0-1.9-1.6-3.5-3.5-3.5-.6 0-1.1.1-1.6.4l-.4.2V7.2c0-1.9-1.6-3.5-3.5-3.5-.6 0-1.1.1-1.6.4l-.4.2v-.8C18 1.6 16.4 0 14.5 0zM20 5.2c1.1 0 2 .9 2 2v15.6c0 .4.3.7.7.7s.7-.3.7-.7V12.7c0-1.1.9-2 2-2s2 .9 2 2v19.9l.1.3c0 7.2-5.8 13-13 13s-13-5.8-13-13v-12c0-.6.5-1.1 1.1-1.1 1.6 0 2.9 1.3 2.9 2.9v6.8c0 .4.3.7.7.7s.8-.2.8-.7V9c0-.5.2-1 .6-1.4.3-.4.8-.6 1.4-.6 1.1 0 2 .9 2 2v13.8c0 .4.3.7.7.7.4 0 .7-.3.7-.7V3.5c0-1.1.9-2 2-2s2 .9 2 2v19.3c0 .4.3.7.7.7.4 0 .7-.3.7-.7V7.2c.2-1.1 1.1-2 2.2-2z"></path>
                          <path d="M5.3 36.6c.2.2 4.1 5.1 9.1 5.1 4.7 0 8.4-4.2 9.1-5 .3-.3.3-.7 0-1-.3-.4-4.2-5-9.1-5-5 0-9 4.9-9.1 5.1-.2 0-.2.5 0 .8zm1.8-.7c1.4-1.4 4.2-3.8 7.4-3.8s6 2.4 7.4 3.8l.1.1-.2.2c-1.4 1.4-4.2 3.8-7.4 3.8s-6-2.4-7.4-3.8l-.1-.2.2-.1z"></path>
                          <ellipse cx="14.5" cy="36" rx="1.9" ry="2.4"></ellipse>
                       </svg>