<svg xmlns="http://www.w3.org/2000/svg" viewBox="0 0 876 876"><defs><style>.cls-1,.cls-4{fill:#fff;}.cls-1{stroke:#2b0c7d;stroke-miterlimit:10;}.cls-2,.cls-3{fill:#2b0c7d;}.cls-2{stroke:#fff;}
  @-webkit-keyframes wavehello {
0%   { -webkit-transform:rotate(0deg) }
   50%   { -webkit-transform:rotate(0deg)  }
  60% { -webkit-transform:rotate(8deg) }
  80% { -webkit-transform:rotate(0deg) }
  100% { -webkit-transform:rotate(8deg) }
}

@keyframes wavehello {
   0%   { -webkit-transform:rotate(0deg) }
   50%   { -webkit-transform:rotate(0deg)  }
  60% { -webkit-transform:rotate(8deg) }
  80% { -webkit-transform:rotate(0deg) }
  100% { -webkit-transform:rotate(8deg) }
}
@-webkit-keyframes head {
0%   { -webkit-transform:rotate(0deg) }
  100% { -webkit-transform:rotate(8deg) }
}

@keyframes head {
   0%   { -webkit-transform:rotate(0deg) }
  100% { -webkit-transform:rotate(8deg) }
}
#armt{
    transform-box: fill-box;
  transform-origin: bottom left;
  animation-name: wavehello;
  animation-duration: 2s;
  animation-delay: 1s;
  animation-iteration-count: infinite;
  animation-timing-function: linear;
  animation-direction: alternate; 
}

#armb{
    transform-box: fill-box;
  transform-origin: bottom left;
  animation-name: wavehello;
  animation-duration: 2s;
  animation-delay: 1.5s;
  animation-iteration-count: infinite;
  animation-timing-function: linear;
  animation-direction: alternate; 
}

#head{
    transform-box: fill-box;
  transform-origin: bottom left;
  animation-name: head;
  animation-duration: 2s;
  animation-delay: 1.5s;
  animation-iteration-count: infinite;
  animation-timing-function: linear;
  animation-direction: alternate; 
}</style></defs><g id="Layer_2" data-name="Layer 2"><g id="Red_Riding_Hood" data-name="Red Riding Hood"><circle class="cls-1" cx="438" cy="438" r="437.5"/><path class="cls-2" d="M444.32,514c-7.9-27.34-13-45-30-54.74-2.17-1.24-17.59-9.78-35.52-5S352.1,474,345.45,485.19c-12.62,21.15-12.71,41.59-12.64,49.51.06,7.49.27,19,5.88,32.37,3,7.26,9.81,23.4,27.28,33.2,25.62,14.37,52.14,2.7,53.49,2.08,2.85-1.31,21.46-10.22,29.78-31C456,554.47,451.83,540,444.32,514Zm-16.53,11.86c-7.06,8.39-20.48,7.24-39.5,5.61-19.19-1.65-33.6-2.89-38.81-12.23C340.4,503,361,465.35,387.36,463.6c14.42-1,25.29,9.18,28.11,11.81C429.93,488.89,437.81,514,427.79,525.89Z"/><path class="cls-2" d="M555.61,227.57c-11.08,0-17.27.29-24.85,2.48-8.66,2.51-17.07,4.94-24.85,12.42-3.7,3.57-9.35,9-9.93,17.4-.14,2,0,10,5,14.9,2.48,2.49,3.35,1.75,5,5,2.49,5-1.13,13.56-5,17.4-2.49,2.48-2.6,3.5-2.49,5,.26,3.37,4.8,4.19,5,7.46.11,2.07-1.69,2.42-2.48,5-1.39,4.45,2.13,9.74,5,12.42,4.3,4.07,9.67,4.66,12.43,5,8.35.92,12.88-2.4,14.91,0s-1.76,6.2,0,9.94c1.62,3.44,6.66,4.12,14.9,5,27.52,2.82,29.31,1.2,29.82,0,1.62-3.82-6.79-9.75-5-12.43,1.11-1.63,4.85,0,9.94,0a31.82,31.82,0,0,0,17.39-5c12.42-7.46,7.45-12.43,18.63-36,7.33-15.47,7.24-15.45,9.94-24.85,3.31-11.5,7.61-24.71,0-34.78-1-1.35-3.86-5.12-7.45-5-4.78.2-5.6,4.67-12.42,9.94-5,3.89-12.92,6.5-19.88,5-7.64-1.68-7.94-7-19.88-12.43C567.4,230.44,560.58,227.57,555.61,227.57Z"/><path class="cls-3" d="M543.23,285.63a7.59,7.59,0,0,1-5.29-2.3c-2.24-2.11-2.68-4.18-3.3-7A32.55,32.55,0,0,0,530,264.57c-6.9-11-16.07-15.45-22.13-18.39-3.54-1.72-6.09-3-6.61-4.63a7.86,7.86,0,0,1,1-7.34c3.85-5.22,15.12-8.21,30.91-8.21a136.49,136.49,0,0,1,27.19,2.8c7.71,1.61,7.88,11.35,7.29,17C566,262.83,553.53,285.63,543.23,285.63Z"/><path class="cls-4" d="M533.26,225.5v1h0a136.21,136.21,0,0,1,27.08,2.79c7.32,1.53,7.46,11,6.9,16.46-1.75,16.83-13.93,39.38-24,39.38a7.12,7.12,0,0,1-4.94-2.16c-2.13-2-2.56-4-3.16-6.78a33,33,0,0,0-4.68-11.89c-7-11.13-16.22-15.61-22.33-18.57-3.3-1.6-5.9-2.86-6.35-4.33a7.3,7.3,0,0,1,1-6.89c3.76-5.09,14.88-8,30.51-8v-1m0,0c-19.49,0-36,4.71-32.44,16.19,1.55,5.05,17.9,5.77,28.79,23.14,6.18,9.85,3.22,14.35,8,18.87a8.06,8.06,0,0,0,5.63,2.43c16.48,0,36.63-53.78,17.31-57.82a136.66,136.66,0,0,0-27.29-2.81Z"/><path class="cls-2" d="M505.91,610.19c-6,8-19.23,28.3-17.39,54.66.43,6.1,1.28,18.21,7.46,27.34,28,41.39,141.27-14.88,236-17.4,6.21-.16,26-.46,29.82-9.94,2.79-7-4.34-16.32-14.91-29.81-13-16.56-18.87-18.53-27.33-29.82-13.92-18.56-12.16-32.12-17.39-39.75C691.55,550,646.28,550.7,505.91,610.19Z"/><path class="cls-2" d="M535.68,686.08c-6.65,10.83,2.5,19.06,5,44.72,3.46,36-6.21,54.67-13.66,67.09-4.91,8.19,40.12,2.62,39.75-2.49-1.52-21.08-3.44-19.42-3.72-34.78-.2-10.36,1.62-10.52,7.45-42.24,6.57-35.74,5.08-39.83,2.48-42.24C565.07,668.84,543.33,673.61,535.68,686.08Z"/><path class="cls-2" d="M565.49,783c0,7.45,3.51,17.75.5,24.85-2.6,6.11-12,13.31-16.19,12.42-3.54-.74-2.81-5.73-7.46-7.45-3.72-1.39-7.16,2.3-12.42,5-12.89,6.53-29.18,3.13-29.81,0-.5-2.49,9.1-3.22,19.87-12.43,11.81-10.09,10.19-17.7,19.88-22.36C547.93,779.1,565.49,775.08,565.49,783Z"/><path class="cls-2" d="M535.68,686.08c-6.65,10.83,2.5,19.06,5,44.72,3.46,36-6.21,54.67-13.66,67.09-4.91,8.19,40.12,2.62,39.75-2.49-1.52-21.08-3.44-19.42-3.72-34.78-.2-10.36,1.62-10.52,7.45-42.24,6.57-35.74,5.08-39.83,2.48-42.24"/><path class="cls-2" d="M500.11,817.77c-.5-2.49,9.1-3.22,19.87-12.43,11.81-10.09,10.19-17.7,19.88-22.36,8.07-3.88,25.63-7.9,25.63,0,0,7.45,3.51,17.75.5,24.85"/><path class="cls-2" d="M607,684.73c-6.65,10.83,2.5,19.06,5,44.72,3.46,36-6.22,54.67-13.67,67.09-4.91,8.19,40.12,2.62,39.75-2.49-1.52-21.09-3.44-19.42-3.72-34.78-.2-10.36,1.62-10.52,7.45-42.24,6.57-35.74,5.08-39.83,2.48-42.24C636.42,667.49,614.68,672.26,607,684.73Z"/><path class="cls-2" d="M636.84,781.63c0,7.45,3.51,17.75.5,24.85-2.6,6.11-12,13.31-16.19,12.42-3.54-.74-2.8-5.73-7.46-7.45-3.72-1.39-7.16,2.3-12.42,5-12.89,6.54-29.18,3.14-29.81,0-.5-2.48,9.1-3.21,19.87-12.42,11.81-10.09,10.19-17.7,19.88-22.36C619.28,777.75,636.84,773.73,636.84,781.63Z"/><path class="cls-2" d="M571.46,816.41c-.5-2.48,9.1-3.21,19.87-12.42,11.81-10.09,10.19-17.7,19.88-22.36,8.07-3.88,25.63-7.9,25.63,0,0,7.45,3.51,17.75.5,24.85"/><path class="cls-2" d="M509.33,395.13c-5.59-.59-8.71,6.07-37.19,37.84-5.52,6.17-7.48,8.23-11.11,10.28-11.34,6.41-19.23,1.52-39.37,2-21.79.57-35.19,6.89-39.64,9.18-3.06,1.57-20,10.26-18.52,17.13,1.23,5.83,15.11,7.7,21.12,8,5,.22,11.59.8,18-2.88,6.21-3.57,5.89-7.42,11.11-10.28,6.24-3.41,12-.83,21.4.83,8.07,1.44,25.64,4.55,39.36-2,11-5.26,8.16-11.29,22.23-20.56s21.21-6.21,25.52-13.3C529.25,419.76,519.36,396.19,509.33,395.13Z"/><path class="cls-2" d="M504.29,439.36c4.91,3.54,7.46,3.92,10.34,3.95,10.76.11,12.87-21.91,15.53-34.84,3.26-15.8,8.82-51.14,2.06-53.09-5.87-1.7-9.09,25.31-33.36,37.69-7.28,3.71-16.76,6.27-18.25,13.47-.72,3.51.81,6.39,3.13,10.75C487.9,425.12,491.15,429.89,504.29,439.36Z"/><path class="cls-3" d="M566.84,692.92c-27.48,0-64.55-4.5-85-25.93C467,651.49,468,630,503.23,525.88c26.19-77.37,25.14-97.33,21-115.39-6.13-27-1.14-41,4.15-55.87.46-1.3.92-2.59,1.37-3.9.66-1.89,1.26-4.39,1.84-6.81.89-3.7,1.81-7.54,3-9.34,3.77-6,8.39-8.9,14.12-8.9,7.18,0,15.07,4.37,23.42,9q2.42,1.35,4.85,2.66a72.11,72.11,0,0,0,9.49,3.91,65,65,0,0,1,8.62,3.54c14.23,7.74,20.83,20.35,25.65,29.55,41.94,80.12,62.81,116.59,77.69,141.7,21.46,36.2,38.09,55.17,49.1,67.72,9,10.26,13.53,15.41,13,21.43-2,21.36-26.49,43.67-67.12,61.21C654.88,683,607.58,692.92,566.84,692.92Z"/><path class="cls-4" d="M548.7,325.16v1h0c7,0,14.88,4.35,23.17,8.95,1.59.88,3.24,1.79,4.86,2.66a72.94,72.94,0,0,0,9.56,3.94,63.67,63.67,0,0,1,8.55,3.51c14.1,7.67,20.39,19.69,25.45,29.35l0,.05c41.92,80.07,62.79,116.55,77.67,141.67,21.48,36.24,38.13,55.22,49.16,67.79,8.91,10.15,13.38,15.25,12.83,21-2,21.18-26.36,43.34-66.82,60.8-38.42,16.58-85.64,26.49-126.32,26.49-27.39,0-64.31-4.47-84.68-25.77-6.88-7.19-10.84-16.34-7.82-37.64,2.81-19.83,11.32-49.66,29.37-103,26.23-77.49,25.17-97.52,21.05-115.66-6.1-26.85-1.13-40.81,4.13-55.59.46-1.3.92-2.6,1.37-3.91.67-1.91,1.27-4.42,1.86-6.85.88-3.67,1.79-7.46,2.88-9.2,3.68-5.83,8.16-8.66,13.7-8.67v-1m0,0c-5.39,0-10.33,2.46-14.54,9.14-1.95,3.09-3.19,11.51-4.84,16.25-5.57,16-12.24,30.51-5.54,60.05,4.42,19.47,4.11,40.89-21,115.12C468.13,628,466.07,651.28,481.44,667.34c17.55,18.35,49.36,26.08,85.4,26.08,83.49,0,189.71-41.45,194.13-88.2,1.3-13.66-22.73-23-62.12-89.44-17.22-29.07-38.35-66.56-77.65-141.62-5-9.49-11.49-22-25.88-29.82-5-2.7-12.58-4.49-18.12-7.45-9.85-5.28-19.76-11.73-28.5-11.73Z"/><path id="head" class="cls-2" d="M248.23,144.26a9.82,9.82,0,0,0,2.31-5.36c0-.6.06-1.63-1-5.09-1.62-5.34-2.61-6-2.22-7.83a5.77,5.77,0,0,1,4.43-4.37c2.78-.32,3.63,2.92,8.62,6.42,3.63,2.56,4.12,1.5,12,5.77,4.17,2.27,6.07,3.67,7.13,6s.13,3.26,1.08,4.71c2.2,3.34,8.35.36,17.45,2.08,3.51.67,9.69,1.84,13.76,6.66,2.72,3.24,2.17,5.36,5.28,8.29.85.8,2.44,2.11,10,4.4,10.52,3.2,15.78,4.8,21.49,4.82,2.1,0,3.34-.14,4.19.78,2.46,2.66-.54,12.1-6.54,16.19-1.59,1.08-3.06,1.56-4.6,3.52-2.25,2.87-2.26,5.88-3.25,5.9s-1.08-2.5-2.41-4.28c-3.75-5-16.92-4.41-18.92.31-1.53,3.63,3.24,10.38,7.11,10.4,2.17,0,3.81-2.1,4.44-1.56s-.84,3.52-1.83,5.1c-1.27,2-3,4.76-5.22,5.75-5.55,2.46-10.49-7.45-23.41-9.36-3.11-.47-8-1.2-11.28,1.64-2.92,2.55-3.45,7.08-5.16,7-1.25-.08-1.36-2.51-2.82-2.79-2-.39-2.92,4-6.54,6.18-4.75,2.83-8.49-1.58-13.51,1-4.08,2.11-3.27,5.87-7.06,8-2.28,1.3-6.35,2.09-14-1.52Z"/><path class="cls-2" d="M117.13,397.79c-3.83,9.71-.21,19.19,2.26,25.66,5.4,14.16,12.44,15.76,15.85,30.18,1.16,4.93,2.21,9.64,0,14.34-3.11,6.62-9,5.41-16.6,12.08-10.77,9.44-13.29,24.47-13.59,26.41-1.5,9.67,1.16,14.78-3,18.86s-9.19,3.85-12.42,7.87c-3.81,4.74-4.58,10.51.52,15.61,2.6,2.6,5.72,4.16,11.45,6.24,11.58,4.22,12.23,5,16.13,8.85,6.24,6.24,3.64,10.93,8.32,12.49,4.22,1.4,6.25-1.56,13-1.56,3.65,0,8.41,2.55,9.89,1.56,2-1.35,1-6.25-2.08-8.85-3.28-2.73-4.16-1.56-6.77-3.64-5.65-4.53-1.72-9.75-9.37-18.19-5.28-5.83-9.07-5.18-10.57-9.81-1.92-6,.72-8.46,2.77-11,6.25-7.8,9.37-3.64,21.34-17.17,8.22-9.3,3.2-18.89,13-20.81,3.77-.74,8.93-2.54,13.53-8.85,4.16-5.72,6.06-14.44,5.72-20.29-1.76-30.55,2.65-27.28-.52-38.07-6-20.25-26.74-40.89-43-37C125.31,384.54,119.56,391.61,117.13,397.79Z"/><path class="cls-2" d="M199.4,379.68c1,9.37,4.67,10.85,7.29,11.45,1.18.27,3.8.95,5.2,2.6,1.07,1.26,1.82,3.5,1,4.69-2,3.07-15.54,1.08-21.33-7.29-1.78-2.57-4.38-8-2.08-10.41C191.06,379.1,196,378.2,199.4,379.68Z"/><path class="cls-2" d="M201,544.12c0,3.46-5.91,6-7.45,11.55-1.45,5.19-.08,11.4,4.84,14.46,3.23,2,8.37,2.06,14.11,1.71,12.31-.75,13.19.28,18.22,2.54,8.06,3.62,8.43,5.12,12.94,5.12,4.17,0,6.77-2.6,12.29-2.52,3.85.06,7.86,1.41,8.89,0,1.41-2-.93-5.69-4.52-7.85-2.61-1.56-3.65-2.37-9.27-3-7.2-.84-4.52-6.37-14.67-11.54-7-3.57-10.28-3.38-13.33-7.18a10.18,10.18,0,0,1-2.47-5.36c-.24-2.26.54-3.4,1.14-5.93,2.17-9.11-.53-11.14.61-15.35a46.42,46.42,0,0,1,1.56-5.72c.85-2.3,2.8-5.35,3.64-7.29a71.82,71.82,0,0,0,2.61-9.37c2.55-12.09.17-19.25,4.36-25.44.35-.52,1.86-2.64,3.75-5.79,0,0,1.26-2.1,2.29-4,2.86-5.32,5.67-10.55,6-17.36,0,0,1.83-7.6-4-17.11-.64-1.06-4.36-5.68-5.21-6.58,0,0-.7-.74-2.91-3.48-3.73-4.62-8.56-13.63-13.58-18.87-.54-.56-6.51-6.68-13.58-8.3C188.67,387.1,161.92,414,166.93,428c2.85,8,16.69,13.83,20.38,14.34l1.26.19a44.62,44.62,0,0,1,7.79,2.08c4.27,1.64,7.51,2.89,8.31,5.28.89,2.7-2.06,4.69-6,10.56,0,0-8.58,12.61-9.11,26.46a23.52,23.52,0,0,0,.13,3.42,28.92,28.92,0,0,0,3.52,11.12c1.78,3.54,2.28,2.9,4.69,15.11.52,2.61-1.26,7.8-1.06,11.45C197.32,537.35,201,541.34,201,544.12Z"/><g id="armt"><path class="cls-2" d="M258.2,266.77c6.34-3.52,7.06-5,13-7.91,3.78-1.87,15.29-7.35,29.25-4.35,8,1.73,13.41,5.34,23.19,13.74,7.37,6.32,10,10,11.54,14.13.7,1.88,2.26,5.88,2.08,8.84-.52,8.33-6.88-1.6-9.89,0-5.21,2.78-6.24,7.81-10.4,3.65a12.49,12.49,0,0,1-2.61-3.65c-2.88-5.18-5.06-7.6-9.8-10.74-1.2-.79-4.81-4.21-9.87-2.73-4.29,1.25-4.23,4.77-11.17,10.4-2.87,2.34-7.46,5.45-8.45,4.52-1.24-1.16,3.93-8,3.08-8.69s-5,4.44-11.43,8.35c-10.8,6.57-15.51,1.73-19,5.66-2.55,2.89-5.21,15.61-7.29,22.37-2.63,8.57-11.75-40.39-10.42-44.23C231.8,271.19,242,275.78,258.2,266.77Z"/><path class="cls-2" d="M333.57,281.92c4.49,3.81,4,10.8,3.63,12.51-1,4.79-5.12,8-5.51,7.84s.6-1.6.94-3.25a4.12,4.12,0,0,0-.75-3.28c-.19-.25-.34-.35-.33,0,0,1.25,0,2.29-1.54,5.41-2.34,4.69-7.34,8.5-8.09,8-.53-.37,2.44-2.09,3.41-7.46.35-1.92.52-4.68-1.12-5.58-.42-.23.86.9-1,4.54-1.56,3.12-4.46,3.77-4.68,3.64s1-3.58.26-6.71c-.47-2-1.93-2.24-2.8-4.19-1.38-3.06.15-7.27,2.3-9.72C322,279.43,329.34,278.34,333.57,281.92Z"/></g><g id="armb"><path class="cls-2" d="M281.34,333.87c-2.13-.53-2-3.7-6.08-7.66-.43-.43-1.34,4.28-2.49,3.52s-4.68-4.68-10.92-6.25c-4.33-1.08-4.66,2.75-11.6,8.38-2.87,2.34-7.45,5.45-8.44,4.52-1.24-1.16,3.93-8,3.07-8.69-1.13-.89-9.1,9.61-11.43,8.35-2.74-1.48-1.13-21.32,12.27-28.69s28.81,3.14,34.86,9.37c1.72,1.77,8.33,8.56,6.24,13.53C285.9,332.46,283.23,334.34,281.34,333.87Z"/><path class="cls-2" d="M294,325.6c4.17,5,4.31,9.43,3.16,14-1.31,5.25-7.67,7.76-8.05,7.47s.47-1.14,1.15-2.87c.47-1.21.81-3.22.57-3.45-.57-.58-.57,2.87-4.6,6.9-2.3,2.3-7.09,4.84-7.8,4.13-.51-.51,1.71-3.29,3.2-7,1.15-2.87.22-6.73.06-5.61a10.37,10.37,0,0,1-2.49,4.76c-2.6,2.85-6.36,3.89-5.8,3.07a12,12,0,0,0,2.47-7.39c-.11-2.33-3-4.5-3.58-6.79-.91-3.6,2-6.07,4.8-8.32C281.85,320.69,290.05,320.9,294,325.6Z"/><path class="cls-2" d="M243.33,299.19c5.58-1.13,10.69-.6,17.48.36,9.6,1.36,18.17,4,27.58,13.53,1.78,1.8,9.36,10.91,9.36,20.81,0,3.64-5.42-.09-10.93,1.56s-4.17-1.52-7.28-4.16c-.66-.56-3.64,10.93-3.64,8.85a4.91,4.91,0,0,0-1.56-3.13c-4.72-5.65-3.8-9.67-10.93-13-6.28-2.94-22.9-.53-31.74,3.12-8,3.3-10.93,4.68-20.82,15.61-1.22,1.35-6.74-13.78-7.28-14.57-1-1.41,8.73-2.4,10.18-5.56C217.59,314.21,229,302.08,243.33,299.19Z"/></g><path class="cls-2" d="M255.08,261.56c.33-11.12-4.82-26.39-3.46-30.14,1.44-4,2.71-3,6.25-9.33,4.89-8.75,3.19-11.89,6.75-16.29,5.29-6.51,12.06-3.36,16.63-7.89,9.91-9.81.17-46.41-17.05-49.77-8.7-1.7-16.76,5.6-28.4,16.14-14.18,12.84-22.63,23.53-32.09,33.68-3.37,3.63-15.14,16.53-17.75,18.65-19.68,16-49.46,52.6-57.32,93.87-4.56,23.92-5.68,41.4-5.21,59.84.26,10.07-7.42,24.32-8.32,30.18-1,6.76-1,8.32-1,8.84s0,0-5.16-1.2c-10.6-2.48-17.69,2.21-19.69-.74-1.44-2.14,1.62-5.89,5.81-12.86,8-13.37,14.36-28.84,12-30.58-1.55-1.13-6.35,3.8-7.19,3-1.1-1.08,7.63-8.68,11.86-19.42,6.38-16.21.43-34.35-1.74-34.35-1.32,0-1.53,6.67-3.28,6.75-3,.15-2.08-19.94-14.94-35.29-4.11-4.9-12.07-12.25-16-10.23-7.8,4,5,41.39-.29,43.29-2.53.91-7.37-7.3-8.64-6.2-3.73,3.22,12.5,28.22,6,33.95-2.89,2.53-6.06-3.12-7.65-.54-2.22,3.6,5,13.93,2.93,17.67-1.7,3-4.38-5.78-6.9-1.19-1.42,2.59-.08,19.86-2.68,28.71-7.11,24.15-3.12,37.47,16.13,43.19,18.07,5.37,39.29-9.25,42.15,3.12,3.12,13.53,4.4,17,8.32,22.38,4.17,5.72,13,12.84,21.08,13.45,10.34.77,30.55-8.28,29.4-25.94-1.56-23.94,20.36-29.12,23.27-44.1a63.52,63.52,0,0,0,1.14-18.33c-.51-5-2.79-19.23,4.36-31.83a107.09,107.09,0,0,1,8.54-12c6.1-7.54,9.85-11.6,12.86-13.75C240.61,315.61,254,296.43,255.08,261.56Z"/></g></g></svg>