<svg viewBox="0 0 636.9 32.3" xmlns="http://www.w3.org/2000/svg" id="Слой_1" version="1.1" x="0" xml:space="preserve" y="0">
                             <style>.st1{fill:#2b0c7d}.st2{fill:#88e9ff;stroke:#2b0c7d;stroke-miterlimit:10}.st3,.st4{fill:#fff}.st4{stroke:#2b0c7d;stroke-miterlimit:10}.st5{fill:#fcfcfc}.st6{fill:#88e9ff}</style>
                             <circle cx="15.1" cy="16.1" r="14.4" fill="#f9f9f9"></circle>
                             <path d="M15.1 1.2C6.9 1.2.2 7.9.2 16.1c0 8.3 6.7 15 14.9 15S30 24.4 30 16.1c0-8.2-6.7-14.9-14.9-14.9zm0 28.8C7.4 30 1.2 23.8 1.2 16.1c0-7.6 6.2-13.8 13.9-13.8S29 8.5 29 16.1C29 23.8 22.8 30 15.1 30z" class="st1"></path>
                             <circle cx="15.1" cy="16.1" r="7.7" class="st2"></circle>
                             <circle cx="15.1" cy="16.1" r="4.2" class="st1"></circle>
                             <path d="M419 4.2c3.6 0 6.9 1.1 9.4 2.9.3.2.6.4.8.6 1.8 1.6 2.8 2.6 3.8 5.6.1.3.2.6.2.9.1.6.2 1.3.2 2v1c0 .3-.1.7-.1 1 0 .4-.1.8-.1 1.2s-.2.7-.3 1.1c-1.8 2.9-4.8 3.9-7 6.5-.3.1-.6.2-.9.4s-.6.2-.9.3c-1.9 1.7-4.9.7-7 .7-.3 0-.6 0-.9-.1-1.7-.2-3.4-.8-5-1.7-.3-.2-.5-.3-.8-.5-1.3-2.7-5.3-3.7-5.3-6.8-.1-.3-.2-.6-.2-1-.1-.6-.2-1.3-.2-2 0-2 .6-4 1.7-5.7.2-.2.3-.5.5-.7 1.3-4.6 6.3-2.6 7.8-5.3.3-.1.7-.2 1-.2s.7-.1 1.1-.1c.4-.1.8-.1 1.2-.1h1z" class="st3"></path>
                             <path d="M419 28.9c-1 .4-2 .4-2.5-.4-.2-.1-.5-.3-.7-.4-1.5-.7-3.2-.9-4.9-1.5l-.9-.3c-3-1-4-5-5.7-7-.1-.3-.2-.7-.2-1-.1-.7-.2-1.4-.2-2.1 0-2.1.6-4.1 1.7-5.9l.6-.9c.3-.2.6-.4.8-.7 2-2.6 5-3.6 7.9-4.5l.9-.3c.3-.1.5-.3.8-.4.2 0 .4-.1.6-.1.6-.1 1.2-.1 1.8-.1 3.7 0 7.2 1.2 9.8 3.1.3.2.6.4.8.7 1.4 2.1 3.4 4.1 4 6 .1.3.2.7.2 1 .1.7.2 1.4.2 2.1 0 .4 0 .7-.1 1 0 .3-.1.7-.1 1-.2.8-.4 1.6-.6 2.3-.1.4-.2.7-.3 1-1 2.7-4 3.7-6.9 5.9-.3.1-.6.3-.9.4-2.1.4-4.1-.6-5.3.9-.3.1-.6.2-.8.2zm0-24c-.6 0-1.2 0-1.9.1-.2 0-.4 0-.6.1-.4 0-.7.1-1 .2-3.5.1-5.5 4.1-8.4 5.3-.1.2-.3.4-.4.6-.9 1.5-1.5 3.3-1.5 5.1 0 .6.1 1.3.2 1.9.1.3.1.6.2.9.3 3.3 3.3 4.3 4.5 6 .2 0 .4.1.7.2 1.4.5 3 1.8 5.2 2.2.3.1.6.1 1 .1 1.9-.2 4.9-.2 6.6-.6.2-.1.5-.2.7-.2.2-.1.5-.2.7-.3.3-.1.5-.2.8-.4 2.1-1.8 5.1-2.8 6.1-5.6.1-.3.2-.7.3-1 .1-.4.1-.7.2-1.1.1-.3.1-.7.2-1 0-.3.1-.7.1-1 0-.7-.1-1.4-.2-2-.1-.3-.2-.7-.3-1-.2-1.9-2.2-2.9-3.5-5-.3-.2-.6-.4-.9-.7-2.4-1.8-5.5-2.8-8.8-2.8z" class="st1"></path>
                             <path d="M115.8 6.9l2.4.3c.3 0 .5.1.8.1 4 0 7 1 8.6 3.5.2.2.5.4.7.7.6.7 1.1 1.4 1.5 2.2.1.3.2.5.3.8 1.1 3.7-.9 6.7-4 8.3-.3.2-.6.4-.9.5s-.5.3-.8.4-.5.2-.8.4c-2.5 2.1-5.5.1-8.4 1.4h-.7c-5.6-.3-10.3-2.8-12.2-6.1-.1-.3-.3-.5-.4-.8-1.3-3.6-.3-5.7 1.2-7.2.2-.2.4-.4.6-.5 2-3.1 5.1-3.6 8.2-3.9.3 0 .6-.1.9-.1 1.2.3 1.2.3 2-.1.3.1.6.1 1 .1z" class="st3"></path>
                             <path d="M115.8 26.4c-.8-.1-.8-.1-1.3-.1h-.6c-6.1-.5-11-3.5-12.6-7.3l-.3-.9c-.6-2.5.1-5.1 1.8-7.1.2-.2.4-.5.7-.7 1.9-2.2 4.7-3.3 7.5-3.8.3 0 .6-.1 1-.1 1.5.5 3.3.2 5.1.1.4 0 .7-.1 1.1-.1 3.9 0 6.9 1 10 4.1l.7.7c.7.7 1.2 1.6 1.5 2.4l.3.9c1.4 3.9-.6 7.9-4.2 8.9l-.9.6c-.3.1-.5.3-.8.4s-.6.3-.9.4c-1.8 1.5-3.8 1.5-6.9 1.6h-1.2zm0-18.8c-.8-.3-1.8-.3-3.1 0-.4 0-.7 0-1.1.1-2.8.4-5.2 2-7.5 3.4-.3.2-.5.5-.7.7-1.4 1.8-1.3 4.3-1.1 6.2.1.3.2.6.3.8 1.6 3.3 6.2 5.7 11.8 6.1h.6c2.9.4 5.9.4 7.9-1.3.3-.1.5-.2.8-.3.2-.1.5-.2.7-.4.3-.2.7-.4 1-.6 2.5-1.1 5.5-3.1 3.9-7.5-.1-.2-.1-.4-.2-.7-.2-.6-.6-1.3-1-1.8-.2-.2-.4-.5-.6-.7-2.5-3.4-6.5-2.4-8.9-4.5h-.6c-.2.1-.5.2-.8.4-.5.2-1 .1-1.4.1zM374.7 16.3c-.1 3.5-2.9 6.3-6.4 6.3s-6.4-2.9-6.4-6.4 2.8-6.4 6.4-6.4V8.5c-4.2 0-7.7 3.5-7.7 7.7 0 4.3 3.5 7.7 7.7 7.7s7.6-3.4 7.7-7.6h-1.3z" class="st1"></path>
                             <circle cx="368.4" cy="16.2" r="7.7" class="st1"></circle>
                             <circle cx="166.3" cy="16.2" r="2.9" class="st1"></circle>
                             <circle cx="216.8" cy="16.2" r="2.9" class="st1"></circle>
                             <circle cx="317.9" cy="16.2" r="2.9" class="st1"></circle>
                             <ellipse cx="317.9" cy="16.3" rx="14.4" ry="4.8" class="st3"></ellipse>
                             <path d="M317.9 21.8h-1.4c-2.5-.5-5.5-.5-8.9-1.4-.4-.1-.7-.2-1-.4-2.3-.9-3.8-2.2-3.8-3.7 0-.9.5-1.7 1.3-2.4.4-.3.9-.7 1.5-.9 3.3-1.6 6.3-1.6 9.5-2.1h1.4c3.5-.4 5.5 1.6 8.8.7.2 0 .4.1.6.1 2.1.8 5.1 1.8 7.1 3.8 1 2-1 3-2.1 3.8-.3.2-.6.3-.8.4-2.2 1.1-4.7 1.8-7.3 2-.2 0-.4 0-.7.1-1.4-.1-2.8 0-4.2 0zm0-9.7H315.5c-.3 0-.5 0-.8.1-2.7-.9-5.7 2.1-9.1 2.3-.4.3-.8.5-1 .8s-.3.6-.3.8c0 .8 1.1 1.7 2.9 2.4.3.1.6.2 1 .3 2.9-.7 4.9 2.3 8.1 1.3h1.6c1.4 0 2.7-.1 4-.2.3 0 .5-.1.7-.1 2-.5 3.9-.3 5.6-.8.3-.1.6-.2.8-.3 1-.7 3-1.7 3-2.7-.9-1.8-3.3-2.7-5.6-3.3-.3-.1-.7-.1-1-.2-2.4-1.5-4.4.5-6.5-.7-.4.3-.7.3-1 .3z" class="st1"></path>
                             <ellipse cx="267.4" cy="16.3" rx="14.4" ry="1.6" class="st3"></ellipse>
                             <path d="M267.4 18.6c-1.4-.3-1.4-.3-2.6 0H262.7c-.8-.1-1.7-.1-2.6-.2h-.9c-1 0-3 1-4.1-.5-.3-.1-.6-.1-.9-.2-1.1-.3-1.7-.7-1.7-1.3 0-.7 1.2-1.2 3-1.6.6-.1 1.3-.2 2-.3 1.7-.1 2.7-.1 4.9-.3.7 0 1.3 0 2-.1h.7c3.2.4 5.2.4 8.5.1h.6c4.7.2 8.5.9 8.5 2.2 0 .6-.8 1.1-2.1 1.4-.3.1-.5.1-.8.2-1.5.5-4.5.5-6.9.7h-2.3c-1.5-.2-1.5-.2-2.3 0-.4-.1-.7-.1-.9-.1zm-13-2.4c1.9.5 6.5.9 13 .9 2.4 0 4.6-.1 6.4-.2h.6c1.6 1.3 1.6-.7 3.1-.3.3 0 .6-.1.8-.1.8-.1 1.4-.2 1.9-.3-1.3-.3-4-.7-7.8-.8h-.7c-1.9-.1-3.9-.1-5.6-.1h-1c-1.3 0-2.6.1-3.7.1-.9 0-1.7.1-2.4.2s-1.4.1-2 .2c-1 .1-1.9.3-2.6.4z" class="st1"></path>
                             <path d="M216.9 13.4h1.6c3.5-.1 7.5 1.9 10.5 1.3.3.1.5.2.8.3.9.4 1.5.8 1.5 1.2 0 1.6-6.4 2.8-14.4 2.8-3.1 0-6-.2-8.4-.5-.2 0-.4-.1-.6-.1-1.9-.2-3.9-1.2-5.9-2.2 3-2 6-2 9.3-2.7.2 0 .5 0 .7-.1 1.5.1 3.2 0 4.9 0z" class="st3"></path>
                             <path d="M216.9 19.8c-.6 0-15.1 0-15.1-3.5 0-.2.1-.4.2-.6 3.1-3.3 6.1-2.3 9.2-2.7.2 0 .4 0 .7-.1 2.6-.2 4.8-.2 5-.2h2.6c2.5 2.5 6.5-1.5 9.1 1.1.4.1.8.2 1.1.3 1.4.5 2.3 1.2 2.3 2 0 3.6-14.5 3.7-15.1 3.7zm0-5.7c-1.8 0-3.5.1-5 .2-.2 0-.5 0-.7.1-3.2-1-5.2 1-8.2 2 2 0 3 2 5 1.5.4.1.8.1 1.2.2 2.1.3 4.6.4 7.7.4 1.8 0 3.5-.1 5-.2.2 0 .5 0 .7-.1 2.4 1.1 3.4-.9 4.2-.6.3-.1.6-.1.9-.2 1.7-.4 2.7-.8 2.8-1.2-.1-.2-.6-.5-1.4-.7-.2-.1-.4-.1-.7-.2-2.5-1-6.5-1-9.9-1.2h-1.6z" class="st1"></path>
                             <path d="M65.3 4.4c1.7-.1 2.7-.1 4.9.9.2.1.5.2.7.2 1.8.5 3.7.7 5.2 2.8l.7.7c.9 1 1.5 2.1 2 3.3l.3.9c1.8 4-1.2 6-2.3 9.9-.2.2-.4.5-.7.7-1.2 2.4-4.2 1.4-5.7 3.4-.3.1-.6.2-1 .3-.2.1-.4.1-.7.2-.2 0-.4.1-.7.1-3.2 1.5-5.2-.5-8.3-.7-.3-.1-.7-.2-1-.4-2.9-.4-3.9-2.4-5.5-4.3-.2-.3-.4-.5-.5-.8-1-1.6-1.6-3.5-1.6-5.5s.6-3.8 1.6-5.5c.2-.3.3-.5.5-.8C56 8.3 57 5.3 61 4.9c.3-.1.7-.2 1.1-.3 1-.3 1-.3 2.5-.2h.7z" class="st3"></path>
                             <path d="M60.8 4.4c-1.5.6-2.8 1.5-4.2 2.5-1 .7-2 1.4-3.1 2-.1.2-.2.3-.3.4-.1.1-.2.3-.3.4-1.4 1.9-2.2 4.1-2.2 6.5 0 2 .6 4 1.7 5.7.2.2.4.5.6.8 1 1.9 2.9 2.9 5 4 .6.3 1.2.6 1.8 1l.1.1c.2.3.4.4.6.5.7.3 1.5.3 2.5.2.7 0 1.6-.1 2.5.1.3 0 .5 0 .8.3.7-.4.9-.3 2.2-.2h.3c.1 0 .2 0 .3-.1.1 0 .2-.1.4-.1.1 0 .2 0 .3-.1.2-.1.4-.1.5-.2.2 0 .3-.1.5-.1 1.4-.4 2.8-1.4 3.9-2.2.7-.5 1.4-1 2-1.3.1-.1.2-.3.3-.4.1-.1.2-.2.3-.4 2.4-3.2 2.5-6 2.4-10.4l-.3-.9c-.5-1.3-1.2-2.5-2.1-3.4-.2-.3-.5-.6-.7-.8-1.1-1.1-2.8-1.9-4.6-2.7l-.4-.2c-.3-.2-.6-.3-.8-.4h-1c.4.2.7.5.9 1.1.1.1.3.2.4.2s.1.1.2.1c.7.3 1.3.6 1.9.9s1.3.6 1.9.9c.3.2.7.6.9.7 1.1 1.1 1.9 2.2 2.3 3.4.2.3.3.6.4.9 1.5 4.2.5 6.2-2 9.6-.2.3-.5.6-.7.8l-.7.7h-.1c-1 .1-1.5.7-1.9 1.2-.5.5-1 1.1-2 1.1l-.9.3c-.3.1-.5.1-.8.2s-.6.2-.8.2h-.4c-.1 0-.3.1-.4.1-.4 0-.9.1-1.4.2-1.8.3-4 .6-5.9-.7-.2-.1-.4-.1-.5-.2-.2-.1-.3-.1-.5-.2-.4-.1-.7-.2-1.1-.4h-.1V26c-.3-.6-1.1-1-1.9-1.3-1-.5-2.2-1-2.7-2.3-.1-.2-.2-.3-.3-.5-.1-.1-.1-.2-.2-.3-1.1-1.7-1.6-3.6-1.6-5.4 0-1.6.4-3.2 1.3-4.9.1-.3.3-.6.5-.9 2.1-3 4.7-4.1 7.3-5l1-.3c1.1 0 2.1 0 3.5-.2h.6c.6.1 1.2 0 1.7 0 .4 0 .8-.1 1.2 0-.6-.2-1.2-.4-1.7-.7-1.8-.8-3.5-1.5-5.3 0h-.1c-.2 0-.4.1-.5.1-.2 0-.3.1-.5.1z" class="st1"></path>
                             <path d="M71.6 16.1c-.1 3.5-2.9 6.2-6.3 6.2-3.5 0-6.3-2.9-6.3-6.3s2.8-6.3 6.3-6.3V8.5c-4.1 0-7.6 3.5-7.6 7.6 0 4.2 3.5 7.6 7.6 7.6s7.5-3.4 7.6-7.5c0-.1-1.3-.1-1.3-.1z" class="st1"></path>
                             <circle cx="65.3" cy="16.1" r="7.6" class="st2"></circle>
                             <path d="M13.5 14c-.9 1-2.1 1.3-2.7.7-.6-.6-.3-1.8.7-2.7.9-1 2.1-1.3 2.7-.7.6.5.2 1.8-.7 2.7z" class="st4"></path>
                             <path d="M368.4 6.9c7.5 0 13.7 3.8 14.3 8.5 0 .3.1.6.1.9.1 2.7-2.3 4.6-4.4 6.5-.2.2-.5.4-.7.6-1.7 1.9-4.7 1.9-7.4 2.1h-1.8c-3.1 0-6-.6-8.3-1.7-.3-.2-.7-.3-1-.5-2.2-1.1-3.2-2.1-4.2-3.9-.1-.3-.3-.5-.4-.8-.3-.8-.5-1.6-.5-2.5 0-.6.1-1.1.2-1.7.1-.3.2-.5.3-.8 1.4-4.4 5.4-3.4 7.7-6 .4-.1.8-.2 1.1-.3 1.6-.2 3.3-.4 5-.4z" class="st3"></path>
                             <path d="M368.4 26.3c-2.8 0-5.4-.5-7.6-1.4-.4-.1-.7-.3-1.1-.5-2.7-1.2-4.7-3.2-5.9-5.6l-.3-.9c-.2-.6-.2-1.2-.2-1.8 0-.9.2-1.8.5-2.7.1-.3.3-.6.4-.8 2.7-1.4 4.7-4.4 7.7-5.6.2-.1.4-.1.6-.2 1.8-.5 3.8-.8 5.9-.8 7.9 0 14.3 4 15 9.2 0 .3.1.6.1.9-.5 2.7-2.2 5.5-4.6 7.2-.3.2-.5.4-.8.5-3.2 1.3-5.2 2.3-7.8 2.3h-1c-.2.2-.5.2-.9.2zm0-18.7c-2.1 0-4.1.3-5.9.9-.2.1-.4.1-.6.2-1.9 1.7-4.9 2.7-6.6 5.1-.1.3-.2.5-.3.8-.2.6-.3 1.2-.3 1.8 0 .9.2 1.8.6 2.6.1.3.3.5.5.8.2 2.7 3.2 1.7 3.9 3.3.3.2.7.3 1.1.5 2.2.9 4.8 1.5 7.7 1.5h1c.3 0 .6 0 1-.1 1.6-1.6 4.6-.6 6.8-1.9.3-.2.7-.4 1-.6 1.9-1.1 3.9-3.1 4-6.1 0-.3 0-.6-.1-.9-.8-4.5-6.7-7.9-13.8-7.9z" class="st1"></path>
                             <path d="M469.4 2c1.6.3 4.6.3 6.7 1.4.3.2.7.4 1 .6 4.1 2.5 6.8 7.1 6.8 12.2 0 2.4-.6 4.6-1.6 6.6-.2.3-.4.7-.6 1-1.8 1.6-3.8 3.6-5.6 5.2-.3.2-.7.3-1 .5l-1.8.6c-.3.1-.6.2-.9.2-2.4.1-5.4 1.1-7.5-.5-.4-.1-.7-.2-1.1-.4-2.9-1.1-4.9-4.1-6.8-5.9-.2-.3-.3-.6-.5-.9-.3-.6-.6-1.2-.8-1.9-.1-.4-.2-.7-.3-1.1-1.6-3.3 1.4-6.3.8-9.3.1-.3.3-.6.4-.9.2-.3.3-.6.5-.8l.6-.9c3.1-1.4 4.1-4.4 7.1-5.2.3-.1.7-.2 1.1-.3.9.1.9.1 2.2-.2.6-.1 1 0 1.3 0z" class="st5"></path>
                             <path d="M469.6 31c-1.3 1.1-2.9-.8-4.5-.9-.3 0-.6 0-.9.2-2.2-2-6.2-3-7.3-5.9-.2-.3-.4-.6-.5-.9-.5-.9-.9-1.9-1.2-3-.1-.3-.2-.7-.3-1 .2-3.2.2-7.2 1.1-9.8.1-.3.3-.6.4-.8.2-.3.4-.6.5-.9 1.1-3.6 5.1-4.6 8.3-6.2.3-.1.7-.2 1-.3 2.8-.1 6.8-.1 9.7 1 .3.2.6.3.9.5 4.6 2.6 7.8 7.5 7.8 13.2 0 2.3-.5 4.4-1.4 6.4-.2.3-.3.6-.5.9-1.7 2.8-4.7 4.8-6.8 6.4-.3.2-.7.3-1 .4s-.6.2-.8.3c-.3.1-.6.2-.9.2-1.2.5-2.2.5-2.7.2h-.9zm-.2-28.3c-1.4-.4-2.4-.4-3.2.2-.4.1-.7.2-1 .3-3.2 1.1-5.2 3.1-7.3 5.8-.2.3-.4.6-.5.9-1.4 3.4-1.4 6.4-1.1 9.6.1.4.2.7.3 1 .2.6.5 1.2.8 1.8.1.3.3.6.5.9 1.2 2.2 4.2 4.2 6.5 5.6.3.2.7.3 1 .4 1.8.2 4.8.2 7.1.4.3-.1.6-.1.9-.2.6-.2 1.1-.4 1.7-.6.3-.1.6-.3 1-.5 1.2-2 4.2-2 5.4-5 .2-.3.4-.6.5-.9 1-1.9 1.5-4 1.5-6.3 0-4.9-2.6-9.2-6.5-11.6-.3-.2-.6-.4-.9-.5-.8-1.7-2.8-.7-5.3-1.2-.6 0-1-.1-1.4-.1z" class="st1"></path>
                             <ellipse cx="166.3" cy="16.3" rx="14.4" ry="4.8" class="st3"></ellipse>
                             <path d="M166.3 21.6c-1.2-.1-2.2-.2-3.3-.3-.5 0-1.1 0-1.7-.1-3.3 0-6.3-1-8.7-2.5-.5-.4-.8-.7-1.1-1.2s-.4-.9-.4-1.3c0-1.5 1.4-2.7 3.5-3.6.3-.1.6-.3 1-.4 3.3-1.9 6.3.1 8.9-1.5h1c2.6.2 5 1.3 7.5.5.2 0 .4.1.6.1.3.1.7.2 1 .3l.9.3c3.5.3 5.5 2.3 6.5 4.3 0 1-2 2-3.4 3.3-.3.1-.6.3-.9.4-2.2.9-5.2 1.4-8.2 1.7h-2c-.5.1-.9 0-1.2 0zm.1-9.4h-1.8c-2.6 0-6.6 0-9.3 1.6-.3.1-.5.2-.8.4-1.2.6-1.9 1.3-1.9 2 0 .3.2.7.5 1s.8.7 1.4 1c2.5.1 4.5 2.1 7.7 1.9.6.1 1.3.1 1.9.1 1.3.1 2.6.1 4.2.1h.9c2.2-.2 4.1-.5 5.8-.9.3-.1.7-.2 1-.3 1.1-.8 3.1-.8 4.1-1.8 1-3-3-3-5.3-3.8-.3-.1-.6-.2-.8-.3-.3-.1-.5-.3-.8-.5-.4-.1-.7-.1-1-.2-1.7-.2-3.4-.2-4.9-.2-.4 0-.7 0-.9-.1z" class="st1"></path>
                             <path d="M520.1 1.9c.7.3.8.4 1.5.3.2 0 .5-.1.8-.2 3.6.4 5.6 3.4 8.3 4.5.2.3.5.5.7.8 1.8 2.2 2.9 4.9 3.1 7.9v1c-.5 3.2-1.5 5.2-2.8 8.5-.2.3-.4.6-.7.9-.8 1-1.7 1.7-2.6 2.2-.3.2-.6.3-.9.4-.7.3-1.4.7-2.2 1-.3.1-.5.2-.8.4-.3.2-.5.3-.8.4-1.8 1.3-4.8-.7-7-.7-.3-.1-.6-.3-.9-.4-1.5-.7-2.9-1.5-4.5-1.6-.3-.2-.5-.3-.8-.5-1.2-.9-2.3-1.9-3-3.3-.2-.3-.3-.6-.5-.9-.5-.9-.8-2-1.1-3-.1-.3-.1-.5-.2-.8 0-.7.1-1.2 0-1.8 0-.3 0-.6-.1-.9.1-2.6 1.1-4.6 2.2-7.8.2-.3.4-.6.6-.8 1.1-1.4 2.3-2.5 3.8-3.4.3-.2.6-.4 1-.6 1.5-.1 3.5-2.1 5.4-1.4.7-.2 1.1-.2 1.5-.2z" class="st5"></path>
                             <path d="M520.4 30.6c-2.4 2.7-3.4-.3-5-.4-.3-.1-.6-.3-.8-.4-1.4-.7-2.6-1.4-3.6-2.3-.2-.2-.4-.4-.6-.7-.9-1.1-1.9-2.2-3.4-3-.2-.3-.4-.6-.5-1-.4-.8-.7-1.5-.9-2.4-.1-.3-.2-.6-.2-.8-.2-1.2-.3-2-.3-2.8V16c-.1-2.7.9-4.7 2.3-7.9l.6-.9c1.3-1.7 2.9-3.2 4.8-4.2.3-.2.6-.3.9-.5 2.6-.9 5-1.1 7.7-1.1h1c2.6-.1 5.6 1.9 8.4 4.1.2.2.5.5.7.8 2.3 2.7 3.7 6.1 3.7 9.9 0 .4 0 .8-.1 1.1-.1 2.7-1 6.2-2.9 8.2-.2.2-.5.4-.7.6-1.2 1.1-2.4 1.9-3.4 2.6-.3.2-.5.3-.8.5-.6.5-1.1.9-1.7 1.1-.3.1-.5.2-.8.3-.3-.1-.7-.1-1.1-.1-.7-.1-1.7-.1-2.6.2-.2-.2-.4-.2-.7-.1zm-.3-28c-2.1-.3-4.1.7-6.3 1.4-.3.2-.6.3-.9.5-1.4.9-2.6 2-3.6 3.3-.2.3-.4.5-.6.8-1.7 1.7-1.7 4.7-2.3 7.6v.8c0 .3 0 .5.1.8.2 1.6.6 3 1.3 4.4.1.3.3.6.5.9 1.1 1.4 2.3 2.4 3.5 3.4.2.2.5.4.7.6 1.3.2 2.1.7 3.1 1.3.2.1.5.3.7.4 1.7 1.6 4.7.6 6.8.6h1.6c.3-.1.6-.1.9-.3.3-.1.6-.3.9-.5.2-.1.5-.2.7-.3 1.2-.6 2.3-1.6 3.3-3 .2-.3.4-.5.6-.8 1.9-1.9 2.9-4.9 2.7-8.1v-1c-.2-3-1.4-5.7-3.3-7.9-.2-.3-.5-.5-.7-.8-1.8-2.2-5.8-2.2-7.9-4.1-.2 0-.4.1-.6.1-.4-.2-.8-.2-1.2-.1z" class="st1"></path>
                             <path d="M570.7 1.8h1.2c7 .6 12.6 6.2 13.2 13.2v1.1c-.1 3.2-2.1 5.2-2.2 7.6l-.6.9-1.2 1.5-.7.7c-.4 1.5-2.4 1.5-4.9 2.9l-.9.3c-.6.2-1.3.3-1.9.4-.2 0-.4.1-.7.1-3 .8-5-1.2-8-1.5-.3-.2-.6-.3-1-.5-.5-1-1.6-1.8-2.6-2.6-.2-.2-.5-.4-.7-.6-2.8-1.9-1.8-4.9-3.3-6.6 0-.3-.1-.5-.1-.8-.1-.5-.1-1.1-.1-1.6 0-4.4 2-8.3 5-10.9.3-.2.6-.5.9-.7 2.8-1.2 4.8-3.2 7.4-2.7.4-.2.8-.2 1.2-.2z" class="st5"></path>
                             <path d="M570.4 30.9c-2.1-1.4-4.7 0-6.4-1-.2-.1-.5-.3-.7-.6-1.2-1-2.3-2-3.3-3l-.7-.7c-1.4-2.3-3.4-4.3-3.6-6.9 0-.3-.1-.5-.1-.8-.1-.6-.1-1.1-.1-1.7 0-4.9 2.4-9.3 6-12.1l.9-.6c2.6-1.2 5.6-3.2 8.2-2.4h1.1c4.3.3 8.1 2.4 10.6 5.6.2.3.5.6.7.9 1.9-.3-.1 2.7 1.6 2.9.1.3.3.7.4 1.1.4 1.2.6 2.5.7 3.8v.8c-.8 3.2-.8 6.2-2.4 8.2l-.6.9c-.4.5-.8 1-1.3 1.5l-.7.7c-1.7.9-2.7 1.9-5.1 3-.3.1-.6.2-1 .3-.4.1-.9.2-1.3.3-.2 0-.4.1-.7.1-.7.2-.7.2-1.5 0-.1-.2-.4-.2-.7-.3zm.3-28.4c-2.7.8-5.7-.2-8.1 2.6-.3.2-.6.4-.8.7-2.9 2.5-4.8 6.2-4.8 10.4 0 .6 0 1.2.1 1.8 0 .3.1.6.1.9 1.8 1.5.8 4.5 2.4 5.6.1.2.3.5.5.7.7.9 1.7 1.6 3.3 2.6.3.2.6.4.9.5 1.6 2 4.6 0 7 1.5h.8c1-.1 1.9-.3 2.8-.6.3-.1.7-.2 1-.4 1 .5 2-2.5 2.8-1.6.3-.2.6-.4.8-.7.8-.7 1.5-1.5 2.1-2.3l.6-.9c.7-2.1 1.7-4.1 2-6.1v-1.1c0-6.8-5-12.5-11.5-13.5-.4-.1-.7-.1-1.1-.1h-.9z" class="st1"></path>
                             <path d="M619.7 2.1c2.3.2 4.3-.8 6.1.8.2.1.5.2.7.3.3.2.6.3.9.5 2.5 1.6 4.5 5.6 6.7 9.1.1.4.2.7.2 1.1.1.4.1.7.1 1.1v1.2c-.6 4.2-2.6 7.2-4.8 11-.3.1-.5.3-.8.4-1.1.5-2.3 1-3.1 1.9-.3.2-.7.3-1.1.4-1.4.5-3 .7-4.6.7-1.2 0-2.4-.1-3.5-.4-.4-.1-.7-.2-1.1-.3-2.7-2.5-7.7-3.5-8.7-8-.1-.4-.3-.7-.4-1.1-.5-1.4-.7-3-.7-4.6 0-1.9.4-3.6 1-5.3.1-.3.3-.6.4-.9 1.7-1.6 3.7-4.6 6.4-6.6.3-.2.6-.3 1-.4.3-.1.7-.3 1.1-.4 1.3-.2 2.3-.2 3-.4.5-.2.9-.1 1.2-.1z" class="st5"></path>
                             <path d="M620.2 31.3c-1.1 0-2.2-.1-3.3-.4-.4-.1-.7-.2-1-.3-4.9-2.3-6.9-5.3-9.8-9.1-.1-.3-.2-.7-.3-1-.4-1.4-.6-2.8-.6-4.4 0-1.8.3-3.5.9-5.1.1-.3.2-.6.4-.9 1.6-2.8 4.6-4.8 6.6-7.2.3-.2.6-.3.9-.5.3-.1.6-.3.9-.4.3-.1.7-.2 1-.3 3.1.6 6.1-1.4 9.4.2.3.1.6.2.8.3.3.1.5.2.8.4s.7.3 1 .5c4.1 2.2 5.1 6.2 7.1 9.6.1.4.2.8.2 1.1.1.4.1.8.1 1.2v1.1c-.3 5.2-3.3 8.2-5.1 11-.2.2-.5.4-.8.6-1.3.9-2.6 1.6-3.8 2.6-.3.1-.7.2-1 .4-1.4.3-2.9.6-4.4.6zm-.4-28.6c-1.8-1.4-2.8.6-3.9.4-.3.1-.7.2-1 .4-.3.1-.6.3-.9.4-3 2.3-5 5.3-6.5 7.2l-.3.9c-.4 1.3-.6 2.7-.6 4.1 0 1.5.2 3 .7 4.3.1.3.2.7.4 1 1.4 3.8 3.4 5.8 7.3 7.3.3.1.7.3 1 .4 1.4.5 2.8.7 4.3.7s3-.2 4.3-.7c.3-.1.7-.2 1-.4 1.7-.7 2.8-1.6 3.7-2.5.2-.2.4-.4.5-.6 2.2-3.4 5.2-5.4 4.1-9.5V15c0-.4-.1-.8-.1-1.2-.1-.4-.1-.8-.3-1.1-2.5-3.4-3.5-6.4-6.6-8.6-.3-.2-.7-.3-1-.5-1.8-.3-3.8.7-5.1-.9-.4.1-.8.1-1 0z" class="st1"></path>
                             <circle cx="65.4" cy="16.1" r="4.2" class="st1"></circle>
                             <path d="M63.8 13.9c-.9 1-2.1 1.3-2.7.7-.6-.6-.3-1.8.7-2.7.9-1 2.1-1.3 2.7-.7.6.4.2 1.7-.7 2.7z" class="st4"></path>
                             <g>
                                <path d="M122.7 15.9c-.1 3.5-2.9 6.2-6.3 6.2-3.5 0-6.3-2.9-6.3-6.3s2.8-6.3 6.3-6.3V8.3c-4.1 0-7.6 3.5-7.6 7.6 0 4.2 3.5 7.6 7.6 7.6s7.5-3.4 7.6-7.5c0-.1-1.3-.1-1.3-.1z" class="st1"></path>
                                <circle cx="116.4" cy="15.9" r="7.6" class="st2"></circle>
                             </g>
                             <circle cx="116.5" cy="15.9" r="4.2" class="st1"></circle>
                             <path d="M114.9 13.6c-.9 1-2.1 1.3-2.7.7-.6-.6-.3-1.8.7-2.7.9-1 2.1-1.3 2.7-.7.6.5.2 1.8-.7 2.7z" class="st4"></path>
                             <g>
                                <path d="M172.9 12.6c-1.4-.1-2.7-.3-4-.7-1-.1-2-.2-3-.2-.5 0-1-.1-1.4-.2-.9.3-1.8.6-2.8.8-.8.2-1.6.1-2.3 0-.6 1.1-.9 2.3-.9 3.6 0 1.5.5 2.9 1.2 4.1.2 0 .3.1.5.1.7.3 1.5.5 2.2.7.1 0 .3.1.6.2 3-.3 6.1-.3 9.2-.5 1-1.3 1.6-2.9 1.6-4.6-.1-1.2-.4-2.3-.9-3.3z" class="st6"></path>
                                <path d="M160.2 20.1c.1 0 .2.1.3.1-.9-1.2-1.5-2.7-1.5-4.4 0-1.3.4-2.5 1-3.5-.4 0-.7-.1-1-.2-.6 1.1-.9 2.4-.9 3.7 0 1.5.4 2.8 1.1 4 .3.1.7.2 1 .3zM172.4 12.6c.5 1 .8 2.1.8 3.3 0 1.8-.7 3.4-1.8 4.7.4 0 .9-.1 1.3-.1.9-1.3 1.4-2.9 1.4-4.6 0-1.2-.3-2.3-.7-3.3h-1z" class="st1"></path>
                             </g>
                             <circle cx="166.2" cy="15.9" r="4.2" class="st1"></circle>
                             <g>
                                <path d="M162.4 11.9c-.8.9-1.1 2-.5 2.5.6.6 1.8.2 2.7-.7.8-.9 1.2-1.9.9-2.5-1 .2-2 .5-3.1.7z" class="st3"></path>
                                <path d="M164.9 11.3s.1 0 0 0c.1.1.2.1.2.3 0 .4-.2 1.1-.8 1.7-.4.4-.9.7-1.3.8-.2 0-.5.1-.7-.1-.3-.3-.1-1.2.7-2 .1-.1.3-.2.4-.3-.4.1-.8.2-1.3.2h-.4c-.7 1-.8 2.2-.2 2.8.3.3.6.4 1.1.4.2 0 .4 0 .6-.1.6-.2 1.2-.5 1.7-1.1.7-.8 1.2-1.7 1.1-2.4 0-.2-.1-.4-.1-.5-.3.1-.6.2-1 .3z" class="st1"></path>
                             </g>
                             <g>
                                <path d="M210.4 13.6c-.4 0-.9 0-1.3-.1-.3.8-.5 1.7-.5 2.6 0 .7.1 1.5.3 2.1.1 0 .2 0 .3.1.4.1.9.2 1.3.3-.4-.8-.6-1.7-.6-2.6 0-.8.2-1.7.5-2.4z" class="st1"></path>
                                <path d="M209.1 13.5c-.3.8-.5 1.7-.5 2.6 0 .7.1 1.5.3 2.1.1 0 .2 0 .3.1.6.2 1.3.3 2 .4.6-.3 1.4-.5 2.2-.6 3.3-.1 6.6.3 9.9.5.3-.8.5-1.7.5-2.6 0-.7-.1-1.4-.3-2-4.8.1-9.6-.3-14.4-.5z" class="st6"></path>
                                <path d="M209.6 13.5h-1c-.3.8-.5 1.7-.5 2.6 0 .7.1 1.4.3 2 .3 0 .6.1.8.2.1 0 .2 0 .3.1-.2-.7-.4-1.5-.4-2.3 0-.9.2-1.7.5-2.6zM223 14.2c.2.6.3 1.3.3 2 0 .9-.2 1.8-.5 2.6.3 0 .7 0 1 .1.3-.8.5-1.7.5-2.7 0-.7-.1-1.3-.3-2h-1zM215.5 18.9c1.4-.1 2.8-.1 4.2-.1.6-.7.9-1.6.9-2.6 0-.8-.2-1.5-.6-2.1-1.6 0-3.2-.2-4.9-.4-.7-.1-1.4-.1-2.1-.2-.6.7-.9 1.6-.9 2.6s.3 1.8.9 2.6c.8.1 1.6.1 2.5.2z" class="st1"></path>
                                <g>
                                   <path d="M211.7 13.5c-.1.5 0 .9.2 1.1.6.6 1.8.2 2.7-.7l.4-.4c-1 .1-2.1.1-3.3 0z" class="st3"></path>
                                   <path d="M214.4 13.5c-.1 0-.1.1 0 0-.4.4-.9.7-1.3.8-.2 0-.5.1-.7-.1-.2-.2-.1-.6-.1-.7h-1c-.1.6 0 1.1.4 1.5.3.3.6.4 1.1.4.2 0 .4 0 .6-.1.6-.2 1.2-.5 1.7-1.1.3-.3.5-.6.6-.9-.5.2-.9.2-1.3.2z" class="st1"></path>
                                </g>
                             </g>
                             <g>
                                <path d="M274.4 14.5l-4.8.3c-3.3.1-6.6 0-9.8.1-.1.4-.1.8-.1 1.3s.1 1 .1 1.5c2.3-.1 4.4.3 6.8.3 2.7.1 5.4 0 8.1-.2.1-.5.2-1 .2-1.6 0-.6-.1-1.1-.2-1.6-.1-.1-.2-.1-.3-.1z" class="st6"></path>
                                <path d="M274.5 14.5h-.3c.1.5.2 1.1.2 1.7 0 .6-.1 1.1-.2 1.6.3 0 .6-.1.9-.1h.1c.1-.5.1-1 .1-1.5s-.1-1-.2-1.5c-.1-.1-.4-.2-.6-.2zM268.5 18.7c.8-.1 1.7-.2 2.5-.3.4-.6.6-1.4.6-2.2 0-.5-.1-1-.3-1.5-.2 0-.5 0-.7-.1-2.4.2-4.8 0-7.2 0-.2.5-.3 1-.3 1.5 0 .8.2 1.6.6 2.2 1.6.2 3.2.3 4.8.4z" class="st1"></path>
                             </g>
                             <g>
                                <path d="M324.1 12.4c-1.9-.4-3.8-.7-5.8-.9-2.2 0-4.4.1-6.8.5-.8 1.2-1.3 2.6-1.3 4.2 0 1.2.3 2.4.8 3.4.3 0 .7 0 1 .1.9.2 1.8.3 2.7.4 3.3-.2 6.6-.5 9.9-.6.5-1 .8-2.1.8-3.3 0-1.4-.4-2.6-1-3.7 0-.1-.2-.1-.3-.1z" class="st6"></path>
                                <path d="M312.3 11.9c-.3 0-.7.1-1.1.1h-.3c-.7 1.2-1.1 2.6-1.1 4.1 0 1.2.3 2.4.8 3.5h1.1c-.6-1-.9-2.2-.9-3.5 0-1.6.5-3 1.5-4.2zM324.1 12.4h-.2c.7 1.1 1.1 2.4 1.1 3.8 0 1.2-.3 2.4-.9 3.4h1.1c.5-1 .7-2.1.7-3.3 0-1.3-.3-2.5-.9-3.6-.2-.2-.6-.2-.9-.3z" class="st1"></path>
                                <circle cx="318" cy="16.1" r="4.2" class="st1"></circle>
                                <path d="M316.4 13.9c-.9 1-2.1 1.3-2.7.7-.6-.6-.3-1.8.7-2.7.9-1 2.1-1.3 2.7-.7.6.5.2 1.7-.7 2.7z" class="st4"></path>
                             </g>
                             <g>
                                <path d="M374.9 16.1c-.1 3.5-2.9 6.2-6.3 6.2-3.5 0-6.3-2.9-6.3-6.3s2.8-6.3 6.3-6.3V8.5c-4.1 0-7.6 3.5-7.6 7.6 0 4.2 3.5 7.6 7.6 7.6s7.5-3.4 7.6-7.5c0-.1-1.3-.1-1.3-.1z" class="st1"></path>
                                <circle cx="368.6" cy="16.1" r="7.6" class="st2"></circle>
                                <circle cx="368.7" cy="16.1" r="4.2" class="st1"></circle>
                                <path d="M367.1 13.9c-.9 1-2.1 1.3-2.7.7-.6-.6-.3-1.8.7-2.7.9-1 2.1-1.3 2.7-.7.6.5.2 1.7-.7 2.7z" class="st4"></path>
                             </g>
                             <g>
                                <path d="M425.2 16.1c-.1 3.5-2.9 6.2-6.3 6.2-3.5 0-6.3-2.9-6.3-6.3s2.8-6.3 6.3-6.3V8.5c-4.1 0-7.6 3.5-7.6 7.6 0 4.2 3.5 7.6 7.6 7.6s7.5-3.4 7.6-7.5c0-.1-1.3-.1-1.3-.1z" class="st1"></path>
                                <circle cx="418.9" cy="16.1" r="7.6" class="st2"></circle>
                                <circle cx="419" cy="16.1" r="4.2" class="st1"></circle>
                                <path d="M417.4 13.9c-.9 1-2.1 1.3-2.7.7-.6-.6-.3-1.8.7-2.7.9-1 2.1-1.3 2.7-.7.6.5.3 1.7-.7 2.7z" class="st4"></path>
                             </g>
                             <g>
                                <path d="M476.1 16.1c-.1 3.5-2.9 6.2-6.3 6.2-3.5 0-6.3-2.9-6.3-6.3s2.8-6.3 6.3-6.3V8.5c-4.1 0-7.6 3.5-7.6 7.6 0 4.2 3.5 7.6 7.6 7.6s7.5-3.4 7.6-7.5c0-.1-1.3-.1-1.3-.1z" class="st1"></path>
                                <circle cx="469.8" cy="16.1" r="7.6" class="st2"></circle>
                                <circle cx="469.8" cy="16.1" r="4.2" class="st1"></circle>
                                <path d="M468.2 13.9c-.9 1-2.1 1.3-2.7.7-.6-.6-.3-1.8.7-2.7.9-1 2.1-1.3 2.7-.7.6.5.3 1.7-.7 2.7z" class="st4"></path>
                             </g>
                             <g>
                                <path d="M526.4 16.1c-.1 3.5-2.9 6.2-6.3 6.2-3.5 0-6.3-2.9-6.3-6.3s2.8-6.3 6.3-6.3V8.5c-4.1 0-7.6 3.5-7.6 7.6 0 4.2 3.5 7.6 7.6 7.6s7.5-3.4 7.6-7.5c0-.1-1.3-.1-1.3-.1z" class="st1"></path>
                                <circle cx="520.1" cy="16.1" r="7.6" class="st2"></circle>
                                <circle cx="520.2" cy="16.1" r="4.2" class="st1"></circle>
                                <path d="M518.6 13.9c-.9 1-2.1 1.3-2.7.7-.6-.6-.3-1.8.7-2.7.9-1 2.1-1.3 2.7-.7.6.5.3 1.7-.7 2.7z" class="st4"></path>
                             </g>
                             <g>
                                <path d="M577 16.1c-.1 3.5-2.9 6.2-6.3 6.2-3.5 0-6.3-2.9-6.3-6.3s2.8-6.3 6.3-6.3V8.5c-4.1 0-7.6 3.5-7.6 7.6 0 4.2 3.5 7.6 7.6 7.6s7.5-3.4 7.6-7.5c0-.1-1.3-.1-1.3-.1z" class="st1"></path>
                                <circle cx="570.7" cy="16.1" r="7.6" class="st2"></circle>
                                <circle cx="570.8" cy="16.1" r="4.2" class="st1"></circle>
                                <path d="M569.2 13.9c-.9 1-2.1 1.3-2.7.7-.6-.6-.3-1.8.7-2.7.9-1 2.1-1.3 2.7-.7.6.5.2 1.7-.7 2.7z" class="st4"></path>
                             </g>
                             <g>
                                <path d="M627.3 16.1c-.1 3.5-2.9 6.2-6.3 6.2-3.5 0-6.3-2.9-6.3-6.3s2.8-6.3 6.3-6.3V8.5c-4.1 0-7.6 3.5-7.6 7.6 0 4.2 3.5 7.6 7.6 7.6s7.5-3.4 7.6-7.5c0-.1-1.3-.1-1.3-.1z" class="st1"></path>
                                <circle cx="621" cy="16.1" r="7.6" class="st2"></circle>
                                <circle cx="621.1" cy="16.1" r="4.2" class="st1"></circle>
                                <path d="M619.5 13.9c-.9 1-2.1 1.3-2.7.7-.6-.6-.3-1.8.7-2.7.9-1 2.1-1.3 2.7-.7.6.5.2 1.7-.7 2.7z" class="st4"></path>
                             </g>
                          </svg>