<svg xmlns="http://www.w3.org/2000/svg" viewBox="0 0 114.22 167.21"><defs><style>.cls-1,.cls-2{fill:#2e97ff;stroke:#2b0c7d;stroke-miterlimit:10;stroke-width:2px;}.cls-1{stroke-linecap:square;}</style></defs><g id="Layer_2" data-name="Layer 2"><g id="Layer_1-2" data-name="Layer 1"><path class="cls-1" d="M11.23,165.81a54.42,54.42,0,0,1-9-42.95A57.3,57.3,0,0,1,28.12,86.45a64.49,64.49,0,0,1,45.79-8.62A61.5,61.5,0,0,1,112.83,102"/><path class="cls-2" d="M33.52,28.2c-1.58,2.33-2.63,3.71-2.89,4.05-3.17,4.09-4.48,4.66-5.75,6.74s-1.09,3.65-1.43,9.44-1,10.88-1.44,13.48c-1.25,7.52-1.92,11.28-4.32,13.49-4,3.66-8.42,2-12.95,6.74-1.24,1.37-3,3.16-2.87,5.39C2,90.48,5.38,93.2,14.81,97c8.23,3.26,13.21,4.23,23,6.76,15.12,3.88,22.69,5.83,27.38,8.08,1,.51,5.49,2.14,14.39,5.39,4.09,1.51,6.22,2.24,7.19,1.36s-.1-3.2-2.89-10.78c-3.12-8.55-3.22-10.33-5.75-12.15A18.82,18.82,0,0,0,71,92.93a44.51,44.51,0,0,0-7.89-.86H61.82q-7,.11-13.94.88s11-1.17,12.72-1.32h.23c4-.5,6.34-5.11,7.19-6.75,2.61-5-.2-9.15-1.43-17.5-1-6.62.47-6.79,0-16.17a95.57,95.57,0,0,0-1.44-13.49c-2.92-13.9-14-28.33-20.14-27C41.5,11.45,40.85,17.18,33.52,28.2Z"/><path class="cls-2" d="M33.52,10.67A7.39,7.39,0,0,0,35,16.06c2,2.34,4.72,1.69,7.19,4.05C44.12,22,43,23,45,26.84c.85,1.64,3.83,7.41,8.63,8.1,2.4.34,3.37-.85,5.76,0s2.79,2.71,4.3,2.7c2.18,0,5-3.72,4.32-6.75s-4.53-2.66-7.19-6.74c-2.49-3.81-.1-5.72-2.88-9.44-1.88-2.51-3.39-2.21-5.75-5.39-2.12-2.87-1.37-3.76-2.87-5.39C46.14.43,38.78.18,33.52,2.57a15.6,15.6,0,0,0-7.19,6.75c-.64,1.16-5.13,9.53,0,14.83,3,3.06,8,4,12.94,2.69l2.87-4"/><path class="cls-2" d="M26.33,43.05a18.54,18.54,0,0,1,2.93,4c1.51,2.88,1.25,4.35,2.88,5.39s2.92.21,4.32,1.35c1,.85.91,1.83,1.43,4,1.24,5.29,3.6,6.44,2.87,9.43A6.36,6.36,0,0,1,39.22,70"/><path class="cls-2" d="M55.81,55.89a17.3,17.3,0,0,1-1.44,5.39c-.58,1.28-2.59,5.76-7.2,8.1-2.35,1.16-5.87,1.24-12.94,1.34-5.3.08-8,.11-8.63,0-1.71-.29-3.11-.73-4.32,0a3.73,3.73,0,0,0-1.4,1.81,3.51,3.51,0,0,0,0,2.24c.73,1.77,3.51,2.33,7.2,2.69,9,1,13.51,1.44,18.67,0A33.8,33.8,0,0,0,64.39,64"/><path class="cls-2" d="M27.05,70.67a78.33,78.33,0,0,0,2.87-9.44,74,74,0,0,0,1.43-8.09m10.07-8.08a5.85,5.85,0,0,0,0,4,6.65,6.65,0,0,0,2.28,2.77,7.23,7.23,0,0,0,3.47,1.27"/></g></g></svg>