<svg xmlns="http://www.w3.org/2000/svg" viewBox="0 0 2400 100" width="2400" height="100"><path d="M109.45 64.585c.315-1.315 1.3025-2.2975 2.5-2.5.82-.1375 1.9575.0625 2.5.83.68.9725-.1725 2.0425 0 3.325.1525 1.14 1.1425 2.655 4.9875 4.155 0 0-4.9875-2.5-4.155-5.8175l-.845-3.3275c-.638-.06025-1.231-.3565-1.6625-.83-.83-.8325-1.6625-3.325-.83-4.1575.8325-.8325 1.6625-3.325 3.325-3.325h2.5s.8325 1.6625.8325 2.5c0 .8375-1.6625 1.6625 0 2.5 1.6625.8375 4.1475 4.155 4.1475 4.155l4.155 3.3225s1.6625 7.4825-2.5 9.145c-4.1625 1.6625-13.3-1.6625-14.9625-2.5-1.6625-.8375-8.31-1.6625-10.805-3.325-2.495-1.6625-3.3225-4.155-5.8175-4.155s-7.48.83-10.805-.83c-3.325-1.66-6.65-4.1575-7.48-5-.83-.8425-4.155-6.65 0-5.82.63825.06075 1.2315.35775 1.6625.8325.83.83-.8325-5 6.65-1.6625 0 0-.8325-5.8175 4.155-3.325 4.9875 2.4925 6.65 2.5 11.635 2.5 4.985 0 7.4825.83 9.145 0 1.6625-.83 4.985-.8325 6.6475.83l.8325.83h2.5l.8325 1.6625s0 1.6625-.8325 2.5l8.3125 7.48L138.5425 80.37s-9.975 12.4675-14.13 10.805c0 0-11.6375-15.7925-14.13-18.285M76.205 53.78s9.5575 8.3125 18.285 4.9875m-10.805-6.65s8.3125 7.48 21.61 6.65m-31.2725-.54s13.715 7.48 22.4425 4.155" fill="#eae4dd" stroke="#22267a" fill-rule="evenodd" stroke-width="2"/><path d="M74.5 72.48s-.8325-.83-1.6625-.83c-.83 0-4.9875-.8325-7.48-1.6625-2.4925-.83-4.9875-1.6625-6.65-2.5-1.6625-.8375-5-2.5-8.3125-2.5s-6.6475-.83-8.31.8325c-1.6625 1.6625 2.5 4.155 3.325 4.155.825 0 7.48 2.5 9.1425 3.325 1.6625.825 8.31 4.9875 9.9725 5.8175 1.6625.83 10.805 5.8175 14.13 6.65 3.325.8325 13.3.83 17.455-.8325 4.155-1.6625 8.3125-1.6625 10.805-3.3225L134.77 97s12.48-2.5 9.98-12.4675l-11.635-4.9875-23.9375-9.175c-.9175-.7175-2.7275-1.82-4.7375-2.045-4.135-.46-6.2025-.69-8.3125 0-2.6325.8625-3 2.08-5.8175 2.5-.5.0725-.5975.0525-3.325 0 0 0-1.53-.0275-7.48 0-3.4475.0175-3.605.885-4.1575 1.6625-.5.7075-.5125 1.8525 0 2.5.6.75 1.5425.3525 3.325.83 1.6225.435 1.6.9625 3.325 1.6625 1.4775.6 2.6675.685 5 .8325 2.435.1525 2.8375-.06 4.9875 0 3.3425.09 4.05.65 6.6475.83 2.5235.16125 5.05575-.11975 7.4825-.83m-56.96-13.345s7.485 5.435 25.77 9.5925" fill="#eae4dd" stroke="#22267a" fill-rule="evenodd" stroke-width="2"/><g fill="#eae4dd" stroke="#22267a"><path d="M39.165 81.125l-15.25-44s-1.75-3.25-4.5-3.5l-13.25-1s-4.5.25-4 3l14.5 48.25s1.75 5.25 5.5 4.75l15.25-2s3.25-1.25 1.75-5.5z" stroke-width="2"/><path d="M39.165 81.375l-15.5-44.25s-1.5-3.75-5.25-3.75l-13.25-.75s-3 .25-2 3.25l15 46.5s1.25 6 5.25 5.25l14.5-2.25s2.75 0 1.25-4z" stroke-width="2"/></g><path d="M259.077574 64.585c.315-1.315 1.3025-2.2975 2.5-2.5.82-.1375 1.9575.0625 2.5.83.68.9725-.1725 2.0425 0 3.325.1525 1.14 1.1425 2.655 4.9875 4.155 0 0-4.9875-2.5-4.155-5.8175l-.845-3.3275c-.638-.06025-1.231-.3565-1.6625-.83-.83-.8325-1.6625-3.325-.83-4.1575.8325-.8325 1.6625-3.325 3.325-3.325h2.5s.8325 1.6625.8325 2.5c0 .8375-1.6625 1.6625 0 2.5 1.6625.8375 4.1475 4.155 4.1475 4.155l4.155 3.3225s1.6625 7.4825-2.5 9.145c-4.1625 1.6625-13.3-1.6625-14.9625-2.5-1.6625-.8375-8.31-1.6625-10.805-3.325-2.495-1.6625-3.3225-4.155-5.8175-4.155s-7.48.83-10.805-.83c-3.325-1.66-6.65-4.1575-7.48-5-.83-.8425-4.155-6.65 0-5.82.63825.06075 1.2315.35775 1.6625.8325.83.83-.8325-5 6.65-1.6625 0 0-.8325-5.8175 4.155-3.325 4.9875 2.4925 6.65 2.5 11.635 2.5 4.985 0 7.4825.83 9.145 0 1.6625-.83 4.985-.8325 6.6475.83l.8325.83h2.5l.8325 1.6625s0 1.6625-.8325 2.5l8.3125 7.48 12.4675 15.7925s-9.975 12.4675-14.13 10.805c0 0-11.6375-15.7925-14.13-18.285m-34.0775-19.11s9.5575 8.3125 18.285 4.9875m-10.805-6.65s8.3125 7.48 21.61 6.65m-31.2725-.54s13.715 7.48 22.4425 4.155" fill="#eae4dd" stroke="#22267a" fill-rule="evenodd" stroke-width="2"/><path d="M224.5 72.48s-.8325-.83-1.6625-.83c-.83 0-4.9875-.8325-7.48-1.6625-2.4925-.83-4.9875-1.6625-6.65-2.5-1.6625-.8375-5-2.5-8.3125-2.5s-6.6475-.83-8.31.8325c-1.6625 1.6625 2.5 4.155 3.325 4.155.825 0 7.48 2.5 9.1425 3.325 1.6625.825 8.31 4.9875 9.9725 5.8175 1.6625.83 10.805 5.8175 14.13 6.65 3.325.8325 13.3.83 17.455-.8325 4.155-1.6625 8.3125-1.6625 10.805-3.3225L284.77 97s12.48-2.5 9.98-12.4675l-11.635-4.9875-23.9375-9.175c-.9175-.7175-2.7275-1.82-4.7375-2.045-4.135-.46-6.2025-.69-8.3125 0-2.6325.8625-3 2.08-5.8175 2.5-.5.0725-.5975.0525-3.325 0 0 0-1.53-.0275-7.48 0-3.4475.0175-3.605.885-4.1575 1.6625-.5.7075-.5125 1.8525 0 2.5.6.75 1.5425.3525 3.325.83 1.6225.435 1.6.9625 3.325 1.6625 1.4775.6 2.6675.685 5 .8325 2.435.1525 2.8375-.06 4.9875 0 3.3425.09 4.05.65 6.6475.83 2.5235.16125 5.05575-.11975 7.4825-.83m-56.96-13.345s7.485 5.435 25.77 9.5925" fill="#eae4dd" stroke="#22267a" fill-rule="evenodd" stroke-width="2"/><g fill="#eae4dd" stroke="#22267a"><path d="M189.165 80.99199l-15.25-44s-1.75-3.25-4.5-3.5l-13.25-1s-4.5.25-4 3l14.5 48.25s1.75 5.25 5.5 4.75l15.25-2s3.25-1.25 1.75-5.5z" stroke-width="2"/><path d="M189.165 81.24199l-15.5-44.25s-1.5-3.75-5.25-3.75l-13.25-.75s-3 .25-2 3.25l15 46.5s1.25 6 5.25 5.25l14.5-2.25s2.75 0 1.25-4z" stroke-width="2"/></g><path d="M407.702422 64.585c.315-1.315 1.3025-2.2975 2.5-2.5.82-.1375 1.9575.0625 2.5.83.68.9725-.1725 2.0425 0 3.325.1525 1.14 1.1425 2.655 4.9875 4.155 0 0-4.9875-2.5-4.155-5.8175l-.845-3.3275c-.638-.06025-1.231-.3565-1.6625-.83-.83-.8325-1.6625-3.325-.83-4.1575.8325-.8325 1.6625-3.325 3.325-3.325h2.5s.8325 1.6625.8325 2.5c0 .8375-1.6625 1.6625 0 2.5 1.6625.8375 4.1475 4.155 4.1475 4.155l4.155 3.3225s1.6625 7.4825-2.5 9.145c-4.1625 1.6625-13.3-1.6625-14.9625-2.5-1.6625-.8375-8.31-1.6625-10.805-3.325-2.495-1.6625-3.3225-4.155-5.8175-4.155s-7.48.83-10.805-.83c-3.325-1.66-6.65-4.1575-7.48-5-.83-.8425-4.155-6.65 0-5.82.63825.06075 1.2315.35775 1.6625.8325.83.83-.8325-5 6.65-1.6625 0 0-.8325-5.8175 4.155-3.325 4.9875 2.4925 6.65 2.5 11.635 2.5 4.985 0 7.4825.83 9.145 0 1.6625-.83 4.985-.8325 6.6475.83l.8325.83h2.5l.8325 1.6625s0 1.6625-.8325 2.5l8.3125 7.48 12.4675 15.7925s-9.975 12.4675-14.13 10.805c0 0-11.6375-15.7925-14.13-18.285m-34.0775-19.11s9.5575 8.3125 18.285 4.9875m-10.805-6.65s8.3125 7.48 21.61 6.65m-31.2725-.54s13.715 7.48 22.4425 4.155" fill="#eae4dd" stroke="#22267a" fill-rule="evenodd" stroke-width="2"/><path d="M374.5 72.48s-.8325-.83-1.6625-.83c-.83 0-4.9875-.8325-7.48-1.6625-2.4925-.83-4.9875-1.6625-6.65-2.5-1.6625-.8375-5-2.5-8.3125-2.5s-6.6475-.83-8.31.8325c-1.6625 1.6625 2.5 4.155 3.325 4.155.825 0 7.48 2.5 9.1425 3.325 1.6625.825 8.31 4.9875 9.9725 5.8175 1.6625.83 10.805 5.8175 14.13 6.65 3.325.8325 13.3.83 17.455-.8325 4.155-1.6625 8.3125-1.6625 10.805-3.3225L434.77 97s12.48-2.5 9.98-12.4675l-11.635-4.9875-23.9375-9.175c-.9175-.7175-2.7275-1.82-4.7375-2.045-4.135-.46-6.2025-.69-8.3125 0-2.6325.8625-3 2.08-5.8175 2.5-.5.0725-.5975.0525-3.325 0 0 0-1.53-.0275-7.48 0-3.4475.0175-3.605.885-4.1575 1.6625-.5.7075-.5125 1.8525 0 2.5.6.75 1.5425.3525 3.325.83 1.6225.435 1.6.9625 3.325 1.6625 1.4775.6 2.6675.685 5 .8325 2.435.1525 2.8375-.06 4.9875 0 3.3425.09 4.05.65 6.6475.83 2.5235.16125 5.05575-.11975 7.4825-.83m-56.96-13.345s7.485 5.435 25.77 9.5925" fill="#eae4dd" stroke="#22267a" fill-rule="evenodd" stroke-width="2"/><g fill="#eae4dd" stroke="#22267a"><path d="M339.165 80.500865l-15.25-44s-1.75-3.25-4.5-3.5l-13.25-1s-4.5.25-4 3l14.5 48.25s1.75 5.25 5.5 4.75l15.25-2s3.25-1.25 1.75-5.5z" stroke-width="2"/><path d="M339.165 80.750865l-15.5-44.25s-1.5-3.75-5.25-3.75l-13.25-.75s-3 .25-2 3.25l15 46.5s1.25 6 5.25 5.25l14.5-2.25s2.75 0 1.25-4z" stroke-width="2"/></g><path d="M554.761863 64.585c.315-1.315 1.3025-2.2975 2.5-2.5.82-.1375 1.9575.0625 2.5.83.68.9725-.1725 2.0425 0 3.325.1525 1.14 1.1425 2.655 4.9875 4.155 0 0-4.9875-2.5-4.155-5.8175l-.845-3.3275c-.638-.06025-1.231-.3565-1.6625-.83-.83-.8325-1.6625-3.325-.83-4.1575.8325-.8325 1.6625-3.325 3.325-3.325h2.5s.8325 1.6625.8325 2.5c0 .8375-1.6625 1.6625 0 2.5 1.6625.8375 4.1475 4.155 4.1475 4.155l4.155 3.3225s1.6625 7.4825-2.5 9.145c-4.1625 1.6625-13.3-1.6625-14.9625-2.5-1.6625-.8375-8.31-1.6625-10.805-3.325-2.495-1.6625-3.3225-4.155-5.8175-4.155s-7.48.83-10.805-.83c-3.325-1.66-6.65-4.1575-7.48-5-.83-.8425-4.155-6.65 0-5.82.63825.06075 1.2315.35775 1.6625.8325.83.83-.8325-5 6.65-1.6625 0 0-.8325-5.8175 4.155-3.325 4.9875 2.4925 6.65 2.5 11.635 2.5 4.985 0 7.4825.83 9.145 0 1.6625-.83 4.985-.8325 6.6475.83l.8325.83h2.5l.8325 1.6625s0 1.6625-.8325 2.5l8.3125 7.48 12.4675 15.7925s-9.975 12.4675-14.13 10.805c0 0-11.6375-15.7925-14.13-18.285m-34.0775-19.11s9.5575 8.3125 18.285 4.9875m-10.805-6.65s8.3125 7.48 21.61 6.65m-31.2725-.54s13.715 7.48 22.4425 4.155" fill="#eae4dd" stroke="#22267a" fill-rule="evenodd" stroke-width="2"/><path d="M524.5 72.48s-.8325-.83-1.6625-.83c-.83 0-4.9875-.8325-7.48-1.6625-2.4925-.83-4.9875-1.6625-6.65-2.5-1.6625-.8375-5-2.5-8.3125-2.5s-6.6475-.83-8.31.8325c-1.6625 1.6625 2.5 4.155 3.325 4.155.825 0 7.48 2.5 9.1425 3.325 1.6625.825 8.31 4.9875 9.9725 5.8175 1.6625.83 10.805 5.8175 14.13 6.65 3.325.8325 13.3.83 17.455-.8325 4.155-1.6625 8.3125-1.6625 10.805-3.3225L584.77 97s12.48-2.5 9.98-12.4675l-11.635-4.9875-23.9375-9.175c-.9175-.7175-2.7275-1.82-4.7375-2.045-4.135-.46-6.2025-.69-8.3125 0-2.6325.8625-3 2.08-5.8175 2.5-.5.0725-.5975.0525-3.325 0 0 0-1.53-.0275-7.48 0-3.4475.0175-3.605.885-4.1575 1.6625-.5.7075-.5125 1.8525 0 2.5.6.75 1.5425.3525 3.325.83 1.6225.435 1.6.9625 3.325 1.6625 1.4775.6 2.6675.685 5 .8325 2.435.1525 2.8375-.06 4.9875 0 3.3425.09 4.05.65 6.6475.83 2.5235.16125 5.05575-.11975 7.4825-.83m-56.96-13.345s7.485 5.435 25.77 9.5925" fill="#eae4dd" stroke="#22267a" fill-rule="evenodd" stroke-width="2"/><g fill="#eae4dd" stroke="#22267a"><path d="M489.165 79.450665l-15.25-44s-1.75-3.25-4.5-3.5l-13.25-1s-4.5.25-4 3l14.5 48.25s1.75 5.25 5.5 4.75l15.25-2s3.25-1.25 1.75-5.5z" stroke-width="2"/><path d="M489.165 79.700665l-15.5-44.25s-1.5-3.75-5.25-3.75l-13.25-.75s-3 .25-2 3.25l15 46.5s1.25 6 5.25 5.25l14.5-2.25s2.75 0 1.25-4z" stroke-width="2"/></g><path d="M699.718126 64.341349c.315-1.315 1.3025-2.2975 2.5-2.5.82-.1375 1.9575.0625 2.5.83.68.9725-.1725 2.0425 0 3.325.1525 1.14 1.1425 2.655 4.9875 4.155 0 0-4.9875-2.5-4.155-5.8175l-.845-3.3275c-.638-.06025-1.231-.3565-1.6625-.83-.83-.8325-1.6625-3.325-.83-4.1575.8325-.8325 1.6625-3.325 3.325-3.325h2.5s.8325 1.6625.8325 2.5c0 .8375-1.6625 1.6625 0 2.5 1.6625.8375 4.1475 4.155 4.1475 4.155l4.155 3.3225s1.6625 7.4825-2.5 9.145c-4.1625 1.6625-13.3-1.6625-14.9625-2.5-1.6625-.8375-8.31-1.6625-10.805-3.325-2.495-1.6625-3.3225-4.155-5.8175-4.155s-7.48.83-10.805-.83c-3.325-1.66-6.65-4.1575-7.48-5-.83-.8425-4.155-6.65 0-5.82.63825.06075 1.2315.35775 1.6625.8325.83.83-.8325-5 6.65-1.6625 0 0-.8325-5.8175 4.155-3.325 4.9875 2.4925 6.65 2.5 11.635 2.5 4.985 0 7.4825.83 9.145 0 1.6625-.83 4.985-.8325 6.6475.83l.8325.83h2.5l.8325 1.6625s0 1.6625-.8325 2.5l8.3125 7.48 12.4675 15.7925s-9.975 12.4675-14.13 10.805c0 0-11.6375-15.7925-14.13-18.285m-34.0775-19.11s9.5575 8.3125 18.285 4.9875m-10.805-6.65s8.3125 7.48 21.61 6.65m-31.2725-.54s13.715 7.48 22.4425 4.155" fill="#eae4dd" stroke="#22267a" fill-rule="evenodd" stroke-width="2"/><path d="M674.5 72.48s-.8325-.83-1.6625-.83c-.83 0-4.9875-.8325-7.48-1.6625-2.4925-.83-4.9875-1.6625-6.65-2.5-1.6625-.8375-5-2.5-8.3125-2.5s-6.6475-.83-8.31.8325c-1.6625 1.6625 2.5 4.155 3.325 4.155.825 0 7.48 2.5 9.1425 3.325 1.6625.825 8.31 4.9875 9.9725 5.8175 1.6625.83 10.805 5.8175 14.13 6.65 3.325.8325 13.3.83 17.455-.8325 4.155-1.6625 8.3125-1.6625 10.805-3.3225L734.77 97s12.48-2.5 9.98-12.4675l-11.635-4.9875-23.9375-9.175c-.9175-.7175-2.7275-1.82-4.7375-2.045-4.135-.46-6.2025-.69-8.3125 0-2.6325.8625-3 2.08-5.8175 2.5-.5.0725-.5975.0525-3.325 0 0 0-1.53-.0275-7.48 0-3.4475.0175-3.605.885-4.1575 1.6625-.5.7075-.5125 1.8525 0 2.5.6.75 1.5425.3525 3.325.83 1.6225.435 1.6.9625 3.325 1.6625 1.4775.6 2.6675.685 5 .8325 2.435.1525 2.8375-.06 4.9875 0 3.3425.09 4.05.65 6.6475.83 2.5235.16125 5.05575-.11975 7.4825-.83m-56.96-13.345s7.485 5.435 25.77 9.5925" fill="#eae4dd" stroke="#22267a" fill-rule="evenodd" stroke-width="2"/><g fill="#eae4dd" stroke="#22267a"><path d="M639.165 77.64933l-15.25-44s-1.75-3.25-4.5-3.5l-13.25-1s-4.5.25-4 3l14.5 48.25s1.75 5.25 5.5 4.75l15.25-2s3.25-1.25 1.75-5.5z" stroke-width="2"/><path d="M639.165 77.89933l-15.5-44.25s-1.5-3.75-5.25-3.75l-13.25-.75s-3 .25-2 3.25l15 46.5s1.25 6 5.25 5.25l14.5-2.25s2.75 0 1.25-4z" stroke-width="2"/></g><path d="M843.44619 63.347096c.315-1.315 1.3025-2.2975 2.5-2.5.82-.1375 1.9575.0625 2.5.83.68.9725-.1725 2.0425 0 3.325.1525 1.14 1.1425 2.655 4.9875 4.155 0 0-4.9875-2.5-4.155-5.8175l-.845-3.3275c-.638-.06025-1.231-.3565-1.6625-.83-.83-.8325-1.6625-3.325-.83-4.1575.8325-.8325 1.6625-3.325 3.325-3.325h2.5s.8325 1.6625.8325 2.5c0 .8375-1.6625 1.6625 0 2.5 1.6625.8375 4.1475 4.155 4.1475 4.155l4.155 3.3225s1.6625 7.4825-2.5 9.145c-4.1625 1.6625-13.3-1.6625-14.9625-2.5-1.6625-.8375-8.31-1.6625-10.805-3.325-2.495-1.6625-3.3225-4.155-5.8175-4.155s-7.48.83-10.805-.83c-3.325-1.66-6.65-4.1575-7.48-5-.83-.8425-4.155-6.65 0-5.82.63825.06075 1.2315.35775 1.6625.8325.83.83-.8325-5 6.65-1.6625 0 0-.8325-5.8175 4.155-3.325 4.9875 2.4925 6.65 2.5 11.635 2.5 4.985 0 7.4825.83 9.145 0 1.6625-.83 4.985-.8325 6.6475.83l.8325.83h2.5l.8325 1.6625s0 1.6625-.8325 2.5l8.3125 7.48 12.4675 15.7925s-9.975 12.4675-14.13 10.805c0 0-11.6375-15.7925-14.13-18.285m-34.0775-19.11s9.5575 8.3125 18.285 4.9875m-10.805-6.65s8.3125 7.48 21.61 6.65m-31.2725-.54s13.715 7.48 22.4425 4.155" fill="#eae4dd" stroke="#22267a" fill-rule="evenodd" stroke-width="2"/><path d="M824.5 72.48s-.8325-.83-1.6625-.83c-.83 0-4.9875-.8325-7.48-1.6625-2.4925-.83-4.9875-1.6625-6.65-2.5-1.6625-.8375-5-2.5-8.3125-2.5s-6.6475-.83-8.31.8325c-1.6625 1.6625 2.5 4.155 3.325 4.155.825 0 7.48 2.5 9.1425 3.325 1.6625.825 8.31 4.9875 9.9725 5.8175 1.6625.83 10.805 5.8175 14.13 6.65 3.325.8325 13.3.83 17.455-.8325 4.155-1.6625 8.3125-1.6625 10.805-3.3225L884.77 97s12.48-2.5 9.98-12.4675l-11.635-4.9875-23.9375-9.175c-.9175-.7175-2.7275-1.82-4.7375-2.045-4.135-.46-6.2025-.69-8.3125 0-2.6325.8625-3 2.08-5.8175 2.5-.5.0725-.5975.0525-3.325 0 0 0-1.53-.0275-7.48 0-3.4475.0175-3.605.885-4.1575 1.6625-.5.7075-.5125 1.8525 0 2.5.6.75 1.5425.3525 3.325.83 1.6225.435 1.6.9625 3.325 1.6625 1.4775.6 2.6675.685 5 .8325 2.435.1525 2.8375-.06 4.9875 0 3.3425.09 4.05.65 6.6475.83 2.5235.16125 5.05575-.11975 7.4825-.83m-56.96-13.345s7.485 5.435 25.77 9.5925" fill="#eae4dd" stroke="#22267a" fill-rule="evenodd" stroke-width="2"/><g fill="#eae4dd" stroke="#22267a"><path d="M789.165 75.409353l-15.25-44s-1.75-3.25-4.5-3.5l-13.25-1s-4.5.25-4 3l14.5 48.25s1.75 5.25 5.5 4.75l15.25-2s3.25-1.25 1.75-5.5z" stroke-width="2"/><path d="M789.165 75.659353l-15.5-44.25s-1.5-3.75-5.25-3.75l-13.25-.75s-3 .25-2 3.25l15 46.5s1.25 6 5.25 5.25l14.5-2.25s2.75 0 1.25-4z" stroke-width="2"/></g><g><path d="M987.974184 61.103385c.315-1.315 1.3025-2.2975 2.5-2.5.82-.1375 1.9575.0625 2.5.83.68.9725-.1725 2.0425 0 3.325.1525 1.14 1.1425 2.655 4.9875 4.155 0 0-4.9875-2.5-4.155-5.8175l-.845-3.3275c-.638-.06025-1.231-.3565-1.6625-.83-.83-.8325-1.6625-3.325-.83-4.1575.8325-.8325 1.6625-3.325 3.325-3.325h2.5s.8325 1.6625.8325 2.5c0 .8375-1.6625 1.6625 0 2.5 1.6625.8375 4.1475 4.155 4.1475 4.155l4.155 3.3225s1.6625 7.4825-2.5 9.145c-4.1625 1.6625-13.3-1.6625-14.9625-2.5-1.6625-.8375-8.31-1.6625-10.805-3.325-2.495-1.6625-3.3225-4.155-5.8175-4.155s-7.48.83-10.805-.83c-3.325-1.66-6.65-4.1575-7.48-5-.83-.8425-4.155-6.65 0-5.82.63825.06075 1.2315.35775 1.6625.8325.83.83-.8325-5 6.65-1.6625 0 0-.8325-5.8175 4.155-3.325 4.9875 2.4925 6.65 2.5 11.635 2.5 4.985 0 7.4825.83 9.145 0 1.6625-.83 4.985-.8325 6.6475.83l.8325.83h2.5l.8325 1.6625s0 1.6625-.8325 2.5l8.3125 7.48 12.4675 15.7925s-9.975 12.4675-14.13 10.805c0 0-11.6375-15.7925-14.13-18.285m-34.0775-19.11s9.5575 8.3125 18.285 4.9875m-10.805-6.65s8.3125 7.48 21.61 6.65m-31.2725-.54s13.715 7.48 22.4425 4.155" fill="#eae4dd" stroke="#22267a" fill-rule="evenodd" stroke-width="2"/><path d="M974.5 72.48s-.8325-.83-1.6625-.83c-.83 0-4.9875-.8325-7.48-1.6625-2.4925-.83-4.9875-1.6625-6.65-2.5-1.6625-.8375-5-2.5-8.3125-2.5s-6.6475-.83-8.31.8325c-1.6625 1.6625 2.5 4.155 3.325 4.155.825 0 7.48 2.5 9.1425 3.325 1.6625.825 8.31 4.9875 9.9725 5.8175 1.6625.83 10.805 5.8175 14.13 6.65 3.325.8325 13.3.83 17.455-.8325 4.155-1.6625 8.3125-1.6625 10.805-3.3225L1034.77 97s12.48-2.5 9.98-12.4675l-11.635-4.9875-23.9375-9.175c-.9175-.7175-2.7275-1.82-4.7375-2.045-4.135-.46-6.2025-.69-8.3125 0-2.6325.8625-3 2.08-5.8175 2.5-.5.0725-.5975.0525-3.325 0 0 0-1.53-.0275-7.48 0-3.4475.0175-3.605.885-4.1575 1.6625-.5.7075-.5125 1.8525 0 2.5.6.75 1.5425.3525 3.325.83 1.6225.435 1.6.9625 3.325 1.6625 1.4775.6 2.6675.685 5 .8325 2.435.1525 2.8375-.06 4.9875 0 3.3425.09 4.05.65 6.6475.83 2.5235.16125 5.05575-.11975 7.4825-.83m-56.96-13.345s7.485 5.435 25.77 9.5925" fill="#eae4dd" stroke="#22267a" fill-rule="evenodd" stroke-width="2"/><g fill="#eae4dd" stroke="#22267a"><path d="M939.165 73.455066l-15.25-44s-1.75-3.25-4.5-3.5l-13.25-1s-4.5.25-4 3l14.5 48.25s1.75 5.25 5.5 4.75l15.25-2s3.25-1.25 1.75-5.5z" stroke-width="2"/><path d="M939.165 73.705066l-15.5-44.25s-1.5-3.75-5.25-3.75l-13.25-.75s-3 .25-2 3.25l15 46.5s1.25 6 5.25 5.25l14.5-2.25s2.75 0 1.25-4z" stroke-width="2"/></g></g><g><path d="M1133.901141 57.792134c.315-1.315 1.3025-2.2975 2.5-2.5.82-.1375 1.9575.0625 2.5.83.68.9725-.1725 2.0425 0 3.325.1525 1.14 1.1425 2.655 4.9875 4.155 0 0-4.9875-2.5-4.155-5.8175l-.845-3.3275c-.638-.06025-1.231-.3565-1.6625-.83-.83-.8325-1.6625-3.325-.83-4.1575.8325-.8325 1.6625-3.325 3.325-3.325h2.5s.8325 1.6625.8325 2.5c0 .8375-1.6625 1.6625 0 2.5 1.6625.8375 4.1475 4.155 4.1475 4.155l4.155 3.3225s1.6625 7.4825-2.5 9.145c-4.1625 1.6625-13.3-1.6625-14.9625-2.5-1.6625-.8375-8.31-1.6625-10.805-3.325-2.495-1.6625-3.3225-4.155-5.8175-4.155s-7.48.83-10.805-.83c-3.325-1.66-6.65-4.1575-7.48-5-.83-.8425-4.155-6.65 0-5.82.63825.06075 1.2315.35775 1.6625.8325.83.83-.8325-5 6.65-1.6625 0 0-.8325-5.8175 4.155-3.325 4.9875 2.4925 6.65 2.5 11.635 2.5 4.985 0 7.4825.83 9.145 0 1.6625-.83 4.985-.8325 6.6475.83l.8325.83h2.5l.8325 1.6625s0 1.6625-.8325 2.5l8.3125 7.48 12.4675 15.7925s-9.975 12.4675-14.13 10.805c0 0-11.6375-15.7925-14.13-18.285m-34.0775-19.11s9.5575 8.3125 18.285 4.9875m-10.805-6.65s8.3125 7.48 21.61 6.65m-31.2725-.54s13.715 7.48 22.4425 4.155" fill="#eae4dd" stroke="#22267a" fill-rule="evenodd" stroke-width="2"/><path d="M1124.5 72.48s-.8325-.83-1.6625-.83c-.83 0-4.9875-.8325-7.48-1.6625-2.4925-.83-4.9875-1.6625-6.65-2.5-1.6625-.8375-5-2.5-8.3125-2.5s-6.6475-.83-8.31.8325c-1.6625 1.6625 2.5 4.155 3.325 4.155.825 0 7.48 2.5 9.1425 3.325 1.6625.825 8.31 4.9875 9.9725 5.8175 1.6625.83 10.805 5.8175 14.13 6.65 3.325.8325 13.3.83 17.455-.8325 4.155-1.6625 8.3125-1.6625 10.805-3.3225L1184.77 97s12.48-2.5 9.98-12.4675l-11.635-4.9875-23.9375-9.175c-.9175-.7175-2.7275-1.82-4.7375-2.045-4.135-.46-6.2025-.69-8.3125 0-2.6325.8625-3 2.08-5.8175 2.5-.5.0725-.5975.0525-3.325 0 0 0-1.53-.0275-7.48 0-3.4475.0175-3.605.885-4.1575 1.6625-.5.7075-.5125 1.8525 0 2.5.6.75 1.5425.3525 3.325.83 1.6225.435 1.6.9625 3.325 1.6625 1.4775.6 2.6675.685 5 .8325 2.435.1525 2.8375-.06 4.9875 0 3.3425.09 4.05.65 6.6475.83 2.5235.16125 5.05575-.11975 7.4825-.83m-56.96-13.345s7.485 5.435 25.77 9.5925" fill="#eae4dd" stroke="#22267a" fill-rule="evenodd" stroke-width="2"/><g fill="#eae4dd" stroke="#22267a"><path d="M1089.165 72.000408l-15.25-44s-1.75-3.25-4.5-3.5l-13.25-1s-4.5.25-4 3l14.5 48.25s1.75 5.25 5.5 4.75l15.25-2s3.25-1.25 1.75-5.5z" stroke-width="2"/><path d="M1089.165 72.250408l-15.5-44.25s-1.5-3.75-5.25-3.75l-13.25-.75s-3 .25-2 3.25l15 46.5s1.25 6 5.25 5.25l14.5-2.25s2.75 0 1.25-4z" stroke-width="2"/></g></g><g><path d="M1280.944882 54.932753c.315-1.315 1.3025-2.2975 2.5-2.5.82-.1375 1.9575.0625 2.5.83.68.9725-.1725 2.0425 0 3.325.1525 1.14 1.1425 2.655 4.9875 4.155 0 0-4.9875-2.5-4.155-5.8175l-.845-3.3275c-.638-.06025-1.231-.3565-1.6625-.83-.83-.8325-1.6625-3.325-.83-4.1575.8325-.8325 1.6625-3.325 3.325-3.325h2.5s.8325 1.6625.8325 2.5c0 .8375-1.6625 1.6625 0 2.5 1.6625.8375 4.1475 4.155 4.1475 4.155l4.155 3.3225s1.6625 7.4825-2.5 9.145c-4.1625 1.6625-13.3-1.6625-14.9625-2.5-1.6625-.8375-8.31-1.6625-10.805-3.325-2.495-1.6625-3.3225-4.155-5.8175-4.155s-7.48.83-10.805-.83c-3.325-1.66-6.65-4.1575-7.48-5-.83-.8425-4.155-6.65 0-5.82.63825.06075 1.2315.35775 1.6625.8325.83.83-.8325-5 6.65-1.6625 0 0-.8325-5.8175 4.155-3.325 4.9875 2.4925 6.65 2.5 11.635 2.5 4.985 0 7.4825.83 9.145 0 1.6625-.83 4.985-.8325 6.6475.83l.8325.83h2.5l.8325 1.6625s0 1.6625-.8325 2.5l8.3125 7.48 12.4675 15.7925s-9.975 12.4675-14.13 10.805c0 0-11.6375-15.7925-14.13-18.285m-34.0775-19.11s9.5575 8.3125 18.285 4.9875m-10.805-6.65s8.3125 7.48 21.61 6.65m-31.2725-.54s13.715 7.48 22.4425 4.155" fill="#eae4dd" stroke="#22267a" fill-rule="evenodd" stroke-width="2"/><path d="M1274.5 72.48s-.8325-.83-1.6625-.83c-.83 0-4.9875-.8325-7.48-1.6625-2.4925-.83-4.9875-1.6625-6.65-2.5-1.6625-.8375-5-2.5-8.3125-2.5s-6.6475-.83-8.31.8325c-1.6625 1.6625 2.5 4.155 3.325 4.155.825 0 7.48 2.5 9.1425 3.325 1.6625.825 8.31 4.9875 9.9725 5.8175 1.6625.83 10.805 5.8175 14.13 6.65 3.325.8325 13.3.83 17.455-.8325 4.155-1.6625 8.3125-1.6625 10.805-3.3225L1334.77 97s12.48-2.5 9.98-12.4675l-11.635-4.9875-23.9375-9.175c-.9175-.7175-2.7275-1.82-4.7375-2.045-4.135-.46-6.2025-.69-8.3125 0-2.6325.8625-3 2.08-5.8175 2.5-.5.0725-.5975.0525-3.325 0 0 0-1.53-.0275-7.48 0-3.4475.0175-3.605.885-4.1575 1.6625-.5.7075-.5125 1.8525 0 2.5.6.75 1.5425.3525 3.325.83 1.6225.435 1.6.9625 3.325 1.6625 1.4775.6 2.6675.685 5 .8325 2.435.1525 2.8375-.06 4.9875 0 3.3425.09 4.05.65 6.6475.83 2.5235.16125 5.05575-.11975 7.4825-.83m-56.96-13.345s7.485 5.435 25.77 9.5925" fill="#eae4dd" stroke="#22267a" fill-rule="evenodd" stroke-width="2"/><g fill="#eae4dd" stroke="#22267a"><path d="M1239.165 70.9446l-15.25-44s-1.75-3.25-4.5-3.5l-13.25-1s-4.5.25-4 3l14.5 48.25s1.75 5.25 5.5 4.75l15.25-2s3.25-1.25 1.75-5.5z" stroke-width="2"/><path d="M1239.165 71.1946l-15.5-44.25s-1.5-3.75-5.25-3.75l-13.25-.75s-3 .25-2 3.25l15 46.5s1.25 6 5.25 5.25l14.5-2.25s2.75 0 1.25-4z" stroke-width="2"/></g></g><g><path d="M1428.791123 52.97536c.315-1.315 1.3025-2.2975 2.5-2.5.82-.1375 1.9575.0625 2.5.83.68.9725-.1725 2.0425 0 3.325.1525 1.14 1.1425 2.655 4.9875 4.155 0 0-4.9875-2.5-4.155-5.8175l-.845-3.3275c-.638-.06025-1.231-.3565-1.6625-.83-.83-.8325-1.6625-3.325-.83-4.1575.8325-.8325 1.6625-3.325 3.325-3.325h2.5s.8325 1.6625.8325 2.5c0 .8375-1.6625 1.6625 0 2.5 1.6625.8375 4.1475 4.155 4.1475 4.155l4.155 3.3225s1.6625 7.4825-2.5 9.145c-4.1625 1.6625-13.3-1.6625-14.9625-2.5-1.6625-.8375-8.31-1.6625-10.805-3.325-2.495-1.6625-3.3225-4.155-5.8175-4.155s-7.48.83-10.805-.83c-3.325-1.66-6.65-4.1575-7.48-5-.83-.8425-4.155-6.65 0-5.82.63825.06075 1.2315.35775 1.6625.8325.83.83-.8325-5 6.65-1.6625 0 0-.8325-5.8175 4.155-3.325 4.9875 2.4925 6.65 2.5 11.635 2.5 4.985 0 7.4825.83 9.145 0 1.6625-.83 4.985-.8325 6.6475.83l.8325.83h2.5l.8325 1.6625s0 1.6625-.8325 2.5l8.3125 7.48 12.4675 15.7925s-9.975 12.4675-14.13 10.805c0 0-11.6375-15.7925-14.13-18.285m-34.0775-19.11s9.5575 8.3125 18.285 4.9875m-10.805-6.65s8.3125 7.48 21.61 6.65m-31.2725-.54s13.715 7.48 22.4425 4.155" fill="#eae4dd" stroke="#22267a" fill-rule="evenodd" stroke-width="2"/><path d="M1424.5 72.48s-.8325-.83-1.6625-.83c-.83 0-4.9875-.8325-7.48-1.6625-2.4925-.83-4.9875-1.6625-6.65-2.5-1.6625-.8375-5-2.5-8.3125-2.5s-6.6475-.83-8.31.8325c-1.6625 1.6625 2.5 4.155 3.325 4.155.825 0 7.48 2.5 9.1425 3.325 1.6625.825 8.31 4.9875 9.9725 5.8175 1.6625.83 10.805 5.8175 14.13 6.65 3.325.8325 13.3.83 17.455-.8325 4.155-1.6625 8.3125-1.6625 10.805-3.3225L1484.77 97s12.48-2.5 9.98-12.4675l-11.635-4.9875-23.9375-9.175c-.9175-.7175-2.7275-1.82-4.7375-2.045-4.135-.46-6.2025-.69-8.3125 0-2.6325.8625-3 2.08-5.8175 2.5-.5.0725-.5975.0525-3.325 0 0 0-1.53-.0275-7.48 0-3.4475.0175-3.605.885-4.1575 1.6625-.5.7075-.5125 1.8525 0 2.5.6.75 1.5425.3525 3.325.83 1.6225.435 1.6.9625 3.325 1.6625 1.4775.6 2.6675.685 5 .8325 2.435.1525 2.8375-.06 4.9875 0 3.3425.09 4.05.65 6.6475.83 2.5235.16125 5.05575-.11975 7.4825-.83m-56.96-13.345s7.485 5.435 25.77 9.5925" fill="#eae4dd" stroke="#22267a" fill-rule="evenodd" stroke-width="2"/><g fill="#eae4dd" stroke="#22267a"><path d="M1389.165 70.175401l-15.25-44s-1.75-3.25-4.5-3.5l-13.25-1s-4.5.25-4 3l14.5 48.25s1.75 5.25 5.5 4.75l15.25-2s3.25-1.25 1.75-5.5z" stroke-width="2"/><path d="M1389.165 70.425401l-15.5-44.25s-1.5-3.75-5.25-3.75l-13.25-.75s-3 .25-2 3.25l15 46.5s1.25 6 5.25 5.25l14.5-2.25s2.75 0 1.25-4z" stroke-width="2"/></g></g><g><path d="M1577.222848 51.663074c.315-1.315 1.3025-2.2975 2.5-2.5.82-.1375 1.9575.0625 2.5.83.68.9725-.1725 2.0425 0 3.325.1525 1.14 1.1425 2.655 4.9875 4.155 0 0-4.9875-2.5-4.155-5.8175l-.845-3.3275c-.638-.06025-1.231-.3565-1.6625-.83-.83-.8325-1.6625-3.325-.83-4.1575.8325-.8325 1.6625-3.325 3.325-3.325h2.5s.8325 1.6625.8325 2.5c0 .8375-1.6625 1.6625 0 2.5 1.6625.8375 4.1475 4.155 4.1475 4.155l4.155 3.3225s1.6625 7.4825-2.5 9.145c-4.1625 1.6625-13.3-1.6625-14.9625-2.5-1.6625-.8375-8.31-1.6625-10.805-3.325-2.495-1.6625-3.3225-4.155-5.8175-4.155s-7.48.83-10.805-.83c-3.325-1.66-6.65-4.1575-7.48-5-.83-.8425-4.155-6.65 0-5.82.63825.06075 1.2315.35775 1.6625.8325.83.83-.8325-5 6.65-1.6625 0 0-.8325-5.8175 4.155-3.325 4.9875 2.4925 6.65 2.5 11.635 2.5 4.985 0 7.4825.83 9.145 0 1.6625-.83 4.985-.8325 6.6475.83l.8325.83h2.5l.8325 1.6625s0 1.6625-.8325 2.5l8.3125 7.48 12.4675 15.7925s-9.975 12.4675-14.13 10.805c0 0-11.6375-15.7925-14.13-18.285m-34.0775-19.11s9.5575 8.3125 18.285 4.9875m-10.805-6.65s8.3125 7.48 21.61 6.65m-31.2725-.54s13.715 7.48 22.4425 4.155" fill="#eae4dd" stroke="#22267a" fill-rule="evenodd" stroke-width="2"/><path d="M1574.5 72.48s-.8325-.83-1.6625-.83c-.83 0-4.9875-.8325-7.48-1.6625-2.4925-.83-4.9875-1.6625-6.65-2.5-1.6625-.8375-5-2.5-8.3125-2.5s-6.6475-.83-8.31.8325c-1.6625 1.6625 2.5 4.155 3.325 4.155.825 0 7.48 2.5 9.1425 3.325 1.6625.825 8.31 4.9875 9.9725 5.8175 1.6625.83 10.805 5.8175 14.13 6.65 3.325.8325 13.3.83 17.455-.8325 4.155-1.6625 8.3125-1.6625 10.805-3.3225L1634.77 97s12.48-2.5 9.98-12.4675l-11.635-4.9875-23.9375-9.175c-.9175-.7175-2.7275-1.82-4.7375-2.045-4.135-.46-6.2025-.69-8.3125 0-2.6325.8625-3 2.08-5.8175 2.5-.5.0725-.5975.0525-3.325 0 0 0-1.53-.0275-7.48 0-3.4475.0175-3.605.885-4.1575 1.6625-.5.7075-.5125 1.8525 0 2.5.6.75 1.5425.3525 3.325.83 1.6225.435 1.6.9625 3.325 1.6625 1.4775.6 2.6675.685 5 .8325 2.435.1525 2.8375-.06 4.9875 0 3.3425.09 4.05.65 6.6475.83 2.5235.16125 5.05575-.11975 7.4825-.83m-56.96-13.345s7.485 5.435 25.77 9.5925" fill="#eae4dd" stroke="#22267a" fill-rule="evenodd" stroke-width="2"/><g fill="#eae4dd" stroke="#22267a"><path d="M1539.165 69.615303l-15.25-44s-1.75-3.25-4.5-3.5l-13.25-1s-4.5.25-4 3l14.5 48.25s1.75 5.25 5.5 4.75l15.25-2s3.25-1.25 1.75-5.5z" stroke-width="2"/><path d="M1539.165 69.865303l-15.5-44.25s-1.5-3.75-5.25-3.75l-13.25-.75s-3 .25-2 3.25l15 46.5s1.25 6 5.25 5.25l14.5-2.25s2.75 0 1.25-4z" stroke-width="2"/></g></g><g><path d="M1726.096692 50.78051c.315-1.315 1.3025-2.2975 2.5-2.5.82-.1375 1.9575.0625 2.5.83.68.9725-.1725 2.0425 0 3.325.1525 1.14 1.1425 2.655 4.9875 4.155 0 0-4.9875-2.5-4.155-5.8175l-.845-3.3275c-.638-.06025-1.231-.3565-1.6625-.83-.83-.8325-1.6625-3.325-.83-4.1575.8325-.8325 1.6625-3.325 3.325-3.325h2.5s.8325 1.6625.8325 2.5c0 .8375-1.6625 1.6625 0 2.5 1.6625.8375 4.1475 4.155 4.1475 4.155l4.155 3.3225s1.6625 7.4825-2.5 9.145c-4.1625 1.6625-13.3-1.6625-14.9625-2.5-1.6625-.8375-8.31-1.6625-10.805-3.325-2.495-1.6625-3.3225-4.155-5.8175-4.155s-7.48.83-10.805-.83c-3.325-1.66-6.65-4.1575-7.48-5-.83-.8425-4.155-6.65 0-5.82.63825.06075 1.2315.35775 1.6625.8325.83.83-.8325-5 6.65-1.6625 0 0-.8325-5.8175 4.155-3.325 4.9875 2.4925 6.65 2.5 11.635 2.5 4.985 0 7.4825.83 9.145 0 1.6625-.83 4.985-.8325 6.6475.83l.8325.83h2.5l.8325 1.6625s0 1.6625-.8325 2.5l8.3125 7.48 12.4675 15.7925s-9.975 12.4675-14.13 10.805c0 0-11.6375-15.7925-14.13-18.285m-34.0775-19.11s9.5575 8.3125 18.285 4.9875m-10.805-6.65s8.3125 7.48 21.61 6.65m-31.2725-.54s13.715 7.48 22.4425 4.155" fill="#eae4dd" stroke="#22267a" fill-rule="evenodd" stroke-width="2"/><path d="M1724.5 72.48s-.8325-.83-1.6625-.83c-.83 0-4.9875-.8325-7.48-1.6625-2.4925-.83-4.9875-1.6625-6.65-2.5-1.6625-.8375-5-2.5-8.3125-2.5s-6.6475-.83-8.31.8325c-1.6625 1.6625 2.5 4.155 3.325 4.155.825 0 7.48 2.5 9.1425 3.325 1.6625.825 8.31 4.9875 9.9725 5.8175 1.6625.83 10.805 5.8175 14.13 6.65 3.325.8325 13.3.83 17.455-.8325 4.155-1.6625 8.3125-1.6625 10.805-3.3225L1784.77 97s12.48-2.5 9.98-12.4675l-11.635-4.9875-23.9375-9.175c-.9175-.7175-2.7275-1.82-4.7375-2.045-4.135-.46-6.2025-.69-8.3125 0-2.6325.8625-3 2.08-5.8175 2.5-.5.0725-.5975.0525-3.325 0 0 0-1.53-.0275-7.48 0-3.4475.0175-3.605.885-4.1575 1.6625-.5.7075-.5125 1.8525 0 2.5.6.75 1.5425.3525 3.325.83 1.6225.435 1.6.9625 3.325 1.6625 1.4775.6 2.6675.685 5 .8325 2.435.1525 2.8375-.06 4.9875 0 3.3425.09 4.05.65 6.6475.83 2.5235.16125 5.05575-.11975 7.4825-.83m-56.96-13.345s7.485 5.435 25.77 9.5925" fill="#eae4dd" stroke="#22267a" fill-rule="evenodd" stroke-width="2"/><g fill="#eae4dd" stroke="#22267a"><path d="M1689.165 69.213104l-15.25-44s-1.75-3.25-4.5-3.5l-13.25-1s-4.5.25-4 3l14.5 48.25s1.75 5.25 5.5 4.75l15.25-2s3.25-1.25 1.75-5.5z" stroke-width="2"/><path d="M1689.165 69.463104l-15.5-44.25s-1.5-3.75-5.25-3.75l-13.25-.75s-3 .25-2 3.25l15 46.5s1.25 6 5.25 5.25l14.5-2.25s2.75 0 1.25-4z" stroke-width="2"/></g></g><g><path d="M1875.315637 50.197942c.315-1.315 1.3025-2.2975 2.5-2.5.82-.1375 1.9575.0625 2.5.83.68.9725-.1725 2.0425 0 3.325.1525 1.14 1.1425 2.655 4.9875 4.155 0 0-4.9875-2.5-4.155-5.8175l-.845-3.3275c-.638-.06025-1.231-.3565-1.6625-.83-.83-.8325-1.6625-3.325-.83-4.1575.8325-.8325 1.6625-3.325 3.325-3.325h2.5s.8325 1.6625.8325 2.5c0 .8375-1.6625 1.6625 0 2.5 1.6625.8375 4.1475 4.155 4.1475 4.155l4.155 3.3225s1.6625 7.4825-2.5 9.145c-4.1625 1.6625-13.3-1.6625-14.9625-2.5-1.6625-.8375-8.31-1.6625-10.805-3.325-2.495-1.6625-3.3225-4.155-5.8175-4.155s-7.48.83-10.805-.83c-3.325-1.66-6.65-4.1575-7.48-5-.83-.8425-4.155-6.65 0-5.82.63825.06075 1.2315.35775 1.6625.8325.83.83-.8325-5 6.65-1.6625 0 0-.8325-5.8175 4.155-3.325 4.9875 2.4925 6.65 2.5 11.635 2.5 4.985 0 7.4825.83 9.145 0 1.6625-.83 4.985-.8325 6.6475.83l.8325.83h2.5l.8325 1.6625s0 1.6625-.8325 2.5l8.3125 7.48 12.4675 15.7925s-9.975 12.4675-14.13 10.805c0 0-11.6375-15.7925-14.13-18.285m-34.0775-19.11s9.5575 8.3125 18.285 4.9875m-10.805-6.65s8.3125 7.48 21.61 6.65m-31.2725-.54s13.715 7.48 22.4425 4.155" fill="#eae4dd" stroke="#22267a" fill-rule="evenodd" stroke-width="2"/><path d="M1874.5 72.48s-.8325-.83-1.6625-.83c-.83 0-4.9875-.8325-7.48-1.6625-2.4925-.83-4.9875-1.6625-6.65-2.5-1.6625-.8375-5-2.5-8.3125-2.5s-6.6475-.83-8.31.8325c-1.6625 1.6625 2.5 4.155 3.325 4.155.825 0 7.48 2.5 9.1425 3.325 1.6625.825 8.31 4.9875 9.9725 5.8175 1.6625.83 10.805 5.8175 14.13 6.65 3.325.8325 13.3.83 17.455-.8325 4.155-1.6625 8.3125-1.6625 10.805-3.3225L1934.77 97s12.48-2.5 9.98-12.4675l-11.635-4.9875-23.9375-9.175c-.9175-.7175-2.7275-1.82-4.7375-2.045-4.135-.46-6.2025-.69-8.3125 0-2.6325.8625-3 2.08-5.8175 2.5-.5.0725-.5975.0525-3.325 0 0 0-1.53-.0275-7.48 0-3.4475.0175-3.605.885-4.1575 1.6625-.5.7075-.5125 1.8525 0 2.5.6.75 1.5425.3525 3.325.83 1.6225.435 1.6.9625 3.325 1.6625 1.4775.6 2.6675.685 5 .8325 2.435.1525 2.8375-.06 4.9875 0 3.3425.09 4.05.65 6.6475.83 2.5235.16125 5.05575-.11975 7.4825-.83m-56.96-13.345s7.485 5.435 25.77 9.5925" fill="#eae4dd" stroke="#22267a" fill-rule="evenodd" stroke-width="2"/><g fill="#eae4dd" stroke="#22267a"><path d="M1839.165 68.934156l-15.25-44s-1.75-3.25-4.5-3.5l-13.25-1s-4.5.25-4 3l14.5 48.25s1.75 5.25 5.5 4.75l15.25-2s3.25-1.25 1.75-5.5z" stroke-width="2"/><path d="M1839.165 69.184156l-15.5-44.25s-1.5-3.75-5.25-3.75l-13.25-.75s-3 .25-2 3.25l15 46.5s1.25 6 5.25 5.25l14.5-2.25s2.75 0 1.25-4z" stroke-width="2"/></g></g><g><path d="M2024.81166 49.83597c.315-1.315 1.3025-2.2975 2.5-2.5.82-.1375 1.9575.0625 2.5.83.68.9725-.1725 2.0425 0 3.325.1525 1.14 1.1425 2.655 4.9875 4.155 0 0-4.9875-2.5-4.155-5.8175l-.845-3.3275c-.638-.06025-1.231-.3565-1.6625-.83-.83-.8325-1.6625-3.325-.83-4.1575.8325-.8325 1.6625-3.325 3.325-3.325h2.5s.8325 1.6625.8325 2.5c0 .8375-1.6625 1.6625 0 2.5 1.6625.8375 4.1475 4.155 4.1475 4.155l4.155 3.3225s1.6625 7.4825-2.5 9.145c-4.1625 1.6625-13.3-1.6625-14.9625-2.5-1.6625-.8375-8.31-1.6625-10.805-3.325-2.495-1.6625-3.3225-4.155-5.8175-4.155s-7.48.83-10.805-.83c-3.325-1.66-6.65-4.1575-7.48-5-.83-.8425-4.155-6.65 0-5.82.63825.06075 1.2315.35775 1.6625.8325.83.83-.8325-5 6.65-1.6625 0 0-.8325-5.8175 4.155-3.325 4.9875 2.4925 6.65 2.5 11.635 2.5 4.985 0 7.4825.83 9.145 0 1.6625-.83 4.985-.8325 6.6475.83l.8325.83h2.5l.8325 1.6625s0 1.6625-.8325 2.5l8.3125 7.48 12.4675 15.7925s-9.975 12.4675-14.13 10.805c0 0-11.6375-15.7925-14.13-18.285m-34.0775-19.11s9.5575 8.3125 18.285 4.9875m-10.805-6.65s8.3125 7.48 21.61 6.65m-31.2725-.54s13.715 7.48 22.4425 4.155" fill="#eae4dd" stroke="#22267a" fill-rule="evenodd" stroke-width="2"/><path d="M2024.5 72.48s-.8325-.83-1.6625-.83c-.83 0-4.9875-.8325-7.48-1.6625-2.4925-.83-4.9875-1.6625-6.65-2.5-1.6625-.8375-5-2.5-8.3125-2.5s-6.6475-.83-8.31.8325c-1.6625 1.6625 2.5 4.155 3.325 4.155.825 0 7.48 2.5 9.1425 3.325 1.6625.825 8.31 4.9875 9.9725 5.8175 1.6625.83 10.805 5.8175 14.13 6.65 3.325.8325 13.3.83 17.455-.8325 4.155-1.6625 8.3125-1.6625 10.805-3.3225L2084.77 97s12.48-2.5 9.98-12.4675l-11.635-4.9875-23.9375-9.175c-.9175-.7175-2.7275-1.82-4.7375-2.045-4.135-.46-6.2025-.69-8.3125 0-2.6325.8625-3 2.08-5.8175 2.5-.5.0725-.5975.0525-3.325 0 0 0-1.53-.0275-7.48 0-3.4475.0175-3.605.885-4.1575 1.6625-.5.7075-.5125 1.8525 0 2.5.6.75 1.5425.3525 3.325.83 1.6225.435 1.6.9625 3.325 1.6625 1.4775.6 2.6675.685 5 .8325 2.435.1525 2.8375-.06 4.9875 0 3.3425.09 4.05.65 6.6475.83 2.5235.16125 5.05575-.11975 7.4825-.83m-56.96-13.345s7.485 5.435 25.77 9.5925" fill="#eae4dd" stroke="#22267a" fill-rule="evenodd" stroke-width="2"/><g fill="#eae4dd" stroke="#22267a"><path d="M1989.165 68.754164l-15.25-44s-1.75-3.25-4.5-3.5l-13.25-1s-4.5.25-4 3l14.5 48.25s1.75 5.25 5.5 4.75l15.25-2s3.25-1.25 1.75-5.5z" stroke-width="2"/><path d="M1989.165 69.004164l-15.5-44.25s-1.5-3.75-5.25-3.75l-13.25-.75s-3 .25-2 3.25l15 46.5s1.25 6 5.25 5.25l14.5-2.25s2.75 0 1.25-4z" stroke-width="2"/></g></g><g><path d="M2174.53541 49.643292c.315-1.315 1.3025-2.2975 2.5-2.5.82-.1375 1.9575.0625 2.5.83.68.9725-.1725 2.0425 0 3.325.1525 1.14 1.1425 2.655 4.9875 4.155 0 0-4.9875-2.5-4.155-5.8175l-.845-3.3275c-.638-.06025-1.231-.3565-1.6625-.83-.83-.8325-1.6625-3.325-.83-4.1575.8325-.8325 1.6625-3.325 3.325-3.325h2.5s.8325 1.6625.8325 2.5c0 .8375-1.6625 1.6625 0 2.5 1.6625.8375 4.1475 4.155 4.1475 4.155l4.155 3.3225s1.6625 7.4825-2.5 9.145c-4.1625 1.6625-13.3-1.6625-14.9625-2.5-1.6625-.8375-8.31-1.6625-10.805-3.325-2.495-1.6625-3.3225-4.155-5.8175-4.155s-7.48.83-10.805-.83c-3.325-1.66-6.65-4.1575-7.48-5-.83-.8425-4.155-6.65 0-5.82.63825.06075 1.2315.35775 1.6625.8325.83.83-.8325-5 6.65-1.6625 0 0-.8325-5.8175 4.155-3.325 4.9875 2.4925 6.65 2.5 11.635 2.5 4.985 0 7.4825.83 9.145 0 1.6625-.83 4.985-.8325 6.6475.83l.8325.83h2.5l.8325 1.6625s0 1.6625-.8325 2.5l8.3125 7.48 12.4675 15.7925s-9.975 12.4675-14.13 10.805c0 0-11.6375-15.7925-14.13-18.285m-34.0775-19.11s9.5575 8.3125 18.285 4.9875m-10.805-6.65s8.3125 7.48 21.61 6.65m-31.2725-.54s13.715 7.48 22.4425 4.155" fill="#eae4dd" stroke="#22267a" fill-rule="evenodd" stroke-width="2"/><path d="M2174.5 72.48s-.8325-.83-1.6625-.83c-.83 0-4.9875-.8325-7.48-1.6625-2.4925-.83-4.9875-1.6625-6.65-2.5-1.6625-.8375-5-2.5-8.3125-2.5s-6.6475-.83-8.31.8325c-1.6625 1.6625 2.5 4.155 3.325 4.155.825 0 7.48 2.5 9.1425 3.325 1.6625.825 8.31 4.9875 9.9725 5.8175 1.6625.83 10.805 5.8175 14.13 6.65 3.325.8325 13.3.83 17.455-.8325 4.155-1.6625 8.3125-1.6625 10.805-3.3225L2234.77 97s12.48-2.5 9.98-12.4675l-11.635-4.9875-23.9375-9.175c-.9175-.7175-2.7275-1.82-4.7375-2.045-4.135-.46-6.2025-.69-8.3125 0-2.6325.8625-3 2.08-5.8175 2.5-.5.0725-.5975.0525-3.325 0 0 0-1.53-.0275-7.48 0-3.4475.0175-3.605.885-4.1575 1.6625-.5.7075-.5125 1.8525 0 2.5.6.75 1.5425.3525 3.325.83 1.6225.435 1.6.9625 3.325 1.6625 1.4775.6 2.6675.685 5 .8325 2.435.1525 2.8375-.06 4.9875 0 3.3425.09 4.05.65 6.6475.83 2.5235.16125 5.05575-.11975 7.4825-.83m-56.96-13.345s7.485 5.435 25.77 9.5925" fill="#eae4dd" stroke="#22267a" fill-rule="evenodd" stroke-width="2"/><g fill="#eae4dd" stroke="#22267a"><path d="M2139.165 68.655504l-15.25-44s-1.75-3.25-4.5-3.5l-13.25-1s-4.5.25-4 3l14.5 48.25s1.75 5.25 5.5 4.75l15.25-2s3.25-1.25 1.75-5.5z" stroke-width="2"/><path d="M2139.165 68.905504l-15.5-44.25s-1.5-3.75-5.25-3.75l-13.25-.75s-3 .25-2 3.25l15 46.5s1.25 6 5.25 5.25l14.5-2.25s2.75 0 1.25-4z" stroke-width="2"/></g></g><g><path d="M2324.45 49.585c.315-1.315 1.3025-2.2975 2.5-2.5.82-.1375 1.9575.0625 2.5.83.68.9725-.1725 2.0425 0 3.325.1525 1.14 1.1425 2.655 4.9875 4.155 0 0-4.9875-2.5-4.155-5.8175l-.845-3.3275c-.638-.06025-1.231-.3565-1.6625-.83-.83-.8325-1.6625-3.325-.83-4.1575.8325-.8325 1.6625-3.325 3.325-3.325h2.5s.8325 1.6625.8325 2.5c0 .8375-1.6625 1.6625 0 2.5 1.6625.8375 4.1475 4.155 4.1475 4.155l4.155 3.3225s1.6625 7.4825-2.5 9.145c-4.1625 1.6625-13.3-1.6625-14.9625-2.5-1.6625-.8375-8.31-1.6625-10.805-3.325-2.495-1.6625-3.3225-4.155-5.8175-4.155s-7.48.83-10.805-.83c-3.325-1.66-6.65-4.1575-7.48-5-.83-.8425-4.155-6.65 0-5.82.63825.06075 1.2315.35775 1.6625.8325.83.83-.8325-5 6.65-1.6625 0 0-.8325-5.8175 4.155-3.325 4.9875 2.4925 6.65 2.5 11.635 2.5 4.985 0 7.4825.83 9.145 0 1.6625-.83 4.985-.8325 6.6475.83l.8325.83h2.5l.8325 1.6625s0 1.6625-.8325 2.5l8.3125 7.48 12.4675 15.7925s-9.975 12.4675-14.13 10.805c0 0-11.6375-15.7925-14.13-18.285m-34.0775-19.11s9.5575 8.3125 18.285 4.9875m-10.805-6.65s8.3125 7.48 21.61 6.65m-31.2725-.54s13.715 7.48 22.4425 4.155" fill="#eae4dd" stroke="#22267a" fill-rule="evenodd" stroke-width="2"/><path d="M2324.5 72.48s-.8325-.83-1.6625-.83c-.83 0-4.9875-.8325-7.48-1.6625-2.4925-.83-4.9875-1.6625-6.65-2.5-1.6625-.8375-5-2.5-8.3125-2.5s-6.6475-.83-8.31.8325c-1.6625 1.6625 2.5 4.155 3.325 4.155.825 0 7.48 2.5 9.1425 3.325 1.6625.825 8.31 4.9875 9.9725 5.8175 1.6625.83 10.805 5.8175 14.13 6.65 3.325.8325 13.3.83 17.455-.8325 4.155-1.6625 8.3125-1.6625 10.805-3.3225L2384.77 97s12.48-2.5 9.98-12.4675l-11.635-4.9875-23.9375-9.175c-.9175-.7175-2.7275-1.82-4.7375-2.045-4.135-.46-6.2025-.69-8.3125 0-2.6325.8625-3 2.08-5.8175 2.5-.5.0725-.5975.0525-3.325 0 0 0-1.53-.0275-7.48 0-3.4475.0175-3.605.885-4.1575 1.6625-.5.7075-.5125 1.8525 0 2.5.6.75 1.5425.3525 3.325.83 1.6225.435 1.6.9625 3.325 1.6625 1.4775.6 2.6675.685 5 .8325 2.435.1525 2.8375-.06 4.9875 0 3.3425.09 4.05.65 6.6475.83 2.5235.16125 5.05575-.11975 7.4825-.83m-56.96-13.345s7.485 5.435 25.77 9.5925" fill="#eae4dd" stroke="#22267a" fill-rule="evenodd" stroke-width="2"/><g fill="#eae4dd" stroke="#22267a"><path d="M2289.165 68.625l-15.25-44s-1.75-3.25-4.5-3.5l-13.25-1s-4.5.25-4 3l14.5 48.25s1.75 5.25 5.5 4.75l15.25-2s3.25-1.25 1.75-5.5z" stroke-width="2"/><path d="M2289.165 68.875l-15.5-44.25s-1.5-3.75-5.25-3.75l-13.25-.75s-3 .25-2 3.25l15 46.5s1.25 6 5.25 5.25l14.5-2.25s2.75 0 1.25-4z" stroke-width="2"/></g></g></svg>