<svg xmlns="http://www.w3.org/2000/svg" viewBox="0 0 146.98 147.31"><defs><style>.cls-1,.cls-6{fill:#fff;}.cls-1,.cls-2,.cls-4,.cls-5,.cls-6,.cls-7{stroke:#2b0c7d;}.cls-1{stroke-linecap:round;stroke-linejoin:round;}.cls-2,.cls-4,.cls-8{fill:none;}.cls-2,.cls-4,.cls-5,.cls-6,.cls-8{stroke-miterlimit:10;}.cls-3,.cls-5,.cls-7{fill:#2b0c7d;}.cls-4{stroke-width:2px;}.cls-7{stroke-miterlimit:10;}.cls-8{stroke:#fff;}
    @-webkit-keyframes wavehello {
0%   { -webkit-transform:rotate(0deg) }
   50%   { -webkit-transform:rotate(0deg)  }
  60% { -webkit-transform:rotate(8deg) }
  80% { -webkit-transform:rotate(0deg) }
  100% { -webkit-transform:rotate(8deg) }
}

@keyframes wavehello {
   0%   { -webkit-transform:rotate(0deg) }
   50%   { -webkit-transform:rotate(0deg)  }
  60% { -webkit-transform:rotate(8deg) }
  80% { -webkit-transform:rotate(0deg) }
  100% { -webkit-transform:rotate(8deg) }
}
#hand{
    transform-box: fill-box;
  transform-origin: center;
  animation-name: wavehello;
  animation-duration: 2s;
  animation-delay: 1s;
  animation-iteration-count: infinite;
  animation-timing-function: linear;
  animation-direction: alternate; 
}

@-webkit-keyframes scale-up-br {
  0% {
    -webkit-transform: scale(0);
            transform: scale(0);
    -webkit-transform-origin: 100% 100%;
            transform-origin: 100% 100%;
  }
  50% {
    -webkit-transform: scale(1);
            transform: scale(1);
    -webkit-transform-origin: 100% 100%;
            transform-origin: 100% 100%;
  }
  100% {
    -webkit-transform: scale(1);
            transform: scale(1);
    -webkit-transform-origin: 100% 100%;
            transform-origin: 100% 100%;
  }
}
@keyframes scale-up-br {
    0% {
    -webkit-transform: scale(0);
            transform: scale(0);
    -webkit-transform-origin: 100% 100%;
            transform-origin: 100% 100%;
  }
  50% {
    -webkit-transform: scale(1);
            transform: scale(1);
    -webkit-transform-origin: 100% 100%;
            transform-origin: 100% 100%;
  }
  100% {
    -webkit-transform: scale(1);
            transform: scale(1);
    -webkit-transform-origin: 100% 100%;
            transform-origin: 100% 100%;
  }
  
}

#H,#I,#EPoint{
  transform-box: fill-box;
  transform-origin: center;
  animation-name: scale-up-br;
  animation-duration: 2s;
  animation-delay: 1s;
  animation-iteration-count: infinite;
  animation-timing-function: linear;
  animation-direction: alternate; 
  
}
    </style></defs><g id="Layer_2" data-name="Layer 2"><g id="hello"><g id="head"><path class="cls-1" d="M74.5,75.91c-6.7,3.88-7.9-3.13-6.32-8.13-.49-4.08-2-4.75,3-6.54C75.26,68,76.69,73.84,74.5,75.91Z"/><path class="cls-1" d="M112.14,77.14c3.83.23,2.77-4,4-6.7.42-1.72,1-3.91.07-6.08-.57-2.86-3.92-3.43-5.25-1.21C110,73.84,110.92,76.78,112.14,77.14Z"/><path class="cls-1" d="M69.61,66.6a22.42,22.42,0,0,0,.62,9.85c1.32,4.7,2,9.68,5.52,13.43C82.31,97,91.92,105,100.21,95.54A21.35,21.35,0,0,0,113,73.86,17,17,0,0,0,113.43,63c-.34-5.46,1.21-11.06-1.34-16.32-5.82-19.13-35.28-18-42.56-.61-1.41,5-.53,9.92-1.28,14.81C68.58,62.84,70.35,64.5,69.61,66.6Z"/><path class="cls-2" d="M85.52,73.32c.11-3.61.53-7.21.32-10.77"/><path class="cls-2" d="M91.77,68.05a6.05,6.05,0,0,0,1,2.58"/><path class="cls-2" d="M92.8,70.63c.52.72,1.24,1.48,1.11,2.37"/><path class="cls-2" d="M92.38,76.57c-2.27,3.72-5.58-.19-8.46.37"/><path class="cls-2" d="M83.82,77.44c-1.58-.19-1.3-4,.47-3.23"/><path class="cls-2" d="M92.44,76.77c4.9-.64,3.79-1,2.37-5.14"/><path class="cls-2" d="M77.17,79.52c1.39-2.15,4.13-3.14,4.92-5.78"/><path class="cls-2" d="M97.65,73.56c2.4.73,4.31,3.8,6,5.5"/><path class="cls-3" d="M88.06,43.27c-5.18-.25-11.73-3.08-14.41,3.57-3.13,4.14-5.07.78-4.87,7.9-1.23-30.74,50.89-31,44.7,8.26-4.93-2.53,1-10.16-5.67-12.29-1.45-1.22.26-3.67-.33-5.38-.43-4.85-7.27-6.74-11.18-5.65C93.56,41.06,91.34,43.45,88.06,43.27Z"/><path class="cls-3" d="M102.39,55.69c2,.12,1.57,1.78-.17,1.19-4-.21-7.68,3.14-11.62,2.17C87.74,54.72,102.05,55.38,102.39,55.69Z"/><path class="cls-3" d="M86,59.84c-.95,2.83-4.83-.51-6.5-.56a6.24,6.24,0,0,1-3,0c-1.21-1.08-2.16-.07-3.22.63-3.12,0-.27-2.31.74-3C78,56.71,85,54.15,86,59.84Z"/><path class="cls-4" d="M95.44,64.28c-.48-4.93,4.63-5.22,6.57-.4"/><path class="cls-4" d="M76.09,66.74c1.26-6,4.52-7.09,5.25-1.17"/><path class="cls-2" d="M92.58,86c-4,.91-10.4.68-12.59-3.13.74-1.59,5,.2,11.33-.49s9.54-3.4,10-2.64S98.48,84.34,92.58,86Z"/></g><path class="cls-2" d="M40.68,116c.46-1.76,2-6.41,8.25-10.36,8.86-5.63,20.2-5.41,22.18-5.35"/><path class="cls-2" d="M117.62,99.83A29,29,0,0,1,132.29,103a30.14,30.14,0,0,1,14.22,16.44"/><path class="cls-2" d="M113.18,89.61a34.28,34.28,0,0,1-8,10.22c-6.87,5.93-12.73,6-13.34,9.78-.81,5.1,8.45,12,8.45,12h0L115.4,106.5h0s.64-2.75.67-2.89C116.4,102.13,116,98.54,113.18,89.61Z"/><path class="cls-2" d="M74.89,96.93c.61-.05.11,3.84,3.11,7.55A25.22,25.22,0,0,0,85.33,110h0a28.87,28.87,0,0,1-2.22,6.66c-1.12,2.29-1.24,1.48-3,4.68-.28.52-.45.84-.75.88-1.51.21-3.64-7.1-3.77-7.56C73,105.74,74,97,74.89,96.93Z"/><line class="cls-2" x1="85.17" y1="129.91" x2="85.5" y2="111.58"/><line class="cls-2" x1="93.03" y1="129.91" x2="93.21" y2="114.29"/><circle class="cls-5" cx="89.77" cy="114.5" r="1.48"/><circle class="cls-5" cx="88.99" cy="127.06" r="1.59"/><line class="cls-6" x1="112.89" y1="81.04" x2="112.76" y2="90.39"/><line class="cls-6" x1="75.96" y1="100.28" x2="76.35" y2="90.39"/><path class="cls-6" d="M102.78,44s-22.85-15.12-40.15-14-7.46,22.13,6.75,17c0,0,3.5-9.12,5.89-9.33"/><path class="cls-5" d="M68.62,41.48,69.36,40a3.25,3.25,0,0,0-3.32.5A2.56,2.56,0,0,0,66.3,44c.44.34,1,.48,1.36.92.89,1.08-.18,2.48-1.18,3.1.93,1.56,3.14,1.88,4,.59l.44,1.3c1.34.45,1.86-1.5,2.28-2.86a7,7,0,0,1,4.23-4.3,20.81,20.81,0,0,1,6-1.08c5.5-.44,10-3.83,15.48-4.41,1.17,2.28,3.33,7.44,4.5,9.72A4,4,0,0,0,105.2,49c.75.27,1.57-.08,2.26.4a2.64,2.64,0,0,1,.76,1,7.94,7.94,0,0,1,.64,4.44c1,1.29,2.76.5,3.31-.84s.47-3,1.15-4.28,2.72-1.58,3.36-.09c-1-6.27-5.33-12-10.42-15.4s-10.83-4.84-16.41-5.51a18.37,18.37,0,0,0-7.66.29c-3.75,1.19-3.79,4.32-5.59,7.41C75.45,38.46,71.17,42.6,68.62,41.48Z"/><path class="cls-6" d="M74.29,31c22.78,16.69,29.34,13,29.34,13S84.94,33.25,77.1,32.25C76.78,32.2,74,30.83,74.29,31Z"/><path class="cls-6" d="M115.08,59.34s-4.48-18-39.38-28.7c0,0,14.07-13.56,30.27-4.31C130.15,40.14,115.08,59.34,115.08,59.34Z"/><path class="cls-2" d="M18.74,110.38q2.21,11.4,4.06,22.87"/><path class="cls-2" d="M34,108c3.56,9.95,7.17,20,13.91,29.21,2.35,3.22,5.12,6.45,5.53,10"/><g id="hand"><path class="cls-6" d="M27.83,108.08a8.08,8.08,0,0,0,3.42-.29,9.06,9.06,0,0,0,3.31-1.43c.92-.73,1.46-1.71,2.55-3.67a19.37,19.37,0,0,0,1.94-4.18,4.84,4.84,0,0,1,.47-1.19,3.77,3.77,0,0,1,2.12-1.93c.78-.19,1,.21,1.71-.15.42-.21.56-.48,1.09-.66a3.37,3.37,0,0,1,1.14-.1,3.23,3.23,0,0,0,2.22-.77A2,2,0,0,0,48.23,92c-.33-1.27-2.09-1.77-3-2-.66-.19-3.85-1.07-6.27.54a8.39,8.39,0,0,1-2.18,1.33,3,3,0,0,1-2.27.2,2.84,2.84,0,0,1-1.3-1.61c-.5-1.1-.28-1.92-.35-4,0-1.72-.23-1.64-.24-2.84a18.36,18.36,0,0,1,.74-4.65c1.06-5,.49-3.5,1.16-6.41A11.9,11.9,0,0,0,34.77,69c-.14-1.71-.52-2.08-.77-2.22a2,2,0,0,0-1.71.15,4.63,4.63,0,0,0-2,3,19.32,19.32,0,0,0-.32,2.89c-.23,1.82-.53,1.78-.83,3.52-.41,2.3-.08,3.58-.65,5.79a4.08,4.08,0,0,1-1,1.81c-.32.33-.73.77-1.09.66s-.38-.75-.74-2.23a27.7,27.7,0,0,1-.86-3.36s0,0-.15-1.71c-.05-.57-.12-1.11-.15-1.71l-.29-3.42c-.09-1-.2-1.89-.25-2.84a9.68,9.68,0,0,0-.2-2.28,4.6,4.6,0,0,0-.7-1.66,2.55,2.55,0,0,0-1.27-1A2.15,2.15,0,0,0,20,64.6c-.8.53-.86,1.66-.9,2.94a13.46,13.46,0,0,0,.25,2.84c.33,1.88.33,3.8.49,5.7l.45,5.12a16,16,0,0,0,.2,2.28c.1.57.24.87.07,1.13a1.35,1.35,0,0,1-1.71.15c-.24-.16-.28-.38-.67-1.08l-.66-1.09c-1.5-2.46-1.57-2.51-2-3.27a21.35,21.35,0,0,1-1.37-2.75c-.11-.37-.32-1-.73-2.23-.34-1-.48-1.45-.77-2.22a12.14,12.14,0,0,0-.7-1.66c-.5-.91-.75-1.37-1.3-1.61A1.67,1.67,0,0,0,9,69c-.27.24-.4.59-.42,1.76a15.67,15.67,0,0,0,.29,3.41c.23.94.5,1.88.82,2.79.21.66.43,1.34.77,2.23a20.77,20.77,0,0,0,1.43,3.32c.8,1.38,1.34,2.18,1.34,2.18a2.88,2.88,0,0,1,.7,1.66,1.77,1.77,0,0,1-.47,1.19,2.08,2.08,0,0,1-2.28.19,3,3,0,0,1-1.3-1.61A46.47,46.47,0,0,0,6,81.3c-1.78-2.07-2.34-2.5-3.09-2.6a2.37,2.37,0,0,0-2.23.77c-.7,1.1.56,3,1.54,4.45.79,1.2,1.36,1.75,5.09,5.87a10.08,10.08,0,0,1,2,2.7,9.82,9.82,0,0,1,.87,3.36c.42,4.15,3.1,8.07,3.63,8.86.66,1,2.79,4.12,5.12,5.27a3.46,3.46,0,0,0,2.23.4c2.16-.4,3.27-2,5-2.15Z"/><path class="cls-2" d="M10,94.5A83.73,83.73,0,0,0,21.8,91.39c2.79-.81,5.91-4.52,5.91-4.52"/><path class="cls-2" d="M19.32,96.19A76.64,76.64,0,0,1,27,92.66a19.87,19.87,0,0,1,6.53-1.47"/><path class="cls-2" d="M32.29,93.35a12.08,12.08,0,0,0-3.74,3.19,23.85,23.85,0,0,0-3,4.85c-.47,1.19.35,4,.45,5.13s1.85,1.55,1.85,1.55"/><path class="cls-2" d="M24.12,105a7.76,7.76,0,0,1,.44-8.07"/></g><g id="hi"><polygon id="H" class="cls-5" points="25.67 44.23 34.38 62.5 37.78 61.37 34.05 53.54 45.28 48.68 48.34 55.6 50.95 54.36 43.71 37.11 40.19 39.03 43.36 45.16 32.12 50.03 29.18 42.31 25.67 44.23"/><polygon id="I" class="cls-5" points="38.12 64.67 51.85 59.35 52.3 61.85 47.19 63.54 49.45 70.35 52.97 68.43 54.22 71.04 42.98 75.9 41.74 73.29 46.05 71.48 43.67 65.47 39.36 67.28 38.12 64.67"/><g id="EPoint"><path class="cls-5" d="M56.6,71.34l3.85,1.37S58.74,79,56.93,80.34l-3.06-1.25Z"/><ellipse class="cls-7" cx="53.24" cy="82.24" rx="1.6" ry="2.25" transform="translate(-35.76 123.2) rotate(-81.8)"/></g></g><line class="cls-8" x1="83.92" y1="0.49" x2="71.11" y2="2.86"/></g></g></svg>