<svg xmlns="http://www.w3.org/2000/svg" viewBox="0 0 26.41 45.27"><defs><style>.cls-1{fill:#c7b299;}.cls-1,.cls-2,.cls-3{stroke:#2b0c7d;stroke-linecap:round;stroke-linejoin:round;}.cls-2{fill:#fff;}.cls-3{fill:#2b0c7d;}</style></defs><g id="Layer_2" data-name="Layer 2"><g id="Layer_1-2" data-name="Layer 1"><path class="cls-1" d="M5.94,27.8c-1.34,2.8.81,4.11.27,8.91,0,.32,1.19.87,1.12,1.21-.15.74-.76,2.81-.41,3.77.68,1.8,2.94,2.36,4.59,2.76,0,0,5.34,1.31,9.21-1.38a2.71,2.71,0,0,0,1.22-1.57,3.35,3.35,0,0,0-.11-1.45c-.25-1.51.88-2.72,1.33-3.58,1.24-2.4-.22-6.93-2.84-9.43-2.83-2.69-6.32-2.35-7.89-2.19C10.59,25,7.11,25.36,5.94,27.8Z"/><path class="cls-2" d="M20.7,29.35a.94.94,0,0,1-.3,1.23l-8.31,5.2c-.6.09-.6.09-1.13-.33L.7,16.19a1.05,1.05,0,0,1-.13-.49L.5,13.52a1.12,1.12,0,0,1,.63-1l2.11-1a1.13,1.13,0,0,1,1.26.19L20.14,26.11a1.09,1.09,0,0,1,.36.74Z"/><path class="cls-2" d="M1.1,12.56l9.66-6a.79.79,0,0,1,1.14.3L22.19,26.27a.92.92,0,0,1-.32,1.18l-9.65,6a.8.8,0,0,1-1.14-.31L.79,13.73A.89.89,0,0,1,1.1,12.56Z"/><path class="cls-1" d="M21.88,38.54a8.94,8.94,0,0,0,3.37-4.33c.27-.76,1.43-3.94-.18-6.73-1.84-3.2-5.72-3.05-6.66-3s-3.41.13-4.06,1.76a3.21,3.21,0,0,0,.75,3.2c1.13,1.18,3.22,1.21,4.87-.19,0,0-6.15,3.84-3.36,6.85"/><path class="cls-1" d="M5.71,24.85a2.74,2.74,0,0,0,2-2.46,2.79,2.79,0,0,0-1.57-2.76c-1.45-.58-3,1-3.77,1.82A6.22,6.22,0,0,0,.84,24,6.91,6.91,0,0,0,.66,27.3c.59,3.78,3.89,6.31,4.52,6.78"/><path class="cls-1" d="M6.29,30.44c1.72-.18,3-1.11,3.19-2.26a2.08,2.08,0,0,0-.12-1.07c-.51-1.28-2.29-1.69-3.48-1.57a5.13,5.13,0,0,0-4.12,3.77,6.12,6.12,0,0,0,.06,3.45c1,3.42,4.53,4.53,4.93,4.65"/><path class="cls-1" d="M8,33.89a3.52,3.52,0,0,0,3.25-2.26c0-.07.54-1.62-.12-2.32-.91-1-3.38.32-4.76,1.44A4.47,4.47,0,0,0,4.55,33c-.45,1.77.33,2.85,2.64,4.4"/><path class="cls-3" d="M13.34,4.12c1-4.55,12.29-4.7,12.54-1.07C26.2,7.59,23,7.74,19.45,8c-3,.17-1.12,2.26-3.3,1.73-.52-.28-.16-1.17-.75-1.94C14,6.69,13,7,13.34,4.12Z"/></g></g></svg>