<svg xmlns="http://www.w3.org/2000/svg" viewBox="0 0 564.65 713.36"><defs><style>.cls-1{fill:#312a77;}.cls-1,.cls-28{stroke:#edeeef;}.cls-1,.cls-2,.cls-25,.cls-28,.cls-29,.cls-3{stroke-miterlimit:10;}.cls-2,.cls-23{fill:#fff;}.cls-2,.cls-25,.cls-29{stroke:#f9cb7b;}.cls-2,.cls-25{stroke-width:3px;}.cls-25,.cls-28,.cls-29,.cls-3{fill:none;}.cls-3{stroke:#4551a3;}.cls-4{fill:#7b83c0;}.cls-5{fill:#b5b2c1;}.cls-6{fill:#f9cb7b;}.cls-7{fill:#a1a4d2;}.cls-8{fill:#edeeef;}.cls-9{fill:#91373d;}.cls-10{fill:#a04e58;}.cls-11{fill:#8e94c9;}.cls-12{fill:#eec682;}.cls-13{fill:#d3a666;}.cls-14{fill:#9fa2d1;}.cls-15{fill:#f48585;}.cls-16{fill:#fcd2cc;}.cls-17{fill:#eb9c9b;}.cls-18{fill:#a03634;}.cls-19{fill:#be1e2d;}.cls-20{fill:#c3c4da;}.cls-21{fill:#efeef2;}.cls-22{fill:#eeedf1;}.cls-24{fill:#f8d6cf;}.cls-26{fill:#c16e5f;}.cls-27{fill:#3a3331;}#_Group_ManArm_{
    animation-name:arm;
    animation-duration:5s;
  animation-iteration-count: infinite;
    transform-origin:1009.149px 711.625px
}

@keyframes plantone{
    0%,to{
        transform:scaleY(1) rotate(0deg)
    }
    50%{
        transform:scaleY(1.02) rotate(0.25deg)
    }
}
@keyframes steam{
    0%{
        transform:scaleY(1.02);
        opacity:0
    }
    50%{
        opacity:.5
    }
    to{
        transform:scaleY(1);
        opacity:0
    }
}
@keyframes head{
    0%,to{
        transform:rotate(0deg)
    }
    50%{
        transform:rotate(0.25deg)
    }
}
@keyframes shapemask{
    0%{
        transform:scaleX(1) scaleY(1) rotate(0deg)
    }
    25%{
        transform:scaleX(1.03) rotate(0deg)
    }
    50%{
        transform:scaleY(1.03) rotate(0deg)
    }
}
@keyframes sleave{
    0%,to{
        transform:rotate(0deg)
    }
    50%{
        transform:rotate(0.25deg)
    }
}
@keyframes arm{
    0%,to{
        transform:translateX(0) rotate(0deg)
    }
    85%{
        transform:translateX(-15px) rotate(0deg)
    }
}
@keyframes armright{
    0%,10%,80%,to{
        transform:rotate(0deg)
    }
    40%,50%{
        transform:rotate(-1deg)
    }
}
@keyframes veraslidein{
    0%{
        transform:translateX(1200px)
    }
    50%{
        transform:translateX(0)
    }
    75%{
        transform:translateX(50px)
    }
    90%{
        transform:translateX(42px)
    }
    to{
        transform:translateX(45px)
    }
}
@keyframes verascalein{
    0%,15%{
        transform:scale(0)
    }
    50%{
        transform:scale(1.1)
    }
    75%{
        transform:scale(.98)
    }
    90%{
        transform:scale(1.01)
    }
    to{
        transform:scale(1)
    }
}
@keyframes veradropin{
    0%{
        transform:translateY(-1200px)
    }
    50%{
        transform:translateY(45px)
    }
    75%{
        transform:translateY(-5px)
    }
    90%{
        transform:translateY(3px)
    }
    to{
        transform:translateY(0)
    }
}
@keyframes flickerAnimation {
  0%   { opacity:1; }
  48%   { opacity:1; }
  50%  { opacity:0; }
  98%  { opacity:0; }
  100% { opacity:1; }
}
@-o-keyframes flickerAnimation{
  0%   { opacity:1; }
  48%   { opacity:1; }
  50%  { opacity:0; }
  98%  { opacity:0; }
  100% { opacity:1; }
}
@-moz-keyframes flickerAnimation{
 0%   { opacity:1; }
  48%   { opacity:1; }
  50%  { opacity:0; }
  98%  { opacity:0; }
  100% { opacity:1; }
}
@-webkit-keyframes flickerAnimation{
  0%   { opacity:1; }
  48%   { opacity:1; }
  50%  { opacity:0; }
  98%  { opacity:0; }
  100% { opacity:1; }
}
@keyframes flickerAnimationB {
  0%   { opacity:0; }
  48%   { opacity:0; }
  50%  { opacity:1; }
  98%  { opacity:1; }
  100% { opacity:0; }
}
@-o-keyframes flickerAnimationB{
  0%   { opacity:0; }
  48%   { opacity:0; }
  50%  { opacity:1; }
  98%  { opacity:1; }
  100% { opacity:0; }
}
@-moz-keyframes flickerAnimationB{
 0%   { opacity:0; }
  48%   { opacity:0; }
  50%  { opacity:1; }
  98%  { opacity:1; }
  100% { opacity:1; }
}
@-webkit-keyframesB flickerAnimationB{
  0%   { opacity:0; }
  48%   { opacity:0; }
  50%  { opacity:1; }
  98%  { opacity:1; }
  100% { opacity:0; }
}
#screenItems{
     -webkit-animation: flickerAnimation 12s infinite;
   -moz-animation: flickerAnimation 12s infinite;
   -o-animation: flickerAnimation 10s infinite;
    animation: flickerAnimation 10s infinite;
  animation-delay: 0s;
}
#head{
  animation-name:head;
    animation-duration:8s;
    transform-origin:bottom right;
        animation-iteration-count: infinite;
}

#dogHead{
  animation-name:head;
    animation-duration:2s;
    transform-origin:bottom right;
        animation-iteration-count: infinite;
}

#tail{
  animation-name:sleave;
    animation-duration:1s;
    transform-origin:bottom left;
        animation-iteration-count: infinite;
}
#pen{
  animation-name:head;
    animation-duration:1s;
    transform-origin:bottom right;
        animation-iteration-count: infinite;
}
#widget{
  animation-name:plantone;
    animation-duration:1.5s;
    
        animation-iteration-count: infinite;
}</style></defs><g id="Layer_2" data-name="Layer 2"><g id="Layer_1-2" data-name="Layer 1"><polygon class="cls-1" points="308.19 232.91 470.31 232.91 492.43 357.19 447.25 366.95 285.03 366.95 308.19 232.91"/><path class="cls-2" d="M439,367H285a4.37,4.37,0,0,1-4.35-5.39L302,238.31a6.62,6.62,0,0,1,6.22-5.39h154a4.37,4.37,0,0,1,4.35,5.39L445.24,361.56A6.62,6.62,0,0,1,439,367Z"/><line class="cls-3" x1="344.91" y1="276.82" x2="440.34" y2="276.82"/><line class="cls-3" x1="339.55" y1="316.11" x2="434.98" y2="316.11"/><g id="screenItems"><polygon class="cls-4" points="432.38 271.82 408.87 271.82 411.99 249.09 435.5 249.09 432.38 271.82"/><polygon class="cls-4" points="427.72 311.3 404.2 311.3 407.32 288.57 430.83 288.57 427.72 311.3"/><polygon class="cls-4" points="422.19 350.2 398.67 350.2 401.79 327.47 425.3 327.47 422.19 350.2"/><polygon class="cls-5" points="347.67 249.09 377.18 249.09 376.54 260.45 346.46 260.45 347.67 249.09"/><polygon class="cls-5" points="341.91 288.57 371.42 288.57 370.78 299.93 340.7 299.93 341.91 288.57"/><polygon class="cls-5" points="334.48 327.76 363.98 327.76 363.35 339.13 333.26 339.13 334.48 327.76"/></g><rect class="cls-6" x="382.94" y="266.42" width="15.39" height="6.36"/><ellipse class="cls-7" cx="321.24" cy="265.81" rx="19.7" ry="16.18" transform="translate(26.12 560.36) rotate(-84.55)"/><rect class="cls-8" y="366.95" width="564.65" height="15.41"/><path class="cls-9" d="M295.42,593.86a82.73,82.73,0,0,0,5.2-11.27,10.36,10.36,0,0,0-10-14.05,53.4,53.4,0,0,0-33.19,13.12c-5.28,4.68-9.63,10.45-15.52,14.34-7.19,4.75-15.16,8.43-10.75,18.14,3,6.57,14.8,11.73,21.67,11.55C269.32,625.24,288,607.05,295.42,593.86Z"/><path class="cls-9" d="M208.38,624.7a13.09,13.09,0,0,0,5.15,2.39c5.88,1.76,11.88,3.53,18,3.36,7.31-.2,14.23-3.12,21-6a29,29,0,0,0,8-4.48c3.61-3.18,5.4-7.92,6.82-12.53,1.76-5.75,2.65-13.15-2.18-16.72-9-6.66-33-8.45-43.23-2.66C213.52,592.81,199.33,616.68,208.38,624.7Z"/><path class="cls-9" d="M345.2,554.24a38.28,38.28,0,0,1-10-.41c-4.15-.9-7.84-3.16-11.61-5.11a85.83,85.83,0,0,0-30.28-9.07c-7.91-.84-16.85-.19-22.35,5.56-4.47,4.68-5.57,11.64-5.53,18.11s1.13,13.1,5.37,17.81c6.92,7.7,19,7,29.23,5.77L339.21,582c9.28-1.15,25.06.11,32.61-6.1,4.38-3.61,22.34-7.33,18.81-12.41C385.32,555.85,353.14,553.89,345.2,554.24Z"/><path class="cls-10" d="M374.69,582.33a130.05,130.05,0,0,0-19.48,10.58c-5.53,3.65-11.29,7.89-17.92,7.86-9.63,0-16.94-9-26.3-11.24-6.1-1.47-12.46,0-18.73.17-21.56.52-21.28-22.35-2.36-27.28,14.09-3.66,31.5.66,46.05.68,14.16,0,28.06-2,42.13-3.16C401.86,557.94,389,576.07,374.69,582.33Z"/><path class="cls-11" d="M288.52,564.32c-12.67,17.41-27.52,35.84-48.62,40.15-9.18,1.88-20.85-.65-23.85-9.54-3.63-10.78,7.82-20.32,11.34-31.14,3-9.32-.17-19.73-5.79-27.75s-13.43-14.2-20.83-20.62a309.89,309.89,0,0,1-41.85-44.22c-5.61-7.24-10.95-17.62-5.35-24.88,2.41-3.12,6.29-4.67,10-6.08,34.95-13.34,70.43-26.81,107.67-30.45,20.75-2,40.83-2.86,61.3-7.24,14.3-3.06,31.91-5.53,41,9.11,9.26,14.93-3.14,30.44-10.93,42.93q-16.71,26.78-34.34,53Q308.91,536.29,288.52,564.32Z"/><path class="cls-12" d="M327.62,485.81c0,11.07-50.36,20.05-112.47,20.05s-112.47-9-112.47-20.05l-6.37-15.47H321.24"/><ellipse class="cls-13" cx="208.78" cy="470.34" rx="112.47" ry="20.06"/><path class="cls-14" d="M147.67,483.62c42,11.16,88,15.15,128-1.78,13.86-5.86,26.66-14.09,40.76-19.36,7.55-2.82,15.43-4.78,22.75-8.15,10.88-5,20.1-12.94,29.16-20.76,5.75-5,11.59-10,15.42-16.59s5.33-15,2-21.74c-5.32-10.74-19.48-12.92-31.46-13.24-49.3-1.31-98.35,5.77-146.64,15.1-27.3,5.27-85.38,6.76-90,43.25C114.58,463.82,125.45,477.71,147.67,483.62Z"/><g id="head"><rect class="cls-15" x="179.76" y="154.77" width="25.14" height="59.65"/><path class="cls-16" d="M224.59,83.47c4.41.69,13.92,2.73,17.34,9.25,2.32,4.43.8,9,0,11.55-8.42,26.38-2.53,26.37-13,50.07s-13.65,26.71-15.6,27.16c-8.42,1.92-10.8-.49-10.8-.49-1.49-.95-4-1.86-4.81-1.63-2.76.77,6.83,18.89,2.06,25.55-7.31,10.23-47.75-1.74-47.76-1.74L144.73,202s10.33-30.84,7.91-63.1c-1.34-17.78-1.7-23.26,2.6-32.35,6.07-12.84,18.45-19.2,21.67-20.8C198.51,75,221,82.26,224.59,83.47Z"/><path class="cls-15" d="M228.63,143.81c-1.87-.87-5.85,2.53-7.8,5.14-2.59,3.47-4.18,9-1.73,10.78,1.55,1.13,4.16.32,4.33.26C230,157.85,231.63,145.21,228.63,143.81Z"/><path class="cls-17" d="M216.5,124.05c-.57-.58-6.78,4-9.83,9.69-.06.12-.28.54-.56,1.14-1.5,3.27-2.93,8.42-1.46,9.44.77.54,2.26-.11,3.18-.88,2.29-1.92,1.5-5,2.31-8.81C211.6,127.75,217,124.57,216.5,124.05Z"/><path class="cls-18" d="M205.55,122.78c.91,7.2-3.28,14.35-9.3,19.24s-13.65,7.87-21.29,10.4c-6.72,2.22-15,4-20.48-.08-8.12-5.94-2.84-17.48-4.15-26.75-.86-6.11-4.89-11.63-5.48-17.77-3.19-33,59.05-40.35,83.73-30.55C265.82,92.07,240.75,127.83,205.55,122.78Z"/><path class="cls-19" d="M185.54,68.13c3.6,1.54,6.64,4,10.36,5.31s8.76.86,10.65-2.27a23.48,23.48,0,0,0,1.28-3.3c3.1-7.34,14.81-6.92,23.4-5.14-1.64,2.54,1.41,5.34,3.7,7.45,5.48,5,7.78,12.09,9.9,18.84-4.05,1.17-6.78,5.18-6.06,8.9.39,2.08,1.71,4,1.95,6.06.83,7-9.44,10.38-17.37,10.7-18.81.74-49.11-2.33-61.73-16.89C149.3,83.57,164.28,59.05,185.54,68.13Z"/></g><path class="cls-20" d="M64.22,361.28C50,381.84,45.49,413,56.47,420.41s35.24-11.2,41.27-15.85c28.65-22.13,52.4-62.44,42.06-74.39C129.7,318.49,84.87,331.34,64.22,361.28Z"/><path class="cls-21" d="M96.29,233.69c-4.31-.92-14.43,20.44-34.66,63.16-6.87,14.49-28,59.85-25.42,95.52.49,6.92,2.07,16.37,9.24,22.34,5.54,4.62,14.49,7.22,18.49,3.86,3.28-2.77.9-7.63,2.31-17.72.25-1.79,1-6.42,6.16-18.49a242.21,242.21,0,0,1,15.41-30C105.78,323.48,109.33,236.44,96.29,233.69Z"/><path class="cls-22" d="M195.83,199.16a47.94,47.94,0,0,1,36.88,28.43c37.31,85.94,44,147.93,44.88,181.73.36,13.32,0,30.86-11.55,43.91-25.89,29.15-94.17,20.33-136.35-12.33-41-31.73-48.84-79.4-51.61-96.29C74,319.54,64.3,260.79,105,223.67,128.45,202.34,161.9,194.18,195.83,199.16Z"/><path class="cls-23" d="M149.44,185.93c13.48-5.45,33.08-6.31,45.45,3.08,4.1,3.1,4.55,5.17,12.33,11.55,10.49,8.6,15.32,9.49,19.26,13.1,11.37,10.43,8.38,37.35-.77,54.69-15.34,29.08-52.31,39.46-80.12,36.21-5.91-.7-43.68-5.11-53.92-32.36-6.26-16.64,1.09-32.94,1.54-33.89,3.67-7.82,7.54-9.47,23.88-23.88C142.58,191.94,140.31,189.62,149.44,185.93Z"/><g id="_Group_ManArm_"><path class="cls-24" d="M405.68,348.48l0,0c.47-.3,12.4-7.87,16.93-16.43,4.33-8.17,15.86-27.59,17.31-30a.41.41,0,0,0,0-.49l-3.34-3.79a.42.42,0,0,0-.62,0l-6.23,6.61a.43.43,0,0,1-.69-.48l6.6-13.41a.43.43,0,0,0,0-.45l-3.66-4.63a.41.41,0,0,1-.05-.09l-1.18-2.59a.45.45,0,0,0-.28-.24l-4.7-1.17a.41.41,0,0,0-.41.12l-13.18,13.69,10.78-13.87L433.7,266a3.87,3.87,0,0,0-.52-4.62c-2.05-2.06-39,38.51-39,38.51s-4.88,2.32-2.31-3.08a38.55,38.55,0,0,0,3.07-11.7.31.31,0,0,0,0-.21c-.34-.67-2.35-4.45-3.78-3.75s-4.13,3.59-4.13,4.88-3.34,10.53-8.73,16.95-1.54,26.44-1.54,26.44S381.31,360,405.68,348.48Z"/><path class="cls-23" d="M227.25,215.2c-10.11,4,5.18,64,6.93,70.87,17.94,70.4,50.56,124.91,70.87,127.1,9.95,1.08,19.3-2.86,30.81-7.7,7.06-3,9.63-5,44.68-30,11.07-7.92,27-19.26,27-19.26a19.4,19.4,0,0,0,0-10c-4.54-16-23-28.06-33.89-24.65a56.82,56.82,0,0,0-5.39,2.31s5.25-2.56,5.39-2.31c.39.72-36.21,21.57-36.21,21.57h0s-14-13.37-20.79-20.8c-11.16-12.23-11.07-17.56-23.11-37-11.79-19-25.58-33-53.16-60.86C233.3,217.31,229.88,214.16,227.25,215.2Z"/></g><path class="cls-6" d="M103.22,471.72c-48.73-26.75-60-82.16-70.87-135.58-1.38-6.8-2.9-15.73,0-26.19,8.47-30.51,47.44-48.43,78.58-50.84,30.18-2.34,53.17,9.89,69.33,18.48,19.15,10.19,37.42,19.91,47.76,40.06,3,5.77,8.3,18.31-1.54,86.28-5.74,39.61-8.77,59.59-16.95,67.79C185.61,495.7,135.23,489.29,103.22,471.72Zm98.56-13.12c7.26-7.28,9.95-25,15-60.18,8.74-60.34,4-71.47,1.37-76.59-9.18-17.89-25.4-26.52-42.4-35.56-14.34-7.63-34.75-18.48-61.54-16.41C86.6,272,52,287.91,44.49,315c-2.57,9.29-1.22,17.22,0,23.25,9.65,47.42,19.65,96.61,62.92,120.36C135.82,474.19,180.54,479.89,201.78,458.6Z"/><line class="cls-25" x1="84.74" y1="269.6" x2="131.42" y2="472.51"/><line class="cls-25" x1="117.09" y1="262.96" x2="160.23" y2="477.88"/><line class="cls-25" x1="152.53" y1="269.6" x2="191.81" y2="472.51"/><path class="cls-12" d="M125.47,493.37,94.89,651.85s-14.57,6.45-11.77,0,35.11-166,35.11-166Z"/><path class="cls-12" d="M247.36,504.16l30.58,174.45s14.57,7.09,11.77,0S254.6,495.83,254.6,495.83Z"/><path class="cls-12" d="M314.84,495.59l49.7,142.48s13.22,4,9.89-1.62-54.65-148.86-54.65-148.86Z"/><path class="cls-12" d="M177,501.3,154.83,616s-10.55,4.66-8.52,0,25.41-120.18,25.41-120.18Z"/><path class="cls-10" d="M501.81,368.45h30c.42-3.07.85-5.84,1.18-8.64.74-6.41,1.49-12.82,2.13-19.24.42-4.18.59-8.4,1-12.58.53-5.29,1.2-10.56,1.78-15.85.44-3.95.82-7.91,1.24-11.87.18-1.69.88-2.67,2.62-2.08l-.31-5.68h-38q-5.44-23.62-10.89-47.27L489,246.58l10.8,45.82h-7.49l-.39,5.87s.12.12.2.12c2.27.1,2.35.08,2.65,2.68.47,4.11.77,8.24,1.23,12.35.69,6.3,1.49,12.59,2.16,18.9.39,3.64.52,7.31.91,10.95C499.91,351.61,500.87,359.94,501.81,368.45Zm21.26-46.7c.9-1,1.77-2.13,2.72-3.11.43-.44,1.13-1,1.53-.89,2.38.86,4.7,1.91,7.15,2.95l-.74,2.58-6.23-.36-.39-3.83h-.23V323h-3.77v-1.23l-.77.59-1.49-2.89c1.07-1.23,2.26-2.14,3.82-.85l-1.6-1.77c-1.21,1-2.28,2-3.42,2.94-2.07,1.64-3.13,1.47-4.72-.68-.3-.4-.55-.85-.82-1.29-1.11-1.8-1.33-1.86-3.07-1-.66.31-1.34.56-2.13.89l-3.78-18.88c.3,0,.53-.05.75-.05,8.59-.09,17.17-.16,25.75-.26q2.55,0,5.1-.18c1.93-.12,2.16.13,1.93,2.41-.53,5.18-1,10.36-1.6,15.54-.25,2.38-.54,4.75-.81,7.06h-1.9a4.27,4.27,0,0,1,.21-1.21c.9-1.5.16-1.9-.95-2.32a52.55,52.55,0,0,1-5.53-2.37c-1.1-.56-1.79-.18-2.54.67a2.71,2.71,0,0,1-.91.47,16.08,16.08,0,0,1-.62,1.6C523.74,320.69,523.39,321.21,523.07,321.75ZM541,293.12l.29,4.39a14.12,14.12,0,0,1-1.42.15l-31.39.38c-1.18,0-2.73.5-3.44-.19s-.81-2.63-1.15-4a3.64,3.64,0,0,1,0-.71Zm-46.09,5.38h6.3c1.49,6.86,3,13.66,4.5,20.72-1.26-.64-2.35-1.14-3.39-1.76a1.08,1.08,0,0,0-1.75.52c-.65,1.23-1.27,2.48-1.93,3.71a12.66,12.66,0,0,1-.82,1.24l-.34-.15C496.61,314.73,495.76,306.68,494.89,298.5Zm-2.29-5.39c2.28,0,4.42,0,6.57,0,.32,0,.79.52.9.91.34,1.2.55,2.46.8,3.67H492.6Zm5.85,29.7c1-1.71,1.76-3.12,2.6-4.48.15-.25.62-.48.83-.38a14.29,14.29,0,0,1,3.71,2c.6.53.66,1.9.94,2.82-3.11,1.5-3.67-1.31-4.7-3.48l1.09,3.52Zm10.62-4.61a27.87,27.87,0,0,1,2.81-1.22,1.28,1.28,0,0,1,1.22.25c.95,1.23,1.8,2.58,2.72,3.94-1.62.26-3.18.28-4.08,2.06-1.22.32-1.68-.49-1.9-1.77C509.65,320.42,509.36,319.4,509.07,318.2Zm13,4.84h-9.53c.23-.22.38-.49.58-.55,2.36-.72,4.73-1.43,7.1-2.08a1,1,0,0,1,.87.38A22.5,22.5,0,0,1,522.06,323Zm1.75,6.52-1-4.82.37-.1a5.53,5.53,0,0,1,.28,1.17,5.79,5.79,0,0,0,3.57,5.67c2.39,1.2,2.4,1.36,4.41-.65.29-.29.6-.56,1.09-1l-3.81-1.87.1-.27,4.07,1.69.79-4.28c.47,3.88-1.4,5.87-3.48,7.69a1.16,1.16,0,0,1-1.13.05,33.05,33.05,0,0,1-4-2.12,2.09,2.09,0,0,0-2.67.12c-1,.67-2,1.16-3,1.74l-.14-.33Zm-16.71-1-.19.46a5.15,5.15,0,0,0-1.16-.72,1.32,1.32,0,0,0-1.16.07c-1,1-1.93,2.1-3,3.34l3.91,2,2.93-3.89a19.56,19.56,0,0,1-2.18,3.71c-.19.26-.59.62-.76.54-1.51-.72-3.45-1.09-4.39-2.42-1.33-1.91-1.93-4.54-2.85-6.87l.34-.17,2.67,7c1.29-1.64,3-2.49,3.24-4.58Zm15.34.92a32.48,32.48,0,0,1-4.05-.63,11.16,11.16,0,0,1-2.42-1.42l.23-.58C517.78,329.61,520.5,328,522.44,329.49Z"/><path class="cls-26" d="M523.61,327.08a4.8,4.8,0,0,0,1.2,2,7.37,7.37,0,0,0,1.92,1.11,20.22,20.22,0,0,0,5.46,1.91l1.4-4.09a2.69,2.69,0,0,0,.2-1.71c-.21-.64-.9-1.18-.88-1.85s.82-1.29.88-2c.08-1-1.14-1.61-2.22-2.07-2.32-1-6.35-3.49-8.68-1.21C521.15,320.9,522.93,325.24,523.61,327.08Z"/><path class="cls-26" d="M525.83,318.66a3.17,3.17,0,0,0-.31,2.43l.62,4.28a4.8,4.8,0,0,1,0,2.2,1.63,1.63,0,0,1-1.67,1.18c-.65-.67-.37-1.75-.43-2.68-.08-1.33-.92-2.5-1.12-3.82a1.1,1.1,0,0,1,.12-.8C523.66,320.56,524.72,318.92,525.83,318.66Z"/><path class="cls-26" d="M508.47,329a3.13,3.13,0,0,1,.52,1.79c-.13,1.54-4,5.31-6.72,4.38-1.88-.63-1.37-5-1.85-6.43-1.18-3.49-3.54-7.61,1.64-10.3,2.05,1.27,1.36,3.57,2.23,5.29C505.25,325.65,507.39,327.15,508.47,329Z"/><path class="cls-26" d="M504.26,326.2a6.78,6.78,0,0,0,1.35,2.33,2.58,2.58,0,0,0,2.47.77,16.07,16.07,0,0,1-1.32-4.48,12.56,12.56,0,0,0-1.47-4.41c-1-1.53-3-3.3-3.07-.67C502.17,321.7,503.54,324.4,504.26,326.2Z"/><path class="cls-26" d="M512.33,328.17l4.66,3.45a7.39,7.39,0,0,0,2.56,1.4,2.41,2.41,0,0,0,2.6-.91,4.22,4.22,0,0,0,.36-2.6l-.34-4.79a4.75,4.75,0,0,0-.4-1.92,3.34,3.34,0,0,0-1.85-1.47,9.19,9.19,0,0,0-8.1,1.16C508.51,324.72,509.57,326.13,512.33,328.17Z"/><path class="cls-26" d="M509.76,317.33c.66,0,.93-.78,1.49-1.08,1-.5,2,.44,2.58,1.31s1.26,1.94,2.35,1.8c.56.35.19,1.2-.43,1.46a13.16,13.16,0,0,1-2,.32,2.6,2.6,0,0,0-2.11,2.41,2.52,2.52,0,0,1-1.33-2.37,5.32,5.32,0,0,0-.48-2.74"/><path class="cls-26" d="M523.42,317.88c-.56-.19-1,.42-1.43.88a3.84,3.84,0,0,1-2.16,1.23,1.7,1.7,0,0,0,1.84,1.24,3.39,3.39,0,0,0,2.08-1.16,1.17,1.17,0,0,0,.41-.84.64.64,0,0,0-.71-.53"/><path class="cls-26" d="M502.82,332.29a.9.9,0,0,0,.95-.56c.18-.36.23-.77.4-1.13a2,2,0,0,1,3-.56,4.58,4.58,0,0,1-2,5.1,1.22,1.22,0,0,1-.58.2,1.45,1.45,0,0,1-.6-.19L501.71,334c-.35-.18-.77-.56-.54-.89a.65.65,0,0,1,.28-.2c1.13-.48,2.69-.36,3.28-1.44"/><path class="cls-26" d="M514.3,328a10.09,10.09,0,0,0,2.79.94l4.46,1c-.13.93-1.24,1.29-2,1.77-1.74,1-2.82,3.29-4.82,3.41a11.22,11.22,0,0,0-.73-2.48c-.38-1-2.36-4.51-2-5.5C512.45,325.74,513.39,327.47,514.3,328Z"/><path class="cls-26" d="M525.65,330.22a4.54,4.54,0,0,1,1.15-2,2.08,2.08,0,0,1,2.11-.49c.44.17.78.53,1.22.69s1.11.1,1.63.3.9,1,.44,1.28a4.55,4.55,0,0,0-1.89,2.57.79.79,0,0,1-.22.4.63.63,0,0,1-.54,0,6.55,6.55,0,0,1-4-2.89"/><path class="cls-13" d="M540.18,700.86c12.32,16.63-37.32,6.09-37-7.42C511.17,685.81,530.94,696.59,540.18,700.86Z"/><path class="cls-13" d="M468.37,687.47c1.51-11.94-31.46-25.27-5.13-35.73,6.41,2.24,8.17-6.51,14.41-3.74,12,5.11,31.89-5.23,40.1,9.25-.09,27.14,8.44,7.83-3.48,39.52C521,724.71,472.63,697.59,468.37,687.47Z"/><path class="cls-12" d="M501.2,701.85c-9.79-3.07-27-4.73-28.87-16.85-2.1-9.31-14-13.26-17.52-22.12-8.93-13.27-23.25-22.94-27.7-39.82-47.28-25-68.21,11.11-101.9,35.22a15.87,15.87,0,0,0,6.61,5.36c-4.64,3.72.12,13.19-6.56,16.62.12,4.36,10.91,2.9,1.35,8.86,32.37,7.39,66,7.84,99.79,10.88C436.74,710.87,557.28,722.77,501.2,701.85Z"/><path id="tail" class="cls-6" d="M331,629.24c12.06-11.86-10.35-31,17.4-28.71,8.2-34.18,58.32-.83,81.89.43-12.17,8.12-13.81,17.65-9.4,23.23-4.58,12.94-22.79,2.56-15.7,16.71-17.46,5-31-21.66-7.88-19.76-5.48,4-33.32-3.64-24.5,2.27-9.78-6.1-5.57,16.69-14.92,12.93C370.73,667,326.31,660.5,331,629.24Z"/><g id="dogHead"><path class="cls-6" d="M441.51,659.5c-1.63-6.61-12.7-.71-5.47-10-11.43,2.41.25-9.12-11.64-6.27a16.37,16.37,0,0,1,5.69-8c-12.16-.06-3-8.26-9.34-13.68a8.51,8.51,0,0,0,9.24-6.25c-25.21-2.44,11.75-1.61,8.12-28.26,14.05,15.73,43.14,12.76,57.36-1.2.07,17.1,9.82,22.36,15.18,34.48-3.35.29,2.24,17.94,6.79,15.61-.66,7.68-3.53,11.56.28,19-9.26,2.69-11.5,7.78-21.39.92-10.51,5.81,0,30.55-19.3,13.07-.3,5.71-7.45-.69-9-3.32C457,682.8,460.55,649,441.51,659.5Z"/><path class="cls-13" d="M465,635c7,1,11.57-11.51,4.44-15.24C457.57,612.75,453.61,632.08,465,635Z"/><path class="cls-27" d="M464.79,619.3c-1.08-.91-2.48.09-3.26,1-2.29,5.09,11.1.74,3.93-1"/><path class="cls-27" d="M451,616.87c-7.28,5.74,5.55,3.12.72,0"/><path class="cls-27" d="M481.39,617.59c0-8.35-9.14,1.13.74.45"/><path class="cls-13" d="M494.63,587.91c-2.79,7.23-10.73,19,2.83,18"/><path class="cls-13" d="M439.66,591.43c5.22,7,9.94,12.45,0,17.24"/></g><g id="widget"><path class="cls-28" d="M470.46,176H449.87l-.63,15.14a6.84,6.84,0,0,1-10.8,5.3L409.62,176H295.25a13.31,13.31,0,0,1-13.31-13.31V59.49a13.31,13.31,0,0,1,13.31-13.31H470.46a13.31,13.31,0,0,1,13.31,13.31V162.72A13.31,13.31,0,0,1,470.46,176Z"/><rect class="cls-29" x="301.31" y="65.5" width="35.95" height="35.95" rx="1.37"/><rect class="cls-29" x="301.48" y="122.44" width="35.95" height="35.95" rx="1.37"/><rect class="cls-29" x="355.63" y="63.76" width="108.88" height="35.95" rx="1.37"/><rect class="cls-29" x="353.25" y="122.31" width="108.88" height="35.95" rx="1.37"/><line class="cls-29" x1="303.7" y1="65.5" x2="337.26" y2="99.06"/><line class="cls-29" x1="303.7" y1="101.45" x2="334.88" y2="65.5"/><line class="cls-29" x1="355.63" y1="66.15" x2="462.13" y2="99.71"/><line class="cls-29" x1="462.13" y1="63.76" x2="358.01" y2="99.71"/><line class="cls-29" x1="301.48" y1="124.82" x2="337.43" y2="156"/><line class="cls-29" x1="335.05" y1="122.44" x2="303.87" y2="158.38"/><line class="cls-29" x1="353.25" y1="124.69" x2="462.13" y2="155.88"/><line class="cls-29" x1="353.25" y1="155.88" x2="462.13" y2="124.69"/></g><path id="pen" class="cls-6" d="M237.83,2.84l56.22,50.33,4.71,8.47L289,59.85l-55-48.28S221.07-6.91,237.83,2.84Z"/></g></g></svg>